<svg width="15" height="10" viewBox="0 0 15 10" fill="none" xmlns="http://www.w3.org/2000/svg">
<path d="M9.325 0.185646C9.20134 0.3093 9.13145 0.476745 9.13052 0.651618C9.12958 0.826492 9.19767 0.994675 9.31999 1.11965L12.407 4.21165H0.654995C0.479952 4.21165 0.312079 4.28118 0.188305 4.40496C0.0645309 4.52873 -0.00500488 4.6966 -0.00500488 4.87165C-0.00500488 5.04669 0.0645309 5.21456 0.188305 5.33834C0.312079 5.46211 0.479952 5.53165 0.654995 5.53165H12.4L9.31299 8.62364C9.19163 8.74911 9.12419 8.9171 9.12513 9.09166C9.12606 9.26623 9.19529 9.43348 9.318 9.55764C9.44186 9.68015 9.60932 9.74845 9.78353 9.74751C9.95774 9.74657 10.1245 9.67648 10.247 9.55265L14.431 5.33765C14.4881 5.27654 14.5344 5.20621 14.568 5.12965C14.6024 5.04943 14.6198 4.96293 14.619 4.87565C14.619 4.70302 14.5515 4.53725 14.431 4.41365L10.247 0.198646C10.1877 0.136654 10.1166 0.0870846 10.0379 0.0528244C9.95923 0.0185643 9.87452 0.000297569 9.78872 -0.000912255C9.70291 -0.00212208 9.61773 0.0137494 9.53811 0.0457777C9.4585 0.0778061 9.38606 0.125351 9.325 0.185646Z" fill="white"/>
</svg>
