<svg width="512" height="512" viewBox="0 0 512 512" fill="none" xmlns="http://www.w3.org/2000/svg">
<g clip-path="url(#clip0_676_8154)">
<path d="M511.005 360.933C508.97 356.818 504.169 355.095 500.276 353.302C495.982 351.326 491.622 349.514 487.236 347.754C482.874 346.003 478.009 344.793 473.89 342.525C469.426 340.068 470.037 335.189 469.803 330.701C469.51 325.09 469.217 319.479 468.925 313.868C468.339 302.645 467.754 291.423 467.168 280.201C466.686 270.967 467.487 259.999 464.267 251.2C461.037 242.374 453.009 239.518 444.271 239.048C433.202 238.453 422.079 238.315 410.999 237.976C393.273 237.433 375.55 237.109 357.826 236.986C359.637 229.519 359.56 221.46 360.042 213.933C361.461 191.792 362.716 169.623 362.738 147.43C362.76 125.242 361.238 103.254 358.107 81.2919C356.838 72.3929 355.315 62.8289 349.498 55.6159C343.846 48.6079 335.579 45.3669 326.942 43.7579C306.168 39.8869 284.405 39.0239 263.322 38.5459C241.727 38.0559 220.037 38.5989 198.498 40.2469C188.974 40.9759 179.459 41.8329 169.951 42.7899C144.879 43.9189 119.828 45.4739 94.7931 47.4469C83.7421 48.3179 72.6391 48.9879 61.6111 50.1139C52.9061 51.0029 45.0241 54.2409 42.2211 63.2119C39.4271 72.1549 40.7531 83.0719 40.7151 92.3189C40.6681 103.557 40.6221 114.794 40.5751 126.032C40.5521 131.651 40.5281 137.27 40.5051 142.888C40.4861 147.382 41.3301 152.226 36.9901 154.894C32.9841 157.356 28.1831 158.799 23.9091 160.757C19.6131 162.725 15.3451 164.744 11.1511 166.924C7.34908 168.901 2.63608 170.853 0.801079 175.061C-0.934921 179.04 0.320079 183.207 2.93908 186.42C6.33508 190.588 11.5521 193.523 15.8341 196.705C20.0421 199.832 24.2501 202.958 28.4571 206.085C32.6991 209.237 37.3471 212.18 41.1811 215.834C44.6531 219.143 44.8681 222.413 44.4641 227.015C43.7521 235.144 43.0761 243.273 44.5511 251.362C46.0191 259.404 49.3791 267.412 55.9151 272.651C62.8431 278.204 71.6241 280.168 80.2881 280.892C101.918 282.699 123.678 281.546 145.324 280.718C146.883 280.658 148.442 280.596 150.002 280.534C149.86 281.838 149.732 283.137 149.612 284.421C147.539 306.508 147.073 328.544 148.16 350.705C149.247 372.872 151.564 394.955 154.044 417.002C155.127 426.636 155.273 437.211 159.702 446.047C163.583 453.79 171.002 458.533 178.975 461.269C187.949 464.349 197.792 465.258 207.137 466.557C217.816 468.041 228.536 469.225 239.276 470.169C261.104 472.087 283.01 473.004 304.915 473.388C327.181 473.779 349.452 473.622 371.718 473.405C393.38 473.194 415.17 473.302 436.688 470.459C445.307 469.32 453.983 466.937 460.637 461.058C466.915 455.511 469.887 447.352 470.967 439.248C472.052 431.097 470.988 423.01 469.886 414.925C469.262 410.348 469.32 407.072 472.629 403.6C476.283 399.766 480.784 396.604 484.87 393.252C488.923 389.927 492.976 386.602 497.029 383.278C501.154 379.894 506.223 376.712 509.416 372.387C511.876 369.046 512.93 364.824 511.005 360.933ZM152.549 267.295C140.685 267.752 128.819 268.148 116.955 268.383C106.466 268.592 95.9461 268.608 85.4731 267.917C78.0451 267.427 69.5351 266.751 63.7261 261.572C58.3601 256.788 57.1721 249.448 56.9471 242.601C56.6791 234.471 59.4361 225.642 57.4671 217.7C55.3111 209.01 47.7881 204.19 40.9231 199.339C32.3441 193.276 23.6821 187.314 15.1831 181.141C14.3851 180.562 13.6671 179.94 12.9351 179.317C12.9481 179.315 12.9551 179.314 12.9681 179.311C14.6081 179.047 17.0661 176.982 18.4861 176.214C22.5631 174.009 26.7051 171.983 30.9791 170.189C38.4321 167.062 47.4431 164.722 50.9161 156.575C52.5871 152.655 52.4881 148.282 52.5821 144.104C52.6941 139.141 52.7921 134.178 52.8971 129.215C53.1131 118.958 53.3311 108.701 53.5471 98.4439C53.6981 91.3019 50.3781 70.5399 55.8931 65.3469C57.9561 63.4059 60.9801 62.9979 63.7921 62.6849C107.813 57.7999 151.908 53.1319 196.112 50.3319C204.217 49.8919 212.328 49.5439 220.446 49.3129C240.764 48.7349 261.119 48.9479 281.402 50.3219C291.518 51.0069 301.616 52.0179 311.67 53.3299C319.801 54.3909 328.917 55.0079 336.119 59.3109C343.941 63.9849 345.727 73.6919 347.123 81.9859C348.818 92.0649 349.736 102.303 350.382 112.499C351.698 133.301 351.404 154.171 350.407 174.98C349.893 185.705 349.196 196.42 348.424 207.128C347.764 216.278 348.123 226.436 345.483 235.289C345.311 235.867 345.104 236.411 344.883 236.941C341.824 236.937 338.764 236.92 335.705 236.93C326.163 236.43 316.617 236.031 307.069 235.76C285.476 235.148 263.785 235.645 242.238 237.171C221.202 238.661 199.505 240.567 178.941 245.43C170.392 247.452 162.289 251.086 156.98 258.357C154.981 261.095 153.575 264.121 152.549 267.295ZM496.931 367.698C488.737 374.272 480.372 380.643 472.094 387.11C465.47 392.285 458.186 397.46 456.45 406.244C454.864 414.271 458.041 422.959 458.164 431.092C458.267 437.941 457.433 445.33 452.303 450.366C446.749 455.818 438.281 456.902 430.885 457.747C420.458 458.939 409.949 459.428 399.462 459.722C379.16 460.293 358.828 460.422 338.518 460.524C297.331 460.73 256.031 459.909 215.104 454.911C205.657 453.757 195.992 452.764 186.743 450.447C179.284 448.579 172.322 445.349 169.61 437.63C166.548 428.914 166.42 418.75 165.321 409.643C164.035 398.984 162.825 388.314 161.798 377.627C159.804 356.89 158.508 336.058 158.825 315.217C158.98 305.002 159.406 294.732 160.616 284.584C161.612 276.232 162.931 266.451 170.519 261.407C177.506 256.763 186.582 255.709 194.653 254.259C204.632 252.466 214.671 250.972 224.742 249.802C244.935 247.456 265.257 246.267 285.579 245.87C293.699 245.711 301.817 245.669 309.934 245.72C354.222 246.396 398.49 248.943 442.695 251.71C445.519 251.887 448.56 252.15 450.713 253.989C456.471 258.911 454.151 279.809 454.644 286.935C455.352 297.17 456.061 307.405 456.769 317.639C457.112 322.591 457.448 327.544 457.798 332.496C458.093 336.665 458.204 341.038 460.061 344.873C463.921 352.844 473.034 354.749 480.628 357.515C484.983 359.101 489.217 360.927 493.396 362.934C494.851 363.633 497.405 365.577 499.056 365.762C499.069 365.764 499.077 365.765 499.09 365.766C498.387 366.425 497.701 367.081 496.931 367.698Z" fill="#EEAC06"/>
<path d="M415.755 290.657C399.417 290.459 383.161 289.839 366.842 289.104C350.573 288.371 334.201 288.653 317.915 288.468C301.937 288.286 285.957 288.343 269.979 288.333C261.99 288.328 253.992 288.243 246.007 288.524C237.382 288.827 228.642 289.8 220.023 289.681C217.759 289.65 217.702 293.162 219.97 293.2C228.257 293.339 236.632 294.519 244.909 295.081C252.883 295.623 260.875 295.802 268.863 296.041C285.167 296.528 301.471 297.085 317.779 297.397C333.739 297.702 349.741 298.372 365.703 298.274C382.368 298.172 398.97 297.885 415.639 298.191C420.487 298.279 420.61 290.715 415.755 290.657Z" fill="#EEAC06"/>
<path d="M415.193 327.61C398.855 327.412 382.599 326.792 366.28 326.057C350.011 325.324 333.638 325.606 317.353 325.421C301.375 325.239 285.396 325.296 269.417 325.285C261.428 325.28 253.431 325.195 245.445 325.476C236.82 325.779 228.081 326.751 219.462 326.633C217.197 326.602 217.14 330.114 219.408 330.152C227.695 330.291 236.069 331.471 244.347 332.033C252.32 332.575 260.314 332.754 268.301 332.993C284.605 333.48 300.907 334.037 317.216 334.349C333.177 334.654 349.18 335.324 365.142 335.226C381.807 335.124 398.407 334.837 415.077 335.143C419.923 335.232 420.048 327.669 415.193 327.61Z" fill="#EEAC06"/>
<path d="M414.626 364.563C398.289 364.365 382.032 363.745 365.713 363.009C349.444 362.276 333.072 362.558 316.786 362.373C300.808 362.191 284.829 362.248 268.85 362.237C260.861 362.232 252.863 362.147 244.878 362.428C236.253 362.731 227.513 363.703 218.894 363.585C216.63 363.554 216.573 367.066 218.841 367.104C227.128 367.243 235.503 368.423 243.78 368.985C251.754 369.527 259.747 369.706 267.734 369.945C284.038 370.432 300.342 370.989 316.65 371.301C332.61 371.606 348.612 372.276 364.574 372.178C381.239 372.076 397.841 371.788 414.51 372.095C419.358 372.185 419.482 364.622 414.626 364.563Z" fill="#EEAC06"/>
<path d="M414.063 401.516C397.725 401.318 381.469 400.698 365.15 399.963C348.881 399.23 332.509 399.512 316.223 399.327C300.245 399.145 284.266 399.202 268.287 399.191C260.298 399.186 252.301 399.102 244.316 399.382C235.691 399.685 226.951 400.657 218.332 400.539C216.068 400.508 216.01 404.02 218.279 404.058C226.565 404.197 234.941 405.376 243.218 405.939C251.192 406.481 259.184 406.66 267.172 406.899C283.476 407.386 299.779 407.943 316.088 408.255C332.049 408.56 348.051 409.23 364.012 409.132C380.678 409.03 397.279 408.743 413.949 409.049C418.794 409.138 418.918 401.575 414.063 401.516Z" fill="#EEAC06"/>
<path d="M288.029 89.9279C279.425 90.4589 270.649 89.9069 262.019 90.0189C254.03 90.1219 246.045 90.5899 238.066 90.9779C222.106 91.7549 206.142 92.4649 190.192 93.4129C173.934 94.3789 157.567 94.8829 141.352 96.3949C125.088 97.9129 108.88 99.3119 92.5704 100.293C87.7234 100.585 88.2094 108.133 93.0464 107.812C109.682 106.706 126.278 106.197 142.929 105.499C158.877 104.831 174.829 103.394 190.756 102.324C207.031 101.23 223.288 99.8919 239.55 98.6229C247.517 98.0019 255.492 97.4389 263.431 96.5149C271.672 95.5559 279.981 93.9759 288.251 93.4399C290.515 93.2929 290.289 89.7879 288.029 89.9279Z" fill="#EEAC06"/>
<path d="M290.365 126.811C281.762 127.343 272.985 126.791 264.355 126.902C256.366 127.005 248.381 127.473 240.402 127.861C224.442 128.638 208.478 129.348 192.528 130.296C176.27 131.262 159.903 131.766 143.688 133.278C127.423 134.796 111.215 136.195 94.9064 137.176C90.0594 137.468 90.5453 145.016 95.3823 144.695C112.019 143.59 128.615 143.08 145.266 142.383C161.214 141.715 177.166 140.278 193.093 139.207C209.368 138.113 225.625 136.775 241.887 135.506C249.854 134.885 257.829 134.322 265.768 133.398C274.009 132.439 282.317 130.859 290.588 130.323C292.852 130.176 292.626 126.671 290.365 126.811Z" fill="#EEAC06"/>
<path d="M292.702 163.695C284.098 164.226 275.322 163.675 266.692 163.786C258.703 163.889 250.718 164.357 242.739 164.745C226.779 165.522 210.815 166.232 194.865 167.18C178.607 168.146 162.24 168.65 146.025 170.163C129.761 171.681 113.552 173.08 97.2427 174.061C92.3947 174.353 92.8817 181.901 97.7187 181.58C114.354 180.473 130.951 179.964 147.602 179.267C163.55 178.599 179.502 177.162 195.429 176.091C211.704 174.997 227.961 173.659 244.223 172.39C252.19 171.769 260.165 171.206 268.104 170.282C276.345 169.323 284.654 167.743 292.924 167.207C295.187 167.06 294.962 163.555 292.702 163.695Z" fill="#EEAC06"/>
<path d="M295.038 200.578C286.435 201.109 277.658 200.558 269.028 200.669C261.039 200.772 253.054 201.24 245.075 201.628C229.115 202.405 213.151 203.115 197.201 204.063C180.943 205.029 164.576 205.533 148.361 207.046C132.096 208.564 115.888 209.963 99.5786 210.944C94.7306 211.236 95.2176 218.784 100.055 218.463C116.691 217.357 133.287 216.848 149.938 216.15C165.886 215.482 181.838 214.045 197.765 212.975C214.039 211.88 230.297 210.542 246.559 209.273C254.526 208.652 262.501 208.089 270.44 207.166C278.681 206.207 286.989 204.627 295.26 204.09C297.523 203.943 297.298 200.438 295.038 200.578Z" fill="#EEAC06"/>
</g>
<defs>
<clipPath id="clip0_676_8154">
<rect width="511.999" height="511.999" fill="white"/>
</clipPath>
</defs>
</svg>
