<svg width="684" height="684" viewBox="0 0 684 684" fill="none" xmlns="http://www.w3.org/2000/svg">
<g clip-path="url(#clip0_676_8235)">
<path d="M614.437 257.349C595.568 217.052 566.828 181.526 531.328 154.62C493.464 125.917 447.208 105.948 397.672 96.4843C405.021 72.3333 403.573 50.3489 393.438 32.8437C380.672 10.7917 352.953 -2.55207 327.531 1.09897C305.25 4.30209 285.636 20.526 278.714 41.4635C273.62 56.8698 274.677 74.6822 281.839 94.4687C211.146 106.094 148.063 141.599 105.891 195.292C99.4691 203.469 93.4847 212.135 88.0993 221.052C59.641 268.203 45.0421 325.489 45.865 386.718C46.5837 439.609 60.4639 491.505 86.0056 536.786C113.052 584.729 151.662 621.953 197.672 644.437C244.594 667.369 294.021 680.645 340.615 682.828C345.406 683.057 350.167 683.166 354.896 683.166C401.651 683.166 445.281 672.192 484.771 650.463C550.464 614.328 598.776 550.078 624.489 464.666C632.328 438.625 637.213 412.547 639 387.166C642.094 343.156 633.604 298.265 614.437 257.349ZM291.37 45.651C295.844 32.125 309.344 17.1875 329.427 14.2969C352.136 11.026 373.406 24.8594 381.901 39.5208C392.484 57.802 389.214 79.0624 384.604 93.6718C384.547 93.8593 384.531 94.0468 384.49 94.2343C372.458 92.4114 360.266 91.1926 347.979 90.6249C330.172 89.802 312.573 90.4687 295.365 92.5312C288.386 74.552 287.031 58.7812 291.37 45.651ZM625.698 386.229C623.979 410.625 619.276 435.724 611.724 460.823C594.505 518.005 557.391 595.296 478.344 638.781C437.042 661.505 390.917 671.838 341.235 669.51C296.443 667.411 248.823 654.598 203.521 632.458C159.953 611.166 123.334 575.817 97.6202 530.234C73.1671 486.895 59.8858 437.203 59.1983 386.541C58.4014 327.807 72.3441 272.963 99.516 227.943C104.615 219.489 110.287 211.276 116.375 203.531C165.995 140.359 246.203 103.615 333.078 103.615C337.823 103.615 342.583 103.724 347.365 103.948C412.63 106.958 475.099 128.729 523.271 165.245C557.052 190.854 584.401 224.656 602.359 263.005C620.568 301.87 628.635 344.479 625.698 386.229Z" fill="#E01D2F"/>
<path d="M501.515 191.25C459.171 159.146 404.359 140.01 347.182 137.375C265.833 133.615 189.614 166.578 143.296 225.547C137.885 232.432 132.843 239.739 128.307 247.255C104.338 286.963 92.0412 335.193 92.7391 386.734C93.338 431.265 105.026 474.953 126.531 513.078C149.317 553.468 181.854 584.833 220.624 603.781C260.098 623.072 301.692 634.239 340.9 636.078C344.937 636.27 348.947 636.364 352.932 636.364C392.312 636.364 429.072 627.114 462.348 608.807C517.676 578.369 558.364 524.281 580.01 452.39C586.609 430.474 590.718 408.531 592.223 387.166C594.832 350.083 587.676 312.26 571.525 277.786C555.629 243.844 531.421 213.917 501.515 191.25ZM578.921 386.234C577.484 406.609 573.556 427.573 567.244 448.547C552.869 496.297 521.885 560.838 455.921 597.125C421.468 616.078 382.978 624.708 341.525 622.76C304.114 621.005 264.333 610.302 226.479 591.802C190.145 574.041 159.598 544.557 138.145 506.526C117.734 470.338 106.64 428.854 106.067 386.552C105.406 337.505 117.041 291.719 139.718 254.146C143.973 247.094 148.703 240.245 153.781 233.786V233.781C195.182 181.073 262.124 150.417 334.64 150.417C338.598 150.417 342.577 150.505 346.567 150.693C401.072 153.208 453.239 171.385 493.458 201.875C551.103 245.568 583.848 316.213 578.921 386.234Z" fill="#E01D2F"/>
<path d="M482.791 214.338C445.437 186.021 397.099 169.146 346.682 166.818C274.922 163.495 207.667 192.594 166.792 244.63C162.016 250.713 157.562 257.161 153.557 263.792C132.417 298.823 121.562 341.37 122.177 386.823C123.307 470.198 167.609 545.364 235.047 578.323C260.198 590.614 304.078 607.89 351.984 607.885C366.385 607.885 381.151 606.328 395.88 602.599C442.958 590.687 486.765 560.406 516.062 519.52C548.828 473.791 564.927 415.442 560.229 359.437C555.239 299.937 527.734 248.406 482.791 214.338ZM505.224 511.755C477.729 550.119 436.687 578.52 392.609 589.671C367.026 596.145 313.297 601.724 240.901 566.343C209.109 550.807 182.375 525 163.599 491.713C145.724 460.026 136.01 423.692 135.51 386.646C134.927 343.682 145.12 303.583 164.974 270.682C168.693 264.515 172.833 258.521 177.276 252.864C215.495 204.208 278.594 177.021 346.062 180.135C393.817 182.344 439.515 198.26 474.734 224.963C516.625 256.719 542.271 304.875 546.942 360.552C551.38 413.448 536.172 468.557 505.224 511.755Z" fill="#E01D2F"/>
<path d="M429.798 262.161C425.126 258.771 418.96 259.052 411.465 262.995C398.798 269.656 386.126 276.75 373.876 283.609C367.684 287.073 361.496 290.536 355.288 293.958L291.944 328.88C286.877 331.672 280.574 335.151 276.111 340.812C270.585 347.833 269.054 356.474 267.824 363.411C259.507 410.349 252.772 458.187 247.814 505.593C247.559 508.015 248.647 510.38 250.642 511.765C251.778 512.557 253.111 512.958 254.444 512.958C255.46 512.958 256.476 512.724 257.418 512.255L412.876 434.885C413.856 434.401 414.694 433.682 415.33 432.797C419.08 427.557 419.658 418.802 420.069 407C420.184 403.854 420.283 400.88 420.517 399.088L432.949 303.698C433.132 302.286 433.449 300.442 433.814 298.302C436.069 285.135 438.871 268.75 429.798 262.161ZM280.949 365.739C281.616 361.979 282.283 358.619 283.246 355.672C319.465 381.536 357.173 406.052 395.507 428.635L262.377 494.895C267.158 451.765 273.392 408.38 280.949 365.739ZM420.673 296.052C420.283 298.333 419.944 300.302 419.725 301.979L407.298 397.364C406.981 399.781 406.871 402.911 406.746 406.531C406.637 409.75 406.444 415.104 405.923 419.307C366.715 396.359 328.142 371.343 291.137 344.916C293.371 343.328 295.897 341.922 298.382 340.552L361.725 305.635C367.96 302.198 374.173 298.718 380.387 295.239C392.569 288.422 405.163 281.375 417.668 274.791C420.074 273.526 421.429 273.234 422.027 273.166C423.949 276.901 421.496 291.229 420.673 296.052Z" fill="#E01D2F"/>
<path d="M315.564 257.755H315.595C319.277 257.734 322.246 254.734 322.231 251.057L322.116 227.922L339.85 246.901C341.595 248.76 344.251 249.469 346.684 248.719C349.126 247.969 350.918 245.89 351.309 243.364C353.251 230.849 353.496 218.125 352.043 205.542C351.616 201.88 348.303 199.26 344.652 199.682C340.996 200.104 338.371 203.411 338.798 207.073C339.564 213.703 339.809 220.375 339.533 227.031L320.236 206.38C318.361 204.375 315.449 203.724 312.902 204.739C310.35 205.75 308.684 208.219 308.699 210.963L308.897 251.12C308.913 254.791 311.897 257.755 315.564 257.755Z" fill="#E01D2F"/>
<path d="M353.651 511.078C348.214 510.859 342.521 512.802 336.714 516.849C329.344 521.989 325.709 528.75 326.745 535.39C327.823 542.323 333.584 547.63 342.964 550.343C343.516 550.505 344.078 550.661 344.641 550.817C348.188 551.812 351.854 552.838 353.214 554.76C354.506 556.583 353.5 560.218 351.224 561.963C348.495 564.057 343.964 564.593 339.407 563.354C334.412 561.994 329.568 558.88 324.886 555.864C321.787 553.869 317.662 554.765 315.672 557.864C313.677 560.958 314.573 565.083 317.667 567.073C322.948 570.474 328.927 574.323 335.912 576.218C338.683 576.974 341.464 577.338 344.167 577.338C349.881 577.338 355.235 575.698 359.339 572.546C367.349 566.401 369.532 554.729 364.099 547.052C360.005 541.27 353.479 539.448 348.235 537.979C347.714 537.833 347.188 537.682 346.672 537.536C342.287 536.265 340.099 534.468 339.922 533.338C339.75 532.229 341.214 529.968 344.344 527.786C347.709 525.442 350.651 524.297 353.12 524.401C355.115 524.479 356.896 525.76 357.104 526.807C357.813 530.422 361.318 532.776 364.927 532.067C368.542 531.359 370.896 527.854 370.188 524.244C368.755 516.937 361.797 511.401 353.651 511.078Z" fill="#E01D2F"/>
<path d="M187.929 398.453C181.455 401.286 174.314 402.349 167.288 401.536C166.72 401.474 166.33 401.401 166.064 401.343C165.981 400.901 165.913 400.338 165.877 400.041L164.7 390.437L177.002 388.187C180.627 387.526 183.028 384.057 182.366 380.437C181.705 376.812 178.236 374.411 174.611 375.073L163.069 377.177L162.09 369.203C168.986 366.109 176.7 364.62 184.21 364.968C187.882 365.114 191.012 362.297 191.184 358.62C191.356 354.942 188.512 351.817 184.835 351.646C173.392 351.114 161.59 353.927 151.621 359.573C149.272 360.901 147.96 363.51 148.288 366.187L152.642 401.666C152.903 403.776 153.335 407.307 155.871 410.25C159.121 414.015 163.944 414.573 165.757 414.781C167.793 415.015 169.84 415.135 171.882 415.135C179.22 415.135 186.512 413.62 193.267 410.672C196.637 409.198 198.179 405.265 196.705 401.896C195.236 398.521 191.304 396.979 187.929 398.453Z" fill="#E01D2F"/>
<path d="M490.795 368.698C489.207 376.213 487.483 384.369 484.571 391.859C481.665 381.979 480.936 371.463 482.545 361.271C483.123 357.635 480.639 354.218 477.004 353.646C473.363 353.078 469.952 355.552 469.379 359.192C466.618 376.677 469.618 394.937 477.837 410.619C478.905 412.661 480.957 414.005 483.259 414.172C483.42 414.187 483.582 414.192 483.738 414.192C485.863 414.192 487.879 413.177 489.134 411.437C492.972 406.151 495.733 400.364 497.853 394.442C499.259 397.453 500.826 400.38 502.561 403.192C503.556 404.807 506.201 409.104 511.274 410.036C515.962 410.89 520.78 408.411 523.269 403.88C524.941 400.833 525.212 397.661 525.41 395.349L528.545 358.687C528.858 355.015 526.139 351.786 522.472 351.474C518.8 351.156 515.571 353.88 515.259 357.547L512.201 393.271C508.066 385.781 505.217 377.479 503.905 369.052C503.41 365.875 500.712 363.5 497.498 363.416C494.269 363.302 491.462 365.547 490.795 368.698Z" fill="#E01D2F"/>
</g>
<defs>
<clipPath id="clip0_676_8235">
<rect width="682.667" height="682.667" fill="white" transform="translate(0.5 0.5)"/>
</clipPath>
</defs>
</svg>
