<svg width="337" height="283" viewBox="0 0 337 283" fill="none" xmlns="http://www.w3.org/2000/svg">
<mask id="mask0_727_8644" style="mask-type:luminance" maskUnits="userSpaceOnUse" x="-12" y="0" width="349" height="339">
<path d="M336.125 0H-11.9766V338.011H336.125V0Z" fill="white"/>
</mask>
<g mask="url(#mask0_727_8644)">
<path d="M33.0391 1.08522C19.6281 -2.26778 4.20612 3.10022 -9.20488 4.43722C-12.5579 4.43722 -13.2279 9.80122 -9.20488 10.4722C4.20612 11.1432 20.2951 10.4722 33.0391 7.11922C35.7221 5.77822 35.7221 1.75522 33.0391 1.08422" fill="#FFD773"/>
<path d="M113.504 19.1892C104.116 9.80121 89.3653 7.78921 77.2953 8.46021C76.7696 8.47193 76.2693 8.68901 75.9017 9.06496C75.534 9.44091 75.3281 9.94586 75.3281 10.4717C75.3281 10.9976 75.534 11.5025 75.9017 11.8785C76.2693 12.2544 76.7696 12.4715 77.2953 12.4832C83.6856 13.11 89.9842 14.4596 96.0703 16.5062C101.434 18.5182 106.128 21.2002 111.492 23.2112C113.504 24.5522 115.515 21.1992 113.504 19.1882" fill="#FFD773"/>
<path d="M183.911 71.4913C181.229 65.4563 175.864 60.0913 170.5 56.0693C165.806 51.3753 159.771 47.3523 154.407 43.9993C152.395 42.6583 150.384 45.3403 152.395 46.6813C157.562 50.6275 162.283 55.1243 166.476 60.0923C171.17 64.7863 174.522 70.8213 179.216 75.5143C181.227 78.1963 185.251 74.8433 183.911 71.4913Z" fill="#FFD773"/>
<path d="M197.324 113.065C197.165 112.726 196.938 112.423 196.656 112.176C196.374 111.929 196.045 111.743 195.687 111.63C195.33 111.517 194.954 111.479 194.581 111.519C194.208 111.558 193.848 111.675 193.523 111.861C193.198 112.047 192.914 112.298 192.691 112.599C192.468 112.899 192.309 113.243 192.225 113.608C192.141 113.974 192.134 114.352 192.204 114.72C192.273 115.088 192.419 115.438 192.63 115.747C193.971 119.1 195.983 123.123 197.324 126.476C198.665 131.17 197.993 135.864 200.005 139.887C200.676 141.899 204.028 141.899 204.699 139.887C208.053 132.511 201.347 120.441 197.324 113.065Z" fill="#FFD773"/>
<path d="M215.425 196.882C215.425 190.177 215.425 183.471 214.084 177.436C213.413 174.083 209.39 174.083 209.39 177.436C208.832 183.23 208.608 189.051 208.719 194.87C208.719 200.905 207.378 206.94 209.39 212.97C210.061 215.651 214.754 215.651 215.425 212.97C216.767 207.606 216.097 202.241 215.425 196.877" fill="#FFD773"/>
<path d="M199.334 255.89C196.652 262.595 193.97 269.3 189.946 276.005C186.593 282.041 181.9 288.076 181.229 294.781C180.558 298.134 185.252 298.804 187.264 297.462C192.628 292.769 195.312 284.722 197.993 278.016C201.124 271.644 203.38 264.877 204.698 257.901C205.369 253.878 200.003 252.537 199.334 255.889" fill="#FFD773"/>
<path d="M41.0883 265.95C35.7243 255.892 37.0653 245.834 35.0533 235.105C34.8839 234.525 34.5309 234.015 34.0474 233.653C33.5638 233.29 32.9757 233.094 32.3713 233.094C31.7669 233.094 31.1788 233.29 30.6953 233.653C30.2117 234.015 29.8587 234.525 29.6893 235.105C27.6773 246.505 31.0303 258.574 37.7353 267.962C39.0763 269.974 41.7593 268.633 41.0883 265.95Z" fill="#FFD773"/>
<path d="M43.7701 150.615C31.7001 162.015 29.0181 178.779 29.6891 194.2C29.6891 196.882 34.3831 196.882 34.3831 194.2C35.0541 180.119 39.0771 166.037 47.7941 154.639C50.4771 151.956 46.4531 147.933 43.7701 150.615Z" fill="#FFD773"/>
<path d="M82.6631 102.337C70.5931 108.372 61.2061 119.771 53.8301 131.17C51.8181 133.852 56.5121 136.534 57.8531 133.852C65.8991 123.794 75.9531 115.752 85.3451 107.03C88.0271 104.348 85.3451 100.996 82.6631 102.337Z" fill="#FFD773"/>
<path d="M122.223 63.4453C112.835 63.4453 102.107 71.4913 96.072 78.1973C93.39 80.8793 97.413 84.9023 100.095 82.2203C103.443 78.9497 107.292 76.2336 111.495 74.1743C115.518 72.1623 120.212 70.8213 124.235 68.1393C126.247 66.7983 124.235 63.4453 122.223 63.4453Z" fill="#FFD773"/>
<path d="M212.075 35.2803C206.711 35.2803 201.346 37.2923 195.982 37.9623C189.277 39.3033 182.571 39.9743 176.536 42.6563C173.183 43.9973 174.524 48.6913 177.877 48.0203C184.084 46.7983 190.351 45.9031 196.652 45.3383C202.016 44.6673 208.722 44.6673 213.416 41.3153C216.769 39.9743 215.427 35.2803 212.075 35.2803Z" fill="#FFD773"/>
<path d="M271.76 28.5773C263.043 26.5653 252.314 28.5773 242.927 29.2483C242.606 29.2273 242.284 29.2724 241.981 29.3809C241.678 29.4893 241.401 29.6588 241.166 29.8788C240.931 30.0988 240.744 30.3646 240.616 30.6599C240.488 30.9551 240.422 31.2735 240.422 31.5953C240.422 31.917 240.488 32.2354 240.616 32.5306C240.744 32.8259 240.931 33.0917 241.166 33.3117C241.401 33.5317 241.678 33.7012 241.981 33.8096C242.284 33.9181 242.606 33.9632 242.927 33.9423C252.315 34.6133 262.373 36.6243 271.76 34.6133C272.466 34.4836 273.104 34.1107 273.563 33.5594C274.022 33.0081 274.274 32.3133 274.274 31.5958C274.274 30.8782 274.022 30.1834 273.563 29.6321C273.104 29.0808 272.466 28.7069 271.76 28.5773Z" fill="#FFD773"/>
<path d="M334.114 31.9292C329.42 30.5882 324.726 31.2582 320.032 31.2582C315.105 31.147 310.177 31.3712 305.28 31.9292C301.927 31.9292 301.927 37.2932 305.28 37.2932C310.207 37.182 315.136 37.4062 320.032 37.9642C324.726 37.9642 329.42 38.6352 334.114 37.2932C336.796 37.2932 336.796 33.2702 334.114 31.9292Z" fill="#FFD773"/>
</g>
</svg>
