<svg id="Layer_1" enable-background="new 0 0 68 68" height="512" viewBox="0 0 68 68" width="512" xmlns="http://www.w3.org/2000/svg"><g id="_x31_29"><path d="m66.5458679 33.4262466c-1.9996338-2.4540386-5.0928917-10.8745708-5.6843834-14.1643047.300354-.1592407.5869751-.3126221.848938-.4538574.3647461-.1962891.5009766-.6513672.3041992-1.0166016-.1967773-.3632813-.6508789-.4990234-1.0161133-.3037109-3.46875 1.8701172-6.3417969 3.21875-6.987793 3.2792969-.4121094.0390625-.715332.4052734-.6762695.8173828.0295258.3169003.003521.4385452.0302734.6114502-7.2334862 3.3851395-11.4971352-1.0240402-15.8953857-.8001709-6.5252361-3.1997261-12.5463123 1.0603523-18.4801044-.0134277-2.3343143-.4215469-4.5086641-1.878933-6.7520132-3.1434937.2152891-.3932037.0250177-1.178896-.6387329-1.229248-1.2198973-.7469482-5.3862042-3.3206358-5.9403076-3.6526499-.355957-.2158203-.815918-.0986328-1.0292969.2558594-.2078857.3463745-.0995483.7891846.234314 1.008728-.1069946 3.0234385-1.7687991 11.4110117-3.4525759 13.9522104-.2290039.3447266-.1347656.8105469.2109375 1.0390625.3435005.2290001.810416.1347446 1.0390625-.2109375 1.8159182-2.7398071 3.3218997-10.3424683 3.6445315-13.8898935 1.6059813.9880838 3.4970541 2.155982 4.3864136 2.7010508-1.0312433 5.6019688-2.1685553 12.41679-3.9937134 17.7505474l-1.5762939-.9279175c-.7328229-.4290657-1.520818.5077934-.9193115 1.151123.0735474.3661499.1348877.7513428.2318115 1.0806885.9634399.7097778 2.2530518 1.5006714 3.3568115 1.9630127.2404175-.1329956.4205322-.6140747.480896-.8821411.9575806.6169434 1.913269 1.4768677 2.8708496 2.09375-1.5027237 1.588501.6967697 6.5791283 3.852356 5.7565308-.4375944 2.8784866 2.2358522 4.7992973 4.6990347 4.1629639-.0349731 2.6418343 2.5711594 4.6496391 5.1459351 3.7729492.9225903 3.3935661 5.2369556 4.3184547 7.0147705 1.9867554 1.5897312.3129692 3.3179493.6688347 5.9090595-.5136719 2.1853333.9488602 4.5898933-.6364822 4.9089966-2.6265259 2.2476807 1.0943375 4.7838364-.6752968 5.019165-2.6504517 2.4378052.6748772 4.5552711-1.5544357 4.3744507-3.7380371 2.9658203-1.682312 6.0134277-3.432312 8.980835-5.1159058.0405273-.0230103.0827637.0037842.0916748.0494995.0499268.2550659.352417.6096802.5686035.6578979.932312-.2288818 3.319149-1.2184448 4.1361656-1.7225342.2463989-.6092529.2316895-.6050415.0831909-1.7880249.1725693-.6175766-.3970413-1.0689278-.9200439-.9161987-.9899292.2878418-1.9311485.7062378-2.8126793 1.2314453-3.6965942-4.8945923-6.4194336-11.1631451-7.3244629-16.904295 1.1193848-.3667603 2.9354858-1.241333 4.6057739-2.0990601.8047485 3.7589111 3.835022 11.8442993 5.9073448 14.3881207.2630539.3218956.7363815.369175 1.0551758.1074219.3212889-.2607421.3696288-.7333984.10791-1.0546875zm-49.8457012 9.5703125c-.005127.0097656-.0042114.0205688-.0089111.0304565-.3051147.3109131-.5997314.5965576-.8815298.8338013-.8823853.2908936-1.9971313-.1051636-2.4430542-.921875-.4669189-.8571167-.1535645-2.0820923.6484985-2.6330566.0120239-.0010986.0230103.0039063.0350952.0021973 1.340332-.1738281 2.1210928.7851563 2.3305655 1.0849609.3969726.5683594.5253906 1.2128906.3193359 1.6035156zm3.8851929 5.1546631c-2.1967621.9208336-4.338562-1.2175026-3.5578613-3.3674316.3232422-.2941895.6449585-.6097412.9783325-.9512939 1.6083984-1.6503906 2.7734375-2.6757813 4.2670898-1.9228516.8418007.4243355 1.2924843 1.1073875 1.5273438 2.199585-.6128827.6904144-2.6279355 2.9290389-3.2149048 4.0419921zm4.3643188 3.7486573c-1.1147137.8303604-2.699831.2601318-3.0664063-1.0439453-.1430664-.5101318-.1426392-1.317627-.0710449-1.8985596 4.0265465-4.97155 3.3921089-4.181118 3.4472656-4.2703857.6488647-.0408325 1.1696167.0198975 1.6008301.1982422.7015038.2894096 1.3756618 1.1416626 1.3388672 2.8208008-.0693054.1001967-2.3073577 3.4825858-3.2495117 4.1938476zm5.3325196-.319336c-.4421215 1.1066933-.7126408 2.5521469-.3258667 3.3755493-.425293.1541748-.8592529.1774902-1.3128052.0355835-1.0652466-.3338013-2.0077515-1.2296143-2.3855591-2.2203369 1.1651001-1.3390503 2.1389771-2.6216431 2.9650879-3.8987427.6779175-.0374756 1.3872681.6008301 1.4229126 1.2850952.0224609.4169922-.147461.881836-.3637695 1.4228516zm1.138977 1.2421265c.2126884-.6759109.5487728-1.2585144.6792622-2.0842896.3604736.2781372 3.4704094 2.736515 4.1671143 3.293396-1.9691773.9512329-3.7849503.314682-4.8463765-1.2091064zm16.4318256-4.9696655c-1.8010902-.2411156-7.5837975-6.4704285-8.7451172-7.8769531-.2631836-.3193359-.7358398-.3642578-1.0556641-.1005859-.3193359.2636719-.3647461.7363281-.1005859 1.0556641 1.6165771 1.9576836 6.6565704 6.9920044 8.0316772 7.8045044-.4347763 1.6756439-2.1816978 2.5736465-3.7626343 2.0372925-1.1639557-.3963432-1.6749458-1.0733681-6.6748047-6.1484375-.2895508-.2949219-.7651367-.2998047-1.0605469-.0078125-.2949219.2900391-.2988281.765625-.0078125 1.0605469 4.6812782 4.7459373 5.2151985 5.4010773 6.3068237 6.0604858-.303833 1.359436-1.3052979 1.8394775-2.0753784 1.8311157-1.3947716-.0245056-7.1776295-5.8528748-9.0040913-6.1590576.0437012-1.4837036-.7414551-3.2788086-2.2717896-3.9112549-.6402588-.2637939-1.3937378-.3585205-2.2769165-.3040771-.2822266-.9589233-1.0805054-2.0556641-2.2079468-2.6246338-1.9264526-.9718018-3.5204468-.0863647-4.807373 1.041748-.7168674-2.2856598-3.3626442-3.3080063-4.7536612-2.671875-1.583252-1.2387695-3.2600098-2.3497925-4.9899902-3.3197632 1.5601664-4.8625698 2.6085615-10.7529011 3.5306396-15.8302593 2.1857395 1.258522 4.3434572 2.6268749 6.7952871 3.0692139 5.3746586.9685287 11.0308208-2.1060543 16.04529-.8621216-5.3166542 1.8565922-10.6211128 5.6799412-11.6326923 11.20294-.3526268 1.9276924.3467484 3.7963905 2.3255615 4.0497437 3.1230125.9094849 6.1158676-3.4298935 7.6127338-4.517334 1.0239868-.7439556 2.2150879-1.07794 3.4590454-.8456402 3.5230408 2.3801365 11.9888725 11.3261204 12.0802002 11.4265118 2.187138 2.4053915 1.0129627 4.7734831-.7602536 4.5400389zm12.5307007-8.8120118c-3.4077148 1.1276245-6.6629028 2.8505249-9.5091553 5.0335693-.5173759-1.1934814-1.2619438-1.9403343-2.3242798-2.9725342-3.4325867-3.3465767-8.0784912-8.8090744-12.6033936-11.3405132.1244507-.0127563.246521-.0221558.3563232-.0169067.4116211-.0244141.7583008-.3173828.7685547-.7314453s-.3173828-.7578125-.7314453-.7685547c-1.4711914.0136719-3.675293.9140625-4.7417011 2.0322266-1.7283325 1.8147488-2.7449055 4.5744381-4.925293 5.3779278-1.6228142.5996857-2.355257-.5824623-2.0620117-2.1855469 1.0786018-5.8849182 8.5104885-9.8217773 12.3105488-10.5078106 4.021431-.7313919 8.6708374 4.2606411 16.7313843.7513428 1.0663453 5.2509765 3.4952393 10.782896 6.7304688 15.3282451z"/><path d="m56.8881569 24.4233189c-.1118164.2919922-.0986328.6152344.0341797.8818359.3470764.7064419 1.3856964.8033714 1.8256836.1376953.3022194-.4573517.1565704-1.0689201-.2871094-1.3837891-.3829803-.6279678-1.2894402-.3794479-1.5727539.3642579z"/><path d="m7.0951872 20.6762486c.6082935.439043 1.5134811.0919895 1.668457-.6464844.0727539-.3447266-.0385742-.7060547-.2973633-.9658203-.6634507-.6647015-1.7628989-.234972-1.8027344.7011719-.0156249.3662109.1464844.7080078.4316407.9111328z"/><path d="m29.0898151 10.6586695c-.3754883.1738281-.5380859.6201172-.3637695.9960938l2.8251953 6.0732431c.1756096.3767853.6226673.5377731.9965839.3632813.3754883-.1748047.5380859-.6201172.3637695-.9960938l-2.8251972-6.0732431c-.1748046-.3759766-.6201171-.5390626-.996582-.3632813z"/><path d="m37.1801491 11.6166773-1.5786133 5.4316416c-.1396866.4797592.2218285.9589844.7207031.9589844.324707 0 .6245117-.2128906.7197266-.5410156l1.5786133-5.4316416c.1157227-.3974609-.1132813-.8134766-.5107422-.9287109-.3964844-.1152345-.8139649.1123046-.9296875.5107421z"/><path d="m44.0746803 15.9184351-3.4985352 2.180665c-.3515625.21875-.4589844.6816406-.2402344 1.0332031.2227936.3570843.6893005.4558544 1.0332031.2402344l3.4985352-2.1806641c.3515625-.2197266.4589844-.6816406.2402344-1.0332031-.2197265-.35254-.6831054-.4599619-1.0332031-.2402353z"/></g></svg>