<?xml version="1.0" encoding="UTF-8"?>
<svg xmlns="http://www.w3.org/2000/svg" xmlns:xlink="http://www.w3.org/1999/xlink" version="1.1" width="512" height="512" x="0" y="0" viewBox="0 0 72 72" style="enable-background:new 0 0 512 512" xml:space="preserve">
  <g>
    <path d="M48.37 61.646c.56 3.505 4.314 5.547 7.561 4.107 3.426 1.062 6.705 2.25 10.131 3.312l-.846-3.357c-3.595-1.043-7.25-2.052-10.848-3.094 1.25-4.387-.368-13.317-1.461-15.98 2.687 1.502 3.754 1.922 7.718 2.624a.75.75 0 1 0 .262-1.476c-4.41-.781-4.932-1.14-8.905-3.394a.737.737 0 0 0-.638-.036c-.613-.606-1.322-1.043-2.004-.962-1.414.153-1.671 2.389-1.85 3.972-1.215-.276-2.27-.531-3.356-.792-4.03-.969-5.495.28-10.17-2.76-.609-.395-6.362-6.125-9.442-3.621-2.449 1.995.755 5.928 3.68 8.13 1.22.918 2.583 1.968 3.806 3.406-.34.287-1.752.74-4.484-.022-2.014-.56-4.163-.93-6.115-1.586L9.855 46.243c-2.806-.943-4.104.533-3.896 2.093.119.878.735 1.72 1.345 2.383 8.111 11.06 23.948 16.44 41.066 10.927zm5.104-2.301c-.04.548-.51 3.05-.725 3.412-.485-.251-1.429-1.294-1.614-2.913.785-.159 1.564-.325 2.339-.499zM49.56 44.892c.445.12 1.647 1.187 2.282 3.342a57.47 57.47 0 0 1-2.854-.542c-.03-.205.282-2.41.572-2.8zM9.379 47.664l11.553 3.874c2.055.69 4.14 1.04 6.19 1.61 4.845 1.348 10.12.097 1.981-6.029-1.95-1.466-4.97-4.675-3.672-5.74 2.826-1.35 6.102 2.64 7.716 3.69 5.029 3.27 6.821 2.04 10.636 2.96 2.485.598 5.918 1.429 8.43 1.78.016.003.03-.003.047-.002.604 2.586.878 5.252 1.125 8.021-16.01 3.649-33.622 4.023-44.95-8.057-.565-.603-.925-1.16-.989-1.634-.126-.94 1.013-.78 1.933-.473z" fill="#e31e26" opacity="1" data-original="#000000"></path>
    <path d="M20.639 3.218c-.216-.262-.624-.303-.795-.275-3.725.638-8.225 3.347-9.228 7.108-.027.1-.33 1.953-.337 2.053-.02.21.28.67.4.83 3.449 4.294 6.517 8.652 10.047 12.941-.635.73 1.92-2.245-4.348 5.113a.737.737 0 0 0-.169.472c0 .01-.006.018-.007.029-.036.72-.887 7.018-1.38 9.05a.751.751 0 0 0 1.1.828c1.492-.85 6.541-3.206 8.005-3.933a.728.728 0 0 0 .283-.265l.008-.007c.89-1.037 1.916-2.238 3.026-3.562 2.716 3.16 5.435 6.324 7.905 9.454.592.716 1.926.776 2.857.776 2.75 0 7.536-2.761 9.426-7.184.387-.9-.031-.963-.134-1.2-1.597-1.949-10.627-12.856-10.713-12.959l6.724-7.966c1.615-1.888.533-5.184-1.464-6.504-1.454-1.002-4.523-1.635-5.806-.171l-5.873 6.91c-3.786-4.574-6.912-8.349-9.527-11.538zm-.893 1.275c1.013 1.236 2.048 2.482 3.072 3.723-.007.006-.016.007-.023.013l-2.218 1.917a.75.75 0 1 0 .98 1.135l2.213-1.912c.81.98 1.61 1.956 2.425 2.938L23.99 14.2a.75.75 0 0 0 .977 1.138l2.183-1.872 2.028 2.451c-.013.017-.027.032-.039.05l-6.26 7.383c-7.558-9.314-9.976-12.242-10.73-13.167.843-2.548 4.072-4.967 7.596-5.689zm.396 33.098c-.138-.334-2.16-1.955-2.952-2.007.15-1.029.28-2.001.373-2.745.443-.005.883.008 1.225.164.266.121.469.387.435.569a.75.75 0 0 0 .778.886c1.029-.062 2.049.552 2.336 2.081-.782.377-1.348.646-2.195 1.052zm19.816-8.673-2.063 1.673a.75.75 0 1 0 .945 1.164l2.074-1.681c1.083 1.31 2.17 2.621 3.249 3.93l-2.689 2.098a.75.75 0 0 0 .923 1.183l2.722-2.123c.289.347.575.694.86 1.041-1.39 3.105-4.37 5.433-7.712 6.055-3.08-3.754-5.25-6.414-9.005-11.047.531-.63 2.7-3.23 6.36-7.536l.942 1.138c-.273.131.17-.16-2.745 2.257a.75.75 0 1 0 .964 1.148c2.912-2.475 2.513-2.062 2.69-2.306.832 1.004 1.656 2.004 2.485 3.006zm-16.32 6.616c-.307-.955-.95-1.751-1.927-2.214.952-1.109.389-.46 16.418-19.188 1.255.818 1.538.8 2.418 1.33-2.09 2.453-14.216 16.924-16.909 20.072zm11.467-24.282c.616.767 1.182 1.408 1.826 1.973-2.56 2.988-16.425 19.196-16.512 19.298-.535-.845-1.385-1.13-2.379-1.174 5.695-6.68 9.27-10.905 17.065-20.097z" fill="#e31e26" opacity="1" data-original="#000000"></path>
  </g>
</svg>
