<svg width="512" height="406" viewBox="0 0 512 406" fill="none" xmlns="http://www.w3.org/2000/svg">
<path d="M508.94 124.712C505.282 120.288 498.612 118.953 492.71 121.546C480.659 126.848 466.516 155.705 457.598 170.586C452.783 178.649 446.851 185.973 440.087 192.264C450.479 160.67 455.576 158.239 469.929 82.8488C470.827 78.1476 471.843 72.8156 470.982 67.2397C468.28 49.6953 449.124 44.963 437.483 60.3517C438.671 53.1223 439.903 46.3336 438.246 39.4818C436.363 31.7532 430.757 25.976 424.078 24.7001C417.61 23.4893 410.424 26.6551 405.781 32.7685C402.107 37.5908 400.417 43.2424 398.923 48.231C369.998 144.613 370.858 143.048 367.729 150.908C380.066 60.9688 381.573 55.0644 378.446 46.0515C373.632 32.0608 355.751 27.8214 345.779 48.8235C326.07 90.3534 339.052 130.176 309.285 195.526C305.675 178.073 311.066 157.983 304.486 139.213C301.13 129.643 294.644 123.794 287.11 123.505C280.428 123.28 272.52 129.183 269.596 133.348C257.746 150.292 258.887 176.154 262.134 196.494C268.53 236.684 268.77 233.21 284.096 283.326C291.586 307.835 298.316 334.134 296.839 360.403C296.689 363.113 298.468 365.479 300.987 366.165C304.48 367.115 307.911 364.602 308.113 361.032C311.254 305.417 281.658 255.723 274.583 203.279C273.246 193.238 265.413 159.006 278.852 139.829C280.41 137.601 285.076 134.793 286.713 134.797C289.667 134.861 292.432 138.959 293.824 142.942C300.777 162.756 291.538 187.955 302.25 209.714C300.937 212.176 299.631 214.641 298.235 217.067C296.677 219.767 297.612 223.222 300.312 224.779C302.986 226.322 306.466 225.409 308.025 222.702C351.929 146.424 335.841 96.0975 355.982 53.6717C360.888 43.3384 365.819 44.0695 367.773 49.7394C369.699 55.3001 368.519 64.4564 352.944 175.538C352.612 177.962 353.882 180.327 356.084 181.391C358.26 182.44 360.922 181.983 362.614 180.218C380.375 161.707 380.865 145.286 409.748 51.4654C411.02 47.2089 412.34 42.8053 414.771 39.6109C416.792 36.9449 419.762 35.383 422.003 35.802C424.139 36.1012 426.475 38.8856 427.264 42.1483C428.199 45.9919 427.642 50.3363 426.875 55.2025C419.904 99.4539 406.729 142.284 392.687 185.915C391.757 188.802 393.275 191.905 396.124 192.946C398.942 193.987 402.134 192.592 403.285 189.789C421.007 146.629 437.798 56.1551 455.851 62.6661C457.764 63.4226 459.354 65.9509 459.822 68.9661C460.383 72.6165 459.597 76.7386 458.83 80.7361C440.075 179.29 429.715 176.445 424.92 206.03C424.136 210.885 429.511 214.326 433.585 211.656C447.12 202.826 458.775 190.627 467.3 176.38C472.421 167.791 489.637 135.238 497.259 131.882C498.609 131.289 499.943 131.538 500.219 131.895C500.472 132.2 501.142 133.601 499.268 138.837C474.966 206.74 447.441 226.361 432.454 263.013C419.246 295.303 390.114 341.599 401.71 392.102C403.257 398.896 413.503 397.366 412.731 390.231C415.697 385.144 419.665 380.642 424.431 377.183C406.168 285.225 490.97 234.344 506.915 150.355C510.049 142.204 515.143 132.243 508.94 124.712Z" fill="#EEAC07"/>
<path d="M6.13707 124.649C9.84101 120.539 16.2845 119.566 21.8257 122.293C32.9158 127.787 44.8062 155.069 52.584 169.478C56.4517 176.666 61.2482 183.29 66.7789 189.124C57.7499 158.446 53.1707 150.989 44.0226 87.6824C43.3855 83.2359 42.6538 78.2003 43.6955 73.0076C46.8698 57.1887 64.196 52.8185 74.9397 66.6299C74.2128 60.4688 73.56 54.4926 75.2851 48.5409C79.8852 32.6562 97.3081 30.3805 106.429 43.5272C109.685 48.2293 111.032 53.5865 112.222 58.3155C135.127 149.387 134.12 146.075 135.847 151.68C128.768 74.6591 127.176 65.7049 130.581 57.078C135.788 43.9575 153.014 40.7612 161.565 61.0155C177.59 99.1254 165.12 137.421 188.855 197.477C192.602 180.587 188.705 163.539 195.446 146.725C199.029 137.819 205.467 132.56 212.607 132.606C218.966 132.67 226.227 138.59 228.817 142.673C242.869 164.807 233.333 200.37 231.664 209.596C222.844 258.489 193.571 303.871 194.13 352.736C194.159 355.45 192.276 357.734 189.729 358.306C186.197 359.1 182.881 356.435 182.839 352.86C182.237 300.282 211.649 256.858 220.556 207.584C222.234 198.218 230.86 166.96 219.28 148.727C218.008 146.722 213.97 144.011 212.499 143.905C209.867 143.893 207.303 147.544 205.932 150.934C198.707 168.92 206.196 192.596 195.405 212.486C196.495 214.765 197.575 217.047 198.74 219.297C200.175 222.065 199.087 225.474 196.32 226.91C193.567 228.342 190.144 227.264 188.707 224.49C150.544 150.762 168.267 106.091 151.155 65.3963C149.219 60.8045 146.598 57.7607 144.647 57.8298C143.376 57.8439 141.827 59.3675 141.087 61.2371C138.747 67.1573 140.41 77.9784 149.668 178.584C150.165 184.014 143.41 186.915 139.799 182.828C123.841 164.631 124.115 149.064 101.264 61.0634C100.266 57.09 99.2358 52.973 97.1442 49.9687C95.451 47.5305 92.9097 46.0138 90.9676 46.2918C89.109 46.5058 86.9641 48.834 86.1357 51.6879C85.1267 55.1475 85.4637 59.164 85.9653 63.6785C90.6085 105.117 101.071 145.421 112.297 186.504C113.097 189.429 111.442 192.461 108.549 193.375C105.741 194.36 102.562 192.753 101.537 189.901C86.9537 149.328 74.9697 64.8224 58.4619 69.8339C56.7836 70.4143 55.3027 72.5782 54.7736 75.2217C54.1112 78.5131 54.6647 82.3528 55.2052 86.0673C68.5356 178.515 78.2932 176.208 81.5186 203.915C82.0787 208.748 76.6098 212.025 72.6125 209.157C60.3477 200.351 49.9796 188.482 42.6405 174.832C37.0544 164.491 23.4882 135.731 16.8196 132.416C15.7265 131.877 14.6622 132.071 14.5142 132.218C12.2983 134.759 26.2602 172.593 41.5546 200.058C51.7231 218.351 64.8259 236.021 72.1322 256.471C83.4423 288.118 108.216 331.463 95.3491 377.946C93.7051 383.919 84.9611 383.227 84.3204 377.015C81.488 374.624 78.1617 372.816 74.6069 371.761C84.6363 345.631 82.1339 315.732 72.1184 289.596C55.6277 246.564 24.7733 210.953 12.9702 165.708C9.84435 157.784 6.91595 149.781 4.40861 141.647C3.46207 138.574 0.93988 130.398 6.13707 124.649Z" fill="#EEAC07"/>
</svg>
