<svg width="27" height="23" viewBox="0 0 27 23" fill="none" xmlns="http://www.w3.org/2000/svg">
<path d="M10.4116 22.6698L-0.0253695 12.2328C-0.133069 12.1252 -0.21857 11.9973 -0.27697 11.8566C-0.33527 11.7159 -0.36527 11.5651 -0.36527 11.4128C-0.36527 11.2605 -0.33527 11.1097 -0.27697 10.969C-0.21857 10.8283 -0.13307 10.7004 -0.0253695 10.5928L10.4116 0.155781C10.6292 -0.0618302 10.9244 -0.184082 11.2321 -0.184082C11.5399 -0.184082 11.835 -0.0618302 12.0526 0.155781C12.2702 0.373391 12.3925 0.668533 12.3925 0.976284C12.3925 1.28402 12.2702 1.57917 12.0526 1.79678L3.59463 10.2528L26.3076 10.2528C26.6093 10.2617 26.8956 10.3877 27.1058 10.6042C27.316 10.8207 27.4336 11.1105 27.4336 11.4123C27.4336 11.7141 27.316 12.0039 27.1058 12.2204C26.8956 12.4369 26.6093 12.5629 26.3076 12.5718L3.59363 12.5718L12.0516 21.0288C12.2692 21.2464 12.3915 21.5416 12.3915 21.8493C12.3915 22.157 12.2692 22.4522 12.0516 22.6698C11.834 22.8874 11.5389 23.0097 11.2311 23.0097C10.9234 23.0097 10.6292 22.8874 10.4116 22.6698Z" fill="#66A2D1"/>
</svg>
