<svg width="27" height="23" viewBox="0 0 27 23" fill="none" xmlns="http://www.w3.org/2000/svg">
<path d="M16.6548 0.155898L27.0918 10.5929C27.1995 10.7005 27.285 10.8284 27.3434 10.9691C27.4017 11.1098 27.4317 11.2606 27.4317 11.4129C27.4317 11.5652 27.4017 11.716 27.3434 11.8567C27.285 11.9974 27.1995 12.1253 27.0918 12.2329L16.6548 22.6699C16.4372 22.8875 16.142 23.0098 15.8343 23.0098C15.5265 23.0098 15.2314 22.8875 15.0138 22.6699C14.7962 22.4523 14.6739 22.1572 14.6739 21.8494C14.6739 21.5417 14.7962 21.2465 15.0138 21.0289L23.4718 12.5729L0.758757 12.5729C0.457133 12.564 0.170832 12.438 -0.0393851 12.2215C-0.249602 12.005 -0.367188 11.7152 -0.367188 11.4134C-0.367188 11.1116 -0.249602 10.8218 -0.0393851 10.6053C0.170832 10.3888 0.457133 10.2628 0.758757 10.2539L23.4728 10.2539L15.0148 1.7969C14.7972 1.5793 14.6749 1.2841 14.6749 0.9764C14.6749 0.6687 14.7972 0.373498 15.0148 0.155898C15.2324 -0.0617016 15.5275 -0.184001 15.8353 -0.184001C16.143 -0.184001 16.4372 -0.0617017 16.6548 0.155898Z" fill="#66A2D1"/>
</svg>
