<svg xmlns="http://www.w3.org/2000/svg" width="317.428" height="326.4" viewBox="0 0 317.428 326.4">
  <g id="Group_1267" data-name="Group 1267" transform="translate(-1077.418 -516.8)">
    <g id="Layer_1-2" transform="translate(1077.414 516.799)">
      <path id="Path_740" data-name="Path 740" d="M221.7,199.755c95.441-17.783,89.98-33.227,95.1-84.589,2.617-26.266-2.526-62.222-21.789-81.9C275.837,13.66,242.522,5.3,216.233,1.72A193.217,193.217,0,0,0,60.38,50.763C18.96,88.831-12.128,150.478,4.633,207.419c7.806,26.5,26.657,51.247,52.9,61.464,15.98,6.2,33.246,6.8,49.5,11.847,7.141,2.227,14.235,5.717,19.723,10.906,3.7,3.49,11.342,12.1,9.689,17.909s-3.169,15.452,4.982,16.761c7.3,1.171,15.131-8.771,16.83-14.74,6.567-22.937-1.929-44.152-23.1-56.045s-47.78-8.771-69.247-20.572c-43.808-24.062-49.64-80.8-28.264-121.941C58.888,72.139,100.376,44.2,144.942,34.967c25.3-5.235,51.637-4.385,76.755,1.446,23.6,5.487,52.923,14.993,62.658,39.4,8.817,22.065,14.947,55.609-2.457,75.217-56.539,39.888-95.2,12.586-128.1,56.39-8.869,18.3,8.092,26.509,16.725,21.7s-1.434-22.646,51.128-29.392Z" transform="translate(0 0)" fill="#ffd772"/>
    </g>
    <path id="Path_888" data-name="Path 888" d="M-23451.3-11448.927c3.367-5.464,10.959-8.06,15.156-.985s.945,13.89-1.568,17.241-8.863,2.438-12.725,0S-23454.668-11443.463-23451.3-11448.927Z" transform="translate(24647 12096)" fill="#ffd772"/>
    <path id="Path_889" data-name="Path 889" d="M-23451.187-11449.316c3.535-5.062,11.5-7.466,15.91-.912s.992,12.867-1.646,15.972-9.3,2.259-13.357,0S-23454.721-11444.254-23451.187-11449.316Z" transform="translate(24679.6 12091.747)" fill="#ffd772"/>
    <path id="Path_890" data-name="Path 890" d="M-23452.213-11449.912c3.367-5.464,10.686-5.477,16.068,0s2.514,14.052,0,17.4-9.1,4.357-12.965,1.919S-23455.58-11444.448-23452.213-11449.912Z" transform="translate(24713.166 12087)" fill="#ffd772"/>
  </g>
</svg>
