<svg xmlns="http://www.w3.org/2000/svg" xmlns:xlink="http://www.w3.org/1999/xlink" width="53" height="53" viewBox="0 0 53 53">
  <defs>
    <clipPath id="clip-path">
      <rect id="Rectangle_986" data-name="Rectangle 986" width="21" height="21" transform="translate(0 0)" fill="#fff"/>
    </clipPath>
  </defs>
  <g id="Group_759" data-name="Group 759" transform="translate(-190 -1155)">
    <circle id="Ellipse_53" data-name="Ellipse 53" cx="26.5" cy="26.5" r="26.5" transform="translate(190 1155)" fill="#66a2d1"/>
    <g id="Group_758" data-name="Group 758" transform="translate(206 1171)">
      <g id="Group_757" data-name="Group 757" transform="translate(0 0)" clip-path="url(#clip-path)">
        <path id="Path_814" data-name="Path 814" d="M20.1,5.025,15.658.581a1.99,1.99,0,0,0-2.812,0L.582,12.844A1.976,1.976,0,0,0,0,14.25v4.444a1.989,1.989,0,0,0,1.989,1.989H18.7a1.193,1.193,0,0,0,0-2.387H9.646L20.1,7.838a1.989,1.989,0,0,0,0-2.813M6.265,18.3H2.387V14.418L10.74,6.065l3.878,3.878ZM16.309,8.253,12.43,4.375l1.823-1.823,3.878,3.878Z" transform="translate(0 0)" fill="#fff"/>
      </g>
    </g>
  </g>
</svg>
