<svg width="21" height="21" viewBox="0 0 21 21" fill="none" xmlns="http://www.w3.org/2000/svg">
<mask id="mask0_727_8129" style="mask-type:luminance" maskUnits="userSpaceOnUse" x="0" y="0" width="21" height="21">
<path d="M21 0H0V21H21V0Z" fill="white"/>
</mask>
<g mask="url(#mask0_727_8129)">
<path d="M20.1 5.02498L15.658 0.580983C15.2849 0.208484 14.7792 -0.000732422 14.252 -0.000732422C13.7248 -0.000732422 13.2191 0.208484 12.846 0.580983L0.582008 12.844C0.396888 13.0282 0.250136 13.2474 0.150238 13.4887C0.0503398 13.73 -0.000721142 13.9888 7.69367e-06 14.25V18.694C7.69367e-06 19.2215 0.209562 19.7274 0.582572 20.1004C0.955582 20.4734 1.46149 20.683 1.98901 20.683H18.7C19.0165 20.683 19.3201 20.5572 19.5439 20.3334C19.7678 20.1096 19.8935 19.806 19.8935 19.4895C19.8935 19.1729 19.7678 18.8694 19.5439 18.6456C19.3201 18.4217 19.0165 18.296 18.7 18.296H9.64601L20.1 7.83798C20.2847 7.65329 20.4312 7.43401 20.5312 7.19268C20.6312 6.95135 20.6826 6.6927 20.6826 6.43148C20.6826 6.17027 20.6312 5.91161 20.5312 5.67028C20.4312 5.42896 20.2847 5.20968 20.1 5.02498ZM6.26501 18.3H2.38701V14.418L10.74 6.06498L14.618 9.94298L6.26501 18.3ZM16.309 8.25298L12.43 4.37498L14.253 2.55198L18.131 6.42998L16.309 8.25298Z" fill="white"/>
</g>
</svg>
