<svg width="27" height="23" viewBox="0 0 27 23" fill="none" xmlns="http://www.w3.org/2000/svg">
<path d="M16.5884 0.330217L27.0254 10.7672C27.1331 10.8748 27.2186 11.0027 27.277 11.1434C27.3353 11.2841 27.3653 11.4349 27.3653 11.5872C27.3653 11.7395 27.3353 11.8903 27.277 12.031C27.2186 12.1717 27.1331 12.2996 27.0254 12.4072L16.5884 22.8442C16.3708 23.0618 16.0756 23.1841 15.7679 23.1841C15.4601 23.1841 15.165 23.0618 14.9474 22.8442C14.7298 22.6266 14.6075 22.3315 14.6075 22.0237C14.6075 21.716 14.7298 21.4208 14.9474 21.2032L23.4054 12.7472L0.692352 12.7472C0.390728 12.7383 0.104427 12.6123 -0.10579 12.3958C-0.316007 12.1793 -0.433593 11.8895 -0.433593 11.5877C-0.433593 11.2859 -0.316007 10.9961 -0.10579 10.7796C0.104427 10.5631 0.390728 10.4371 0.692352 10.4282L23.4064 10.4282L14.9484 1.97122C14.7308 1.75362 14.6085 1.45842 14.6085 1.15072C14.6085 0.843019 14.7308 0.547816 14.9484 0.330217C15.166 0.112617 15.4611 -0.00968241 15.7689 -0.00968239C16.0766 -0.00968236 16.3708 0.112617 16.5884 0.330217Z" fill="white"/>
</svg>
