<svg width="24" height="20" viewBox="0 0 24 20" fill="none" xmlns="http://www.w3.org/2000/svg">
<path d="M0.292499 9.29304L9.2925 0.293043C9.48014 0.105402 9.73463 -1.40117e-05 10 -1.40349e-05C10.2654 -1.40581e-05 10.5199 0.105402 10.7075 0.293042C10.8951 0.480683 11.0006 0.735179 11.0006 1.00054C11.0006 1.26591 10.8951 1.5204 10.7075 1.70804L3.41375 9.00054L23 9.00054C23.2652 9.00054 23.5196 9.1059 23.7071 9.29344C23.8946 9.48097 24 9.73533 24 10.0005C24 10.2658 23.8946 10.5201 23.7071 10.7076C23.5196 10.8952 23.2652 11.0005 23 11.0005L3.41375 11.0005L10.7075 18.293C10.8951 18.4807 11.0006 18.7352 11.0006 19.0005C11.0006 19.2659 10.8951 19.5204 10.7075 19.708C10.5199 19.8957 10.2654 20.0011 10 20.0011C9.73464 20.0011 9.48014 19.8957 9.2925 19.708L0.292499 10.708C0.199522 10.6152 0.125763 10.5049 0.0754386 10.3835C0.0251143 10.2621 -0.00078669 10.132 -0.000786702 10.0005C-0.000786713 9.86913 0.0251143 9.739 0.0754385 9.6176C0.125763 9.49621 0.199522 9.38592 0.292499 9.29304Z" fill="#66A2D1"/>
</svg>
