<svg width="800" height="800" viewBox="0 0 800 800" fill="none" xmlns="http://www.w3.org/2000/svg">
<g clip-path="url(#clip0_3_2)">
<path fill-rule="evenodd" clip-rule="evenodd" d="M383.333 33.3331C364.923 33.3331 350 48.257 350 66.6664V99.9997H333.333C241.288 99.9997 166.666 174.608 166.666 266.658V366.667C166.666 391.257 158.906 419.073 146.58 447.16C134.388 474.94 118.625 500.98 104.714 521.463C79.396 558.747 95.0717 617.67 146.855 627.01C180.715 633.117 228.567 640.383 284.885 645.09C284.818 646.717 284.784 648.353 284.784 650C284.784 714.433 337.017 766.667 401.45 766.667C465.883 766.667 518.117 714.433 518.117 650C518.117 648.273 518.08 646.553 518.007 644.843C573.07 640.133 619.867 633.01 653.143 627.01C704.927 617.67 720.603 558.747 695.287 521.463C681.373 500.98 665.61 474.94 653.42 447.16C641.093 419.073 633.333 391.257 633.333 366.667V266.658C633.333 174.608 558.71 99.9997 466.667 99.9997H450V66.6664C450 48.257 435.077 33.3331 416.667 33.3331H383.333ZM400 650C417.043 650 433.74 649.66 449.99 649.05C450.253 675.86 428.47 698.55 401.45 698.55C374.49 698.55 352.677 675.927 352.907 649.153C368.243 649.7 383.97 650 400 650ZM333.333 166.666C278.102 166.666 233.333 211.432 233.333 266.658V366.667C233.333 404.113 221.849 441.543 207.626 473.953C193.268 506.667 175.176 536.37 159.866 558.917C159.526 559.417 159.367 559.897 159.314 560.377C159.266 560.807 159.306 561.207 159.389 561.527C212.147 571.01 300.015 583.333 400 583.333C499.983 583.333 587.853 571.01 640.61 561.527C640.693 561.207 640.733 560.807 640.687 560.377C640.63 559.897 640.473 559.417 640.133 558.917C624.823 536.37 606.73 506.667 592.373 473.953C578.15 441.543 566.667 404.113 566.667 366.667V266.658C566.667 211.432 521.897 166.666 466.667 166.666H333.333Z" fill="#031927"/>
<path fill-rule="evenodd" clip-rule="evenodd" d="M534.33 25.2486C538.74 7.60229 557.153 -3.41561 574.79 1.00449C577.103 1.58699 579.297 2.23246 583.053 3.49622C587.65 5.04196 593.943 7.38266 601.413 10.7366C616.313 17.4265 636.17 28.2709 656.607 45.102C698.103 79.277 740.537 137.043 749.833 230.017C751.667 248.335 738.3 264.67 719.983 266.501C701.667 268.333 685.33 254.968 683.5 236.65C676.13 162.956 643.56 120.723 614.227 96.564C599.247 84.2287 584.727 76.323 574.107 71.5547C568.817 69.1794 564.563 67.6137 561.803 66.6857C560.67 66.3044 559.53 65.9444 558.377 65.6194C540.64 61.0677 529.88 43.04 534.33 25.2486Z" fill="#031927"/>
<path fill-rule="evenodd" clip-rule="evenodd" d="M265.671 25.2486C261.206 7.38876 243.109 -3.46994 225.249 0.995018C222.922 1.57825 220.725 2.22556 216.947 3.49619C212.35 5.04192 206.057 7.38262 198.587 10.7366C183.686 17.4265 163.831 28.2709 143.393 45.102C101.895 79.277 59.4627 137.043 50.1653 230.016C48.3337 248.334 61.6983 264.669 80.0163 266.501C98.3347 268.333 114.669 254.968 116.501 236.65C123.871 162.956 156.438 120.723 185.774 96.564C200.752 84.2287 215.272 76.323 225.893 71.5547C231.183 69.1794 235.436 67.6137 238.196 66.6857C239.33 66.3044 240.471 65.9444 241.622 65.6194C259.36 61.0677 270.119 43.04 265.671 25.2486Z" fill="#031927"/>
</g>
<defs>
<clipPath id="clip0_3_2">
<rect width="800" height="800" fill="white"/>
</clipPath>
</defs>
</svg>
