<svg width="24" height="30" viewBox="0 0 24 30" fill="none" xmlns="http://www.w3.org/2000/svg">
<path d="M18.5002 27.9999C18.5002 28.3977 18.3421 28.7793 18.0608 29.0606C17.7795 29.3419 17.398 29.4999 17.0002 29.4999H7.00017C6.60234 29.4999 6.22081 29.3419 5.93951 29.0606C5.6582 28.7793 5.50017 28.3977 5.50017 27.9999C5.50017 27.6021 5.6582 27.2205 5.93951 26.9392C6.22081 26.6579 6.60234 26.4999 7.00017 26.4999H17.0002C17.398 26.4999 17.7795 26.6579 18.0608 26.9392C18.3421 27.2205 18.5002 27.6021 18.5002 27.9999ZM23.5002 11.9999C23.4952 13.7893 23.0749 15.5531 22.2723 17.1523C21.4698 18.7516 20.3068 20.1428 18.8752 21.2162C18.7564 21.309 18.6607 21.428 18.5957 21.564C18.5306 21.7 18.4979 21.8492 18.5002 21.9999C18.5002 22.3282 18.4355 22.6533 18.3099 22.9566C18.1842 23.2599 18.0001 23.5355 17.7679 23.7677C17.5358 23.9998 17.2602 24.184 16.9569 24.3096C16.6536 24.4352 16.3285 24.4999 16.0002 24.4999H8.00017C7.67186 24.4999 7.34677 24.4352 7.04346 24.3096C6.74015 24.184 6.46455 23.9998 6.2324 23.7677C6.00026 23.5355 5.81611 23.2599 5.69047 22.9566C5.56483 22.6533 5.50017 22.3282 5.50017 21.9999V21.9712C5.49791 21.8192 5.45996 21.6699 5.3894 21.5352C5.31883 21.4006 5.21762 21.2845 5.09392 21.1962C3.67235 20.1362 2.51713 18.7598 1.71978 17.176C0.922436 15.5921 0.504871 13.8444 0.500169 12.0712C0.466419 5.83615 5.50017 0.649901 11.7239 0.499901C13.2572 0.463058 14.7824 0.733294 16.2097 1.29471C17.6369 1.85612 18.9375 2.69736 20.0348 3.76892C21.1321 4.84049 22.004 6.12072 22.5991 7.53428C23.1943 8.94785 23.5006 10.4662 23.5002 11.9999ZM20.5002 11.9999C20.5005 10.8661 20.274 9.74368 19.834 8.69874C19.394 7.65379 18.7494 6.70744 17.9381 5.91538C17.1268 5.12333 16.1653 4.50158 15.1101 4.08675C14.0549 3.67192 12.9274 3.47239 11.7939 3.4999C7.19517 3.61115 3.47517 7.4449 3.50017 12.0487C3.50298 13.3604 3.81151 14.6534 4.40126 15.8251C4.99102 16.9968 5.84577 18.0149 6.89767 18.7987C7.32719 19.1209 7.68776 19.526 7.95807 19.9899C8.22838 20.4539 8.40293 20.9673 8.47142 21.4999H10.5002V17.6249L6.93892 14.0612C6.79939 13.9216 6.68871 13.756 6.6132 13.5737C6.53768 13.3914 6.49882 13.196 6.49882 12.9987C6.49882 12.6001 6.65713 12.2179 6.93892 11.9362C7.22071 11.6544 7.6029 11.496 8.00142 11.496C8.39993 11.496 8.78213 11.6544 9.06392 11.9362L12.0002 14.8749L14.9389 11.9362C15.2207 11.6544 15.6029 11.496 16.0014 11.496C16.3999 11.496 16.7821 11.6544 17.0639 11.9362C17.3457 12.2179 17.504 12.6001 17.504 12.9987C17.504 13.3972 17.3457 13.7794 17.0639 14.0612L13.5002 17.6249V21.4999H15.5314C15.5973 20.9712 15.7686 20.4611 16.035 19.9997C16.3015 19.5383 16.6577 19.135 17.0827 18.8137C18.1474 18.0261 19.0117 16.9988 19.6054 15.815C20.1992 14.6313 20.5057 13.3242 20.5002 11.9999Z" fill="white"/>
</svg>
