<svg width="25" height="27" viewBox="0 0 25 27" fill="none" xmlns="http://www.w3.org/2000/svg">
<path d="M22.5 2.5H19.5V1.5C19.5 1.23478 19.3946 0.98043 19.2071 0.792893C19.0196 0.605357 18.7652 0.5 18.5 0.5C18.2348 0.5 17.9804 0.605357 17.7929 0.792893C17.6054 0.98043 17.5 1.23478 17.5 1.5V2.5H7.5V1.5C7.5 1.23478 7.39464 0.98043 7.20711 0.792893C7.01957 0.605357 6.76522 0.5 6.5 0.5C6.23478 0.5 5.98043 0.605357 5.79289 0.792893C5.60536 0.98043 5.5 1.23478 5.5 1.5V2.5H2.5C1.96957 2.5 1.46086 2.71071 1.08579 3.08579C0.710714 3.46086 0.5 3.96957 0.5 4.5V24.5C0.5 25.0304 0.710714 25.5391 1.08579 25.9142C1.46086 26.2893 1.96957 26.5 2.5 26.5H22.5C23.0304 26.5 23.5391 26.2893 23.9142 25.9142C24.2893 25.5391 24.5 25.0304 24.5 24.5V4.5C24.5 3.96957 24.2893 3.46086 23.9142 3.08579C23.5391 2.71071 23.0304 2.5 22.5 2.5ZM22.5 8.5H2.5V4.5H5.5V5.5C5.5 5.76522 5.60536 6.01957 5.79289 6.20711C5.98043 6.39464 6.23478 6.5 6.5 6.5C6.76522 6.5 7.01957 6.39464 7.20711 6.20711C7.39464 6.01957 7.5 5.76522 7.5 5.5V4.5H17.5V5.5C17.5 5.76522 17.6054 6.01957 17.7929 6.20711C17.9804 6.39464 18.2348 6.5 18.5 6.5C18.7652 6.5 19.0196 6.39464 19.2071 6.20711C19.3946 6.01957 19.5 5.76522 19.5 5.5V4.5H22.5V8.5Z" fill="#E01D2F"/>
</svg>
