<svg width="44" height="52" viewBox="0 0 44 52" fill="none" xmlns="http://www.w3.org/2000/svg">
<path d="M11.8058 2.18999C13.3368 2.51599 16.5578 8.97499 16.4858 10.538C16.3948 12.458 11.8569 15.038 11.8569 15.038C11.8569 15.038 10.4548 16.026 10.4098 16.987C10.3358 18.549 12.3438 26.296 15.5358 30.696C19.1488 35.676 26.6918 38.917 27.6518 38.962C28.6108 39.007 30.9878 36.546 31.6268 36.265C33.5918 35.396 42.0958 38.681 42.0048 40.601C41.9318 42.163 36.9399 49.484 33.8729 49.837C30.8059 50.19 12.8058 47.19 5.80585 32.19C-0.63115 18.397 2.80585 9.18999 3.80585 7.18999C5.13485 4.53399 9.52485 1.70599 11.8058 2.18999Z" stroke="#8295C3" stroke-width="3" stroke-miterlimit="10" stroke-linecap="round"/>
</svg>
