<svg width="86" height="92" viewBox="0 0 86 92" fill="none" xmlns="http://www.w3.org/2000/svg">
<path d="M84.3013 61.2998H84.2013C83.1726 59.8377 81.6094 58.8395 79.8501 58.5213C78.0908 58.2032 76.277 58.5906 74.8013 59.5998L58.2013 70.8998L44.1013 70.2998L42.5013 67.0998L53.1013 65.9998C54.726 65.7397 56.1982 64.8909 57.2372 63.6151C58.2762 62.3393 58.8095 60.7258 58.7354 59.0821C58.6612 57.4384 57.9848 55.8795 56.8351 54.7025C55.6854 53.5254 54.1428 52.8126 52.5013 52.6998L30.2013 51.9998C28.5476 51.8971 26.9034 52.3169 25.5013 53.1998L1.40133 69.0998C1.14604 69.2256 0.920531 69.4044 0.739866 69.6243C0.559201 69.8442 0.427542 70.1001 0.353684 70.3749C0.279827 70.6497 0.265473 70.9372 0.311581 71.218C0.357689 71.4988 0.463197 71.7666 0.621056 72.0034C0.778915 72.2401 0.98549 72.4405 1.22698 72.5911C1.46847 72.7417 1.73931 72.839 2.02141 72.8765C2.30351 72.914 2.59037 72.8909 2.86282 72.8087C3.13528 72.7265 3.38705 72.5871 3.60133 72.3998L27.6013 56.5998C28.315 56.1447 29.1574 55.9341 30.0013 55.9998L52.4013 56.5998C53.1174 56.5733 53.8147 56.8323 54.3398 57.3199C54.8649 57.8075 55.1748 58.4838 55.2013 59.1998C55.2279 59.9159 54.9688 60.6132 54.4812 61.1383C53.9936 61.6634 53.3174 61.9733 52.6013 61.9998L42.1013 63.1998C41.4728 63.2799 40.8723 63.5081 40.3493 63.8657C39.8263 64.2233 39.3956 64.7001 39.0929 65.2567C38.7902 65.8133 38.6241 66.4338 38.6081 67.0672C38.5922 67.7006 38.727 68.3287 39.0013 68.8998L40.6013 72.0998C40.9074 72.7546 41.3851 73.3142 41.9838 73.7192C42.5825 74.1242 43.2797 74.3594 44.0013 74.3998L58.8013 74.9998C59.2341 74.9998 59.6551 74.8595 60.0013 74.5998L77.1013 62.7998C77.4033 62.5895 77.7438 62.4407 78.1032 62.3621C78.4627 62.2834 78.8342 62.2764 79.1964 62.3414C79.5586 62.4064 79.9045 62.5422 80.2142 62.741C80.5239 62.9397 80.7914 63.1976 81.0013 63.4998C81.3998 64.0743 81.5599 64.7808 81.448 65.4709C81.3361 66.161 80.9609 66.7808 80.4013 67.1998L58.9013 82.6998C58.0919 83.2826 57.0898 83.5332 56.1013 83.3998L25.5013 78.6998C25.2373 78.6632 24.9685 78.6797 24.7109 78.7484C24.4533 78.8171 24.2121 78.9366 24.0013 79.0998L12.0013 88.1998C11.577 88.5181 11.2964 88.9919 11.2214 89.517C11.1464 90.0421 11.2831 90.5755 11.6013 90.9998C11.9196 91.4242 12.3934 91.7047 12.9185 91.7797C13.4436 91.8548 13.977 91.7181 14.4013 91.3998L25.7013 82.7998L55.5013 87.2998C57.5111 87.5931 59.5561 87.0908 61.2013 85.8998L82.7013 70.4998C84.1127 69.476 85.0694 67.9423 85.3681 66.2245C85.6669 64.5067 85.2842 62.74 84.3013 61.2998Z" fill="#EEAC06"/>
<path d="M56.3998 46.5999L57.7998 46.2999C77.1998 38.3999 83.6998 23.9 81.5998 13.1C79.9998 5.29995 74.3998 0.299952 67.2998 0.299952C63.3824 0.438473 59.5921 1.72511 56.3998 3.99995C53.1937 1.66546 49.3632 0.342199 45.3998 0.199951C38.1998 0.199951 32.5998 5.29995 31.0998 13.1C28.9998 24 35.5998 38.5999 54.9998 46.2999L56.3998 46.5999ZM34.9998 13.9C36.0998 7.99995 40.0998 4.29995 45.3998 4.29995C48.4998 4.29995 51.7998 5.59995 55.1998 8.09995C55.546 8.3596 55.9671 8.49995 56.3998 8.49995C56.8326 8.49995 57.2536 8.3596 57.5998 8.09995C60.8998 5.69995 64.2998 4.39995 67.2998 4.39995C72.4998 4.39995 76.4998 7.99995 77.6998 13.9C79.4998 23.1 73.5998 35.4999 56.3998 42.5999C39.1998 35.5999 33.1998 23.2 34.9998 13.9Z" fill="#EEAC06"/>
</svg>
