<svg width="512" height="512" viewBox="0 0 512 512" fill="none" xmlns="http://www.w3.org/2000/svg">
<path d="M75.0341 184.852C65.2774 188.007 60.6156 197.498 57.5533 206.525C34.2235 275.297 55.8557 359.613 125.988 421.639C119.952 424.971 113.645 428.288 107.536 431.616C104.897 433.054 104.162 436.649 105.719 440.01C119.027 468.73 120.649 473.272 126.9 476.305L131.353 478.466C132.886 481.404 133.947 483.716 137.322 483.716C141.234 483.716 143.799 479.553 141.993 476.045C135.64 463.727 129.209 452.484 122.863 440.414C143.377 424.428 168.411 414.14 195.555 410.579C205.706 409.129 207.749 429.107 215.87 448.312C217.555 452.319 220.261 458.716 220.651 461.627C216.39 465.285 220.091 472.191 225.493 470.688C238.875 466.938 224.588 444.593 221.713 434.216C220 428.017 217.432 420.846 214.096 412.887C210.569 404.456 202.199 399.079 194.185 400.147C191.856 400.453 189.57 400.894 187.271 401.292C183.318 385.077 184.373 363.687 177.85 350.64C173.449 339.679 169.587 333.742 170.014 323.634C172.681 304.758 183.019 284.27 169.5 265.373C160.272 253.004 143.048 252.489 137.021 273.921C132.171 291.32 124.918 308.073 122.87 327.763C115.299 312.27 107.494 284.714 106.254 280.949C92.938 236.563 100.735 199.39 97.5482 189.236C94.6625 180.016 82.9823 175.776 75.0341 184.852ZM86.1715 190.634C88.4898 191.742 88.0063 197.376 87.8564 200.175C85.3076 249.96 94.4582 275.923 96.2331 284.161C101.013 298.471 111.966 341.77 126.055 347.188C130.488 348.905 134.757 344.315 132.64 339.982C133.817 333.131 130.631 329.033 140.959 296.62C148.39 277.512 146.852 266.699 155.521 267.497C161.948 268.647 165.838 279.822 165.754 287.736C165.892 297.591 161.718 307.964 160.062 318.695C158.118 330.538 161.042 338.156 165.808 349.168C176.065 372.865 171.672 381.174 176.951 403.416C164.228 406.448 152.036 410.842 140.684 416.658C94.1589 351.776 50.3505 308.988 76.3701 207.284C79.1646 197.305 81.7844 188.53 86.1715 190.634Z" fill="#E01D2F"/>
<path d="M447.926 188.774C445.85 186.459 442.534 183.793 438.9 182.523C431.036 173.112 419.332 177.381 416.275 186.421C413.057 195.921 419.432 237.067 405.494 277.757C400.981 291.295 394.423 311.415 387.759 324.287C386.803 312.424 375.66 265.888 369.638 258.353C359.601 247.466 342.538 252.446 336.864 272.435C331.283 293.27 342.289 308.769 340.48 324.257C338.924 334.813 331.372 344.291 328.117 357.832C325.422 369.638 324.895 384.281 321.671 396.296C319.38 395.844 317.105 395.35 314.781 394.99C306.802 393.729 298.309 398.928 294.583 407.264C286.351 425.638 289.106 423.408 282.391 438.339C277.638 448.907 274.843 455.64 277.117 460.647C279.589 466.111 286.825 466.48 288.412 461.284C289.021 459.264 288.364 457.161 286.898 455.839C287.618 451.351 294.756 437.362 296.542 431.455C298.281 425.695 300.857 418.997 304.185 411.558C305.953 407.599 309.87 404.873 313.172 405.387C340.227 409.579 365.014 420.449 385.151 436.901C378.558 448.771 371.657 460.209 365.199 472.092C362.356 477.303 370.005 485.183 375.769 474.756L380.283 472.693C386.884 469.677 388.922 464.098 402.301 436.9C403.935 433.576 403.284 429.964 400.679 428.465C394.649 424.997 388.42 421.534 382.464 418.063C415.272 390.377 440.028 355.385 452.989 318.171C473.378 259.631 459.755 201.964 447.926 188.774ZM344.322 344.702C348.628 335.365 351.453 328.766 351.24 318.921C351.059 304.04 339.369 282.638 350.87 267.318C353.532 263.924 356.837 261.879 360.446 264.202C368.419 268.96 376.418 327.682 377.704 336.277C375.473 340.578 379.695 345.249 384.117 343.633C397.809 338.728 410.019 297.564 415.487 281.051C431.698 233.536 421.927 190.674 427.624 188.044C433.242 185.539 437.674 207.987 438.898 212.88C447.904 251.648 443.212 292.647 429.295 323.264C415.985 354.308 389.813 386.254 368.151 412.409C368.014 412.485 367.901 412.595 367.773 412.684C356.592 406.635 344.547 401.977 331.939 398.66C337.904 375.943 333.347 368.631 344.322 344.702Z" fill="#E01D2F"/>
<path d="M287.013 69.6507C286.508 63.453 285.284 50.2466 278.295 46.9495C274.449 42.9042 269.044 40.3459 263.022 40.3459H252.768C241.179 40.3459 231.755 49.7706 231.755 61.3528V132.14H164.577C150.145 132.14 138.398 143.887 138.398 158.319C138.398 172.75 150.145 184.497 164.577 184.497H231.755V355.86C231.755 367.442 241.179 376.866 252.768 376.866H263.022C270.578 376.866 277.164 372.855 280.889 366.891C288.984 358.523 289.268 345.807 289.319 334.152C289.526 286.641 289.734 239.131 289.943 191.62C290.888 191.705 324.48 192.201 348.186 190.046C380.502 185.69 382.734 163.225 376.02 150.376C372.633 139.84 362.852 132.14 351.207 132.14H288.394C289.13 114.255 288.73 90.7105 287.013 69.6507ZM242.275 355.86V179.236C242.275 176.332 239.919 173.976 237.015 173.976H164.577C155.94 173.976 148.919 166.956 148.919 158.319C148.919 149.682 155.94 142.661 164.577 142.661H237.015C239.919 142.661 242.275 140.305 242.275 137.401V61.3528C242.275 55.572 246.981 50.8665 252.768 50.8665H263.022C268.85 50.8665 273.59 55.572 273.59 61.3528V137.401C273.59 140.305 275.946 142.661 278.85 142.661H351.207C371.982 142.661 371.656 173.976 351.207 173.976H278.85C275.946 173.976 273.59 176.332 273.59 179.236V355.86C273.59 361.64 268.85 366.346 263.022 366.346H252.768C246.981 366.346 242.275 361.64 242.275 355.86Z" fill="#E01D2F"/>
<path d="M341.248 74.0787L361.55 36.0171C362.913 33.4554 361.947 30.2705 359.378 28.9006C356.81 27.5445 353.639 28.4965 352.262 31.0719L331.961 69.1335C328.692 75.2763 337.966 80.2192 341.248 74.0787Z" fill="#E01D2F"/>
<path d="M414.491 85.7567C416.807 83.9964 417.252 80.6951 415.491 78.3869C413.738 76.0718 410.43 75.6197 408.122 77.3869L376.444 101.531C372.462 104.558 374.595 110.976 379.635 110.976C382.819 110.976 381.401 110.486 414.491 85.7567Z" fill="#E01D2F"/>
<path d="M144.632 43.7636C141.37 37.634 132.073 42.5254 135.33 48.6951C141.871 61.0239 150.33 72.154 160.467 81.7636C165.467 86.5266 172.751 78.9221 167.7 74.1335C158.399 65.3047 150.632 55.0855 144.632 43.7636Z" fill="#E01D2F"/>
<path d="M87.0764 105.428C126.434 123.536 125.192 123.627 127.378 123.627C132.998 123.627 134.668 115.95 129.597 113.599L91.5148 95.8938C88.8847 94.6747 85.7545 95.7979 84.5285 98.4418C83.3025 101.079 84.4395 104.202 87.0764 105.428Z" fill="#E01D2F"/>
</svg>
