<svg width="513" height="513" viewBox="0 0 513 513" fill="none" xmlns="http://www.w3.org/2000/svg">
<g clip-path="url(#clip0_676_8201)">
<path d="M132.071 351.452C130.528 336.779 126.631 316.489 107.693 316.972C88.4751 317.462 80.6242 336.64 79.4672 353.029C77.8592 375.794 75.3631 402.893 79.3381 425.451C82.3621 442.613 106.334 438.686 119.618 438.919C123.454 438.986 127.546 438.565 130.282 435.532C133.352 432.128 133.047 427.497 133.299 423.232C134.716 399.261 134.585 375.354 132.071 351.452ZM104.16 375.742C104.082 384.375 104.003 393.008 103.925 401.641C103.849 409.978 103.283 418.508 103.689 426.862C97.7351 426.529 91.7781 426.247 85.8201 426.189C86.8171 409.331 87.5381 392.511 87.9371 375.611C88.0261 371.847 87.9032 367.667 87.8832 363.353C93.3382 363.757 98.8001 364.005 104.265 364.169L104.16 375.742ZM104.404 348.764L104.323 357.656C98.8481 357.893 93.3771 358.215 87.9151 358.691C88.1571 347.492 89.8181 336.068 98.2131 329.12C100.13 327.533 102.375 326.284 104.713 325.559C104.1 333.216 104.473 341.148 104.404 348.764ZM109.833 347.684C109.635 340.182 109.851 332.397 109.109 324.872C111.977 324.894 114.775 325.881 117.092 328.22C122.067 333.243 122.895 341.599 123.52 348.25C123.794 351.164 124.023 354.082 124.232 357.002C119.512 357.138 114.792 357.266 110.073 357.43C109.993 354.181 109.918 350.933 109.833 347.684ZM124.828 405.029C124.581 410.39 124.227 415.746 123.769 421.094C123.644 422.562 123.917 426.742 122.544 427.709C121.46 428.472 117.768 427.662 116.55 427.597C114.958 427.512 113.364 427.421 111.771 427.329C112.091 418.819 111.372 410.13 111.163 401.642C110.941 392.649 110.72 383.656 110.498 374.664C110.413 371.217 110.326 367.771 110.243 364.324C115.061 364.426 119.88 364.49 124.699 364.565C125.408 378.04 125.45 391.554 124.828 405.029Z" fill="#E01D2F"/>
<path d="M496.947 307.373C504.753 303.85 510.902 295.681 509.91 286.836C509.281 281.228 504.648 279.446 500.222 276.776C495.321 273.821 490.41 270.887 485.385 268.147C445.186 246.224 402.65 226.052 358.544 213.269C357.512 196.371 356.215 179.498 354.541 162.671C355.383 163.137 356.223 163.606 357.071 164.061C365.191 168.418 374.23 171.362 383.444 169.102C391.843 167.042 398.833 160.695 399.937 151.887C401.09 142.688 396.128 134.274 389.104 128.716C380.578 121.97 369.759 118.029 360.011 113.416C348.671 108.048 337.295 102.76 325.92 97.467C304.22 87.37 282.516 77.281 260.74 67.349C261.457 66.479 261.909 65.308 261.91 63.822C261.914 53.587 261.771 43.35 261.689 33.114C265.275 33.004 268.857 32.823 272.433 32.545C279.553 31.99 279.525 20.741 272.433 21.426C268.728 21.784 265.034 22.034 261.344 22.194C261.332 21.954 261.324 21.714 261.311 21.474C261.524 16.079 261.829 10.684 262.239 5.28801C262.735 -1.24199 253 -0.948989 252.224 5.28801C251.517 10.967 251.007 16.662 250.641 22.365C245.655 22.303 240.666 22.05 235.657 21.567C228.586 20.884 228.653 31.9 235.657 32.601C238.474 32.883 241.295 33.029 244.113 33.041C246.12 33.117 248.127 33.171 250.136 33.202C249.849 43.407 250.054 53.626 250.716 63.822C250.813 65.322 251.37 66.509 252.182 67.387C230.433 77.306 208.757 87.383 187.084 97.467C175.709 102.76 164.333 108.048 152.993 113.416C143.245 118.03 132.426 121.971 123.9 128.716C116.876 134.274 111.914 142.688 113.067 151.887C114.171 160.695 121.161 167.043 129.56 169.102C138.774 171.362 147.813 168.417 155.933 164.061C156.781 163.606 157.621 163.137 158.463 162.671C156.789 179.498 155.492 196.371 154.46 213.269C110.354 226.052 67.8186 246.224 27.6186 268.147C22.5936 270.887 17.6825 273.821 12.7815 276.776C8.35555 279.445 3.72255 281.227 3.09355 286.836C2.10155 295.681 8.25055 303.85 16.0566 307.373C21.5775 309.865 27.4556 309.829 33.1826 308.592C32.3636 330.045 33.8646 351.665 34.6166 373.094C35.4116 395.792 36.5825 418.479 37.6085 441.167C38.0455 450.815 36.9335 462.223 40.1695 471.449C40.8555 473.404 41.8465 475.128 43.0635 476.641C42.3295 476.654 41.5965 476.659 40.8625 476.674C33.5935 476.822 24.9685 476.148 18.6475 480.466C12.4525 484.698 11.3935 492.655 15.5205 498.754C20.3426 505.88 29.2745 506.699 37.0985 507.47C96.3676 513.309 155.015 510.106 214.384 510.539C274.126 510.975 333.88 513.857 393.62 511.719C421.109 510.735 448.41 510.179 475.902 507.47C483.726 506.699 492.658 505.88 497.48 498.754C501.607 492.655 500.548 484.698 494.353 480.466C488.033 476.148 479.407 476.822 472.138 476.674C471.404 476.659 470.671 476.654 469.937 476.641C471.154 475.128 472.145 473.404 472.831 471.449C476.067 462.222 474.955 450.814 475.392 441.167C476.419 418.479 477.589 395.792 478.384 373.094C479.135 351.664 480.637 330.045 479.818 308.592C485.547 309.829 491.426 309.864 496.947 307.373ZM145.43 158.327C138.816 160.641 127.965 161.283 124.426 153.499C120.602 145.09 129.905 137.12 136.153 133.439C154.229 122.79 173.893 114.289 192.595 104.773C213.928 93.918 235.257 83.054 256.503 72.029C277.749 83.053 299.078 93.917 320.411 104.772C339.113 114.288 358.777 122.789 376.853 133.438C383.101 137.119 392.404 145.089 388.58 153.498C385.041 161.282 374.19 160.64 367.576 158.326C357.957 154.961 349.066 148.651 340.141 143.804C331.095 138.891 322.012 134.071 312.798 129.479C302.38 124.287 291.474 119.761 281.269 114.182C274.792 110.641 268.459 103.773 260.81 103.093C251.486 102.264 240.585 110.227 232.389 113.908C221.513 118.791 210.878 124.163 200.209 129.48C190.995 134.072 181.912 138.893 172.866 143.805C163.94 148.652 155.049 154.961 145.43 158.327ZM302.537 472.854C292.002 436.679 317.915 387.841 282.868 359.924C269.655 349.399 252.048 349.533 238.339 359.105C222.88 369.899 216.377 387.55 214.786 405.738C213.785 417.189 214.99 428.644 215.837 440.065C216.712 451.863 216.978 463.596 216.153 475.388C211.327 475.497 206.51 475.676 201.717 475.968L187.513 475.881C182.011 475.847 176.294 476.151 170.974 474.492C159.435 470.893 161.669 455.402 161.615 445.921C161.539 432.608 161.521 419.294 161.559 405.981C161.714 352.369 162.258 298.771 163.643 245.175C164.389 216.306 165.45 187.461 165.624 158.584C172.524 154.546 179.348 150.373 186.441 146.653C209.399 134.615 233.334 124.651 256.501 113.09C279.669 124.652 303.604 134.616 326.561 146.653C333.654 150.372 340.478 154.546 347.378 158.584C347.552 187.461 348.613 216.305 349.359 245.175C350.744 298.771 351.288 352.369 351.443 405.981C351.482 419.294 351.463 432.608 351.387 445.921C351.333 455.402 353.567 470.893 342.028 474.492C336.708 476.151 330.991 475.847 325.489 475.881C319.104 475.92 312.719 475.96 306.334 475.999C305.076 476.007 303.817 476.009 302.559 476.014C302.849 475.089 302.879 474.029 302.537 472.854ZM291.57 475.878C291.586 475.937 291.608 475.991 291.625 476.049C287.238 476.067 282.851 476.101 278.467 476.193C273.007 476.045 267.549 475.926 262.094 475.809C263.019 466.957 262.071 457.711 261.827 448.866C261.541 438.489 261.255 428.113 260.969 417.736C260.447 398.78 260.086 379.82 259.673 360.861C265.689 360.489 271.782 362.197 277.194 366.692C290.954 378.119 293.039 396.775 292.073 413.513C290.866 434.426 286.015 455.157 291.57 475.878ZM253.06 475.611C242.762 475.377 232.303 475.176 221.847 475.288C226.958 458.467 224.365 440.306 224.183 422.978C224.006 406.114 224.825 387.02 236.28 373.511C241.081 367.849 247.428 363.587 254.18 361.773C253.991 380.428 253.849 399.084 253.55 417.737C253.39 427.756 253.23 437.774 253.069 447.794C252.924 456.906 252.023 466.494 253.06 475.611ZM21.1455 299.308C16.5565 297.652 12.4445 293.59 12.8675 288.765C36.7826 276.439 60.2735 263.351 84.4785 251.573C107.412 240.415 130.894 230.465 154.079 219.859C153.527 229.523 153.056 239.194 152.648 248.868C128.041 259.142 103.289 269.069 78.8255 279.686C66.0725 285.221 53.5905 291.575 40.7025 296.768C34.7695 299.16 27.4785 301.593 21.1455 299.308ZM38.5945 307.086C40.8125 306.34 42.9826 305.473 45.0676 304.558C56.2365 299.655 67.1885 294.241 78.3395 289.287C102.759 278.438 127.433 268.18 152.266 258.322C151.414 280.567 150.844 302.818 150.314 325.025C149.628 353.807 149.202 382.587 149.26 411.378C149.289 425.411 149.362 439.445 149.537 453.477C149.647 462.313 150.308 471.321 156.011 477.764C127.813 476.745 99.5506 476.559 71.3866 475.876C63.8716 475.694 53.5395 476.531 51.2045 467.538C50.0945 463.263 50.2335 458.518 49.9455 454.134C49.5905 448.732 49.2355 443.329 48.8806 437.926C47.4846 416.675 46.2276 395.41 44.6166 374.175C42.9216 351.846 41.9815 329.246 38.5945 307.086ZM471.073 485.649C474.746 485.881 494.031 485.402 489.681 493.323C487.577 497.156 481.898 497.673 478.023 498.162C473.792 498.696 469.546 499.138 465.304 499.579C456.113 500.535 446.907 501.343 437.69 502.003C419.623 503.298 401.5 503.764 383.389 503.735C331.875 503.735 280.103 503.286 228.534 501.652C195.417 500.602 162.739 503.682 129.617 503.735C111.506 503.764 93.3826 503.299 75.3156 502.003C66.0986 501.342 56.8925 500.534 47.7015 499.579C43.4595 499.138 39.2146 498.695 34.9825 498.162C31.1066 497.673 25.4286 497.155 23.3246 493.323C18.9746 485.402 38.2595 485.88 41.9325 485.649C46.9995 485.329 52.0585 484.95 57.1155 484.539C57.2955 484.576 57.4735 484.619 57.6545 484.653C67.3286 486.47 77.6146 485.796 87.4116 486C98.4506 486.23 109.49 486.461 120.53 486.69C177.435 487.875 234.358 487.798 291.272 487.454C319.44 487.283 347.608 487.045 375.776 486.86C401.811 486.69 429.719 489.481 455.353 484.652C455.533 484.618 455.712 484.575 455.892 484.538C460.947 484.949 466.006 485.329 471.073 485.649ZM468.39 374.175C466.778 395.41 465.521 416.675 464.126 437.926C463.771 443.328 463.416 448.731 463.061 454.134C462.773 458.518 462.912 463.263 461.802 467.538C459.466 476.531 449.135 475.693 441.62 475.876C413.456 476.56 385.193 476.745 356.995 477.764C362.698 471.321 363.359 462.313 363.469 453.477C363.643 439.445 363.717 425.411 363.746 411.378C363.805 382.588 363.378 353.807 362.692 325.025C362.162 302.818 361.593 280.566 360.74 258.322C385.573 268.181 410.247 278.439 434.666 289.287C445.817 294.241 456.769 299.655 467.938 304.558C470.023 305.473 472.193 306.34 474.411 307.086C471.024 329.246 470.084 351.846 468.39 374.175ZM472.302 296.768C459.414 291.575 446.933 285.22 434.18 279.686C409.717 269.069 384.965 259.142 360.358 248.868C359.949 239.194 359.478 229.523 358.927 219.859C382.112 230.465 405.594 240.415 428.527 251.573C452.732 263.351 476.223 276.439 500.138 288.765C500.56 293.59 496.449 297.652 491.86 299.308C485.527 301.593 478.236 299.16 472.302 296.768Z" fill="#E01D2F"/>
<path d="M432.631 414.608C433.328 394.171 434.95 373.031 433.537 353.029C432.379 336.64 424.528 317.462 405.311 316.972C386.373 316.489 382.476 336.78 380.933 351.452C378.42 375.353 378.288 399.261 379.705 423.232C379.957 427.497 379.652 432.128 382.722 435.532C385.458 438.565 389.549 438.986 393.386 438.919C403.047 438.75 417.78 440.593 426.851 437.163C435.598 433.855 432.337 423.246 432.631 414.608ZM402.505 374.663C402.284 383.656 402.062 392.649 401.84 401.641C401.631 410.129 400.912 418.818 401.232 427.328C399.639 427.42 398.046 427.511 396.453 427.596C395.234 427.661 391.543 428.471 390.459 427.708C389.086 426.742 389.359 422.561 389.234 421.093C388.777 415.745 388.423 410.389 388.175 405.028C387.553 391.553 387.595 378.039 388.303 364.563C393.122 364.488 397.941 364.423 402.759 364.322C402.677 367.769 402.59 371.216 402.505 374.663ZM403.17 347.685C403.084 350.934 403.01 354.182 402.93 357.431C398.212 357.267 393.491 357.139 388.771 357.003C388.98 354.083 389.21 351.165 389.483 348.251C390.108 341.599 390.936 333.244 395.911 328.221C398.228 325.881 401.026 324.894 403.893 324.873C403.152 332.397 403.368 340.183 403.17 347.685ZM408.6 348.764C408.531 341.148 408.904 333.216 408.291 325.559C410.629 326.284 412.874 327.533 414.791 329.12C423.186 336.068 424.847 347.492 425.088 358.691C419.626 358.214 414.155 357.893 408.68 357.656L408.6 348.764ZM409.315 426.863C409.721 418.509 409.155 409.979 409.079 401.642C409.001 393.009 408.922 384.376 408.844 375.743L408.739 364.17C414.204 364.006 419.666 363.757 425.121 363.354C425.101 367.668 424.978 371.848 425.067 375.613C425.467 392.513 426.187 409.333 427.184 426.191C421.226 426.247 415.269 426.53 409.315 426.863Z" fill="#E01D2F"/>
<path d="M314.992 173.46C311.633 160.12 298.704 153.87 285.746 156.857C273.166 159.757 264.956 170.224 258.1 180.532C250.514 171.696 241.852 163.253 230.42 159.927C220.299 156.982 208.002 158.39 200.149 165.9C178.886 186.237 204.353 217.099 220.541 230.847C225.472 235.035 230.647 238.932 235.873 242.74C241.352 246.732 246.931 251.517 253.481 253.599C266.472 257.728 278.767 249.449 287.854 240.874C297.125 232.125 304.462 221.309 309.423 209.59C314.072 198.61 317.997 185.393 314.992 173.46ZM300.831 204.131C296.989 213.033 291.584 221.317 284.924 228.362C278.574 235.079 269.757 243.782 259.915 244.216C254.515 244.454 250.118 241.141 245.86 238.233C241.6 235.323 237.349 232.396 233.195 229.334C224.382 222.837 215.817 215.546 209.3 206.675C203.546 198.842 198.323 187.223 202.793 177.639C207.07 168.468 219.049 166.251 228.003 168.692C238.968 171.682 247.608 180.086 255.366 187.991C256.673 190.817 261.302 192.155 263.516 188.658C268.644 180.56 274.247 171.231 283.408 167.196C292.329 163.267 303.346 165.503 305.766 176.001C307.892 185.219 304.466 195.708 300.831 204.131Z" fill="#E01D2F"/>
</g>
<defs>
<clipPath id="clip0_676_8201">
<rect width="512" height="512" fill="white" transform="translate(0.5 0.5)"/>
</clipPath>
</defs>
</svg>
