<svg width="27" height="27" viewBox="0 0 27 27" fill="none" xmlns="http://www.w3.org/2000/svg">
<path d="M13.5 0C10.83 0 8.21987 0.791761 5.99981 2.27516C3.77974 3.75856 2.04942 5.86697 1.02763 8.33377C0.00584936 10.8006 -0.261496 13.515 0.259405 16.1337C0.780305 18.7525 2.06606 21.1579 3.95406 23.0459C5.84207 24.934 8.24754 26.2197 10.8663 26.7406C13.485 27.2615 16.1994 26.9942 18.6662 25.9724C21.133 24.9506 23.2414 23.2203 24.7248 21.0002C26.2082 18.7801 27 16.17 27 13.5C26.996 9.9208 25.5724 6.48932 23.0416 3.95844C20.5107 1.42756 17.0792 0.00397028 13.5 0ZM13.5 24C11.4233 24 9.39323 23.3842 7.66652 22.2304C5.9398 21.0767 4.59399 19.4368 3.79927 17.5182C3.00455 15.5996 2.79662 13.4884 3.20176 11.4516C3.60691 9.41475 4.60693 7.54383 6.07538 6.07538C7.54384 4.60693 9.41476 3.6069 11.4516 3.20175C13.4884 2.79661 15.5996 3.00454 17.5182 3.79926C19.4368 4.59399 21.0767 5.9398 22.2304 7.66651C23.3842 9.39323 24 11.4233 24 13.5C23.997 16.2839 22.8898 18.9528 20.9213 20.9213C18.9529 22.8898 16.2839 23.997 13.5 24ZM22 13.5C22 13.8978 21.842 14.2794 21.5607 14.5607C21.2794 14.842 20.8978 15 20.5 15H13.5C13.1022 15 12.7206 14.842 12.4393 14.5607C12.158 14.2794 12 13.8978 12 13.5V6.5C12 6.10218 12.158 5.72064 12.4393 5.43934C12.7206 5.15804 13.1022 5 13.5 5C13.8978 5 14.2794 5.15804 14.5607 5.43934C14.842 5.72064 15 6.10218 15 6.5V12H20.5C20.8978 12 21.2794 12.158 21.5607 12.4393C21.842 12.7206 22 13.1022 22 13.5Z" fill="white"/>
</svg>
