<svg width="31" height="23" viewBox="0 0 31 23" fill="none" xmlns="http://www.w3.org/2000/svg">
<path d="M23 6.26375V6C23 4.1725 21.6463 2.55625 19.1863 1.45C17.1088 0.515 14.375 0 11.5 0C8.625 0 5.89125 0.515 3.81375 1.45C1.35375 2.55625 0 4.1725 0 6V11C0 12.8275 1.35375 14.4437 3.81375 15.55C5.15058 16.1285 6.55829 16.527 8 16.735V17C8 18.8275 9.35375 20.4437 11.8138 21.55C13.8913 22.485 16.625 23 19.5 23C22.375 23 25.1088 22.485 27.1863 21.55C29.6463 20.4437 31 18.8275 31 17V12C31 9.2325 27.8387 7.01 23 6.26375ZM28 12C28 12.9688 25.2788 14.81 20.2738 14.985C22.0413 13.925 23 12.5375 23 11V9.305C26.235 9.89375 28 11.185 28 12ZM12.9213 13.9538C12.4675 13.9838 11.9938 14 11.5 14C10.865 14 10.2637 13.9725 9.69625 13.9237C9.64898 13.9175 9.60141 13.9138 9.55375 13.9125C9.365 13.895 9.17875 13.875 9 13.8525V11.8662C9.83035 11.9555 10.6649 12.0001 11.5 12C12.3351 12.0001 13.1697 11.9555 14 11.8662V13.8525C13.6887 13.89 13.3663 13.9225 13.0312 13.9463C13 13.9475 12.9575 13.95 12.9213 13.9538ZM20 10.1425V11C20 11.5975 18.965 12.5262 17 13.1925V11.3175C17.7481 11.1212 18.4792 10.8649 19.1863 10.5513C19.4729 10.4221 19.7442 10.2858 20 10.1425ZM11.5 3C17 3 20 4.98125 20 6C20 7.01875 17 9 11.5 9C6 9 3 7.01875 3 6C3 4.98125 6 3 11.5 3ZM3 11V10.1425C3.25667 10.285 3.52792 10.4208 3.81375 10.55C4.52076 10.8637 5.25187 11.1199 6 11.3162V13.1912C4.035 12.5262 3 11.5975 3 11ZM11 17C11.1663 17 11.3325 17 11.5 17C11.9533 17 12.4021 16.9867 12.8462 16.96C13.2171 17.0908 13.6017 17.21 14 17.3175V19.1925C12.035 18.5262 11 17.5975 11 17ZM17 19.8525V17.8675C17.8304 17.9564 18.6649 18.0007 19.5 18C20.3351 18.0001 21.1697 17.9555 22 17.8662V19.8525C20.3391 20.0492 18.6609 20.0492 17 19.8525ZM25 19.1925V17.3175C25.7481 17.1211 26.4792 16.8649 27.1863 16.5513C27.4729 16.4229 27.7442 16.2871 28 16.1437V17C28 17.5975 26.965 18.5262 25 19.1925Z" fill="white"/>
</svg>
