<svg width="324" height="357" viewBox="0 0 324 357" fill="none" xmlns="http://www.w3.org/2000/svg">
<path d="M92.9574 52.785C73.7524 52.957 2.70565 88.2412 0.0316487 235.112C-2.64235 381.983 164.725 450.501 275.389 397.268C386.053 344.035 384.996 264.311 385.047 203.048C385.098 141.785 339.903 50.5422 255.659 14.5302C171.415 -21.4818 97.1801 25.6747 97.1801 25.6747C97.1801 25.6747 93.5004 36.2991 100.793 40.8251C108.086 45.3511 143.368 23.3367 180.094 25.6747C216.82 28.0127 304.167 37.9747 335.618 132.175C367.069 226.375 351.904 276.869 325.873 310.619C299.842 344.369 234.589 406.501 137.161 366.703C39.7326 326.905 38.2656 229.913 43.5336 191.266C48.8016 152.619 74.3557 101.945 88.9027 87.3944C103.45 72.8434 112.162 52.618 92.9574 52.785Z" fill="#FFD772"/>
<path d="M131.37 238.038C156.663 210.456 181.958 182.879 207.256 155.307C204.956 153.442 202.663 151.565 200.356 149.701C207.49 189.459 214.623 229.221 221.756 268.987C222.232 271.665 223.733 277.109 227.525 275.544C231.016 274.092 231.325 266.897 230.804 263.993C223.674 224.235 216.543 184.473 209.409 144.707C208.896 141.879 206.368 134.907 202.509 139.101C177.218 166.682 151.922 194.259 126.622 221.833C123.781 224.924 123.744 230.906 124.933 234.673C125.822 237.501 128.433 241.23 131.353 238.039L131.37 238.038Z" fill="#FFD772" stroke="#FFD772" stroke-width="6"/>
<path d="M215.445 118.616C216.708 122.306 229.567 123.703 233.443 140.476C237.32 157.248 250.402 147.381 251.132 144.565C251.861 141.749 246.048 126.009 237.719 118.948C229.39 111.887 226.248 108.275 221.016 109.218C219.977 109.363 218.983 109.74 218.11 110.321C217.236 110.903 216.504 111.673 215.969 112.576C215.434 113.479 215.109 114.491 215.018 115.536C214.927 116.582 215.073 117.634 215.445 118.616Z" fill="#FFD772"/>
<path d="M225.123 94.4372C227.214 99.8978 244.561 96.596 253.256 124.411C261.951 152.226 270.87 134.888 271.579 130.638C272.288 126.387 269.87 112.081 256.885 99.2517C243.901 86.4219 238.066 80.4311 231.043 82.0987C224.021 83.7662 223.034 88.9752 225.123 94.4372Z" fill="#FFD772"/>
</svg>
