<svg width="512" height="512" viewBox="0 0 512 512" fill="none" xmlns="http://www.w3.org/2000/svg">
<path d="M92.2108 375.401C105.879 375.401 109.341 359.829 99.3101 353.46C97.9939 352.629 96.4645 352.394 95.0343 352.717C87.6972 349.92 80.4995 353.284 78.3468 359.615C75.4572 368.124 82.8912 375.401 92.2108 375.401Z" fill="#66A2D1"/>
<path d="M403.048 70.6206C373.849 69.5711 344.021 82.9475 324.015 105.208C315.028 110.179 312.515 108.162 306.499 105.381C300.056 102.403 294.635 97.6477 288.789 93.6215C269.887 80.6018 245.841 75.2792 223.209 79.1054C216.653 80.2134 210.444 82.6969 204.451 85.6882C181.764 93.3274 162.061 109.628 151.415 131.409C123.774 187.541 156.772 251.25 249.184 320.792C244.17 324.734 245.077 324.074 244.448 324.578C243.672 325.019 242.779 325.578 242.282 325.909C229.921 333.53 215.108 332.725 201.521 334.343C180.597 334.343 151.331 351.935 126.554 357.629C125.311 353.729 124.082 349.826 122.639 345.96C118.782 335.629 106.874 329.041 94.2935 330.107C81.6722 331.254 70.5692 332.872 61.2935 334.923C45.3111 338.436 8.71533 335.464 12.481 352.762C20.5791 389.822 19.8187 417.789 26.5949 445.159C27.3413 448.181 30.4038 450.071 33.4332 449.276C36.4626 448.534 38.3082 445.468 37.5582 442.438C31.0152 415.997 31.9043 389.485 23.8045 351.681C27.5324 349.791 39.5251 348.725 46.2126 348.129C71.1036 345.925 66.0157 344.018 95.3155 341.357C102.617 340.688 110.014 344.446 112.058 349.916C126.628 388.938 130.485 429.99 123.275 468.946C101.408 469.342 65.5471 470.873 45.2714 471.115C41.9345 471.154 38.893 474.206 39.9902 478.218L39.31 480.293C41.6515 483.497 54.3987 491.499 58.367 491.53C67.1414 491.597 81.3045 492.02 84.8045 491.86C104.082 490.979 117.387 489.855 133.931 488.964C139.422 488.668 143.627 485.202 143.676 480.74C143.791 470.413 143.753 459.834 143.923 449.6C274.162 498.458 399.747 468.063 473.648 389.681C479.679 383.285 485.467 376.411 488.368 367.907C490.224 362.468 491.461 354.12 488.823 347.679C491.951 334.519 480.629 325.096 468.823 327.335C460.625 328.869 453.607 334.766 448.18 337.137C403.039 361.27 409.564 360.896 342.562 379.725C340.963 379.957 282.722 391.906 256.81 389.06C271.86 380.533 289.797 369.757 302.146 357.683C307.669 361.175 310.196 362.514 316.375 366.197C315.117 367.728 322.822 371.303 328.833 373.679C331.407 374.697 334.317 374.442 336.684 373.008C396.554 336.736 474.891 260.91 494.363 195.201C502.939 166.262 502.056 133.483 486.608 107.552C471.16 81.6202 433.932 68.4823 403.048 70.6206ZM457.707 89.1031C447.004 81.0135 434.242 75.4354 420.086 72.6408C433.764 73.7833 447.082 79.8646 457.707 89.1031ZM226.124 392.74C223.352 394.166 222.257 397.563 223.683 400.343C225.112 403.127 228.531 404.204 231.286 402.784C235.306 400.72 239.045 398.741 242.729 396.777C263.129 407.058 322.664 394.519 344.628 390.828C410.857 372.286 407.321 372.059 453.047 347.313C458.457 345.023 465.243 339.492 470.963 338.423C475.182 337.652 477.967 340.477 478.121 342.968C478.712 352.395 458.208 369.551 452.051 375.313C413.207 410.725 360.345 437.289 302.404 443.431C302.212 443.445 301.965 443.49 301.764 443.526C301.492 443.585 301.227 443.673 300.966 443.769L300.915 443.571C267.036 447.166 238.654 443.106 236.143 443.357V443.313C191.443 439.268 146.953 430.096 139.7 428.946C139.2 428.615 138.655 428.354 138.063 428.209C137.895 408.291 135.03 388.239 129.716 368.482C157.101 361.993 174.571 348.668 202.113 345.607C223.432 343.335 236.901 344.676 254.062 331.401C272.299 317.712 289.852 293.611 316.532 297.166C320.963 297.81 324.5 299.532 327.376 302.366C332.226 308.59 323.471 318.383 318.418 323.784C274.063 371.137 313.042 329.998 296.422 347.497C281.041 363.695 248.326 381.342 226.124 392.74ZM310.102 349.372C310.102 349.372 310.102 349.372 310.102 349.372C328.935 329.106 340.003 323.162 340.668 309.99C341.079 304.737 339.012 298.117 335.988 294.96C325.894 284.368 309.66 283.7 295.698 288.071C280.43 292.886 270.174 302.607 257.963 313.36C168.876 246.911 136.435 187.389 161.555 136.379C174.657 109.563 204.613 91.5043 234.529 92.1735C255.676 92.6882 276.396 102.298 291.36 118.519C301.789 129.945 319.158 129.04 328.349 117.335C345.867 94.8867 373.746 81.4161 400.944 81.7764C451.999 82.7411 482.197 120.369 478.021 159.615C478.018 159.622 478.018 159.622 478.018 159.629C474.926 189.659 463.165 216.159 439.878 245.571C407.193 286.952 364.398 324.604 321.183 355.887C317.38 353.635 314.118 351.852 310.102 349.372Z" fill="#66A2D1"/>
<path d="M218.538 108.534C195.63 116.35 178.953 140.497 177.986 167.262C177.17 189.887 186.575 213.512 204.468 233.798C205.586 235.063 207.141 235.71 208.707 235.71C213.521 235.71 216.161 229.981 212.939 226.328C196.964 208.218 188.56 187.387 189.273 167.673C190.075 145.482 203.608 125.556 222.185 119.225C225.137 118.218 226.714 115.012 225.707 112.056C224.7 109.107 221.483 107.526 218.538 108.534Z" fill="#66A2D1"/>
</svg>
