<svg width="93" height="93" viewBox="0 0 93 93" fill="none" xmlns="http://www.w3.org/2000/svg">
<path d="M48.555 23.6967L52.123 36.5498C52.3377 37.3235 51.8889 38.1238 51.1151 38.3386C50.9754 38.3774 50.8348 38.3943 50.6969 38.3915H42.2787C41.4756 38.3915 40.8246 37.7405 40.8246 36.9375C40.8246 36.7613 40.8559 36.5923 40.9134 36.436L44.4498 23.6967C44.6364 23.0247 44.9092 22.5225 45.231 22.2024C45.5974 21.8379 46.026 21.655 46.5024 21.655C46.9783 21.655 47.4071 21.8375 47.7739 22.2023C48.0957 22.5223 48.3685 23.0245 48.555 23.6967ZM48.8181 35.4834L46.5024 27.1419L44.1868 35.4834H48.8181ZM52.0914 56.5667L48.555 69.3061C48.3684 69.9782 48.0957 70.4803 47.7739 70.8004C47.4071 71.165 46.9788 71.3478 46.5024 71.3478C46.0265 71.3478 45.5977 71.1653 45.231 70.8005C44.909 70.4803 44.6362 69.9781 44.4498 69.3061L40.8818 56.453C40.6671 55.6792 41.116 54.8789 41.8897 54.6642C42.0294 54.6254 42.17 54.6085 42.3079 54.6112H50.7262C51.5292 54.6112 52.1802 55.2622 52.1802 56.0653C52.1802 56.2415 52.1489 56.4104 52.0914 56.5667ZM46.5024 65.8609L48.8181 57.5193H44.1868L46.5024 65.8609Z" fill="#E01D2F"/>
<path d="M46.5265 39.019C48.5919 39.019 50.4618 39.8563 51.8152 41.2099C53.1687 42.5633 54.006 44.4332 54.006 46.4986C54.006 48.564 53.1687 50.4339 51.8152 51.7874C50.4617 53.1409 48.5918 53.9782 46.5265 53.9782C44.4611 53.9782 42.5912 53.1409 41.2377 51.7874C39.8842 50.4339 39.0469 48.564 39.0469 46.4986C39.0469 44.4332 39.8842 42.5633 41.2377 41.2099C42.5912 39.8563 44.4611 39.019 46.5265 39.019ZM49.759 43.266C48.932 42.4389 47.789 41.9272 46.5265 41.9272C45.264 41.9272 44.121 42.4389 43.2939 43.266C42.4667 44.0931 41.955 45.2361 41.955 46.4986C41.955 47.7611 42.4667 48.9041 43.2939 49.7312C44.121 50.5584 45.264 51.0701 46.5265 51.0701C47.789 51.0701 48.932 50.5584 49.759 49.7312C50.5862 48.9041 51.0979 47.7611 51.0979 46.4986C51.0979 45.2361 50.5862 44.0931 49.759 43.266Z" fill="#E01D2F"/>
<path d="M48.9863 12.5078C48.9863 11.7048 48.3352 11.0537 47.5322 11.0537C46.7292 11.0537 46.0781 11.7048 46.0781 12.5078V15.492C46.0781 16.295 46.7292 16.9461 47.5322 16.9461C48.3352 16.9461 48.9863 16.295 48.9863 15.492V12.5078Z" fill="#E01D2F"/>
<path d="M65.6827 18.3083C66.0842 17.615 65.8477 16.7275 65.1544 16.3259C64.4611 15.9244 63.5736 16.1609 63.1721 16.8542L61.68 19.4386C61.2784 20.1319 61.5149 21.0194 62.2082 21.4209C62.9015 21.8224 63.789 21.5859 64.1905 20.8927L65.6827 18.3083Z" fill="#E01D2F"/>
<path d="M77.1758 31.662C77.869 31.2637 78.108 30.3786 77.7097 29.6854C77.3113 28.9921 76.4263 28.7531 75.733 29.1515L73.1485 30.6436C72.4553 31.0419 72.2162 31.927 72.6146 32.6202C73.013 33.3135 73.898 33.5525 74.5913 33.1541L77.1758 31.662Z" fill="#E01D2F"/>
<path d="M80.4813 49.0002C81.2843 49.0002 81.9353 48.3491 81.9353 47.5461C81.9353 46.7431 81.2843 46.092 80.4813 46.092H77.497C76.694 46.092 76.043 46.7431 76.043 47.5461C76.043 48.3491 76.694 49.0002 77.497 49.0002H80.4813Z" fill="#E01D2F"/>
<path d="M74.6598 65.6573C75.3531 66.0588 76.2406 65.8223 76.6421 65.129C77.0436 64.4358 76.8071 63.5482 76.1139 63.1467L73.5295 61.6546C72.8362 61.253 71.9487 61.4895 71.5471 62.1828C71.1456 62.8761 71.3821 63.7636 72.0754 64.1651L74.6598 65.6573Z" fill="#E01D2F"/>
<path d="M61.3215 77.1868C61.7199 77.88 62.6049 78.119 63.2982 77.7207C63.9915 77.3223 64.2305 76.4372 63.8321 75.744L62.34 73.1595C61.9417 72.4662 61.0566 72.2272 60.3634 72.6256C59.6701 73.024 59.4311 73.909 59.8295 74.6023L61.3215 77.1868Z" fill="#E01D2F"/>
<path d="M44.0156 80.4966C44.0156 81.2997 44.6667 81.9507 45.4697 81.9507C46.2727 81.9507 46.9238 81.2997 46.9238 80.4966V77.5124C46.9238 76.7094 46.2727 76.0583 45.4697 76.0583C44.6667 76.0583 44.0156 76.7094 44.0156 77.5124V80.4966Z" fill="#E01D2F"/>
<path d="M27.3128 74.6893C26.9112 75.3826 27.1477 76.2701 27.841 76.6717C28.5343 77.0732 29.4218 76.8367 29.8233 76.1434L31.3155 73.559C31.717 72.8657 31.4805 71.9782 30.7872 71.5767C30.094 71.1752 29.2064 71.4117 28.8049 72.1049L27.3128 74.6893Z" fill="#E01D2F"/>
<path d="M15.8477 61.3335C15.1545 61.7319 14.9155 62.6169 15.3138 63.3102C15.7122 64.0034 16.5972 64.2424 17.2905 63.8441L19.875 62.352C20.5682 61.9536 20.8073 61.0686 20.4089 60.3753C20.0105 59.6821 19.1255 59.4431 18.4322 59.8414L15.8477 61.3335Z" fill="#E01D2F"/>
<path d="M12.5283 43.9976C11.7253 43.9976 11.0742 44.6486 11.0742 45.4516C11.0742 46.2547 11.7253 46.9057 12.5283 46.9057H15.5125C16.3155 46.9057 16.9666 46.2547 16.9666 45.4516C16.9666 44.6486 16.3155 43.9976 15.5125 43.9976H12.5283Z" fill="#E01D2F"/>
<path d="M18.2912 27.3399C17.5979 26.9383 16.7104 27.1748 16.3089 27.8681C15.9073 28.5614 16.1438 29.4489 16.8371 29.8504L19.4215 31.3426C20.1148 31.7441 21.0023 31.5076 21.4038 30.8143C21.8053 30.1211 21.5688 29.2335 20.8756 28.832L18.2912 27.3399Z" fill="#E01D2F"/>
<path d="M31.6682 15.8138C31.2698 15.1205 30.3847 14.8815 29.6915 15.2799C28.9982 15.6783 28.7592 16.5633 29.1576 17.2566L30.6497 19.8411C31.048 20.5343 31.9331 20.7733 32.6263 20.375C33.3196 19.9766 33.5586 19.0915 33.1602 18.3983L31.6682 15.8138Z" fill="#E01D2F"/>
<path d="M46.5 0C59.3405 0 70.9655 5.20481 79.3804 13.6196C87.7952 22.0345 93 33.6596 93 46.5C93 59.3405 87.7952 70.9655 79.3804 79.3804C70.9655 87.7952 59.3404 93 46.5 93C33.6595 93 22.0345 87.7952 13.6196 79.3804C5.20482 70.9655 0 59.3404 0 46.5C0 33.6595 5.20482 22.0345 13.6196 13.6196C22.0345 5.20481 33.6596 0 46.5 0ZM77.3243 15.6758C69.4358 7.78737 58.5377 2.90814 46.5 2.90814C34.4623 2.90814 23.5642 7.78737 15.6757 15.6758C7.78726 23.5643 2.90804 34.4624 2.90804 46.5001C2.90804 58.5378 7.78726 69.4359 15.6757 77.3244C23.5642 85.2128 34.4623 90.0921 46.5 90.0921C58.5377 90.0921 69.4358 85.2128 77.3243 77.3244C85.2127 69.4359 90.092 58.5378 90.092 46.5001C90.092 34.4625 85.2127 23.5643 77.3243 15.6758ZM46.5 5.13949C57.9213 5.13949 68.2615 9.76905 75.7463 17.2538C83.231 24.7385 87.8606 35.0788 87.8606 46.5001C87.8606 57.9214 83.231 68.2616 75.7463 75.7464C68.2615 83.2311 57.9213 87.8607 46.5 87.8607C35.0787 87.8607 24.7385 83.2311 17.2537 75.7464C9.76897 68.2616 5.1394 57.9214 5.1394 46.5001C5.1394 35.0788 9.76897 24.7386 17.2537 17.2538C24.7385 9.76905 35.0787 5.13949 46.5 5.13949ZM73.6901 19.31C66.7317 12.3516 57.1184 8.04763 46.5 8.04763C35.8816 8.04763 26.2682 12.3516 19.3099 19.31C12.3516 26.2683 8.04762 35.8816 8.04762 46.5C8.04762 57.1185 12.3516 66.7318 19.3099 73.6901C26.2683 80.6484 35.8816 84.9524 46.5 84.9524C57.1185 84.9524 66.7318 80.6484 73.6901 73.6901C80.6484 66.7317 84.9524 57.1185 84.9524 46.5C84.9524 35.8816 80.6484 26.2682 73.6901 19.31Z" fill="#E01D2F"/>
</svg>
