<?xml version="1.0" encoding="UTF-8"?>
<svg xmlns="http://www.w3.org/2000/svg" xmlns:xlink="http://www.w3.org/1999/xlink" version="1.1" width="512" height="512" x="0" y="0" viewBox="0 0 73 73" style="enable-background:new 0 0 512 512" xml:space="preserve" class="">
  <g>
    <path d="M26.105 64.04c3.517 3.2 8.452 3.506 12.935 2.068 7.204-2.312 18.263-11.349 24.82-24.173 1.71-3.344 3.664-7.247 4.248-11.141 1.153-3.683.805-7.052-2.644-10.494-1.755-1.795-4.563-4.828-6.945-4.01-3.255 1.124-4.968 3.743-6.875 6.57-.792 1.172-1.369 2.284-1.764 3.402-1.442 4.076.295 5.565 2.534 6.962 1.327.83 2.803 1.202 4.07 1.457a.475.475 0 0 1 .358.612c-2.546 8.37-9.212 15.496-17.398 18.593a.47.47 0 0 1-.634-.329c-.494-2.08-1.213-4.225-3.105-5.808-2.1-1.753-5.466-1.712-8.2 1.146-1.902 1.99-5.056 5.295-5.387 8.005-.319 2.62 1.624 5.439 3.987 7.14zm25.189-37.278c.352-.996.873-1.997 1.594-3.062 1.724-2.558 3.285-5.013 6.12-5.992 1.025-.349 2.637.95 3.873 2.128-3.104 3.053-6.651 7.355-9.875 11.986-1.824-1.157-2.775-2.054-1.712-5.06zM38.342 55.187a1.975 1.975 0 0 0 1.632.102c8.612-3.258 15.624-10.753 18.303-19.562a1.997 1.997 0 0 0-.193-1.596c-.696-1.163-1.612-.758-3.733-1.615 3.147-4.502 6.587-8.667 9.593-11.622l.02.022c.487.555 2.864 2.568 3.207 5.63.26 2.335-.75 4.695-1.64 6.778-1.635 3.818-3.323 7.767-5.497 11.356-5.661 9.353-14.9 16.514-25.346 19.647-1.307.393-2.547.48-3.686.26-1.74-.338-3.38-1.177-4.791-2.4 3.547-4.974 6.843-8.686 10.065-11.349 1.259 2.369.714 3.631 2.066 4.35zm-14.736 1.895c.273-2.233 3.398-5.49 4.983-7.15.94-.982 1.875-1.532 3.031-1.782 1.527-.333 2.777.24 3.81 1.44-3.313 2.716-6.685 6.49-10.292 11.521-.935-1.152-1.693-2.694-1.532-4.03z" fill="#e31e26" opacity="1" data-original="#000000"></path>
    <path d="M11.783 38.689c3.126 2.012 6.865 2.514 10.556 2.232 1.834-.14 3.135-.631 5.222-1.002.643-.115 1.195-.38 1.799-.467 1.398 1.72 2.214 2.618 4.477 2.877a1.638 1.638 0 0 0 2.412-1.02c.486-1.891.825-3.887 1.022-5.938 5.32-3.218 8.008-9.6 6.542-15.68-.285-.675-.718-6.71-6.86-10.469a14.29 14.29 0 0 0-10.879-1.714l-10.081 2.43a14.3 14.3 0 0 0-7.887 5.061c-6.788 7.795-3.845 18.847 3.677 23.69zM26.426 8.967a12.797 12.797 0 0 1 9.745 1.535c5.49 3.359 5.915 8.9 6.183 9.54 1.342 5.563-1.191 11.417-6.16 14.234-.745.42-.074 1.504-1.398 6.66-.033.13-.19.154-.26.06-3.678-4.742-3.677-4.914-4.276-4.767l-7.494 1.807C15.851 39.704 8.88 35.43 7.212 28.514l-.375-1.554c-1.667-6.916 2.597-13.898 9.508-15.564z" fill="#e31e26" opacity="1" data-original="#000000"></path>
    <path d="M12.508 20.804c.093.388.483.65.905.553a95.252 95.252 0 0 0 17.654-6.14.75.75 0 0 0-.629-1.362 93.72 93.72 0 0 1-17.377 6.043.751.751 0 0 0-.553.906zM14.16 28.362a.75.75 0 1 0 .479 1.422c8.077-2.714 13.391-3.748 19.76-8.198a.75.75 0 0 0-.86-1.23c-6.168 4.31-11.125 5.236-19.379 8.006zM28.11 30.18l-4.207 1.702c-.906.366-.372 1.764.563 1.39l4.207-1.7a.75.75 0 0 0-.563-1.392zM44.663 9.92a.75.75 0 0 0-.532.918l1.507 5.665a.75.75 0 1 0 1.449-.385l-1.507-5.665a.747.747 0 0 0-.917-.532zM50.75 6.73a35.814 35.814 0 0 1-1.796 7.673.75.75 0 1 0 1.414.5A37.314 37.314 0 0 0 52.24 6.91a.751.751 0 0 0-.655-.835.753.753 0 0 0-.835.655zM58.034 10.125l-5.34 4.658a.75.75 0 0 0 .986 1.13l5.34-4.657a.75.75 0 0 0-.986-1.131z" fill="#e31e26" opacity="1" data-original="#000000"></path>
  </g>
</svg>
