<svg width="44" height="52" viewBox="0 0 44 52" fill="none" xmlns="http://www.w3.org/2000/svg">
<path d="M11.8137 2.05449C13.3447 2.38049 16.5657 8.83949 16.4937 10.4025C16.4027 12.3225 11.8647 14.9025 11.8647 14.9025C11.8647 14.9025 10.4627 15.8905 10.4177 16.8515C10.3437 18.4135 12.3517 26.1605 15.5437 30.5605C19.1567 35.5405 26.6997 38.7815 27.6597 38.8265C28.6187 38.8715 30.9957 36.4105 31.6347 36.1295C33.5997 35.2605 42.1037 38.5455 42.0127 40.4655C41.9397 42.0275 36.9477 49.3485 33.8807 49.7015C30.8137 50.0545 12.8137 47.0545 5.81366 32.0545C-0.623338 18.2615 2.81366 9.05449 3.81366 7.05449C5.14266 4.39849 9.53266 1.57049 11.8137 2.05449Z" stroke="#66A2D1" stroke-width="3" stroke-miterlimit="10" stroke-linecap="round"/>
</svg>
