<svg width="32" height="26" viewBox="0 0 32 26" fill="none" xmlns="http://www.w3.org/2000/svg">
<path d="M3 11.5H5.5V17.5H4C3.60218 17.5 3.22064 17.658 2.93934 17.9393C2.65804 18.2206 2.5 18.6022 2.5 19C2.5 19.3978 2.65804 19.7793 2.93934 20.0606C3.22064 20.3419 3.60218 20.5 4 20.5H28C28.3978 20.5 28.7794 20.3419 29.0607 20.0606C29.342 19.7793 29.5 19.3978 29.5 19C29.5 18.6022 29.342 18.2206 29.0607 17.9393C28.7794 17.658 28.3978 17.5 28 17.5H26.5V11.5H29C29.3266 11.5 29.6443 11.3934 29.9048 11.1964C30.1653 10.9995 30.3544 10.7228 30.4434 10.4085C30.5324 10.0943 30.5163 9.75957 30.3977 9.45526C30.2791 9.15094 30.0644 8.89366 29.7862 8.72248L16.7862 0.722485C16.5498 0.57696 16.2776 0.499908 16 0.499908C15.7224 0.499908 15.4502 0.57696 15.2137 0.722485L2.21375 8.72248C1.93558 8.89366 1.72089 9.15094 1.60228 9.45526C1.48367 9.75957 1.46763 10.0943 1.55659 10.4085C1.64555 10.7228 1.83465 10.9995 2.09517 11.1964C2.35569 11.3934 2.67339 11.5 3 11.5ZM8.5 11.5H11.5V17.5H8.5V11.5ZM17.5 11.5V17.5H14.5V11.5H17.5ZM23.5 17.5H20.5V11.5H23.5V17.5ZM16 3.76123L23.7 8.49998H8.3L16 3.76123ZM31.5 24C31.5 24.3978 31.342 24.7793 31.0607 25.0606C30.7794 25.3419 30.3978 25.5 30 25.5H2C1.60218 25.5 1.22064 25.3419 0.93934 25.0606C0.658035 24.7793 0.5 24.3978 0.5 24C0.5 23.6022 0.658035 23.2206 0.93934 22.9393C1.22064 22.658 1.60218 22.5 2 22.5H30C30.3978 22.5 30.7794 22.658 31.0607 22.9393C31.342 23.2206 31.5 23.6022 31.5 24Z" fill="#66A2D1"/>
</svg>
