<svg width="512" height="512" viewBox="0 0 512 512" fill="none" xmlns="http://www.w3.org/2000/svg">
<path d="M501.052 251.68C485.995 233.203 462.705 169.801 458.251 145.031C460.513 143.832 462.671 142.677 464.643 141.614C467.39 140.136 468.416 136.709 466.934 133.959C465.452 131.224 462.033 130.202 459.283 131.673C433.166 145.754 411.533 155.908 406.669 156.364C403.566 156.658 401.283 159.415 401.577 162.518C401.8 164.904 401.604 165.82 401.805 167.122C347.341 192.61 315.239 159.412 282.122 161.097C232.991 137.005 187.656 169.081 142.978 160.996C125.402 157.822 109.03 146.849 92.1394 137.328C93.7604 134.367 92.3277 128.451 87.3301 128.072C78.145 122.448 46.7751 103.07 42.603 100.57C39.9229 98.9447 36.4597 99.827 34.853 102.496C33.2878 105.104 34.1035 108.438 36.6173 110.091C35.8117 132.856 23.2993 196.01 10.6214 215.143C8.89716 217.739 9.60672 221.246 12.2097 222.967C14.796 224.691 18.3116 223.981 20.0332 221.379C33.706 200.749 45.0451 143.506 47.4744 116.796C59.5665 124.235 73.8051 133.029 80.5015 137.133C72.7368 179.313 64.1735 230.624 50.4312 270.784L38.5626 263.798C33.0449 260.567 27.1117 267.621 31.6407 272.465C32.1945 275.222 32.6564 278.122 33.3861 280.602C40.6403 285.946 50.3503 291.901 58.6609 295.382C60.4712 294.381 61.8273 290.759 62.2818 288.74C69.4918 293.385 76.6876 299.86 83.8976 304.505C72.583 316.465 89.1439 354.042 112.904 347.848C109.609 369.521 129.738 383.984 148.285 379.193C148.021 399.084 167.644 414.202 187.03 407.601C193.977 433.152 226.462 440.116 239.848 422.56C251.817 424.917 264.83 427.596 284.339 418.692C300.794 425.837 318.898 413.9 321.301 398.916C338.225 407.156 357.321 393.832 359.092 378.96C377.448 384.041 393.391 367.256 392.03 350.815C414.36 338.148 437.307 324.971 459.65 312.295C459.955 312.122 460.273 312.323 460.34 312.668C460.716 314.588 462.994 317.258 464.621 317.621C471.641 315.898 489.613 308.447 495.764 304.651C497.62 300.064 497.509 300.096 496.391 291.189C497.69 286.539 493.401 283.14 489.463 284.29C482.01 286.458 474.923 289.608 468.286 293.562C440.452 256.709 419.951 209.51 413.137 166.283C421.565 163.521 435.239 156.936 447.815 150.478C453.875 178.781 476.691 239.659 492.294 258.812C494.275 261.236 497.839 261.592 500.239 259.621C502.658 257.658 503.022 254.099 501.052 251.68ZM125.743 323.739C125.704 323.812 125.711 323.894 125.676 323.968C123.378 326.309 121.16 328.46 119.038 330.246C112.394 332.436 104.001 329.454 100.643 323.305C97.1279 316.851 99.4872 307.628 105.526 303.48C105.617 303.471 105.7 303.509 105.791 303.496C115.882 302.187 121.761 309.408 123.338 311.665C126.327 315.945 127.294 320.798 125.743 323.739ZM154.996 362.55C138.456 369.484 122.329 353.383 128.207 337.196C130.641 334.981 133.064 332.605 135.574 330.033C147.684 317.606 156.456 309.886 167.702 315.555C174.041 318.75 177.434 323.893 179.202 332.117C174.588 337.315 159.415 354.17 154.996 362.55ZM187.857 390.776C179.464 397.028 167.529 392.734 164.768 382.915C163.691 379.074 163.694 372.994 164.234 368.62C194.551 331.187 189.774 337.139 190.189 336.467C195.075 336.159 198.996 336.617 202.243 337.959C207.525 340.138 212.601 346.555 212.324 359.198C211.802 359.953 194.951 385.42 187.857 390.776ZM228.007 388.371C224.679 396.704 222.642 407.587 225.554 413.787C222.352 414.948 219.084 415.123 215.669 414.055C207.649 411.542 200.552 404.797 197.707 397.337C206.48 387.255 213.813 377.598 220.033 367.982C225.137 367.7 230.478 372.506 230.746 377.658C230.916 380.798 229.636 384.298 228.007 388.371ZM236.583 397.724C238.185 392.634 240.715 388.248 241.698 382.03C244.412 384.124 267.828 402.635 273.074 406.827C258.247 413.99 244.575 409.197 236.583 397.724ZM360.305 360.305C346.744 358.49 303.204 311.586 294.46 300.996C292.478 298.592 288.919 298.254 286.511 300.239C284.107 302.224 283.765 305.783 285.754 308.187C297.926 322.928 335.874 360.833 346.228 366.951C342.954 379.567 329.801 386.329 317.897 382.29C309.133 379.306 305.286 374.208 267.64 335.996C265.46 333.776 261.879 333.739 259.655 335.937C257.434 338.121 257.405 341.702 259.596 343.923C294.843 379.657 298.863 384.59 307.082 389.555C304.795 399.79 297.254 403.405 291.456 403.342C280.954 403.157 237.413 359.273 223.66 356.968C223.99 345.796 218.078 332.28 206.555 327.518C201.734 325.532 196.061 324.819 189.411 325.229C187.286 318.009 181.276 309.751 172.787 305.467C158.282 298.15 146.28 304.816 136.59 313.31C131.193 296.101 111.271 288.403 100.798 293.193C88.8769 283.866 76.2519 275.5 63.2262 268.197C74.9733 231.585 82.8671 187.234 89.8099 149.004C106.267 158.48 122.514 168.783 140.974 172.114C181.442 179.406 224.03 156.256 261.786 165.623C221.755 179.602 181.815 208.389 174.199 249.974C171.544 264.488 176.809 278.559 191.709 280.466C215.223 287.314 237.758 254.641 249.028 246.453C256.738 240.852 265.706 238.337 275.073 240.086C301.599 258.007 365.342 325.365 366.03 326.121C382.497 344.232 373.657 362.063 360.305 360.305ZM454.654 293.956C428.996 302.446 404.486 315.418 383.056 331.856C379.16 322.869 373.554 317.246 365.555 309.474C339.71 284.276 304.729 243.147 270.659 224.087C271.596 223.991 272.515 223.92 273.342 223.959C276.441 223.776 279.052 221.57 279.129 218.452C279.206 215.334 276.739 212.746 273.621 212.665C262.544 212.768 245.949 219.548 237.919 227.967C224.906 241.631 217.252 262.41 200.835 268.459C188.616 272.975 183.101 264.074 185.309 252.004C193.43 207.694 249.388 178.051 278 172.886C308.279 167.379 343.286 204.966 403.978 178.543C412.007 218.08 430.295 259.732 454.654 293.956Z" fill="#E01D2F"/>
<path d="M428.334 183.893C427.492 186.092 427.591 188.526 428.591 190.533C431.205 195.852 439.025 196.582 442.338 191.57C444.613 188.126 443.517 183.521 440.176 181.151C437.292 176.422 430.467 178.294 428.334 183.893Z" fill="#E01D2F"/>
<path d="M53.4219 155.68C58.0019 158.986 64.8175 156.372 65.9844 150.812C66.5321 148.217 65.6939 145.496 63.7454 143.54C58.75 138.535 50.4718 141.771 50.1719 148.82C50.0542 151.577 51.2748 154.15 53.4219 155.68Z" fill="#E01D2F"/>
<path d="M219.031 80.2535C216.204 81.5623 214.98 84.9226 216.292 87.7535L237.564 133.481C238.887 136.318 242.253 137.531 245.068 136.217C247.895 134.901 249.12 131.548 247.807 128.717L226.535 82.9888C225.219 80.1579 221.866 78.93 219.031 80.2535Z" fill="#E01D2F"/>
<path d="M279.946 87.4667L268.06 128.364C267.008 131.976 269.73 135.584 273.486 135.584C275.931 135.584 278.189 133.981 278.906 131.511L290.792 90.6137C291.663 87.6211 289.939 84.4887 286.946 83.6211C283.961 82.7534 280.817 84.4667 279.946 87.4667Z" fill="#E01D2F"/>
<path d="M331.856 119.856L305.514 136.276C302.867 137.923 302.058 141.408 303.705 144.055C305.382 146.744 308.895 147.487 311.484 145.864L337.826 129.445C340.473 127.79 341.282 124.312 339.635 121.665C337.981 119.011 334.492 118.202 331.856 119.856Z" fill="#E01D2F"/>
</svg>
