<svg width="91" height="95" viewBox="0 0 91 95" fill="none" xmlns="http://www.w3.org/2000/svg">
<path d="M90.1 36.0385C90.1 35.6504 90.0096 35.2676 89.8361 34.9205C89.6625 34.5733 89.4105 34.2714 89.1 34.0385L46.6 0.538496C46.1586 0.189723 45.6125 0 45.05 0C44.4875 0 43.9414 0.189723 43.5 0.538496L1 34.0385C0.68951 34.2714 0.437501 34.5733 0.263932 34.9205C0.0903625 35.2676 0 35.6504 0 36.0385V86.0385C0 88.2928 0.895533 90.4548 2.48959 92.0489C4.08365 93.643 6.24566 94.5385 8.5 94.5385H81.6C82.7247 94.5386 83.8382 94.3154 84.8761 93.882C85.9139 93.4486 86.8554 92.8136 87.646 92.0136C88.4367 91.2137 89.0607 90.2649 89.4819 89.222C89.9031 88.1792 90.1132 87.0631 90.1 85.9385V36.0385ZM67.4 67.4385L85.1 43.7385V85.5385L67.4 67.4385ZM45.1 5.6385L84.3 36.5385L62.8 65.2385H27.3L5.9 36.5385L45.1 5.6385ZM5.1 85.5385V43.7385L22.8 67.4385L5.1 85.5385ZM8.6 89.5385H8.3L27.1 70.2385H63.1L82 89.4385H8.6V89.5385Z" fill="#8295C3"/>
</svg>
