<svg xmlns="http://www.w3.org/2000/svg" width="25" height="23.15" viewBox="0 0 25 23.15">
  <path id="Path_751" data-name="Path 751" d="M44.382,27.623,33.271,20.216a1.389,1.389,0,0,0-1.542,0L20.618,27.623A1.389,1.389,0,0,0,20,28.781V40.818a2.315,2.315,0,0,0,2.315,2.315h20.37A2.315,2.315,0,0,0,45,40.818V28.781a1.389,1.389,0,0,0-.618-1.157Zm-16.3,7.639L22.778,39V31.478Zm2.841,1.389h3.157l5.25,3.7H25.677Zm6-1.389,5.3-3.786V39ZM32.5,23.042l8.664,5.777-7.089,5.054h-3.15l-7.089-5.054Z" transform="translate(-20 -19.982)" fill="#66a2d1"/>
</svg>
