<svg width="92" height="97" viewBox="0 0 92 97" fill="none" xmlns="http://www.w3.org/2000/svg">
<path d="M90.7009 34.2382L48.2009 0.738207C47.5863 0.259777 46.8297 0 46.0508 0C45.272 0 44.5154 0.259777 43.9009 0.738207L1.30085 34.2382C0.884515 34.5745 0.550836 35.0017 0.325469 35.4871C0.100102 35.9725 -0.0109502 36.5032 0.000851194 37.0382V87.0382C0.000851194 89.5578 1.00174 91.9741 2.78334 93.7557C4.56493 95.5373 6.98129 96.5382 9.50085 96.5382H82.5009C83.7569 96.5383 85.0004 96.2893 86.1596 95.8056C87.3188 95.322 88.3705 94.6132 89.254 93.7205C90.1375 92.8277 90.8351 91.7686 91.3066 90.6044C91.7781 89.4403 92.0141 88.1941 92.0009 86.9382V36.9382C91.9976 36.42 91.8793 35.909 91.6544 35.442C91.4296 34.9751 91.1039 34.5639 90.7009 34.2382ZM22.4009 68.4382L7.00085 84.0382V47.7382L22.4009 68.4382ZM28.5009 72.2382H63.5009L80.5009 89.5382H11.5009L28.5009 72.2382ZM69.6009 68.4382L85.0009 47.7382V84.1382L69.6009 68.4382ZM46.0009 7.93821L83.8009 37.7382L63.2008 65.2382H28.7009L8.20085 37.7382L46.0009 7.93821Z" fill="#8295C3"/>
</svg>
