<?xml version="1.0" encoding="UTF-8"?>
<svg xmlns="http://www.w3.org/2000/svg" width="89.261" height="75" viewBox="0 0 89.261 75">
  <g id="Frequently_Ask_Question" transform="translate(-3.397 -8.605)">
    <g id="Group_723" data-name="Group 723" transform="translate(3.397 8.606)">
      <path id="Path_755" data-name="Path 755" d="M5.023,48.806c.465,3.765,2.415,6.5,6.041,6.875,4.056.454,7.647-.151,11.761-.511,4.69,3.784,8.474,6.264,13.036,10a1.019,1.019,0,0,0,1.659-.815l1.99-2.82c-.571-2.716-1.062-5.723-1.62-8.488A31.59,31.59,0,0,0,43.454,53,22.214,22.214,0,0,0,54.486,71.4c-.766,5.025-2.113,8.817-.236,11.455a1.009,1.009,0,0,0,1.7.44A63.649,63.649,0,0,1,66.5,74.093l.026-.018c5.561,1.664,10.654,3.13,15.847.356,15.518-8.289,13.682-33.187-6.9-41.943a24.922,24.922,0,0,0-15.6-1.43c1.247-8.164-2.313-13.688-5.645-15-1.462-1.259-6.388-1.546-7.758-1.426-12.948,1.2-24.743-.107-37.259,3.906C3.735,20.318,3.174,22.917,3.454,27c.151,2.162.133,10.15,1.569,21.808ZM74.684,34.449c14.409,6.13,17.88,22.784,7.449,32.516A19.05,19.05,0,0,1,66.382,71.9a.932.932,0,0,0-.912.357l-.079.054a52,52,0,0,0-8.064,6.658,42.577,42.577,0,0,0,1.06-7.013c.068-1.3-2.116-1.855-3.224-2.6A20.232,20.232,0,0,1,45.506,51.8c.43-14.745,15.011-23.4,29.178-17.352ZM9.823,20.565c12.155-3.9,23.927-2.625,36.829-3.817,1.1-.1,5.649.228,6.354,1.019,1.514,2.216-.359,14.273-.606,16.712a22.523,22.523,0,0,0-8.892,16.375c-2.947.419-5.465-.094-10.963-.018A1.058,1.058,0,0,0,31.6,52.27c1.127,3.1,1.874,6.012,2.821,9.078-3.725-2.878-7.068-5.17-10.927-8.331a.992.992,0,0,0-1.346.088c-3.867.361-7.248.872-10.866.466C8.545,53.287,7.4,51.335,7.06,48.538c-1.455-11.8-1.369-18.95-1.557-21.69-.216-3.151-.268-4.792,4.32-6.283Z" transform="translate(-3.397 -8.606)" fill="#e01d2f"></path>
      <path id="Path_756" data-name="Path 756" d="M17.3,22.494a7.269,7.269,0,0,1,3.405-.954h0a4.274,4.274,0,0,1,3.046,1.171c1.685,1.712,1.49,4.2-3.546,5.764-4.007,1.25-1.491,4.1-1.794,5.319a.75.75,0,0,0,1.456.361c.562-2.26-1.936-3.4.849-4.268,5.964-1.856,6.6-5.688,4.1-8.229a5.777,5.777,0,0,0-4.114-1.618h0A8.746,8.746,0,0,0,16.6,21.17a.75.75,0,0,0,.707,1.323Z" transform="translate(2.183 -2.843)" fill="#e01d2f"></path>
      <path id="Path_757" data-name="Path 757" d="M55.788,32.915l-4.257-2.069A101.434,101.434,0,0,1,46.959,45.36c.339.242.717.519,1.056.761a85.893,85.893,0,0,1,7.773-13.206Z" transform="translate(15.19 2.77)" fill="#e01d2f"></path>
      <path id="Path_758" data-name="Path 758" d="M46.194,49.812a1.627,1.627,0,1,0-1.708-1.625A1.668,1.668,0,0,0,46.194,49.812Z" transform="translate(12.599 6.279)" fill="#e01d2f"></path>
      <ellipse id="Ellipse_62" data-name="Ellipse 62" cx="1.314" cy="1.25" rx="1.314" ry="1.25" transform="translate(20.282 37.896)" fill="#e01d2f"></ellipse>
      <path id="Path_759" data-name="Path 759" d="M45.466,9.247l-.657,4.5a.75.75,0,0,0,1.484.217l.657-4.5a.75.75,0,1,0-1.484-.217Z" transform="translate(12.4 -8.606)" fill="#e01d2f"></path>
      <path id="Path_760" data-name="Path 760" d="M53.656,13.444a.751.751,0,0,0-1.04-.212l-4.2,2.777a.75.75,0,0,0,.826,1.252l4.2-2.777A.751.751,0,0,0,53.656,13.444Z" transform="translate(14.665 -8.606)" fill="#e01d2f"></path>
      <path id="Path_761" data-name="Path 761" d="M52.776,19.289l-2.833.329a.75.75,0,0,0,.173,1.49l2.834-.329a.75.75,0,1,0-.173-1.49Z" transform="translate(14.734 -4.53)" fill="#e01d2f"></path>
    </g>
  </g>
</svg>
