<svg width="30" height="30" viewBox="0 0 30 30" fill="none" xmlns="http://www.w3.org/2000/svg">
<path d="M21.4982 7.49997C21.4982 7.89554 21.3809 8.28222 21.1612 8.61111C20.9414 8.94001 20.6291 9.19636 20.2636 9.34773C19.8981 9.49911 19.496 9.53871 19.1081 9.46154C18.7201 9.38437 18.3637 9.19389 18.084 8.91419C17.8043 8.63448 17.6138 8.27812 17.5367 7.89015C17.4595 7.50219 17.4991 7.10006 17.6505 6.73461C17.8018 6.36915 18.0582 6.0568 18.3871 5.83703C18.716 5.61727 19.1027 5.49997 19.4982 5.49997C20.0287 5.49997 20.5374 5.71069 20.9124 6.08576C21.2875 6.46083 21.4982 6.96954 21.4982 7.49997ZM29.4532 9.18122C29.2295 12.6812 28.1932 15.6225 26.3732 17.9312C23.7307 21.2887 19.5682 23.1425 13.9907 23.4512L11.3732 29.125C11.2537 29.3857 11.062 29.6067 10.8207 29.7618C10.5795 29.9169 10.2988 29.9995 10.012 30C9.97782 30 9.94407 30 9.91073 30C9.60798 29.9795 9.31855 29.8678 9.08065 29.6794C8.84275 29.491 8.66757 29.235 8.57823 28.945L6.80823 23.195L1.05823 21.4212C0.767955 21.3318 0.511675 21.1563 0.323298 20.918C0.134922 20.6797 0.0233253 20.3899 0.00327294 20.0868C-0.0167794 19.7837 0.0556573 19.4817 0.211 19.2206C0.366343 18.9596 0.597271 18.7519 0.873234 18.625L6.54823 16.01C6.85448 10.43 8.71073 6.26747 12.0682 3.62497C14.3795 1.80497 17.3182 0.769974 20.8182 0.544974C22.9179 0.417942 25.0252 0.570953 27.0845 0.999974C27.5535 1.10163 27.9834 1.33613 28.3227 1.67548C28.6621 2.01484 28.8966 2.44469 28.9982 2.91372C29.4274 4.97343 29.5804 7.08112 29.4532 9.18122ZM18.9395 19.5312C18.4329 19.2296 17.9656 18.8664 17.5482 18.45C16.4628 17.3672 15.7643 15.957 15.5607 14.4375C14.0412 14.2339 12.631 13.5354 11.5482 12.45C11.1325 12.0327 10.7701 11.5653 10.4695 11.0587C9.88615 12.7654 9.56532 14.7525 9.50698 17.02C9.49995 17.3008 9.4142 17.574 9.25951 17.8085C9.10481 18.0429 8.88739 18.2293 8.63198 18.3462L5.68698 19.705L8.44948 20.5575C8.68308 20.6296 8.89551 20.7577 9.06827 20.9307C9.24104 21.1037 9.3689 21.3163 9.44073 21.55L10.2907 24.3112L11.652 21.3625C11.7689 21.1071 11.9553 20.8896 12.1897 20.7349C12.4242 20.5803 12.6974 20.4945 12.9782 20.4875C15.2416 20.4366 17.2287 20.1179 18.9395 19.5312ZM26.132 3.86622C24.2932 3.51122 18.1507 2.65622 13.9232 5.98247C13.402 6.39217 12.9244 6.85462 12.4982 7.36247C12.4788 7.93076 12.5808 8.49665 12.7973 9.02241C13.0139 9.54818 13.34 10.0217 13.7541 10.4115C14.1681 10.8013 14.6604 11.0983 15.1983 11.2827C15.7361 11.4672 16.3072 11.5349 16.8732 11.4812C17.0934 11.4601 17.3154 11.488 17.5235 11.5627C17.7316 11.6375 17.9206 11.7574 18.077 11.9137C18.2333 12.0701 18.3532 12.2591 18.428 12.4672C18.5027 12.6753 18.5306 12.8974 18.5095 13.1175C18.4558 13.6841 18.5236 14.2557 18.7084 14.794C18.8932 15.3323 19.1908 15.825 19.5813 16.2391C19.9717 16.6532 20.4461 16.9792 20.9726 17.1954C21.4991 17.4115 22.0657 17.5128 22.6345 17.4925C23.1405 17.0682 23.6012 16.5927 24.0095 16.0737C27.3432 11.8512 26.487 5.70622 26.132 3.86622Z" fill="#82026E"/>
</svg>
