<svg width="242" height="200" viewBox="0 0 242 200" fill="none" xmlns="http://www.w3.org/2000/svg">
<path fill-rule="evenodd" clip-rule="evenodd" d="M160.802 65.2807C160.328 60.8077 160.047 54.7887 160.905 46.7707C161.376 42.3787 161.789 27.5067 164.903 17.9177C166.684 12.4327 169.604 8.58568 173.044 7.35168C175.514 6.46568 177.641 6.47568 179.454 6.96568C182.155 7.69568 184.263 9.56668 185.729 11.9627C186.11 12.5857 186.444 13.2437 186.736 13.9137C188.548 9.66568 190.629 6.01368 192.793 3.70068C195.598 0.70268 198.72 -0.424322 201.673 0.140678C203.585 0.506678 205.548 2.10768 206.655 4.93668C207.904 8.12768 208.3 13.2837 208.389 14.5227C208.551 16.7647 208.54 19.0677 208.435 21.3817C210.638 18.1567 212.919 15.5947 215.041 13.9187C218.781 10.9667 222.421 10.4597 225.132 11.6297C230.203 13.8177 232.234 19.6867 231.127 27.4277C230.586 31.2077 229.357 35.4847 227.846 39.7197C228.892 39.4267 229.913 39.2507 230.879 39.1977C235.592 38.9357 239.29 41.1007 240.642 45.5397C243.444 54.7397 240.302 61.7837 235.584 68.6407C231.832 74.0937 226.922 79.3777 224.962 86.2837C224.15 89.1437 224.612 91.5487 224.609 94.1647C224.604 97.7797 224.1 101.698 220.923 106.844C220.179 108.049 219.017 109.316 217.731 110.794C215.654 113.184 213.163 116.44 213.434 122.321C214.714 150.101 215.877 162.261 221.188 193.024C221.467 194.643 221.078 196.421 219.031 197.762C218.445 198.146 217.515 198.562 216.242 198.858C214.55 199.252 211.889 199.538 208.692 199.701C197.547 200.269 179.437 199.484 175.877 198.846C172.49 198.238 171.924 195.531 171.867 194.963C171.208 188.45 171.837 169.378 170.815 145.778C170.647 141.914 170.926 128.955 169.77 119.449C169.389 116.321 168.965 113.612 168.129 112.054C167.604 111.762 165.372 110.528 163.578 109.645C158.547 107.168 152.031 103.654 148.094 98.3967C145.308 94.6757 133.012 72.6857 132.814 72.3657C128.297 65.0687 128.581 59.1657 130.551 55.3747C133.979 48.7787 143.075 46.9437 149.721 53.2047C149.749 53.2307 149.776 53.2577 149.803 53.2847C150.624 54.1007 156.236 60.2577 160.802 65.2807ZM219.762 58.6607C218.551 60.6907 215.931 61.3677 213.89 60.1757C213.872 60.1657 213.854 60.1557 213.837 60.1447C211.91 59.0187 211.213 56.5747 212.255 54.6017C215.481 48.3677 221.533 35.6447 222.877 26.2467C223.126 24.5067 223.212 22.9047 223.008 21.5287C222.874 20.6237 222.696 19.8087 222.05 19.3967C221.84 19.4747 221.391 19.6497 221.103 19.8267C220.234 20.3587 219.332 21.1507 218.403 22.1347C214.19 26.5957 209.813 34.6197 207.292 43.8297C206.579 46.4317 203.884 53.8987 203.884 53.8987C203.146 55.9387 200.966 57.0707 198.873 56.5017C196.78 55.9327 195.473 53.8537 195.869 51.7207C195.869 51.7207 198.887 35.5077 199.285 31.1537C199.761 25.9497 200.455 20.3567 200.078 15.1217C200.03 14.4577 199.421 11.2567 199.029 9.23468C198.562 9.70668 198.108 10.2827 197.656 10.9327C194.749 15.1177 192.281 21.9627 190.657 28.5417C188.491 37.3167 188.085 45.6487 188.02 47.4567L188.019 47.4797C188.006 47.8727 187.953 48.2307 187.87 48.5577C187.119 51.5197 183.843 51.8857 183.843 51.8857C183.843 51.8857 179.528 51.9687 179.691 47.2007V47.1817C179.775 44.4207 180.248 28.3557 180.111 21.3037C180.091 20.2747 179.682 18.0467 178.62 16.3117C178.279 15.7537 177.909 15.1807 177.28 15.0107C176.874 14.9007 176.409 14.9987 175.857 15.1957C175.042 15.4887 174.581 16.4207 174.044 17.4707C173.085 19.3477 172.372 21.7537 171.795 24.3617C169.851 33.1557 169.575 44.0747 169.191 47.6577C167.811 60.5577 169.664 67.8607 170.048 71.7737C170.407 75.4167 169.463 77.5237 167.883 78.8387C167.051 79.5317 164.818 80.6967 162.081 78.7807C158.643 76.3747 145.609 60.9047 143.922 59.1927C141.841 57.2987 139.008 57.1727 137.945 59.2177C136.913 61.2027 137.534 64.1577 139.899 67.9797C140.092 68.2917 152.047 89.7717 154.765 93.4017C158.489 98.3757 165.252 101.15 169.407 103.227C172.308 104.677 174.264 106.156 174.967 107.253C176.369 109.441 177.445 113.538 178.042 118.442C179.227 128.182 178.969 141.459 179.14 145.417C180.014 165.585 179.652 182.415 179.955 190.793C185.796 191.112 200.061 191.797 208.268 191.379C209.667 191.308 211.173 191.14 212.383 190.981C207.498 162.273 206.359 149.825 205.11 122.705C204.757 115.055 207.433 110.314 210.188 106.832C211.585 105.066 213.039 103.75 213.833 102.465C216.389 98.3257 216.336 95.3647 216.243 92.5217C216.154 89.7677 216.071 87.0887 216.945 84.0077C219.162 76.1997 224.476 70.0837 228.719 63.9167C231.997 59.1527 234.617 54.3607 232.67 47.9677C232.484 47.3567 231.786 47.4687 231.125 47.5347C229.835 47.6637 228.418 48.2397 227.059 49.1287C225.436 50.1887 223.911 51.7067 222.781 53.6097C222.533 54.0267 221.087 56.4447 219.762 58.6607ZM13.8519 39.7197C12.3419 35.4847 11.1129 31.2077 10.5719 27.4277C9.46491 19.6867 11.4959 13.8177 16.5669 11.6297C19.2779 10.4597 22.9179 10.9667 26.6569 13.9187C28.7799 15.5947 31.0599 18.1567 33.2629 21.3817C33.1589 19.0677 33.1479 16.7647 33.3089 14.5227C33.3979 13.2837 33.7949 8.12768 35.0439 4.93668C36.1509 2.10768 38.1139 0.506678 40.0249 0.140678C42.9789 -0.424322 46.1009 0.70268 48.9059 3.70068C51.0699 6.01368 53.1499 9.66568 54.9619 13.9137C55.2539 13.2437 55.5889 12.5857 55.9699 11.9627C57.4359 9.56668 59.5429 7.69568 62.2439 6.96568C64.0579 6.47568 66.1849 6.46568 68.6549 7.35168C72.0939 8.58568 75.0139 12.4327 76.7949 17.9177C79.9099 27.5067 80.3229 42.3787 80.7929 46.7707C81.6509 54.7887 81.3699 60.8077 80.8959 65.2807C85.4629 60.2577 91.0749 54.1007 91.8949 53.2847C91.9229 53.2577 91.9499 53.2307 91.9779 53.2047C98.6239 46.9437 107.72 48.7787 111.148 55.3747C113.118 59.1657 113.402 65.0687 108.885 72.3657C108.687 72.6857 96.3899 94.6757 93.6039 98.3967C89.6679 103.654 83.1519 107.168 78.1209 109.645C76.3269 110.528 74.0949 111.762 73.5689 112.054C72.7339 113.612 72.3099 116.321 71.9289 119.449C70.7719 128.955 71.0519 141.914 70.8839 145.778C69.8609 169.378 70.4909 188.45 69.8319 194.963C69.7739 195.531 69.2089 198.238 65.8219 198.846C62.2619 199.484 44.1509 200.269 33.0069 199.701C29.8099 199.538 27.1489 199.252 25.4569 198.858C24.1829 198.562 23.2529 198.146 22.6679 197.762C20.6199 196.421 20.2319 194.643 20.5109 193.024C25.8209 162.261 26.9849 150.101 28.2649 122.321C28.5359 116.44 26.0449 113.184 23.9669 110.794C22.6819 109.316 21.5199 108.049 20.7759 106.844C17.5979 101.698 17.0949 97.7797 17.0899 94.1647C17.0859 91.5487 17.5489 89.1437 16.7369 86.2837C14.7769 79.3777 9.86591 74.0937 6.11391 68.6407C1.39691 61.7837 -1.74509 54.7397 1.05691 45.5397C2.40891 41.1007 6.10691 38.9357 10.8189 39.1977C11.7859 39.2507 12.8069 39.4267 13.8519 39.7197ZM62.0069 47.1817L62.0079 47.2047C62.1349 51.2807 57.8549 51.8857 57.8549 51.8857C57.8549 51.8857 53.8099 51.4327 53.6789 47.4797V47.4567C53.6109 45.5807 53.1989 37.2807 51.0419 28.5417C49.4179 21.9627 46.9499 15.1177 44.0419 10.9327C43.5909 10.2827 43.1369 9.70668 42.6699 9.23468C42.2769 11.2567 41.6689 14.4577 41.6209 15.1217C41.2439 20.3567 41.9369 25.9497 42.4129 31.1537C42.8119 35.5077 45.8299 51.7207 45.8299 51.7207C46.2249 53.8537 44.9189 55.9327 42.8249 56.5017C40.7319 57.0707 38.5529 55.9387 37.8149 53.8987C37.8149 53.8987 35.1189 46.4317 34.4069 43.8297C31.8849 34.6197 27.5089 26.5957 23.2959 22.1347C22.3669 21.1507 21.4649 20.3587 20.5959 19.8267C20.3079 19.6497 19.8579 19.4747 19.6489 19.3967C19.0029 19.8087 18.8249 20.6237 18.6909 21.5287C18.4869 22.9047 18.5719 24.5067 18.8209 26.2467C20.1929 35.8327 27.0569 50.2617 30.4669 56.9237C31.4689 58.8167 30.8009 61.1627 28.9509 62.2417C28.8259 62.3257 28.6949 62.4017 28.5649 62.4777C27.6469 63.0137 26.5539 63.1627 25.5259 62.8917C24.4989 62.6217 23.6209 61.9527 23.0869 61.0347C21.3789 57.9897 19.1959 54.0777 18.9179 53.6097C17.0789 50.5127 14.2089 48.4117 11.5789 47.7207C10.9869 47.5657 10.4159 47.4847 9.88991 47.5177C9.51691 47.5417 9.14091 47.5977 9.02791 47.9677C7.08191 54.3607 9.70191 59.1527 12.9799 63.9167C17.2219 70.0837 22.5369 76.1997 24.7539 84.0077C25.6279 87.0887 25.5449 89.7677 25.4549 92.5217C25.3629 95.3647 25.3099 98.3257 27.8659 102.465C28.6589 103.75 30.1139 105.066 31.5109 106.832C34.2659 110.314 36.9419 115.055 36.5889 122.705C35.3389 149.825 34.1999 162.273 29.3159 190.981C30.5249 191.14 32.0319 191.308 33.4309 191.379C41.6369 191.797 55.9029 191.112 61.7429 190.793C62.0469 182.415 61.6839 165.585 62.5589 145.417C62.7299 141.459 62.4719 128.182 63.6569 118.442C64.2539 113.538 65.3299 109.441 66.7319 107.253C67.4339 106.156 69.3909 104.677 72.2919 103.227C76.4459 101.15 83.2089 98.3757 86.9339 93.4017C89.6519 89.7717 101.606 68.2917 101.799 67.9797C104.165 64.1577 104.785 61.2027 103.753 59.2177C102.685 57.1607 99.8249 57.3007 97.7089 59.2567C95.9329 61.0907 83.0349 76.3887 79.6169 78.7807C76.8799 80.6967 74.6479 79.5317 73.8159 78.8387C72.2359 77.5237 71.2919 75.4167 71.6499 71.7737C72.0349 67.8607 73.8879 60.5577 72.5069 47.6577C72.1239 44.0747 71.8469 33.1557 69.9029 24.3617C69.3269 21.7537 68.6129 19.3477 67.6549 17.4707C67.1179 16.4207 66.6569 15.4887 65.8419 15.1957C65.2899 14.9987 64.8239 14.9007 64.4189 15.0107C63.7899 15.1807 63.4199 15.7537 63.0779 16.3117C62.0169 18.0467 61.6079 20.2747 61.5879 21.3037C61.4499 28.3757 61.9269 44.5097 62.0069 47.1817Z" fill="#66A2D1"/>
</svg>
