<svg xmlns="http://www.w3.org/2000/svg" width="299.611" height="386.57" viewBox="0 0 299.611 386.57">
  <path id="Path_743" data-name="Path 743" d="M1.447,126.171c-1.487-11.81-3.292-29.736,2.846-41.015s19.435-9.048,28.165-2.57C41.889,89.553,46.052,100.853,49,111.855c2.867,10.28,11.342,54.651,14.741,53.547,4.375-1.189-.212-30.395-.786-40.229-1.211-22.961-7.2-79.1.807-96.027A18.834,18.834,0,0,1,84.539,18.631c14.167,2.506,19.966,14.889,22.961,29.4s12.872,89.613,14.783,96.558A372.779,372.779,0,0,0,132.861,77.17,221.1,221.1,0,0,1,145.9,19.46c5.289-14.528,23.173-26.848,37.723-14.21,15.166,13.169,12.107,42.8,10.28,60.492-2.761,26.168-15.866,84.324-9.006,83.071,4.014,1.593,11.066-25.722,15-37.51,6.5-19.562,20.922-72.939,51.741-62.871,8.624,2.8,8.539,13.764,7.859,22.069-2.145,25.531-8.793,50.743-14.8,75.467-4.588,18.84-9.409,37.468-14.061,56.478a188.449,188.449,0,0,1,20.709-14.486c9.558-5.841,19.966-12.426,31.627-10.45a19.38,19.38,0,0,1,16.355,14.677c2.719,20.794-14.38,39.358-27.867,53.568A227.081,227.081,0,0,0,246.9,274.385c-7.137,10.535-13.19,21.835-20.2,32.476-15.1,22.961-45.837,43.118-44.413,73.895a5.458,5.458,0,0,1-5.034,5.8,5.366,5.366,0,0,1-5.565-4.269c-3.993-29.333,18.182-50.127,35.28-70.327a265.825,265.825,0,0,0,22.833-35.11A200.422,200.422,0,0,1,255.927,242.4c9.813-10.323,19.923-20.476,26.189-33.411,8.008-16.5-1.869-17.927-6.8-17.332-12.893,1.614-31.372,20.136-35.62,23.917-7.477,6.669-14.04,14.273-21.07,21.431a9.115,9.115,0,0,1-13,1.1,9.474,9.474,0,0,1-1.02-13.211,9.218,9.218,0,0,1,1.1-1.126l8.772-7.965c5.2-39.443,18.118-77.654,25.828-116.588,1.912-9.771,3.675-19.6,4.779-29.481.7-5.289.446-12.107-6.181-6.924a47.32,47.32,0,0,0-9.9,12.978c-10.854,18.224-16.143,39.252-22.3,59.388-3.59,11.788-9.855,42.82-27.294,38.594-19.52-4.715-13.318-36.151-11.81-50.191,2.591-24.086,6.8-48.088,8.05-72.323.467-8.751,1.635-19.86-1.72-28.313-3.356-8.432-8.326-3.122-11.81,2.485-3.738,6.8-4.121,13.233-5.607,20.879-3.016,12.723-4.8,25.658-6.669,38.594-3.632,25.318-5.969,51.571-18.394,76.338-2.358,5.416-11.13,8.56-17.8-2.7-5.841-9.834-17.842-89.1-19.753-101.528-1.1-6.988-5.076-29.524-15.293-22.493-4.524,5.82-2.485,16.822-2.421,24.405.234,21.962,2.167,44.01,3.165,65.951.68,14.8.4,33.878-4.949,48.13-1.912,5.2-5.374,8.793-11.321,6.818-7.413-2.485-10.833-10.493-13.211-17.353-6.8-19.265-8.135-44.074-20.136-60.747-1.784-2.464-9.2-10.981-12.553-7.37-1.189,1.274,1.784,18.522,2.421,23.6,2.167,15.59,3.675,31.181,4.991,46.856,3.037,35.068,2.889,70.794,12.787,104.906,4.864,15.4,12.574,29.566,18.755,44.626a113.01,113.01,0,0,1,6.266,48.577c-.595,10.9-24.086,9.962-23.279-.977,1.614-16.015,3.42-29.46-2.8-44.222-7.816-12.489-13.254-30.671-17.778-45.369-8.56-31.223-10.578-65.038-13.105-97.28-1.381-16.78-1.742-32.2-3.972-48.9h0Z" transform="translate(0.003 0.003)" fill="#ffd772"/>
</svg>
