<svg width="513" height="513" viewBox="0 0 513 513" fill="none" xmlns="http://www.w3.org/2000/svg">
<path d="M409.347 226.382C400.312 220.359 390.523 213.582 380.735 206.053C379.982 161.629 377.723 113.441 369.441 63.7471C368.688 60.7353 366.429 59.2294 364.17 59.2294L66.7586 58.4765C63.7469 58.4765 60.7351 61.4882 60.7351 64.5C61.4881 97.6294 62.241 130.759 62.9939 186.476C48.6881 197.771 37.3939 208.312 26.8528 218.1C24.5939 218.853 23.841 220.359 23.0881 221.865C16.3116 230.9 16.3116 231.653 12.5469 239.182C12.5469 323.512 12.5469 400.312 14.0528 480.876C125.488 484.641 120.217 477.112 394.288 483.888C399.559 478.618 401.065 477.865 404.076 474.1C410.1 474.1 412.359 471.841 412.359 468.076C408.594 389.771 419.135 314.476 414.617 233.912C414.617 230.9 410.1 226.382 409.347 226.382ZM380.735 220.359C386.759 224.876 392.029 228.641 398.053 232.406C392.029 237.676 386.759 243.7 380.735 248.971C380.735 239.935 380.735 230.147 380.735 220.359ZM359.653 70.5235C370.194 137.535 370.194 202.288 369.441 258.006V260.265C340.076 288.124 310.712 314.476 282.1 342.335C272.312 334.806 233.159 297.159 221.865 285.865C219.606 283.606 215.088 284.359 213.582 285.865C196.265 301.676 176.688 319.747 157.112 338.571C128.5 314.476 102.147 288.876 75.7939 263.276C75.7939 262.524 72.7822 98.3824 72.0292 70.5235H359.653ZM63.7469 200.782L64.4998 250.476C54.7116 240.688 47.9351 233.912 37.3939 223.371C44.9233 216.594 53.9586 209.065 63.7469 200.782ZM35.1351 237.676C72.7822 275.324 108.17 311.465 148.829 346.1C110.429 382.241 70.5233 420.641 34.3822 457.535C35.1351 379.982 40.4057 311.465 35.1351 237.676ZM45.6763 462.053C100.641 405.582 166.147 344.594 218.1 297.159C271.559 349.865 340.076 408.594 394.288 462.053C276.076 456.029 163.888 461.3 45.6763 462.053ZM400.312 439.465C396.547 429.676 300.17 355.135 291.888 349.112C328.029 312.971 367.182 279.088 404.076 242.947C407.088 311.465 399.559 373.206 400.312 439.465Z" fill="#66A2D1"/>
<path d="M113.441 129.253H312.218C315.23 129.253 318.241 126.994 318.241 123.229C318.241 119.465 315.983 117.206 312.218 117.206H113.441C110.43 117.206 107.418 119.465 107.418 123.229C107.418 126.994 110.43 129.253 113.441 129.253Z" fill="#66A2D1"/>
<path d="M220.359 187.229H122.477C119.465 187.229 116.453 189.488 116.453 193.253C116.453 197.018 118.712 199.276 122.477 199.276H220.359C223.371 199.276 226.383 197.018 226.383 193.253C226.383 189.488 223.371 187.229 220.359 187.229Z" fill="#66A2D1"/>
<path d="M312.217 185.724C308.452 190.241 300.923 199.276 291.887 209.818C285.864 201.535 279.087 192.5 272.311 183.465C270.805 181.206 267.04 180.453 264.781 181.959C262.523 183.465 261.77 187.229 263.276 189.488C269.299 197.771 275.323 206.053 281.346 214.335C272.311 213.582 264.029 212.829 255.746 212.076C252.734 212.076 249.723 214.335 249.723 217.347C249.723 220.359 251.981 223.371 254.993 223.371C264.029 224.124 271.558 224.876 279.84 225.629C274.57 232.406 270.052 239.182 265.534 245.959C264.029 248.218 264.782 251.982 267.04 253.488C269.299 254.994 273.064 254.241 274.57 251.982C279.84 243.7 285.864 235.418 291.887 227.888C297.911 236.171 303.934 244.453 309.958 252.735C311.464 254.994 315.229 255.747 317.487 254.241C319.746 252.735 320.499 248.971 318.993 246.712C313.723 239.935 309.205 233.159 304.687 227.135H328.029C331.04 227.135 333.299 224.876 333.299 221.112C333.299 217.347 331.04 215.841 327.276 215.841C318.24 215.841 309.205 215.841 300.923 215.841C309.958 204.547 317.487 196.265 319.746 193.253C322.005 190.994 321.252 187.229 318.993 184.971C317.487 182.712 314.476 183.465 312.217 185.724Z" fill="#66A2D1"/>
<path d="M398.807 102.9C416.877 83.3235 433.442 61.4882 446.995 38.1471C448.501 35.1353 447.748 32.1235 445.489 30.6176C442.477 29.1118 439.465 29.8647 437.959 32.1235C424.407 54.7118 408.595 75.7941 390.524 94.6176C388.265 96.8765 388.265 100.641 391.277 102.9C393.536 105.912 396.548 105.159 398.807 102.9Z" fill="#66A2D1"/>
<path d="M416.124 140.547L488.406 111.935C491.418 110.429 492.924 107.418 491.418 104.406C489.912 101.394 486.901 99.8882 483.889 101.394L411.606 130.006C408.595 131.512 407.089 134.524 408.595 137.535C409.348 139.794 413.112 141.3 416.124 140.547Z" fill="#66A2D1"/>
<path d="M496.689 191.747C479.372 185.724 461.301 182.712 443.231 181.959C440.219 181.959 437.207 184.218 437.207 187.229C437.207 190.241 439.466 193.253 442.478 193.253C459.795 194.006 476.36 197.018 492.925 203.041C495.936 203.794 498.948 202.288 499.701 199.276C501.207 195.512 499.701 192.5 496.689 191.747Z" fill="#66A2D1"/>
</svg>
