<?xml version="1.0" encoding="UTF-8"?>
<svg xmlns="http://www.w3.org/2000/svg" xmlns:xlink="http://www.w3.org/1999/xlink" version="1.1" width="512" height="512" x="0" y="0" viewBox="0 0 68 68" style="enable-background:new 0 0 512 512" xml:space="preserve" class="">
  <g>
    <path d="M56.629 29.543c-2.218-.76-4.784-.225-6.526 1.329-1.911-.396-3.796.652-4.877 1.949-1.611 1.93-2.033 4.419-2.22 6.37-.25 2.585-.647 5.01-1.003 7.042-.396 2.264.594 3.383 2.892 2.658 1.316-.413 1.27.043 2.54.337 1.085.25 2.183.2 3.362-.235.02-.007.033-.023.052-.032 1.336.34 2.503.24 3.602-.205.871.297 2.15.084 2.322.054 2.535-.468.995-.222 2.927-.014 2.495.267 2.972-1.909 2.857-4.415-.012-.162.017-1.962-.596-5.622-.554-3.306-1.312-7.834-5.332-9.216zm-10.251 4.239c.815-.976 2.322-1.819 3.706-1.366a.75.75 0 0 0 .772-.19c1.32-1.36 3.49-1.88 5.285-1.264 2.698.927 3.568 3.846 4.088 6.603-.535-.134-1.074.011-1.521.317-1.544-1.095-2.084-3.228-2.415-5.405a.75.75 0 0 0-1.461-.1c-.821 2.793-7.206 6.989-10.025 6.645a.728.728 0 0 0-.277.02c.18-1.687.573-3.733 1.848-5.26zm12.97 5.675a.716.716 0 0 0 .152-.292c.196-.278.737-.274.479.588-.11.37-.348.821-.732.855.04-.387.073-.77.101-1.15zm-11.575 8.31c-.994-.229-1.47-.892-3.328-.307-.267.084-.759.237-.89.195-.091-.07-.224-.311-.074-1.163.31-1.77.645-3.845.896-6.064.182.093.241.078.343.088.337 2.933 1.338 5.638 3.773 7.35a4.279 4.279 0 0 1-.72-.1zm-1.555-7.334c3.01-.538 7.023-3.102 8.993-5.682.442 1.737 1.2 3.37 2.659 4.386-.25 3.488-1.007 7.393-4.367 8.371-2.559.74-6.558-1.037-7.285-7.075zm14.535 6.56c-.146.201-.564.345-.89.312-1.428-.157-.777-.497-3.289.012 1.435-1.45 2.105-3.244 2.46-5.22.736.071 1.32-.228 1.781-.778.123 1.017.54 4.834-.062 5.673z" fill="#e31e26" opacity="1" data-original="#000000"></path>
    <path d="M37.028 61.522c-.202.517.044 1.205.922 1.318l.473 1.007c7.138.585 17.28.657 25.108.592.748-.006 1.776-.495 2.277-1.145a1.04 1.04 0 0 0 .607-1.17c-3.124-15.156-22.928-15.868-29.387-.602zm1.683-.097c6.087-13.084 23.177-12.385 26.122.483-4.591.342-18.841.37-26.122-.483zM9.29 27.113c.16 1.768.597 3.83 1.806 5.568 1.635 2.35 4.51 3.628 7.045 2.893 3.415-.992 4.73-4.465 5.092-7.99 1.124-.364 1.347-1.927.79-2.724a8.116 8.116 0 0 0 .373-4.532c-.454-2.187-2.036-4.074-4.03-4.807-1.951-.718-4.42-.183-5.96 1.238-1.266-.316-2.726.063-3.78 1.013-1.002.903-1.637 2.258-1.79 3.814-.096.989.01 1.941.17 2.791-.877.35-1.058 1.816.285 2.736zm3.038 4.712c-.958-1.377-1.468-3.182-1.593-5.624 2.719.1 6.636-1.657 8.602-4.07.42 1.621 1.135 3.14 2.492 4.1.002.009.007.018.01.027-.227 3.275-.96 6.959-4.116 7.875-2.07.6-4.28-.706-5.395-2.308zm-1.999-10.092c.116-1.184.578-2.195 1.301-2.847.762-.686 1.87-.925 2.696-.579a.754.754 0 0 0 .851-.195c1.068-1.208 3.162-1.738 4.672-1.183 1.518.559 2.727 2.012 3.078 3.704a6.65 6.65 0 0 1-.512 4.165c-1.248-1.083-1.702-2.984-1.994-4.91a.75.75 0 0 0-1.462-.1c-.77 2.622-5.621 5.15-8.35 4.922-.27-1.177-.364-2.121-.28-2.977z" fill="#e31e26" opacity="1" data-original="#000000"></path>
    <path d="M1.628 46.878c-.2.518.05 1.19.931 1.302l.431.917c6.78.556 16.415.623 23.851.562.693-.005 1.637-.446 2.125-1.04.537-.203.745-.715.651-1.167-3.025-14.685-21.938-14.876-27.989-.574zm1.692-.113C9.02 34.6 25.182 34.89 28.032 47.221c-4.631.32-17.829.343-24.712-.456zM44.658 24.438a8.092 8.092 0 0 0 2.245 1.625c2.502 1.216 5.954 1.075 6.593.666.632.743 1.347 1.512 1.95 2.245.444.077 1.026.196 1.55.238.408.2.825.013.996-.33.427-.849.383-2.077.6-4.25 2.417-1.639 3.772-4.039 3.622-6.5-.293-4.808-5.608-7.596-10.703-7.288-5.627.343-9.99 4.172-9.724 8.533.122 1.999 1.202 3.764 2.871 5.061zm6.944-12.097c4.163-.261 8.873 1.918 9.115 5.881.122 2.014-1.087 4.018-3.235 5.36a.841.841 0 0 0-.335.512c-.094.546-.198 2.3-.266 2.992-.627-.6-.975-.903-2.322-1.975-.122-.096-.426-.186-.618-.148-4.827.993-10.396-1.4-10.657-5.677-.215-3.537 3.516-6.651 8.318-6.945z" fill="#e31e26" opacity="1" data-original="#000000"></path>
    <path d="m48.235 19.28.083-.083a.75.75 0 1 0-1.06-1.06l-.083.083a.75.75 0 1 0 1.06 1.06zM51.728 19.032a.75.75 0 1 0 1.06-1.06l-.082-.083a.75.75 0 1 0-1.06 1.06zM55.489 18.873l.251.166a.75.75 0 0 0 .826-1.253l-.247-.162a.75.75 0 1 0-.83 1.249zM27.728 12.135a.748.748 0 0 0 .178-.634.748.748 0 0 0-.937-1.065c-.7.289-.864 1.255-.3 1.758a.75.75 0 0 0 1.059-.059zM33.033 11.575a.848.848 0 0 0-.086-.913.75.75 0 0 0-.968-.153.75.75 0 0 0-.484.85c.142.725 1.154.897 1.538.216zM35.633 11.827l.25.084a.75.75 0 1 0 .476-1.422l-.247-.083a.75.75 0 1 0-.48 1.42z" fill="#e31e26" opacity="1" data-original="#000000"></path>
    <path d="M41.79 11.466c0-4.37-4.587-7.925-10.226-7.925-5.645 0-10.239 3.555-10.239 7.925 0 2.467 1.5 4.78 4.01 6.267.094.577.17 1.108.232 1.567.16 1.182.277 2.037.627 2.64a.726.726 0 0 0 1.01.268l1.086.045a63.365 63.365 0 0 1 2.027-2.15 4.48 4.48 0 0 1 1.364-.293c6.816-.52 10.11-4.566 10.11-8.344zm-18.965 0c0-3.543 3.92-6.425 8.74-6.425 4.81 0 8.725 2.882 8.725 6.425 0 4.346-5.457 7.006-10.291 6.316-.19-.027-.49.078-.608.185-1.279 1.151-1.609 1.478-2.197 2.112-.125-.769-.222-1.711-.432-2.93-.027-.16-.199-.432-.381-.53-2.226-1.21-3.556-3.136-3.556-5.153z" fill="#e31e26" opacity="1" data-original="#000000"></path>
  </g>
</svg>
