<svg width="206" height="160" viewBox="0 0 206 160" fill="none" xmlns="http://www.w3.org/2000/svg">
<g clip-path="url(#clip0_727_8447)">
<path d="M42.3083 63.2759C44.8143 47.5239 64.5003 30.6979 79.9003 30.3409C80.9583 30.3694 81.9858 29.9841 82.7643 29.2669C83.1771 29.1206 83.552 28.884 83.8617 28.5743C84.1714 28.2646 84.408 27.8897 84.5543 27.4769C89.9243 17.4529 87.0603 9.57686 78.1103 3.13286C67.7283 -4.38514 51.2603 3.13286 43.0263 9.93286C22.2603 27.1179 1.13825 56.8309 2.21225 85.1129C-1.36775 104.087 -0.651745 124.492 4.71826 141.318C8.29825 152.058 18.6803 157.428 29.4183 158.144C40.1563 158.86 62.3542 162.082 72.0182 155.639C81.6822 149.196 82.4002 136.665 83.4772 125.925C84.5512 114.111 87.7773 91.9149 77.7493 82.6069C67.7253 73.6579 39.0863 83.3229 42.3083 63.2759Z" fill="#FFEBB9"/>
<path d="M160.448 63.2759C162.954 47.5239 182.648 30.6979 198.037 30.3399C199.095 30.3684 200.123 29.9831 200.901 29.2659C201.314 29.1197 201.689 28.8831 201.999 28.5734C202.309 28.2637 202.546 27.8888 202.692 27.4759C208.062 17.4519 205.198 9.57588 196.248 3.13188C185.866 -4.38612 169.398 3.13188 161.164 9.93188C140.4 27.1159 119.279 56.8319 120.353 85.1109C116.773 104.085 117.489 124.49 122.858 141.316C126.438 152.056 136.82 157.426 147.558 158.142C158.296 158.858 180.494 162.08 190.158 155.637C199.822 149.194 200.54 136.663 201.614 125.923C202.688 114.109 205.914 91.9129 195.886 82.6049C185.865 73.6579 156.868 83.3229 160.448 63.2759Z" fill="#FFEBB9"/>
</g>
<defs>
<clipPath id="clip0_727_8447">
<rect width="205.396" height="159.583" fill="white"/>
</clipPath>
</defs>
</svg>
