<svg width="210" height="202" viewBox="0 0 210 202" fill="none" xmlns="http://www.w3.org/2000/svg">
<path d="M2.663 65.925H47.6685V201.361H2.663V65.925ZM25.467 0.639038C10.0635 0.639038 0 10.7515 0 24.0245C0 37.0245 9.769 47.431 24.878 47.431H25.165C40.863 47.431 50.639 37.024 50.639 24.0245C50.3445 10.7515 40.8635 0.639038 25.467 0.639038ZM158.169 62.7435C134.28 62.7435 123.577 75.8835 117.607 85.0985V65.925H72.588C73.184 78.6305 72.588 201.361 72.588 201.361H117.607V125.724C117.607 121.673 117.901 117.637 119.086 114.735C122.345 106.648 129.753 98.2735 142.177 98.2735C158.478 98.2735 164.988 110.699 164.988 128.898V201.361H210V123.699C210 82.0995 187.799 62.7435 158.169 62.7435Z" fill="white"/>
</svg>
