<svg width="416" height="460" viewBox="0 0 416 460" fill="none" xmlns="http://www.w3.org/2000/svg">
<path d="M217.267 23.6745L217.76 23.2002C108.696 22.1491 -1.68483 110.232 0.199572 239.694C2.0224 364.926 102.91 453.237 220.637 447.825C236.094 447.115 251.458 444.668 266.372 440.38C284.906 454.935 315.649 464.628 335.761 456.471C343.974 453.068 351.29 447.608 357.411 440.626C380.081 419.918 383.527 384.571 378.176 353.796C411.938 305.866 421.48 250.736 412.8 199.428C396.834 105.059 319.22 23.6185 217.267 23.6745ZM322.983 70.178C322.619 70.9905 322.384 71.8646 322.48 72.8132C324.214 89.9524 305.712 101.968 290.761 93.553C279.716 87.3262 273.653 71.2063 258.85 65.7995C231.744 55.88 211.687 87.4575 189.727 85.1831C181.357 84.2927 173.11 77.7379 168.706 68.4845C165.417 61.5624 163.949 53.0033 163.97 42.0855C220.574 25.2776 276.218 35.5539 322.983 70.178ZM28.9187 178.758C65.7884 167.669 115.512 190.898 79.4803 209.608C71.0994 213.835 62.4846 217.728 57.7064 225.704C51.6379 235.841 54.7885 250.087 64.5899 256.813C68.3523 259.377 73.2649 261.205 73.8091 263.279C75.0732 268.106 50.7283 284.208 23.9076 276.269C21.1216 263.481 19.5338 250.316 19.2201 236.916C18.7475 216.839 21.2012 197.422 26.4923 178.851C27.28 178.992 28.0955 179.008 28.9187 178.758ZM129.172 363.58C141.628 340.644 167.874 334.213 171.282 338.279C173.446 340.863 169.975 348.025 168.932 354.032C166.061 370.312 181.902 386.346 198.254 383.704C216.978 380.637 225.779 358.739 240.117 356.895C246.912 356.053 254.809 360.176 261.309 368.005C270.758 379.377 276.795 402.99 275.283 420.429C255.576 427.535 236.122 431.027 216.494 431.464C184.812 432.109 154.199 424.993 126.648 410.904C122.676 396.925 122.644 375.596 129.172 363.58ZM263.145 270.286C262.815 261.817 261.786 253.566 260.521 242.546C260.344 240.925 259.39 239.604 258.117 238.769C251.228 232.245 239.197 219.291 218.946 204.56C216.303 202.653 212.628 203.554 211.165 206.423C197.315 233.57 188.617 259.344 183.138 289.243C178.543 286.932 178.259 286.789 177.378 286.3C182.864 248.347 183.843 212.43 184.364 178.834C184.391 177.176 183.631 175.608 182.323 174.594C164.871 161.08 148.932 149.758 133.658 140.019C130.795 131.183 128.796 129.791 130.021 127.909C130.975 126.433 131.546 127.33 140.871 126.327C160.59 139.464 179.179 150.943 196.145 160.471C197.569 161.272 199.295 161.368 200.809 160.71C230.761 147.772 264.939 136.943 299.85 129.313C300.273 129.98 300.979 131.137 301.393 131.84C276.683 143.904 251.461 161.761 228.11 183.902C225.979 185.92 225.91 189.282 227.96 191.389C241.884 205.704 254.467 217.491 265.35 226.43C270.06 230.271 274.856 223.629 301.069 218.409C302.17 219.702 303.328 221.229 304.475 222.859C281.119 237.726 273.107 243.967 265.266 271.189C265.246 271.181 263.572 270.463 263.145 270.286ZM292.951 243.615C339.224 293.609 394.92 388.117 347.044 436.233C380.061 385.232 333.327 307.595 281.399 258.105C284.182 252.411 288.098 247.502 292.951 243.615ZM346.528 389.519C347.806 403.418 345.972 413.653 342.705 421.854C328.855 442.013 303.398 443.988 286.524 433.389C306.667 424.931 325.307 412.56 339.006 396.108C341.581 394.005 344.045 391.752 346.528 389.519ZM308.544 232.754C310.55 231.446 312.445 230.252 314.072 229.325C314.262 229.24 314.475 229.272 314.658 229.163C317.145 227.656 317.946 224.423 316.446 221.937C314.98 219.512 311.097 213.389 306.693 208.984C305.487 207.772 303.761 207.217 302.063 207.526C290.268 209.594 279.823 213.005 269.775 216.43C260.72 208.827 250.48 199.245 239.254 187.882C262.309 166.697 287.008 149.813 310.953 138.889C313.406 137.77 314.498 135.008 313.693 132.503C313.566 131.637 313.302 130.788 312.727 130.046C309.315 125.633 306.606 117.153 300.741 118.361C265.028 125.957 229.926 136.889 199.042 150.026C149.702 122.055 146.601 115.051 141.515 115.656C131.871 116.883 125.799 115.172 121.227 122.128C118.973 125.56 118.501 129.902 119.973 133.738C129.712 157.285 113.888 135.207 173.802 181.306C173.241 216.06 172.165 250.478 166.473 288.115C165.478 294.726 176.679 296.515 182.932 301.252C185.691 303.33 189.931 302.309 191.08 298.603C195.645 294.124 193.12 267.39 217.747 216.793C228.455 224.969 238.714 234.144 250.311 245.841C250.701 250.066 251.275 251.761 252.47 270.535C252.978 278.516 253.426 277.558 260.658 280.663C266.041 282.993 266.379 283.231 268.212 282.972C271.174 283.425 273.653 281.462 274.186 278.834C274.847 275.557 275.928 272.086 277.121 268.68C308.742 299.403 335.681 332.76 344.684 376.986C327.393 393.673 307.444 406.825 285.973 416.067C286.193 396.758 279.562 373.51 269.405 361.279C260.46 350.512 249.275 345.135 238.775 346.457C219.779 348.902 210.979 370.966 196.556 373.32C187.404 374.836 177.679 365.026 179.289 355.854C180.491 349.115 185.909 339.344 179.343 331.526C175.371 326.758 168.528 325.306 160.063 327.43C143.22 331.663 128.213 343.293 119.926 358.553C113.427 370.524 112.255 388.957 114.463 404.069C72.6682 378.638 40.7544 337.512 26.8369 287.881C44.226 291.259 61.6945 287.233 75.0283 278.087C82.3091 273.08 85.5762 266.717 83.9872 260.615C82.0534 253.249 74.6669 250.938 70.5351 248.135C65.3433 244.574 63.5283 236.45 66.7338 231.108C69.8859 225.831 76.6953 222.791 84.3365 218.937C110.97 205.106 106.664 182.209 82.3159 171.827C66.0796 164.89 47.2928 163.483 30.0737 167.628C50.2065 110.799 96.7969 65.8298 153.386 45.5324C154.227 77.9758 171.594 93.8295 188.604 95.6489C213.48 98.2396 235.396 68.4266 255.241 75.6762C266.551 79.8183 272.437 95.3008 285.597 102.717C304.577 113.418 330.276 102.157 332.848 77.9845C369.055 108.607 393.427 151.758 401.962 198.181C410.605 245.185 403.013 295.543 375.032 339.645C363.963 299.165 335.387 264.196 308.544 232.754Z" fill="#66A2D1"/>
<path d="M365.297 171.354C361.532 168.736 361.393 168.618 361.756 163.553C361.927 161.176 362.119 158.478 361.393 155.649C357.635 140.983 336.388 140.129 330.414 155.553C326.203 166.428 307.285 171.673 316.112 194.402C323.721 214.013 352.551 221.732 367.941 207.149C372.681 202.662 375.434 195.902 375.297 189.073C375.118 180.594 371.265 175.48 365.297 171.354ZM325.92 190.594C319.713 174.614 334.375 174.43 340.222 159.354C341.275 156.639 343.96 154.799 346.304 154.799C348.462 154.799 350.715 156.375 351.201 158.258C352.056 161.601 349.675 167.582 352.694 173.361C356.684 181.014 364.589 179.67 364.777 189.286C365.159 208.844 332.952 208.758 325.92 190.594Z" fill="#66A2D1"/>
<path d="M323.174 34.046L327.016 6.54599C327.413 3.66927 325.406 1.01174 322.53 0.607632C319.639 0.196672 316.996 2.22407 316.591 5.09393L312.749 32.5939C311.797 39.4858 322.204 40.9423 323.174 34.046Z" fill="#66A2D1"/>
<path d="M355.734 17.1078L338.583 41.7174C334.561 47.4767 343.321 53.3218 347.213 47.7311L364.364 23.1215C366.028 20.7379 365.439 17.4571 363.056 15.7996C360.658 14.142 357.391 14.7311 355.734 17.1078Z" fill="#66A2D1"/>
<path d="M367.095 73.8064L397.451 51.0393C399.773 49.2996 400.246 45.9982 398.499 43.6763C396.759 41.3612 393.472 40.8818 391.136 42.6284L360.78 65.3955C355.177 69.5938 361.606 77.9426 367.095 73.8064Z" fill="#66A2D1"/>
</svg>
