<svg width="462" height="478" viewBox="0 0 462 478" fill="none" xmlns="http://www.w3.org/2000/svg">
<path d="M433.738 261.891C436.424 250.412 430.527 216.183 431.514 66.891C431.616 51.3198 431.822 30.5311 422.06 16.7403C418.732 7.74856 408.118 1.2072 395.077 1.08587L339.268 0.571167C330.364 0.762343 321.606 3.62999 316.195 8.97558C307.666 17.4387 311.21 25.4024 310.32 34.9186C305.365 31.5353 298.861 29.3984 291.548 29.3065C218.163 28.622 239.597 28.7844 235.489 28.7844C228.274 28.7844 221.62 30.7807 216.443 34.2623C214.272 24.0399 202.915 16.3028 188.754 16.13L132.871 15.6079C132.79 15.6079 132.709 15.6079 132.629 15.6079C118.597 15.6079 104.055 23.8598 104.055 37.2256L104.967 326.452C101.845 327.906 98.6924 329.196 95.5113 330.335C93.9061 326.266 92.2861 322.2 90.4815 318.196C85.6947 307.549 73.0623 301.704 60.4447 304.292C38.8309 308.725 30.5847 312.161 20.9153 315.218C10.5182 318.505 -2.41561 322.601 1.55498 336.049C13.3279 375.971 16.8043 422.548 26.2609 451.777C27.2314 454.748 30.3859 456.358 33.3785 455.409C36.3417 454.446 37.9667 451.262 37.0109 448.292C27.965 420.409 24.3178 373.283 12.3932 332.858C11.7976 330.843 12.0476 329.873 24.3197 325.983C33.8546 322.982 41.6057 319.692 62.7094 315.351C70.1212 313.836 77.5844 317.064 80.1873 322.836C97.952 362.262 105.665 405.181 102.481 446.961C102.349 448.748 101.004 450.284 99.43 450.461C79.5601 452.63 58.0153 455.912 38.5844 458.226C35.4888 458.601 33.2756 461.409 33.6432 464.505C33.9888 467.373 36.43 469.483 39.2462 469.483C39.4667 469.483 39.6947 469.468 39.9226 469.446C41.1763 469.295 42.4856 469.107 43.7475 468.951C49.0113 471.693 54.995 478.328 65.5701 477.327C82.3661 475.735 98.1722 472.82 114.724 470.09C120.217 469.184 124.131 465.014 123.779 460.22C122.963 449.124 121.97 437.772 121.219 426.772C183.225 444.402 247.445 444.761 304.429 427.602C362.222 410.203 412.372 374.93 447.288 327.123C452.773 319.611 457.972 311.613 460.122 302.176C461.504 296.11 461.987 286.965 458.704 280.327C460.634 265.805 448.319 256.964 433.738 261.891ZM324.143 16.9976C327.401 13.7697 333.209 11.5124 339.158 11.8653L394.974 12.38C404.945 12.4756 411.923 17.8506 411.952 22.6374L414.606 272.862C397.578 285.288 383.256 299.943 366.276 307.564C351.845 314.041 328.231 323.737 320.079 326.954C320.124 320.786 320.591 257.308 320.587 258.069L321.673 22.13C321.673 19.9168 323.018 18.1153 324.143 16.9976ZM220.592 45.2624C223.82 42.0565 229.518 40.0785 235.489 40.0785C242.094 40.1402 294.792 40.632 291.423 40.6006C300.629 40.7109 308.408 45.4021 308.408 50.8653L309.296 257.437C309.29 258.192 308.71 336.562 308.747 331.593C290.834 338.908 288.335 340.533 258.981 347.145C258.227 347.265 249.533 349.576 235.273 349.692C251.106 336.963 263.844 321.535 276.129 305.079C276.334 304.836 276.511 304.608 276.614 304.424C277.702 303.336 286.862 290.409 296.151 279.042C320.557 248.967 294.657 226.66 269.467 234.351C249.284 240.513 237.496 257.878 218.136 271.347V50.3874C218.136 48.1741 219.474 46.38 220.592 45.2624ZM269.952 257.579C271.039 254.207 276.134 247.192 279.057 244.124C287.142 243.865 292.473 248.107 294.138 252.303C290.455 256.862 283.512 263.49 279.592 265.645C276.746 267.218 272.518 267.439 270.658 265.086C269.334 263.395 269.048 260.38 269.952 257.579ZM115.349 37.2109C115.349 34.9903 116.687 33.1962 117.812 32.0785C121.033 28.88 126.702 26.9021 132.614 26.9021C139.247 26.9639 192.002 27.4556 188.629 27.4241C197.79 27.5344 205.562 32.255 205.614 37.6962L206.839 278.704C186.99 290.689 169.466 296.436 168.68 296.762C136.842 308.097 135.273 310.459 116.243 320.788L115.349 37.2109ZM99.4029 340.937C112.263 336.322 124.004 329.386 136.092 322.689C168.29 304.993 199.146 305.459 243.202 265.461C248.738 260.441 254.397 255.34 260.369 251.332C251.927 268.868 267.733 284.18 284.307 275.829C260.907 305.323 247.525 327.988 220.342 346.821C219.822 347.181 219.438 347.65 219.08 348.13C216.942 347.567 215.049 346.895 213.834 345.968C211.349 344.071 207.805 344.556 205.915 347.034C204.026 349.52 204.504 353.064 206.981 354.954C219.989 364.858 252.533 360.174 260.555 358.365C295.284 349.372 278.004 356.211 324.636 337.299C382.129 313.98 381.72 313.814 406.393 293.652C413.5 287.839 437.228 267.634 444.886 272.38C455.807 279.376 431.894 305.074 424.18 314.431C331.777 423.07 224.758 414.661 115.333 405.527C114.699 405.147 114.01 404.888 113.269 404.808C111.294 383.215 106.638 361.749 99.4029 340.937Z" fill="#66A2D1"/>
<path d="M70.3626 349.005C79.8186 340.71 70.9 325.99 63.2744 328.454C55.9256 326.329 48.8855 330.377 47.245 337.204C44.1566 350.121 61.3676 356.903 70.3626 349.005Z" fill="#66A2D1"/>
<path d="M343.209 66.7036C355.809 66.0077 370.605 66.2923 383.275 65.5933C386.639 65.409 389.105 62.337 388.533 58.9977C387.503 52.9683 388.525 45.5124 389.57 38.9977C390.067 35.8718 387.527 31.9413 383.805 31.7183C376.408 31.3065 357.731 30.4536 343.974 31.7845C341.158 32.0492 338.981 34.3653 338.878 37.1962C338.101 57.3011 335.585 61.7995 338.945 65.0933C340.124 66.2486 341.75 66.8078 343.209 66.7036ZM349.886 42.6595C359.43 42.13 370.54 42.4168 377.606 42.7183C377.099 46.5859 376.739 50.6153 376.827 54.5712C367.352 54.8779 358.102 54.8538 348.9 55.1521C349.194 51.1456 349.63 46.5284 349.886 42.6595Z" fill="#66A2D1"/>
<path d="M243.223 88.5197C255.823 87.8238 270.619 88.1084 283.289 87.4094C284.899 87.3212 286.392 86.5491 287.392 85.2917C290.512 81.3976 286.151 82.2404 289.583 60.8138C290.087 57.6506 287.502 53.7551 283.819 53.5344C276.429 53.1153 257.745 52.277 243.988 53.6006C241.171 53.8653 238.995 56.1814 238.892 59.0123C238.591 66.8425 237.576 74.5663 237.274 82.6667C237.135 86.003 239.985 88.751 243.223 88.5197ZM249.907 64.4756C259.429 63.9462 270.554 64.2329 277.62 64.5344C277.113 68.402 276.752 72.4241 276.841 76.3873C267.366 76.694 258.116 76.6699 248.914 76.9682C249.221 72.8218 249.615 68.726 249.907 64.4756Z" fill="#66A2D1"/>
<path d="M136.061 73.9315C148.67 73.2352 163.464 73.5207 176.127 72.8212C179.487 72.6372 181.954 69.5575 181.385 66.233C180.399 60.4462 181.304 53.1962 182.429 46.2257C182.953 43.009 180.277 39.1504 176.657 38.9462C169.26 38.5271 150.591 37.6815 136.826 39.0124C134.01 39.2771 131.833 41.5933 131.73 44.4242C130.92 65.4942 128.474 69.042 131.796 72.3212C132.976 73.4766 134.602 74.0358 136.061 73.9315ZM142.745 49.8874C152.282 49.358 163.399 49.6521 170.466 49.9462C169.944 53.9242 169.605 57.9315 169.686 61.7992C160.209 62.1059 150.957 62.0817 141.752 62.3801C142.06 58.2336 142.454 54.1379 142.745 49.8874Z" fill="#66A2D1"/>
<path d="M382.091 100.123H347.01C343.893 100.123 341.363 102.652 341.363 105.77C341.363 108.887 343.893 111.417 347.01 111.417H382.091C385.209 111.417 387.738 108.887 387.738 105.77C387.738 102.652 385.209 100.123 382.091 100.123Z" fill="#66A2D1"/>
<path d="M339.483 144.829H391.284C394.402 144.829 396.932 142.299 396.932 139.181C396.932 136.064 394.402 133.534 391.284 133.534H339.483C336.365 133.534 333.836 136.064 333.836 139.181C333.836 142.299 336.365 144.829 339.483 144.829Z" fill="#66A2D1"/>
<path d="M137.917 110.476C134.799 110.476 132.27 113.005 132.27 116.123C132.27 119.24 134.799 121.77 137.917 121.77H172.997C176.115 121.77 178.645 119.24 178.645 116.123C178.645 113.005 176.115 110.476 172.997 110.476H137.917Z" fill="#66A2D1"/>
<path d="M130.385 155.182H182.187C185.304 155.182 187.834 152.652 187.834 149.535C187.834 146.417 185.304 143.887 182.187 143.887H130.385C127.268 143.887 124.738 146.417 124.738 149.535C124.738 152.652 127.268 155.182 130.385 155.182Z" fill="#66A2D1"/>
<path d="M278.408 132.439H243.327C240.209 132.439 237.68 134.968 237.68 138.086C237.68 141.203 240.209 143.733 243.327 143.733H278.408C281.525 143.733 284.055 141.203 284.055 138.086C284.055 134.968 281.525 132.439 278.408 132.439Z" fill="#66A2D1"/>
<path d="M235.799 177.145H287.601C290.719 177.145 293.248 174.615 293.248 171.498C293.248 168.38 290.719 165.851 287.601 165.851H235.799C232.682 165.851 230.152 168.38 230.152 171.498C230.152 174.615 232.682 177.145 235.799 177.145Z" fill="#66A2D1"/>
</svg>
