<svg width="30" height="27" viewBox="0 0 30 27" fill="none" xmlns="http://www.w3.org/2000/svg">
<path d="M29.5014 2C29.5014 1.60218 29.3434 1.22064 29.0621 0.93934C28.7808 0.658035 28.3993 0.5 28.0014 0.5C22.4039 0.5 16.7514 6.5675 13.5139 10.75C12.3314 10.4447 11.0947 10.4141 9.89861 10.6607C8.70248 10.9073 7.57869 11.4245 6.61337 12.1726C5.64805 12.9208 4.86683 13.88 4.32958 14.9767C3.79233 16.0735 3.51333 17.2787 3.51394 18.5C3.51394 20 3.12644 21.3387 2.36019 22.47C2.03844 22.9605 1.63857 23.395 1.17644 23.7563C0.907016 23.9311 0.701563 24.1887 0.590904 24.4902C0.480244 24.7918 0.470345 25.1211 0.562692 25.4287C0.656996 25.74 0.849355 26.0125 1.1111 26.2055C1.37285 26.3986 1.68996 26.5018 2.01519 26.5H11.5152C12.7353 26.4985 13.9389 26.218 15.034 25.6798C16.129 25.1417 17.0864 24.3602 17.833 23.3951C18.5796 22.4301 19.0955 21.3071 19.3414 20.112C19.5872 18.9169 19.5565 17.6814 19.2514 16.5C23.4377 13.2562 29.5014 7.6 29.5014 2ZM26.2039 3.79875C25.7039 5.41375 24.5602 7.235 22.8389 9.1625C22.4639 9.58625 22.0689 10 21.6702 10.3988C21.0621 9.63584 20.3702 8.94359 19.6077 8.335C20.0064 7.93625 20.4189 7.545 20.8427 7.16625C22.7702 5.44375 24.5902 4.30375 26.2039 3.79875ZM11.5102 23.5H5.25144C6.10299 21.9725 6.53996 20.2487 6.51894 18.5C6.51894 17.5111 6.81219 16.5444 7.36159 15.7221C7.911 14.8999 8.69189 14.259 9.60553 13.8806C10.5192 13.5022 11.5245 13.4031 12.4944 13.5961C13.4643 13.789 14.3552 14.2652 15.0545 14.9645C15.7537 15.6637 16.2299 16.5546 16.4229 17.5245C16.6158 18.4945 16.5168 19.4998 16.1383 20.4134C15.7599 21.327 15.119 22.1079 14.2968 22.6573C13.4745 23.2068 12.5078 23.5 11.5189 23.5H11.5102ZM16.2827 12.085C16.6727 11.5938 17.1014 11.0738 17.5614 10.5413C18.2785 11.0881 18.9188 11.7288 19.4652 12.4462C18.9327 12.9062 18.4127 13.335 17.9214 13.725C17.4571 13.1022 16.9052 12.5498 16.2827 12.085Z" fill="white"/>
</svg>
