<svg width="32" height="32" viewBox="0 0 32 32" fill="none" xmlns="http://www.w3.org/2000/svg">
<path d="M28.7663 3.2325C28.4521 2.91823 28.0599 2.69337 27.6299 2.5811C27.1999 2.46883 26.7478 2.4732 26.3201 2.59375L26.2926 2.6025L2.30382 9.875C1.81657 10.0163 1.38383 10.3024 1.06308 10.6955C0.742329 11.0886 0.548751 11.5699 0.508057 12.0756C0.467364 12.5813 0.581481 13.0874 0.83525 13.5267C1.08902 13.9659 1.47043 14.3176 1.92882 14.535L12.4688 19.535L17.4688 30.075C17.6684 30.5031 17.9863 30.8653 18.385 31.1186C18.7836 31.372 19.2464 31.5061 19.7188 31.505C19.7901 31.505 19.8626 31.505 19.9351 31.4963C20.4404 31.456 20.9211 31.2617 21.3125 30.9396C21.7039 30.6175 21.9871 30.1831 22.1238 29.695L29.3963 5.70625C29.4 5.69734 29.4029 5.68814 29.4051 5.67875C29.5256 5.25103 29.53 4.7989 29.4177 4.36893C29.3055 3.93896 29.0806 3.54668 28.7663 3.2325ZM19.6238 27.615L15.4088 18.7163L21.0651 13.06C21.3469 12.7782 21.5052 12.396 21.5052 11.9975C21.5052 11.599 21.3469 11.2168 21.0651 10.935C20.7833 10.6532 20.4011 10.4949 20.0026 10.4949C19.6041 10.4949 19.2219 10.6532 18.9401 10.935L13.2838 16.5913L4.38382 12.375L26.2488 5.75L19.6238 27.615Z" fill="white"/>
</svg>
