<svg width="494" height="354" viewBox="0 0 494 354" fill="none" xmlns="http://www.w3.org/2000/svg">
<path d="M492.052 172.68C476.995 154.203 453.705 90.8009 449.251 66.0311C451.513 64.8321 453.671 63.6772 455.643 62.6138C458.39 61.1359 459.416 57.7094 457.934 54.9594C456.452 52.2241 453.033 51.2021 450.283 52.6726C424.166 66.7535 402.533 76.9079 397.669 77.3638C394.566 77.6579 392.283 80.4153 392.577 83.5182C392.8 85.9043 392.604 86.8202 392.805 88.1221C338.341 113.61 306.239 80.4117 273.122 82.0973C223.991 58.0052 178.656 90.0811 133.978 81.9962C116.402 78.8222 100.03 67.8489 83.1394 58.3275C84.7604 55.3669 83.3277 49.4511 78.3301 49.072C69.145 43.4479 37.7751 24.0696 33.603 21.5697C30.9229 19.9447 27.4597 20.827 25.853 23.4962C24.2878 26.1042 25.1035 29.4383 27.6173 31.0913C26.8117 53.856 14.2993 117.009 1.62143 136.143C-0.102837 138.739 0.606722 142.246 3.20966 143.967C5.79602 145.691 9.31162 144.981 11.0332 142.379C24.706 121.749 36.0451 64.5058 38.4744 37.7958C50.5665 45.2355 64.8051 54.0291 71.5015 58.1331C63.7368 100.313 55.1735 151.624 41.4312 191.784L29.5626 184.798C24.0449 181.567 18.1117 188.621 22.6407 193.465C23.1945 196.222 23.6564 199.122 24.3861 201.602C31.6403 206.946 41.3503 212.901 49.6609 216.382C51.4712 215.381 52.8273 211.759 53.2818 209.74C60.4918 214.385 67.6876 220.86 74.8976 225.505C63.583 237.465 80.1439 275.042 103.904 268.848C100.609 290.521 120.738 304.984 139.285 300.193C139.021 320.084 158.644 335.202 178.03 328.601C184.977 354.152 217.462 361.116 230.848 343.56C242.817 345.917 255.83 348.596 275.339 339.692C291.794 346.837 309.898 334.9 312.301 319.916C329.225 328.156 348.321 314.832 350.092 299.96C368.448 305.041 384.391 288.256 383.03 271.815C405.36 259.148 428.307 245.971 450.65 233.295C450.955 233.122 451.273 233.323 451.34 233.668C451.716 235.588 453.994 238.258 455.621 238.621C462.641 236.898 480.613 229.447 486.764 225.651C488.62 221.064 488.509 221.096 487.391 212.189C488.69 207.539 484.401 204.14 480.463 205.29C473.01 207.458 465.923 210.608 459.285 214.562C431.452 177.709 410.951 130.51 404.137 87.2829C412.565 84.5215 426.239 77.9364 438.815 71.4782C444.875 99.7806 467.691 160.659 483.294 179.812C485.275 182.236 488.839 182.592 491.239 180.621C493.658 178.658 494.022 175.099 492.052 172.68ZM116.743 244.739C116.704 244.812 116.711 244.894 116.676 244.968C114.378 247.309 112.16 249.46 110.038 251.246C103.394 253.436 95.001 250.454 91.6435 244.305C88.1279 237.851 90.4872 228.628 96.5263 224.48C96.6168 224.471 96.6996 224.509 96.7906 224.496C106.882 223.187 112.761 230.408 114.338 232.665C117.327 236.945 118.294 241.798 116.743 244.739ZM145.996 283.55C129.456 290.484 113.329 274.383 119.207 258.196C121.641 255.981 124.064 253.605 126.574 251.033C138.684 238.606 147.456 230.886 158.702 236.555C165.041 239.75 168.434 244.893 170.202 253.117C165.588 258.315 150.415 275.171 145.996 283.55ZM178.857 311.776C170.464 318.028 158.529 313.734 155.768 303.915C154.691 300.074 154.694 293.994 155.234 289.62C185.551 252.187 180.774 258.139 181.189 257.467C186.075 257.159 189.996 257.617 193.243 258.959C198.525 261.138 203.601 267.555 203.324 280.198C202.802 280.953 185.951 306.42 178.857 311.776ZM219.007 309.371C215.679 317.704 213.642 328.587 216.554 334.787C213.352 335.948 210.084 336.123 206.669 335.055C198.649 332.542 191.552 325.797 188.707 318.337C197.48 308.255 204.813 298.598 211.033 288.982C216.137 288.7 221.478 293.506 221.746 298.658C221.916 301.798 220.636 305.298 219.007 309.371ZM227.583 318.724C229.185 313.634 231.715 309.248 232.698 303.03C235.412 305.124 258.828 323.635 264.074 327.827C249.247 334.99 235.575 330.197 227.583 318.724ZM351.305 281.305C337.744 279.49 294.204 232.586 285.46 221.996C283.478 219.592 279.919 219.254 277.511 221.239C275.107 223.224 274.765 226.783 276.754 229.187C288.926 243.928 326.874 281.833 337.228 287.951C333.954 300.567 320.801 307.329 308.897 303.29C300.133 300.306 296.286 295.208 258.64 256.996C256.46 254.776 252.879 254.739 250.655 256.937C248.434 259.121 248.405 262.702 250.596 264.923C285.843 300.657 289.863 305.59 298.082 310.555C295.795 320.79 288.254 324.405 282.456 324.342C271.954 324.157 228.413 280.273 214.66 277.968C214.99 266.796 209.078 253.28 197.555 248.518C192.734 246.532 187.061 245.819 180.411 246.229C178.286 239.009 172.276 230.751 163.787 226.467C149.282 219.15 137.28 225.816 127.59 234.31C122.193 217.101 102.271 209.403 91.7979 214.193C79.8769 204.866 67.2519 196.5 54.2262 189.197C65.9733 152.585 73.8671 108.234 80.8099 70.0044C97.2672 79.4804 113.514 89.7833 131.974 93.1138C172.442 100.406 215.03 77.2565 252.786 86.6226C212.755 100.602 172.815 129.389 165.199 170.974C162.544 185.488 167.809 199.559 182.709 201.466C206.223 208.314 228.758 175.641 240.028 167.453C247.738 161.852 256.706 159.337 266.073 161.086C292.599 179.007 356.342 246.365 357.03 247.121C373.497 265.232 364.657 283.063 351.305 281.305ZM445.654 214.956C419.996 223.446 395.486 236.418 374.056 252.856C370.16 243.869 364.554 238.246 356.555 230.474C330.71 205.276 295.729 164.147 261.659 145.087C262.596 144.991 263.515 144.92 264.342 144.959C267.441 144.776 270.052 142.57 270.129 139.452C270.206 136.334 267.739 133.746 264.621 133.665C253.544 133.768 236.949 140.548 228.919 148.967C215.906 162.631 208.252 183.41 191.835 189.459C179.616 193.975 174.101 185.074 176.309 173.004C184.43 128.694 240.388 99.0513 269 93.8859C299.279 88.3789 334.286 125.966 394.978 99.543C403.007 139.08 421.295 180.732 445.654 214.956Z" fill="#E01D2F"/>
<path d="M419.334 104.893C418.492 107.092 418.591 109.526 419.591 111.533C422.205 116.852 430.025 117.582 433.338 112.57C435.613 109.126 434.517 104.521 431.176 102.151C428.292 97.4223 421.467 99.2935 419.334 104.893Z" fill="#E01D2F"/>
<path d="M44.4219 76.6799C49.0019 79.9856 55.8175 77.3725 56.9844 71.8122C57.5322 69.2166 56.6939 66.496 54.7454 64.5401C49.75 59.5353 41.4718 62.7709 41.1719 69.8196C41.0542 72.5769 42.2748 75.1504 44.4219 76.6799Z" fill="#E01D2F"/>
<path d="M210.031 1.2535C207.204 2.56232 205.98 5.92262 207.292 8.7535L228.564 54.4814C229.887 57.3184 233.253 58.5306 236.068 57.2167C238.895 55.9006 240.12 52.5476 238.807 49.7167L217.535 3.98879C216.219 1.15791 212.866 -0.0700319 210.031 1.2535Z" fill="#E01D2F"/>
<path d="M270.946 8.46668L259.06 49.3637C258.008 52.976 260.73 56.5843 264.486 56.5843C266.931 56.5843 269.189 54.9814 269.906 52.5108L281.792 11.6137C282.663 8.62109 280.939 5.48874 277.946 4.62109C274.961 3.75344 271.817 5.46668 270.946 8.46668Z" fill="#E01D2F"/>
<path d="M322.856 40.8564L296.514 57.2756C293.867 58.9226 293.058 62.4079 294.705 65.055C296.382 67.7436 299.895 68.4873 302.484 66.8638L328.826 50.4447C331.473 48.7903 332.282 45.3123 330.635 42.6653C328.981 40.0108 325.492 39.202 322.856 40.8564Z" fill="#E01D2F"/>
</svg>
