<svg id="Group_515" data-name="Group 515" xmlns="http://www.w3.org/2000/svg" width="11.785" height="15.714" viewBox="0 0 11.785 15.714">
  <g id="user_6_" data-name="user (6)">
    <path id="Path_627" data-name="Path 627" d="M9.928,7.857A3.928,3.928,0,1,0,6,3.928,3.928,3.928,0,0,0,9.928,7.857Zm0-6.547A2.619,2.619,0,1,1,7.309,3.928,2.619,2.619,0,0,1,9.928,1.309Z" transform="translate(-4.036)" fill="#031927"/>
    <path id="Path_628" data-name="Path 628" d="M8.893,14A5.9,5.9,0,0,0,3,19.893a.655.655,0,1,0,1.309,0,4.583,4.583,0,1,1,9.166,0,.655.655,0,0,0,1.309,0A5.9,5.9,0,0,0,8.893,14Z" transform="translate(-3 -4.834)" fill="#031927"/>
  </g>
</svg>
