<svg xmlns="http://www.w3.org/2000/svg" width="23.721" height="23.721" viewBox="0 0 23.721 23.721">
  <path id="Path_884" data-name="Path 884" d="M50.352,35.376l-5.37-2.407-.021-.009a2.274,2.274,0,0,0-2.167.2,1.493,1.493,0,0,0-.128.1l-2.544,2.167A10.373,10.373,0,0,1,36.3,31.634l2.174-2.584a1.339,1.339,0,0,0,.1-.131,2.281,2.281,0,0,0,.189-2.147.162.162,0,0,1-.009-.021l-2.406-5.379a2.288,2.288,0,0,0-2.37-1.351A6.873,6.873,0,0,0,28,26.846,16.9,16.9,0,0,0,44.878,43.724,6.873,6.873,0,0,0,51.7,37.746,2.288,2.288,0,0,0,50.352,35.376Zm-5.474,5.611A14.158,14.158,0,0,1,30.737,26.846a4.139,4.139,0,0,1,3.248-4.053l2.146,4.79-2.185,2.6a1.369,1.369,0,0,0-.1.132,2.281,2.281,0,0,0-.146,2.24,12.831,12.831,0,0,0,5.509,5.474,2.281,2.281,0,0,0,2.246-.165,1.327,1.327,0,0,0,.127-.1l2.558-2.175,4.79,2.145a4.139,4.139,0,0,1-4.053,3.248Z" transform="translate(-28 -20.004)" fill="#66a2d1"/>
</svg>
