<svg width="25" height="25" viewBox="0 0 25 25" fill="none" xmlns="http://www.w3.org/2000/svg">
<path d="M0.0149879 18.8852C0.237871 20.579 1.0697 22.1338 2.35511 23.2591C3.64052 24.3844 5.2916 25.0033 6.99999 25.0002C16.925 25.0002 25 16.9252 25 7.00024L0.0149879 18.8852ZM0.0149879 18.8852L1.00644 18.7548C1.00669 18.7567 1.00694 18.7586 1.00719 18.7605C1.00736 18.7619 1.00753 18.7634 1.00771 18.7648L0.0149879 18.8852ZM15.1641 8.4544L15.1715 8.46311C15.1735 8.46566 15.1758 8.46854 15.1784 8.47179L14.3975 9.09649L15.1371 8.47255M15.1641 8.4544C15.1642 8.45453 15.1643 8.45466 15.1644 8.45479L15.1371 8.47255M15.1641 8.4544C15.1627 8.45225 15.1613 8.4501 15.16 8.44794C15.1589 8.4465 15.1584 8.44576 15.1583 8.44554L14.3262 9.00024L15.1371 8.47255M15.1641 8.4544L15.1618 8.45168L15.1371 8.47255M8.46026 15.172L8.46004 15.1718L8.45893 15.1708L8.45571 15.1681L8.47817 15.1417L9.1037 14.4065L8.46026 15.172ZM7.5178 15.0764C7.51739 15.0765 7.51699 15.0767 7.51659 15.0769C7.51338 15.0782 7.51018 15.0796 7.50699 15.0809L7.36236 14.7428L7.11374 14.1615L7.53286 15.0694L7.5178 15.0764ZM15.1675 7.11399V7.31272L15.0801 7.50778L14.201 7.11399L14.1675 7.09899H15.1675V7.11399ZM18.7638 1.00786C18.7624 1.0077 18.7611 1.00754 18.7598 1.00738C18.758 1.00715 18.7563 1.00692 18.7545 1.00669L18.885 0.0152353L18.7638 1.00786Z" stroke="black" stroke-width="2"/>
</svg>
