<svg xmlns="http://www.w3.org/2000/svg" width="15.254" height="15.256" viewBox="0 0 15.254 15.256">
  <path id="phone-flip_1_" data-name="phone-flip (1)" d="M14.087,1.157,13.42.579a1.968,1.968,0,0,0-2.783,0C10.617.6,9.442,2.13,9.442,2.13a1.974,1.974,0,0,0,0,2.72l.737.928a8.131,8.131,0,0,1-4.4,4.417l-.928-.744a1.961,1.961,0,0,0-2.72,0S.6,10.626.577,10.645A1.959,1.959,0,0,0,.545,13.4l.635.731a3.894,3.894,0,0,0,2.783,1.131c4.855,0,11.286-6.437,11.286-11.286a3.905,3.905,0,0,0-1.163-2.809ZM3.964,13.981a2.586,2.586,0,0,1-1.849-.731l-.635-.731a.7.7,0,0,1-.025-.96s1.519-1.169,1.538-1.188a.718.718,0,0,1,.985,0c.019.019,1.3,1.042,1.3,1.042a.631.631,0,0,0,.623.1,9.523,9.523,0,0,0,5.6-5.6.641.641,0,0,0-.1-.635s-1.023-1.284-1.036-1.3a.694.694,0,0,1,0-.985c.019-.019,1.188-1.538,1.188-1.538a.71.71,0,0,1,.991.051l.667.578a2.636,2.636,0,0,1,.763,1.881c0,4.423-6.209,10.015-10.015,10.015Z" transform="translate(0.004 -0.003)" fill="#031927"/>
</svg>
