<svg width="23" height="29" viewBox="0 0 23 29" fill="none" xmlns="http://www.w3.org/2000/svg">
<path d="M11.5 0.5C8.58363 0.503308 5.78766 1.6633 3.72548 3.72548C1.6633 5.78766 0.503308 8.58363 0.5 11.5C0.5 20.9125 10.5 28.0213 10.9263 28.3188C11.0944 28.4365 11.2947 28.4997 11.5 28.4997C11.7053 28.4997 11.9056 28.4365 12.0737 28.3188C12.5 28.0213 22.5 20.9125 22.5 11.5C22.4967 8.58363 21.3367 5.78766 19.2745 3.72548C17.2123 1.6633 14.4164 0.503308 11.5 0.5ZM11.5 7.5C12.2911 7.5 13.0645 7.7346 13.7223 8.17412C14.3801 8.61365 14.8928 9.23836 15.1955 9.96927C15.4983 10.7002 15.5775 11.5044 15.4231 12.2804C15.2688 13.0563 14.8878 13.769 14.3284 14.3284C13.769 14.8878 13.0563 15.2688 12.2804 15.4231C11.5044 15.5775 10.7002 15.4983 9.96927 15.1955C9.23836 14.8928 8.61365 14.3801 8.17412 13.7223C7.7346 13.0645 7.5 12.2911 7.5 11.5C7.5 10.4391 7.92143 9.42172 8.67157 8.67157C9.42172 7.92143 10.4391 7.5 11.5 7.5Z" fill="#E01D2F"/>
</svg>
