<svg width="23" height="29" viewBox="0 0 23 29" fill="none" xmlns="http://www.w3.org/2000/svg">
<path d="M11.5 6C10.4122 6 9.34883 6.32257 8.44436 6.92692C7.53989 7.53126 6.83494 8.39025 6.41866 9.39524C6.00238 10.4002 5.89346 11.5061 6.10568 12.573C6.3179 13.6399 6.84172 14.6199 7.61091 15.3891C8.3801 16.1583 9.36011 16.6821 10.427 16.8943C11.4939 17.1065 12.5998 16.9976 13.6048 16.5813C14.6098 16.1651 15.4687 15.4601 16.0731 14.5556C16.6774 13.6512 17 12.5878 17 11.5C16.9983 10.0418 16.4184 8.64383 15.3873 7.61274C14.3562 6.58165 12.9582 6.00165 11.5 6ZM11.5 14C11.0055 14 10.5222 13.8534 10.1111 13.5787C9.69995 13.304 9.37952 12.9135 9.1903 12.4567C9.00108 11.9999 8.95157 11.4972 9.04804 11.0123C9.1445 10.5273 9.3826 10.0819 9.73223 9.73223C10.0819 9.3826 10.5273 9.1445 11.0123 9.04804C11.4972 8.95157 11.9999 9.00108 12.4567 9.1903C12.9135 9.37952 13.304 9.69995 13.5787 10.1111C13.8534 10.5222 14 11.0055 14 11.5C14 12.163 13.7366 12.7989 13.2678 13.2678C12.7989 13.7366 12.163 14 11.5 14ZM11.5 0C8.45103 0.00330871 5.52788 1.21597 3.37193 3.37193C1.21597 5.52788 0.00330871 8.45103 0 11.5C0 21.17 10.205 28.425 10.64 28.7288C10.8921 28.9052 11.1923 28.9998 11.5 28.9998C11.8077 28.9998 12.1079 28.9052 12.36 28.7288C14.2928 27.3043 16.0612 25.6692 17.6325 23.8538C21.1437 19.8213 23 15.5462 23 11.5C22.9967 8.45103 21.784 5.52788 19.6281 3.37193C17.4721 1.21597 14.549 0.00330871 11.5 0ZM15.4125 21.8388C14.2207 23.2078 12.9115 24.4701 11.5 25.6112C10.0885 24.4701 8.77933 23.2078 7.5875 21.8388C5.5 19.4213 3 15.6638 3 11.5C3 9.24566 3.89553 7.08365 5.48959 5.48959C7.08365 3.89553 9.24566 3 11.5 3C13.7543 3 15.9163 3.89553 17.5104 5.48959C19.1045 7.08365 20 9.24566 20 11.5C20 15.6638 17.5 19.4213 15.4125 21.8388Z" fill="white"/>
</svg>
