<svg width="101" height="69" viewBox="0 0 101 69" fill="none" xmlns="http://www.w3.org/2000/svg">
<path d="M100.238 20.0537C99.91 19.611 99.4516 19.288 98.9256 19.1266C98.3995 18.9703 97.837 18.986 97.3162 19.1735C95.0089 19.9183 91.8891 24.9495 89.9725 27.5068C88.9464 28.887 87.7329 30.1162 86.3631 31.1578C88.8527 25.5589 89.8318 25.2047 93.8631 11.6526C94.186 10.7412 94.3527 9.77763 94.3475 8.81409C94.1756 5.54326 90.7485 4.32451 88.3318 6.93388C88.7641 5.70992 88.9412 4.41305 88.8579 3.12138C88.7954 2.45471 88.5402 1.8193 88.1287 1.29325C87.7172 0.767214 87.1652 0.366173 86.5297 0.142214C85.8995 -0.00361941 85.2381 0.0224219 84.6235 0.225547C84.0037 0.423463 83.4516 0.793255 83.0297 1.28284C82.3527 2.08492 81.8318 3.00159 81.4881 3.99117C74.3943 21.1214 74.587 20.8505 73.8631 22.236C77.7954 5.97555 78.1808 4.92346 77.7745 3.21513C77.1547 0.558881 73.9568 -0.550494 71.7381 3.11617C67.3475 10.361 68.9933 17.9026 62.3214 29.3297C61.9881 26.0589 63.3475 22.4808 62.4881 18.9183C62.0506 17.1005 60.9672 15.9078 59.5975 15.7151C58.9568 15.7099 58.3266 15.8401 57.7433 16.0953C57.16 16.3505 56.6391 16.7255 56.2068 17.1943C53.7172 20.0797 53.4464 24.8401 53.66 28.6318C54.087 36.1162 54.1964 35.486 56.0714 44.9547C56.9933 49.5849 57.7381 54.5328 56.9777 59.3193C56.936 59.5901 57.0037 59.8714 57.1652 60.0901C57.3266 60.3141 57.5714 60.4651 57.8422 60.5068C58.1183 60.5485 58.3943 60.486 58.6183 60.3193C58.8422 60.1578 58.9881 59.913 59.035 59.6422C60.6443 49.5068 56.1339 39.8453 55.8162 30.1005C55.7589 28.2412 54.9568 21.8193 57.7797 18.5537C58.1964 18.1422 58.7329 17.8714 59.311 17.7776C59.8527 17.8453 60.285 18.6474 60.4672 19.3974C61.3735 23.1578 59.212 27.6058 60.7693 31.7933C60.4881 32.2203 60.2016 32.6474 59.8995 33.0641C59.8162 33.1787 59.7537 33.3037 59.7172 33.4391C59.686 33.5745 59.6756 33.7151 59.6964 33.8505C59.7172 33.9912 59.7641 34.1214 59.837 34.2412C59.91 34.361 60.0089 34.4651 60.1183 34.5433C60.2329 34.6266 60.3631 34.6839 60.4985 34.7151C60.6339 34.7464 60.7745 34.7464 60.91 34.7255C61.0454 34.6995 61.1808 34.6474 61.2954 34.5693C61.41 34.4964 61.5141 34.3974 61.5922 34.2828C71.0506 21.1214 69.035 11.5953 73.5193 4.1943C74.6079 2.39221 75.4985 2.61617 75.7485 3.68909C75.9985 4.75159 75.6131 6.40263 70.6964 26.4755C70.6495 26.6891 70.6652 26.913 70.7485 27.1162C70.8318 27.3193 70.9777 27.4912 71.1652 27.6058C71.3527 27.7203 71.5714 27.7724 71.7902 27.7568C72.0089 27.7412 72.2172 27.6526 72.3839 27.512C75.9829 24.4495 76.3787 21.4495 83.4152 4.78805C83.6704 4.03284 84.0558 3.32971 84.5558 2.70992C84.7172 2.50159 84.9308 2.34013 85.1756 2.24117C85.4204 2.14221 85.686 2.11096 85.9516 2.14221C86.1912 2.2568 86.3943 2.43909 86.5454 2.65784C86.6912 2.8818 86.7797 3.137 86.7954 3.40263C86.8475 4.20992 86.7381 5.02242 86.4829 5.78805C84.3839 13.7672 81.1704 21.3766 77.7902 29.1162C77.6808 29.361 77.6704 29.6422 77.7641 29.8922C77.8579 30.1474 78.0454 30.3505 78.2902 30.4703C78.5297 30.5849 78.8058 30.6058 79.0662 30.5224C79.3214 30.4391 79.535 30.262 79.66 30.0224C83.7068 22.4391 88.4672 6.16826 91.6547 7.69951C91.8527 7.83492 92.0089 8.02242 92.1131 8.23596C92.2225 8.44951 92.2745 8.68909 92.2693 8.92346C92.2537 9.65784 92.1183 10.3766 91.8683 11.0641C86.6027 28.7828 84.7537 28.0693 83.3266 33.4026C83.2745 33.6005 83.2797 33.8037 83.3422 33.9964C83.4047 34.1891 83.5245 34.3558 83.6808 34.4808C83.837 34.611 84.0297 34.6891 84.2277 34.7047C84.4308 34.7255 84.6339 34.6891 84.811 34.5953C87.4985 33.1891 89.837 31.1943 91.6443 28.7568C92.7485 27.2776 96.5037 21.6318 97.962 21.1578C98.0506 21.1162 98.1443 21.1058 98.2433 21.1162C98.337 21.1266 98.4256 21.1578 98.5037 21.2151C98.5454 21.2724 98.6443 21.5433 98.2016 22.4703C92.4881 34.4599 87.0766 37.5433 83.6495 43.986C80.6287 49.6578 74.4308 57.6058 75.6183 67.0745C75.6495 67.3401 75.7797 67.5797 75.9829 67.7516C76.186 67.9235 76.4464 68.0068 76.712 67.9912C76.9777 67.9703 77.2225 67.8505 77.4047 67.6578C77.5818 67.4599 77.6808 67.2047 77.6756 66.9391C78.311 66.0537 79.1235 65.3141 80.061 64.762C78.4204 47.5693 94.9047 39.8141 99.3891 24.7151C100.113 23.2828 101.233 21.5485 100.238 20.0537Z" fill="black"/>
<path d="M0.416933 19.7464C0.750267 19.3089 1.21902 18.9912 1.74506 18.8453C2.27631 18.6943 2.83881 18.7203 3.34922 18.913C5.64089 19.7047 8.67735 24.7828 10.5471 27.3766C11.5524 28.7776 12.7451 30.0276 14.094 31.0901C11.7034 25.4495 10.7294 25.0797 6.93777 11.4599C6.63048 10.5432 6.47943 9.5745 6.50548 8.61095C6.72943 5.34533 10.1774 4.18387 12.5524 6.83491C12.1409 5.60575 11.9846 4.30366 12.0888 3.01199C12.1669 2.35054 12.4274 1.72033 12.8492 1.1995C13.2711 0.68387 13.8284 0.293245 14.4638 0.079704C15.0992 -0.0557134 15.7555 -0.0192553 16.3701 0.194286C16.9846 0.402619 17.5315 0.782829 17.943 1.27762C18.6044 2.09012 19.1149 3.0172 19.443 4.01199C26.2346 21.2672 26.0471 20.9912 26.7451 22.387C23.0992 6.06408 22.7294 5.00158 23.1669 3.29845C23.8388 0.657829 27.0524 -0.394255 29.2086 3.30887C33.469 10.6266 31.693 18.1422 38.1617 29.6839C38.5576 26.4235 37.2607 22.8141 38.1774 19.2672C38.6461 17.4599 39.7555 16.2828 41.1305 16.1162C41.7659 16.1266 42.3961 16.2672 42.9742 16.5328C43.5576 16.7985 44.0732 17.1787 44.4951 17.6578C46.9326 20.5901 47.1201 25.3557 46.8388 29.137C46.2815 36.6162 46.1826 35.9807 44.1409 45.4182C43.1409 50.0328 42.3128 54.9651 42.9846 59.762C43.0211 60.038 42.9534 60.3141 42.7867 60.5328C42.6201 60.7516 42.3701 60.8974 42.0992 60.9391C41.8284 60.9755 41.5471 60.9026 41.3284 60.736C41.1096 60.5693 40.9638 60.3245 40.9274 60.0485C39.4951 49.887 44.1669 40.3089 44.6565 30.5745C44.7503 28.7099 45.6617 22.3037 42.9013 18.986C42.4899 18.5693 41.9586 18.288 41.3805 18.1839C40.8388 18.2412 40.3961 19.038 40.1982 19.7828C39.2242 23.5276 41.3076 28.012 39.6774 32.1735C39.9534 32.6057 40.2346 33.038 40.5263 33.4599C40.6096 33.5745 40.6669 33.6995 40.6982 33.8349C40.7346 33.9703 40.7399 34.111 40.7138 34.2516C40.693 34.387 40.6409 34.5172 40.568 34.637C40.4951 34.7516 40.3961 34.8557 40.2815 34.9339C40.1669 35.012 40.0367 35.0693 39.9013 35.0953C39.7659 35.1266 39.6253 35.1266 39.4846 35.1005C39.3492 35.0745 39.219 35.0172 39.1044 34.9391C38.9899 34.861 38.8909 34.762 38.8128 34.6474C29.5836 21.3141 31.7659 11.8297 27.4169 4.35054C26.3544 2.52762 25.4586 2.73595 25.1878 3.80887C24.9221 4.86095 25.2763 6.52241 29.844 26.6787C29.8909 26.8922 29.8701 27.1162 29.7815 27.3141C29.693 27.5172 29.5471 27.6891 29.3596 27.7985C29.1669 27.9078 28.9482 27.9599 28.7294 27.9391C28.5107 27.9182 28.3076 27.8297 28.1409 27.6839C24.594 24.5589 24.2555 21.5485 17.5107 4.7672C17.2659 4.01199 16.8909 3.30366 16.4065 2.66825C16.2451 2.45991 16.0315 2.29845 15.7919 2.19429C15.5471 2.09012 15.2815 2.05366 15.0211 2.0797C14.7763 2.19429 14.568 2.36616 14.4169 2.59012C14.2659 2.80887 14.1721 3.06408 14.1513 3.3297C14.0888 4.13699 14.1826 4.9495 14.4221 5.72033C16.3805 13.7307 19.4586 21.3974 22.7086 29.1943C22.8128 29.4391 22.8128 29.7203 22.719 29.9703C22.6201 30.2203 22.4274 30.4235 22.1878 30.538C21.943 30.6474 21.6617 30.663 21.4065 30.5745C21.1565 30.486 20.943 30.3037 20.8232 30.0641C16.9065 22.413 12.4326 6.05887 9.21381 7.53283C9.0211 7.67345 8.85964 7.85575 8.75027 8.06408C8.64089 8.27762 8.5836 8.51199 8.5836 8.75158C8.5836 9.48595 8.70339 10.2099 8.94298 10.9026C13.9013 28.7099 15.7607 28.0276 17.094 33.387C17.1409 33.5797 17.1305 33.788 17.068 33.9755C17.0003 34.1682 16.8805 34.3349 16.719 34.4599C16.5628 34.5797 16.3701 34.6578 16.1669 34.6735C15.969 34.6891 15.7659 34.6474 15.5888 34.5537C12.9221 33.1005 10.6201 31.0641 8.85964 28.5953C7.78152 27.0953 4.12527 21.3818 2.67214 20.887C2.5836 20.8453 2.48985 20.8297 2.3961 20.8401C2.30235 20.8453 2.2086 20.8766 2.13048 20.9339C2.08881 20.9912 1.98464 21.262 2.41172 22.1943C7.91693 34.2828 13.2711 37.4651 16.5836 43.9651C19.5055 49.6891 25.5628 57.7412 24.2138 67.1891C24.1826 67.4547 24.0471 67.6943 23.8388 67.861C23.6357 68.0276 23.3701 68.1057 23.1044 68.0849C22.844 68.0589 22.594 67.9391 22.4221 67.7412C22.2451 67.538 22.1513 67.2828 22.1617 67.0172C21.5419 66.1214 20.7451 65.3662 19.8128 64.7985C21.7503 47.637 5.40131 39.6005 1.18256 24.4235C0.484642 22.9755 -0.603899 21.2255 0.416933 19.7464Z" fill="black"/>
</svg>
