<?xml version="1.0" encoding="UTF-8"?>
<svg xmlns="http://www.w3.org/2000/svg" xmlns:xlink="http://www.w3.org/1999/xlink" version="1.1" width="512" height="512" x="0" y="0" viewBox="0 0 73 73" style="enable-background:new 0 0 512 512" xml:space="preserve">
  <g>
    <path d="M30.673 48.319c2.682-.78 4.976-2.997 6.293-6.08 1.04-2.435 1.213-6.038 1.373-8.71 1.992-1.788 2.752-4.954 1.842-7.736-1.528-4.662-6.358-7.648-11.66-5.826-1.865.64-2.353 1.247-3.293 2.018-6.715-1.655-12.283 8.507-8.194 12.823.313 2.881 1.232 6.582 2.996 9.102 2.468 3.555 6.816 5.515 10.643 4.409zM23.429 23.32c.105 0 .225-.001.245-.01a4.153 4.153 0 0 1 1.465.207c.444.146.602.008 1.643-.88 1.601-1.367 3.928-1.905 5.956-1.644 4.668.6 8.368 6.795 5.13 10.86-.04-.013-.08-.028-.123-.034-.979-1.04-1.75-2.195-2.274-3.447a.75.75 0 0 0-1.19-.27 43.246 43.246 0 0 0-4.401 4.513c-1.701-2.492-.982-3.604-1.892-3.88a.754.754 0 0 0-.757.197 70.474 70.474 0 0 0-4.443 5.062c-1.194-.968-2.158-2.154-2.808-3.464-.282-.566-1.06-.517-1.33-.027-.4.728-.8 1.448-1.2 2.168-1.182-3.1 1.573-9.016 5.979-9.35zm-4.977 10.64.87-1.57a12.397 12.397 0 0 0 3.166 3.26.744.744 0 0 0 .434.138c.734 0 .456-.52 4.463-4.838a10.461 10.461 0 0 0 1.897 3.358c.356.423.909.303 1.161-.014a40.845 40.845 0 0 1 4.09-4.393 13.339 13.339 0 0 0 2.332 3.18c-.159 2.543-.3 6.279-1.278 8.568-1.124 2.63-3.117 4.585-5.332 5.23-3.463 1.004-7.147-1.166-8.995-3.826-1.743-2.491-2.6-6.45-2.805-9.082 0-.004-.003-.007-.003-.01zM4.373 63.618a.75.75 0 0 0 .008.746c.102.175.278.275.47.323a16.478 16.478 0 0 0 2.287 2.85h41.226c.434-.868 1.103-1.946 1.589-2.86a.72.72 0 0 0 .469-.954 33.058 33.058 0 0 0-3.926-7.456c-1.894-2.7-4.903-4.854-8.944-6.403-.21-.081-.57-.036-.767.14-1.978 1.762-5.337 3.211-7.996 3.211-2.687-.024-6.039-1.302-7.97-3.038a.855.855 0 0 0-.498-.186c-.737-.003-4.214 1.709-5.415 2.495-4.55 2.95-7.995 6.592-10.533 11.132zM20.188 51.59c2.258 1.835 5.832 3.126 8.66 3.126 2.703 0 6.202-1.363 8.557-3.288 3.556 1.425 6.206 3.339 7.863 5.701a31.58 31.58 0 0 1 3.351 6.107H6.337c2.345-3.81 5.426-6.922 9.388-9.493 1.128-.739 2.672-1.477 4.463-2.153zM50.994 14.07a.754.754 0 0 0 .928-.512c.12-.42 1.05-1.365 1.674-1.365.783.001 1.526.388 1.893.986.362.59.312 1.42-.113 1.889-.378.417-1.091.68-1.68 1.222a3.35 3.35 0 0 0-.976 3.201.75.75 0 0 0 1.46-.35 1.855 1.855 0 0 1 .53-1.747c.187-.171.427-.32.682-.478.356-.222.76-.472 1.095-.84.877-.966.995-2.514.28-3.68-1.082-1.767-3.27-1.73-3.17-1.703-1.376 0-2.839 1.485-3.117 2.449a.75.75 0 0 0 .514.928zM52.915 21.816c-.065.409.243.796.651.862l.118-.741.061-.75c-.414-.063-.766.218-.83.629z" fill="#e31e26" opacity="1" data-original="#000000"></path>
    <path d="M55.515 5.508c-.513-.011-1.452-.138-1.933.091-6.981.228-12.608 4.819-12.7 10.54-.05 3.04 1.493 5.945 4.222 8.039l.394 5.525a.72.72 0 0 0 .666.678l-.06.048 1.674.299c1.499-.831 2.901-1.948 4.18-3.146 6.472 1.14 12.734-1.907 15.105-5.193 4.373-6.06-.042-16.643-11.548-16.881zM42.382 16.163c.132-8.212 13.03-12.218 20.378-6.172 7.27 5.98 1.735 15.805-8.694 15.65-2.364-.036-2.647-.466-3.128-.136-.144.098-4.139 2.852-4.037 2.782-.374-4.481-.186-4.772-.633-5.096-2.513-1.816-3.93-4.377-3.886-7.028z" fill="#e31e26" opacity="1" data-original="#000000"></path>
  </g>
</svg>
