<svg width="300" height="255" viewBox="0 0 300 255" fill="none" xmlns="http://www.w3.org/2000/svg">
<path d="M205.828 254.043H265.024C284.532 254.043 300.004 239.363 300.004 221.49V143.618C300.004 125.745 284.532 111.064 265.024 111.064H231.39V98.9366C231.39 79.7876 246.862 61.9152 268.388 55.5322C284.532 51.0641 293.277 35.1066 288.568 20.4257C284.532 8.29796 273.097 8.49785e-05 259.643 8.49785e-05C256.952 8.49785e-05 254.261 0.638365 250.898 1.27667C203.138 14.681 170.849 54.2556 170.849 98.9366V221.49C171.522 240.001 186.993 254.043 205.828 254.043Z" fill="currentColor"/>
<path d="M34.9807 254.043H94.1768C113.685 254.043 129.156 239.363 129.156 221.49V143.618C129.156 125.745 113.685 111.064 94.1768 111.064H60.5426V98.9366C60.5426 79.7876 76.0143 61.9152 97.5402 55.5322C113.685 51.0641 122.429 35.1066 117.721 20.4257C113.685 8.29796 102.249 8.49785e-05 88.7953 8.49785e-05C86.1046 8.49785e-05 83.4139 0.638365 80.0504 1.27667C32.29 14.681 0.00120766 54.2556 0.00120766 98.9366V221.49C0.67389 240.001 16.1456 254.043 34.9807 254.043Z" fill="currentColor"/>
</svg>
