<svg xmlns="http://www.w3.org/2000/svg" width="205.396" height="159.583" viewBox="0 0 205.396 159.583">
  <g id="quotation-marks" transform="translate(0 -39.159)">
    <path id="Path_745" data-name="Path 745" d="M42.308,102.435C44.814,86.683,64.5,69.857,79.9,69.5a4.065,4.065,0,0,0,2.864-1.074,2.941,2.941,0,0,0,1.79-1.79c5.37-10.024,2.506-17.9-6.444-24.344-10.382-7.518-26.85,0-35.084,6.8C22.26,66.277,1.138,95.99,2.212,124.272c-3.58,18.974-2.864,39.379,2.506,56.205,3.58,10.74,13.962,16.11,24.7,16.826s32.936,3.938,42.6-2.505S82.4,175.824,83.477,165.084c1.074-11.814,4.3-34.01-5.728-43.318C67.725,112.817,39.086,122.482,42.308,102.435Z" fill="#f2f2f2"/>
    <path id="Path_746" data-name="Path 746" d="M244.268,102.435c2.506-15.752,22.2-32.578,37.589-32.936a4.065,4.065,0,0,0,2.864-1.074,2.942,2.942,0,0,0,1.791-1.79c5.37-10.024,2.506-17.9-6.444-24.344-10.382-7.518-26.85,0-35.084,6.8-20.764,17.184-41.885,46.9-40.811,75.179-3.58,18.974-2.864,39.379,2.505,56.205,3.58,10.74,13.962,16.11,24.7,16.826s32.936,3.938,42.6-2.505,10.382-18.974,11.456-29.714c1.074-11.814,4.3-34.01-5.728-43.318C269.685,112.817,240.688,122.482,244.268,102.435Z" transform="translate(-83.822)" fill="#f2f2f2"/>
  </g>
</svg>
