<?xml version="1.0" encoding="utf-8"?>
<!-- Generator: Adobe Illustrator 22.1.0, SVG Export Plug-In . SVG Version: 6.00 Build 0)  -->
<svg version="1.1" id="Layer_1" xmlns="http://www.w3.org/2000/svg" xmlns:xlink="http://www.w3.org/1999/xlink" x="0px" y="0px"
	 viewBox="0 0 358.9 358.9" style="enable-background:new 0 0 358.9 358.9;" xml:space="preserve">
<style type="text/css">
	.st0{fill:#0066B3;}
	.st1{fill:#009FDF;}
	.st2{fill:#8DC640;}
	.st3{fill:#009B95;}
</style>
<path class="st0" d="M154.2,257.7c0,0,20.2,10.6,34.4-5.7c3.9,12-6,27.3-9.6,29.1c-3.5,1.8-15.6,2.1-20.6-4.6
	C153.5,269.7,154.2,257.7,154.2,257.7"/>
<path class="st1" d="M197.7,130.8c-12,23-23,42.2-23,42.2s17,9.6,19.1,17c2.1,7.4,33-46.1,32.2-86.1c1.1-23.9-15.1-38.4-19.5-42.1
	C210.5,68.2,209.2,109,197.7,130.8 M206.6,61.8c-0.2-0.4-0.5-0.6-0.7-0.8c-0.2-0.1-0.4-0.2-0.4-0.2
	C205.4,60.8,205.8,61.1,206.6,61.8"/>
<path class="st1" d="M140.3,254.1c2.8,17.7,19.1,25.9,23,26.9c3.9,1.1-10.6-22,1.1-41.8c11.7-19.8,18.8-27.3,18.8-27.3l-21.6-16.7
	C161.6,195.3,137.5,236.4,140.3,254.1"/>
<path class="st2" d="M96.8,160.6c0,0-4.3,0-14.2,13.1c0,0,30.1-6.7,58.1,12.4s70.9,46.4,48.2,89.3c8.1-4.3,34.4-22.3,4.6-71.6
	c-28.9-38.4-60.4-46.2-79.4-46.2C104.7,157.6,98.3,159.5,96.8,160.6"/>
<path class="st3" d="M178.5,347.9C84.5,347.9,8,271.4,8,177.4S84.5,6.9,178.5,6.9S349,83.4,349,177.4S272.5,347.9,178.5,347.9z
	 M178.5,10.9C86.7,10.9,12,85.6,12,177.4c0,91.8,74.7,166.5,166.5,166.5c91.8,0,166.5-74.7,166.5-166.5
	C345,85.6,270.3,10.9,178.5,10.9z"/>
<path class="st3" d="M298,170.2l10.2-0.8l14.8,7.8l-0.5-5.6l-10.1-4.8l9.1-6.5l-0.5-5.7l-13.3,10l-10.2,0.8L298,170.2z M294.8,148.8
	l19.6-5.2l1.8,7l4-1.1l-4.9-18.7l-4,1.1l1.8,7l-19.6,5.2L294.8,148.8z M290.3,134.4l22.5-9.3l-1.9-4.5l-22.5,9.3L290.3,134.4z
	 M296.8,102.5l1.9,3.3c1,1.7,1.6,2.8,1.7,3.1c0.3,0.8,0.3,1.4,0.1,2.1c-0.2,0.6-0.7,1.2-1.4,1.6c-0.6,0.4-1.2,0.5-1.8,0.5
	c-0.6,0-1.1-0.3-1.6-0.7c-0.5-0.4-1.3-1.6-2.5-3.7l-1.8-3.1L296.8,102.5z M279.3,112.6l8.8-5.1l0.5,0.9c0.6,1,0.9,1.7,1,2.3
	c0.1,0.5,0.1,1.1-0.1,1.8c-0.2,0.6-0.8,2-1.8,4l-2.8,5.7l3,5.1l2.6-5c1-2,1.7-3.4,2-4.4c0.3-1,0.4-2.1,0.4-3.3
	c1.3,1.7,2.8,2.7,4.4,3c1.6,0.3,3.1,0,4.7-0.9c1.2-0.7,2.2-1.7,2.8-2.9s0.8-2.4,0.6-3.6c-0.2-1.2-1-3-2.3-5.2l-5.2-8.9l-21,12.3
	L279.3,112.6z M272.1,88l8.9-3.6l-4.5,8.5L272.1,88z M287,82.6l-3.5-3.9L259.1,88l3.5,3.9l5.5-2.2l6.5,7.2l-2.7,5.3l3.6,4L287,82.6z
	 M245.1,77.8l6.3-8.6l7.7,5.7l-6.3,8.6l4,2.9l14.5-19.6l-4-2.9l-5.7,7.7l-7.7-5.7l5.7-7.7l-4-2.9l-14.5,19.6L245.1,77.8z
	 M233.4,65.3c-1.2,0.4-2.4,0.3-3.6-0.3c-1.6-0.7-2.6-1.9-3.1-3.6c-0.5-1.6,0-3.9,1.2-6.7c1.2-2.6,2.6-4.3,4.2-5
	c1.6-0.7,3.2-0.7,4.8,0.1c1.2,0.5,2,1.3,2.6,2.4c0.5,1,0.7,2.2,0.4,3.5l4.9,1c0.3-2,0.2-3.7-0.4-5.1c-1-2.4-2.8-4.2-5.5-5.4
	c-3.1-1.4-6.1-1.6-8.9-0.4c-2.8,1.2-5.1,3.6-6.8,7.3c-1.6,3.5-1.9,6.7-0.9,9.5s2.9,5,5.9,6.3c2.4,1.1,4.6,1.4,6.7,0.9s4-1.7,5.8-3.9
	l-3.7-3.4C235.8,64.1,234.6,65,233.4,65.3 M195.6,38.5c2,0.3,3.3,0.6,4,0.8c0.9,0.3,1.6,0.8,2.1,1.5c0.5,0.6,0.9,1.5,1,2.5
	c0.2,1,0.1,2.5-0.1,4.4c-0.3,1.9-0.7,3.3-1.1,4.3c-0.5,1-1,1.7-1.6,2.1c-0.6,0.4-1.3,0.6-2.1,0.7c-0.6,0.1-1.6,0-3-0.2l-3.6-0.5
	l2.3-16L195.6,38.5z M185.6,57.4l9.2,1.3c1.8,0.3,3.3,0.3,4.4,0.1c1.5-0.2,2.7-0.7,3.7-1.4c1.3-0.9,2.3-2.2,3.2-3.9
	c0.7-1.4,1.2-3,1.5-5c0.3-2.3,0.3-4.2,0-5.8c-0.3-1.6-0.9-3-1.7-4.2c-0.9-1.2-2-2.1-3.3-2.7c-1-0.5-2.5-0.8-4.5-1.1l-8.9-1.3
	L185.6,57.4z M181.4,57.3l-0.2-4.1L167.6,54l-0.4-6.6l12.2-0.7l-0.2-4.1L167,43.3l-0.3-5.4l13.1-0.7l-0.2-4.1l-18,1l1.4,24.3
	L181.4,57.3z M138.6,43.2l3.7-1c1.9-0.5,3.1-0.8,3.5-0.8c0.8-0.1,1.5,0.1,2,0.5c0.6,0.4,0.9,1,1.1,1.8c0.2,0.7,0.2,1.3,0,1.9
	c-0.2,0.6-0.6,1-1.1,1.3c-0.5,0.3-1.9,0.8-4.2,1.4l-3.5,0.9L138.6,43.2z M143.8,62.7l-2.6-9.8l1-0.3c1.1-0.3,1.9-0.4,2.5-0.4
	c0.6,0,1.1,0.2,1.7,0.6c0.6,0.4,1.7,1.3,3.4,2.8l4.8,4.2l5.7-1.5l-4.1-3.8c-1.6-1.5-2.9-2.6-3.7-3.1c-0.9-0.5-1.9-1-3.1-1.3
	c2-0.8,3.3-2,4.1-3.4c0.7-1.4,0.9-3,0.4-4.8c-0.4-1.4-1-2.5-2-3.4c-1-0.9-2.1-1.4-3.3-1.5c-1.3-0.1-3.1,0.1-5.7,0.8l-10,2.6L139,64
	L143.8,62.7z M135,65.4l-1.8-3.7l-12.2,6l-2.9-5.9l11-5.4l-1.8-3.7l-11,5.4l-2.4-4.8l11.8-5.8l-1.8-3.7l-16.2,7.9l10.7,21.9
	L135,65.4z M109.8,79.3L97.8,63l5.8-4.3l-2.4-3.3L85.6,66.9l2.4,3.3l5.8-4.3l12,16.3L109.8,79.3z M85.4,99.2
	c2.2-0.2,4.3-1.5,6.4-3.7c1.5-1.5,2.4-3,3-4.5c0.5-1.4,0.6-2.9,0.3-4.3c-0.4-1.4-1-2.6-2.1-3.5c-1.1-1.1-2.3-1.7-3.5-2
	c-1.2-0.2-2.4-0.2-3.6,0.3c-1.2,0.4-2.9,1.3-4.9,2.7c-2,1.4-3.5,2.1-4.3,2.2c-0.6,0.1-1.2-0.1-1.6-0.5c-0.5-0.4-0.6-1-0.6-1.6
	c0.1-1,0.7-2,1.7-3c0.9-1,1.9-1.6,2.7-1.7c0.9-0.1,1.8,0.2,2.9,0.9l3.2-3.7c-1.7-1.5-3.5-2.1-5.6-1.9c-2,0.2-4.1,1.4-6.2,3.6
	c-1.3,1.4-2.2,2.7-2.7,4.1c-0.5,1.4-0.6,2.6-0.3,3.9c0.3,1.3,0.9,2.3,1.8,3.2c1.4,1.3,3.1,1.9,5.1,1.7c1.4-0.1,3.3-0.9,5.6-2.4
	c1.8-1.1,2.9-1.9,3.5-2.1c0.8-0.4,1.5-0.6,2-0.6c0.5,0,1,0.2,1.4,0.6c0.7,0.6,0.9,1.4,0.9,2.5c-0.1,1-0.6,2.1-1.7,3.3
	c-1,1.1-2.1,1.7-3.3,1.8s-2.4-0.3-3.8-1.1l-2.9,3.8C81,98.7,83.2,99.4,85.4,99.2 M82.7,105.5L63,91.2l-2.9,4l19.7,14.2L82.7,105.5z
	 M66.8,113.2l2.7,1.4c0.2,0.9,0.2,1.9,0.1,3c-0.1,1.1-0.4,2.1-0.9,3c-1,1.8-2.4,3-4.3,3.5c-1.9,0.5-4.1,0-6.7-1.3
	c-2.4-1.2-3.9-2.7-4.5-4.5c-0.6-1.8-0.4-3.6,0.5-5.5c0.7-1.3,1.5-2.1,2.6-2.7c1-0.5,2.2-0.7,3.4-0.4l1.4-4.8
	c-2.2-0.6-4.3-0.4-6.2,0.5c-1.9,0.9-3.6,2.7-5,5.4c-1.1,2.1-1.6,4-1.6,5.7c0,2.3,0.6,4.4,1.9,6.2c1.3,1.9,3,3.4,5.3,4.5
	c2.1,1.1,4.2,1.7,6.4,1.7c2.2,0.1,4.2-0.5,6-1.7c1.8-1.2,3.3-2.9,4.5-5.2c0.9-1.8,1.5-3.7,1.7-5.8c0.2-2.1,0.1-3.8-0.3-5.2l-8.6-4.5
	l-4.9,9.4l3.6,1.9L66.8,113.2z M65.6,136.3l-4-1.1L58,148.3l-6.4-1.8l3.3-11.8l-4-1.1l-3.3,11.8l-5.2-1.4l3.5-12.7l-4-1.1l-4.8,17.4
	l23.5,6.5L65.6,136.3z M38.5,172.3l0.3-3.8c0.1-2,0.2-3.2,0.3-3.6c0.2-0.8,0.5-1.4,1.1-1.8c0.5-0.4,1.2-0.6,2-0.5
	c0.7,0.1,1.3,0.3,1.8,0.6c0.5,0.4,0.8,0.8,0.9,1.4s0.2,2.1,0,4.4l-0.3,3.6L38.5,172.3z M58.7,173.7L48.6,173l0.1-1
	c0.1-1.1,0.2-1.9,0.4-2.4c0.2-0.5,0.6-1,1.1-1.4c0.5-0.4,1.8-1.2,3.7-2.3l5.5-3.2l0.4-5.9l-4.9,2.6c-2,1-3.3,1.9-4.1,2.5
	c-0.8,0.6-1.5,1.5-2.2,2.5c-0.2-2.2-0.8-3.8-1.9-5c-1.1-1.2-2.6-1.8-4.4-1.9c-1.4-0.1-2.7,0.2-3.9,0.8c-1.2,0.6-2,1.5-2.5,2.7
	c-0.5,1.1-0.9,3-1,5.6l-0.7,10.3l24.3,1.7L58.7,173.7z"/>
<path class="st3" d="M308.1,212.2c-0.8,0.4-1.3,1.1-1.6,2c-0.3,0.9-0.2,1.7,0.3,2.5c0.4,0.8,1.1,1.3,2,1.6c0.9,0.3,1.7,0.2,2.5-0.3
	c0.8-0.4,1.3-1.1,1.6-2c0.3-0.9,0.2-1.7-0.3-2.5c-0.4-0.8-1.1-1.3-2-1.6C309.8,211.7,308.9,211.8,308.1,212.2 M308.1,232.8
	c-1.9-0.8-3.1-1.4-3.6-1.8c-0.5-0.4-0.8-0.8-0.9-1.2c-0.1-0.4-0.1-0.8,0.1-1.2c0.2-0.4,0.5-0.8,1.1-1.2l-2.1-2
	c-0.6,0.5-1.1,1-1.4,1.7c-0.2,0.5-0.3,0.9-0.2,1.4c0.1,0.5,0.4,1.1,0.9,1.9l-1.6-0.7l-1.2,2.7l11,4.7l1.2-2.9L308.1,232.8z
	 M298.8,244.5c-0.8-0.4-1.3-0.9-1.5-1.5c-0.2-0.6-0.2-1.3,0.1-1.9c0.3-0.6,0.8-0.9,1.4-1.1c0.6-0.2,1.4-0.1,2.2,0.4L298.8,244.5z
	 M304.5,243.3c0.1,0.4,0,0.9-0.2,1.3c-0.3,0.6-0.9,1.1-1.5,1.2c-0.7,0.2-1.5,0.1-2.3-0.4l3.7-7c-2.1-1.2-3.9-1.6-5.4-1.2
	s-2.7,1.3-3.5,2.9c-0.7,1.4-0.9,2.8-0.4,4.2c0.5,1.4,1.6,2.6,3.4,3.6c1.5,0.8,2.9,1.1,4.2,0.9c1.7-0.2,3-1.3,4-3.1
	c0.6-1.2,0.9-2.3,0.7-3.3c-0.1-1.1-0.6-2-1.4-2.9l-1.9,2.5C304.2,242.5,304.4,242.9,304.5,243.3 M290.5,248.6l-3.6-2.3l-0.1,3.7
	l2,1.3l-0.8,1.2l2.1,1.3l0.8-1.2l4.4,2.8c0.9,0.6,1.6,1,1.9,1.1c0.5,0.2,0.9,0.3,1.3,0.3c0.4,0,0.8-0.2,1.2-0.5
	c0.4-0.3,0.8-0.7,1.1-1.1c0.5-0.8,0.8-1.6,0.9-2.4l-2.2-1.1c-0.1,0.6-0.3,1-0.4,1.2c-0.1,0.2-0.3,0.3-0.4,0.4
	c-0.2,0.1-0.3,0.1-0.5,0c-0.2-0.1-0.6-0.3-1.5-0.9l-4.1-2.6l1.2-1.8l-2.1-1.3L290.5,248.6z M290.2,268.3c1.1-0.4,2.1-1.2,3.1-2.5
	c1.1-1.4,1.6-2.7,1.5-3.9c-0.1-1.2-0.5-2.1-1.4-2.8c-0.8-0.6-1.6-0.8-2.5-0.6c-0.8,0.2-1.9,0.8-3.2,2c-1.3,1.1-2.1,1.7-2.5,1.8
	c-0.3,0.1-0.5,0-0.6-0.1c-0.2-0.2-0.3-0.4-0.3-0.7c0-0.4,0.3-1,0.8-1.6c0.4-0.5,0.8-0.9,1.2-1c0.4-0.1,0.8-0.1,1.3,0.1l1.4-2.7
	c-1-0.4-2-0.4-2.9-0.1c-0.9,0.3-1.8,1.1-2.8,2.4c-1,1.4-1.5,2.6-1.4,3.7c0.1,1.1,0.5,1.9,1.3,2.5c0.9,0.7,1.9,0.9,3,0.5
	c0.8-0.3,2.2-1.2,4.1-2.9c0.4-0.4,0.8-0.6,1-0.6c0.2,0,0.4,0,0.6,0.2c0.3,0.2,0.4,0.5,0.4,0.8c0,0.5-0.3,1.1-0.8,1.7
	c-0.4,0.6-0.9,1-1.4,1.1c-0.5,0.1-1,0.1-1.6-0.2l-1.5,2.8C288,268.6,289.1,268.7,290.2,268.3 M287.1,273l-8.9-8l-2.1,2.3l8.9,8
	L287.1,273z M277,263.9l-2.2-2l-2.1,2.3l2.2,2L277,263.9z M270.1,277.7c-0.1-0.8,0.2-1.4,0.7-1.9c0.6-0.5,1.2-0.8,2-0.7
	c0.8,0.1,1.6,0.6,2.5,1.5c0.8,0.9,1.2,1.7,1.3,2.5c0,0.8-0.2,1.5-0.8,2c-0.5,0.5-1.2,0.7-1.9,0.6c-0.8-0.1-1.6-0.6-2.5-1.5
	C270.6,279.3,270.1,278.5,270.1,277.7 M274.5,287.4c0.7,0.8,1.7,1.1,2.7,1c1.1-0.1,2.4-0.8,3.8-2.2c0.8-0.7,1.3-1.4,1.7-2.1
	c0.3-0.6,0.5-1.3,0.6-1.8c0-0.6-0.1-1.2-0.4-1.9c-0.3-0.7-1-1.5-1.9-2.5l-7.4-7.7l-2.1,2.1l1.2,1.2c-1.6-0.3-2.9,0.1-4,1.1
	c-1,1-1.5,2.2-1.5,3.6c0,1.4,0.8,2.9,2.1,4.3c1.1,1.1,2.3,1.9,3.6,2.1c1.6,0.3,3-0.1,4.2-1.2c1-1,1.4-2.3,1.2-3.9l1.2,1.3
	c0.5,0.5,0.8,0.9,0.9,1.1c0.2,0.4,0.2,0.7,0.1,1c-0.1,0.5-0.5,1-1.1,1.6c-0.5,0.4-0.9,0.7-1.3,0.7c-0.3,0-0.6-0.1-0.9-0.3l-2.9,2.2
	C274.3,287.3,274.4,287.3,274.5,287.4 M260.2,288.3c-0.5-0.7-0.8-1.3-0.7-2c0-0.7,0.3-1.2,0.9-1.6c0.5-0.4,1.1-0.5,1.7-0.4
	c0.6,0.1,1.3,0.5,1.8,1.2L260.2,288.3z M265.9,289.5c-0.1,0.4-0.3,0.8-0.7,1.1c-0.6,0.4-1.2,0.6-1.9,0.5c-0.7-0.1-1.4-0.5-1.9-1.3
	l6.2-4.8c-1.4-1.9-2.9-3.1-4.5-3.4c-1.5-0.3-3,0.1-4.4,1.2c-1.2,1-1.9,2.2-2.1,3.7c-0.1,1.5,0.4,3.1,1.6,4.6c1,1.3,2.2,2.1,3.5,2.5
	c1.6,0.5,3.2,0.1,4.9-1.2c1-0.8,1.7-1.7,2-2.7c0.3-1,0.3-2.1-0.1-3.3l-2.8,1.5C265.9,288.6,266,289.1,265.9,289.5 M254.2,296.3
	c-1.1-1.7-1.8-2.9-2-3.5c-0.2-0.6-0.2-1.1-0.1-1.5c0.1-0.4,0.4-0.7,0.7-0.9c0.4-0.2,0.9-0.4,1.5-0.4l-0.7-2.8
	c-0.8,0-1.5,0.2-2.1,0.6c-0.4,0.3-0.7,0.6-0.9,1.1c-0.2,0.4-0.3,1.1-0.3,2.1l-0.9-1.4l-2.5,1.6l6.5,10l2.6-1.7L254.2,296.3z
	 M243.8,306.6c0.1,0.7,0.2,1.3,0.1,1.8c-0.1,0.5-0.5,1-1.1,1.3c-0.3,0.2-0.8,0.4-1.2,0.5l1.4,2c0.6-0.2,1.1-0.4,1.7-0.7
	c0.5-0.3,1-0.6,1.3-0.9c0.4-0.3,0.6-0.7,0.8-1c0.2-0.4,0.3-0.8,0.3-1.2c0-0.4,0-1-0.1-1.8l-0.3-2.2l-1.7-12.1l-2.9,1.5l1.5,8.8
	l-6.5-6.1l-3,1.6L243.8,306.6z M230.9,299.4l-1.7-3.9l-2.2,2.9l0.9,2.2l-1.3,0.6l1,2.3l1.3-0.6l2.1,4.8c0.4,1,0.8,1.7,1,2
	c0.3,0.4,0.6,0.8,0.9,1c0.3,0.2,0.7,0.3,1.2,0.3s1-0.1,1.5-0.3c0.9-0.4,1.6-0.8,2.1-1.4l-1.2-2.1c-0.4,0.4-0.8,0.7-1,0.8
	c-0.2,0.1-0.4,0.1-0.6,0.1c-0.2,0-0.3-0.1-0.4-0.3c-0.1-0.1-0.3-0.6-0.7-1.5l-1.9-4.4l2-0.9l-1-2.3L230.9,299.4z M228,313.4l-4-11.2
	l-3,1.1l4,11.2L228,313.4z M223.5,300.6l-1-2.7l-3,1.1l1,2.7L223.5,300.6z M216.8,313.1c-0.6-1.9-0.9-3.3-0.9-3.9s0.1-1.1,0.3-1.5
	c0.2-0.3,0.6-0.5,1-0.7c0.4-0.1,1-0.1,1.6,0.1l0.2-2.9c-0.8-0.2-1.5-0.2-2.2,0c-0.5,0.1-0.9,0.4-1.2,0.7c-0.3,0.4-0.6,1-0.9,1.9
	l-0.5-1.6l-2.8,0.8l3.3,11.5l3-0.9L216.8,313.1z M206.3,314.2c0.1,0.7,0.2,1.3,0.2,1.5c0,0.4-0.2,0.8-0.5,1.2
	c-0.4,0.5-0.9,0.8-1.5,0.9c-0.5,0.1-0.9,0-1.3-0.2c-0.4-0.3-0.6-0.6-0.7-1c-0.1-0.4,0-0.8,0.4-1.2c0.2-0.2,0.8-0.5,1.6-0.9
	s1.4-0.6,1.8-0.8L206.3,314.2z M202.1,310.6c0.3-0.3,0.7-0.5,1.2-0.6c0.8-0.2,1.4-0.1,1.7,0c0.3,0.2,0.6,0.6,0.7,1.2l0.1,0.3
	c-0.5,0.3-1.5,0.8-2.9,1.4c-1,0.4-1.8,0.8-2.3,1.2c-0.5,0.4-0.9,0.9-1.1,1.5c-0.2,0.6-0.3,1.2-0.1,1.9c0.2,1,0.7,1.8,1.5,2.3
	c0.8,0.5,1.8,0.7,3,0.4c0.7-0.1,1.3-0.4,1.9-0.8c0.6-0.4,1-0.9,1.5-1.5c0,0.1,0.1,0.2,0.2,0.3c0.2,0.4,0.4,0.7,0.5,0.9l3.1-0.6
	c-0.4-0.5-0.7-1-0.9-1.5c-0.2-0.5-0.4-1.2-0.6-2.2l-0.7-3.6c-0.3-1.3-0.6-2.2-1-2.7c-0.4-0.4-0.9-0.8-1.7-1
	c-0.7-0.2-1.8-0.2-3.2,0.1c-1.5,0.3-2.6,0.8-3.3,1.5c-0.7,0.7-1,1.6-1.1,2.8l2.9,0C201.7,311.3,201.8,310.9,202.1,310.6
	 M183.9,305.6l1.4,16.4l3.1-0.3l-0.5-6c-0.1-1-0.1-1.8,0.1-2.3c0.1-0.5,0.4-0.9,0.8-1.2c0.4-0.3,0.8-0.5,1.4-0.5
	c0.5,0,0.8,0,1.2,0.2c0.3,0.2,0.6,0.4,0.7,0.7c0.1,0.3,0.3,1.1,0.4,2.4l0.5,6.3l3.1-0.3l-0.6-7c-0.1-1.1-0.2-1.8-0.4-2.3
	c-0.1-0.5-0.4-0.9-0.7-1.3c-0.3-0.4-0.8-0.7-1.4-0.9c-0.6-0.2-1.3-0.3-2-0.2c-1.4,0.1-2.6,0.8-3.5,2.1l-0.5-6L183.9,305.6z
	 M179.6,310.9c-0.8-0.6-2-1-3.4-1c-1.8,0-3.2,0.5-4.3,1.6c-1.1,1.1-1.6,2.6-1.6,4.6c0,1.9,0.5,3.5,1.5,4.6s2.4,1.7,4.1,1.7
	c1.5,0,2.8-0.3,3.7-1c0.9-0.7,1.6-1.8,1.9-3.2l-3.1-0.6c-0.2,0.8-0.5,1.4-0.8,1.7c-0.4,0.3-0.9,0.5-1.5,0.5c-0.8,0-1.4-0.3-1.9-0.9
	c-0.5-0.6-0.7-1.6-0.7-3c0-1.3,0.3-2.2,0.8-2.7c0.5-0.5,1.1-0.8,1.9-0.8c0.6,0,1.1,0.2,1.4,0.5c0.4,0.3,0.6,0.8,0.7,1.4l3.1-0.5
	C181.1,312.5,180.5,311.5,179.6,310.9 M163.5,321.6l5.7-16.6l-2.4-0.2l-5.7,16.6L163.5,321.6z M158.1,320.7l2-11.8l-3.1-0.5l-0.9,5
	c-0.3,1.7-0.5,2.7-0.8,3.1c-0.2,0.4-0.6,0.7-1.1,0.9c-0.5,0.2-1,0.3-1.5,0.2c-0.5-0.1-0.8-0.3-1.1-0.5s-0.4-0.6-0.5-1
	c-0.1-0.4,0.1-1.4,0.4-3.1l0.9-5.4l-3.1-0.5l-1.3,7.4c-0.2,1.1-0.2,2,0,2.7c0.2,0.7,0.5,1.2,1.1,1.7c0.6,0.5,1.2,0.8,2,0.9
	c0.8,0.1,1.5,0.1,2.3-0.2c0.8-0.2,1.4-0.6,1.9-1.2l-0.3,1.8L158.1,320.7z M141.3,312c-0.2,0.7-0.4,1.2-0.5,1.4
	c-0.2,0.4-0.6,0.6-1,0.8c-0.6,0.2-1.2,0.2-1.7,0.1c-0.5-0.1-0.8-0.4-1.1-0.8c-0.2-0.4-0.3-0.8-0.2-1.2c0.1-0.4,0.4-0.7,0.9-0.9
	c0.3-0.1,0.9-0.1,1.8,0c0.9,0.1,1.6,0.1,2,0.1L141.3,312z M139.2,306.8c0.4-0.1,0.8-0.1,1.4,0c0.8,0.2,1.3,0.5,1.5,0.8
	c0.2,0.3,0.2,0.8,0.1,1.4l-0.1,0.3c-0.6,0.1-1.7,0-3.2-0.1c-1.1-0.1-2-0.1-2.6,0c-0.6,0.1-1.2,0.4-1.6,0.8c-0.5,0.4-0.8,0.9-1,1.6
	c-0.3,1-0.2,1.9,0.3,2.7c0.5,0.8,1.3,1.4,2.5,1.8c0.7,0.2,1.3,0.3,2,0.2c0.7-0.1,1.3-0.3,2-0.6c0,0.1,0,0.2,0,0.4c0,0.4,0,0.8,0,1
	l3,0.9c-0.1-0.6-0.1-1.2-0.1-1.7c0-0.5,0.2-1.3,0.5-2.3l1.1-3.5c0.4-1.3,0.5-2.3,0.4-2.8c-0.1-0.6-0.5-1.1-1-1.6
	c-0.6-0.5-1.5-1-2.9-1.4c-1.5-0.4-2.7-0.5-3.6-0.2c-0.9,0.3-1.7,1-2.3,2l2.6,1.3C138.5,307.3,138.8,307,139.2,306.8 M129,313.4
	l1.1-3l-3-1.1l-1.1,3L129,313.4z M120,309.8l9.3-8.9l-2.9-1.4l-4.6,4.6c-0.2,0.3-0.5,0.5-0.7,0.8c-0.1,0.1-0.3,0.4-0.7,0.8l0.3-2.1
	l0.5-6.5l-3-1.4l-0.6,12.8L120,309.8z M108,293.8c0.8-0.3,1.6-0.2,2.3,0.2c0.7,0.4,1.2,1,1.3,1.9c0.2,0.8,0,1.7-0.6,2.7
	c-0.6,1-1.3,1.7-2.1,1.9c-0.8,0.3-1.6,0.2-2.3-0.2c-0.7-0.4-1.2-1-1.3-1.9c-0.2-0.8,0-1.8,0.6-2.8C106.5,294.7,107.2,294,108,293.8
	 M102.1,297.3c0,1.1,0.3,2.1,0.9,3s1.4,1.7,2.3,2.2c1.5,0.9,3.1,1.1,4.7,0.7c1.6-0.4,2.9-1.4,3.8-3c0.9-1.5,1.1-3.1,0.7-4.7
	c-0.4-1.6-1.4-2.8-2.9-3.8c-1-0.6-2.1-0.9-3.1-0.9c-1.1,0-2.1,0.2-3,0.8c-0.9,0.6-1.7,1.3-2.2,2.2
	C102.5,295.1,102.1,296.2,102.1,297.3 M95.9,285.2c0.7-0.2,1.4,0,2,0.4c0.6,0.5,1,1.1,1,1.9c0.1,0.8-0.3,1.7-1,2.7
	c-0.7,1-1.4,1.5-2.2,1.7c-0.8,0.2-1.5,0-2.1-0.4c-0.6-0.4-0.9-1-0.9-1.8c0-0.8,0.3-1.7,1.1-2.7C94.4,286,95.2,285.4,95.9,285.2
	 M87.1,291.2c-0.6,0.9-0.8,1.8-0.5,2.9s1.2,2.2,2.8,3.4c0.9,0.6,1.6,1.1,2.3,1.3c0.7,0.2,1.3,0.3,1.9,0.2c0.6-0.1,1.2-0.3,1.8-0.7
	c0.6-0.4,1.3-1.2,2.2-2.3l6.4-8.6l-2.4-1.8l-1,1.3c0-1.6-0.6-2.9-1.8-3.7c-1.2-0.8-2.4-1.1-3.8-0.9c-1.4,0.3-2.7,1.2-3.9,2.8
	c-0.9,1.3-1.4,2.6-1.5,3.9c-0.1,1.6,0.6,2.9,1.9,3.9c1.2,0.9,2.5,1,4,0.6l-1,1.4c-0.4,0.6-0.7,0.9-1,1.1c-0.3,0.2-0.7,0.3-1,0.3
	c-0.5,0-1-0.3-1.7-0.8c-0.5-0.4-0.8-0.8-0.9-1.1c-0.1-0.3,0-0.6,0.2-0.9l-2.6-2.5C87.2,291,87.1,291.1,87.1,291.2 M84.3,287.3
	l2.1-2.4l-2.4-2.1l-2.1,2.4L84.3,287.3z M85.7,273.3c-0.2-1-0.7-2.1-1.8-3.1c-1.2-1.3-2.6-1.9-4.1-1.8c-1.5,0-3,0.7-4.4,2.1
	c-1.4,1.4-2.1,2.8-2.2,4.3c-0.1,1.5,0.5,2.9,1.8,4.1c1.1,1.1,2.2,1.7,3.4,1.8c1.2,0.1,2.4-0.2,3.6-0.9l-1.8-2.6
	c-0.7,0.5-1.3,0.7-1.8,0.7c-0.5,0-1-0.3-1.4-0.7c-0.6-0.6-0.8-1.2-0.7-2c0.1-0.7,0.6-1.6,1.6-2.6c0.9-0.9,1.7-1.4,2.4-1.4
	c0.7,0,1.3,0.2,1.9,0.8c0.4,0.4,0.6,0.9,0.7,1.4c0,0.5-0.1,1-0.5,1.5l2.6,1.8C85.6,275.5,85.8,274.3,85.7,273.3 M74.3,266.9
	c0.7-0.6,1.2-1.1,1.6-1.5c0.3-0.4,0.5-0.8,0.7-1.3c0.1-0.5,0.1-1-0.1-1.6c-0.2-0.6-0.5-1.2-0.9-1.7c-1-1.2-2.3-1.8-4-1.8l1.4-1.1
	l-1.8-2.3l-9.3,7.4l2,2.5l4.2-3.4c1-0.8,1.8-1.3,2.3-1.5s1-0.2,1.5,0c0.5,0.2,0.9,0.4,1.3,0.9c0.3,0.3,0.4,0.7,0.4,1.1
	c0,0.4-0.1,0.7-0.3,1.1s-0.8,0.9-1.8,1.7l-4.8,3.8l2,2.5L74.3,266.9z M67.9,252c0.1-1.1-0.3-2.2-1.1-3.4c-1-1.5-2.2-2.4-3.7-2.6
	c-1.5-0.3-3.1,0.1-4.7,1.2c-1.6,1.1-2.6,2.3-3,3.8c-0.4,1.5-0.1,2.9,0.9,4.4c0.8,1.3,1.8,2.1,2.9,2.5c1.1,0.4,2.3,0.3,3.7-0.2
	l-1.2-2.9c-0.8,0.3-1.4,0.4-1.9,0.3c-0.5-0.1-0.9-0.5-1.2-1c-0.4-0.7-0.5-1.4-0.3-2.1c0.2-0.7,0.9-1.5,2.1-2.2c1.1-0.7,2-1,2.7-0.9
	c0.7,0.1,1.3,0.5,1.7,1.1c0.3,0.5,0.5,1,0.4,1.5c-0.1,0.5-0.3,0.9-0.8,1.4l2.2,2.3C67.3,254.1,67.8,253.1,67.9,252 M54.6,241.8
	c-0.7,0.3-1.2,0.5-1.4,0.6c-0.4,0.1-0.8,0-1.3-0.2c-0.6-0.3-1-0.7-1.2-1.2c-0.2-0.5-0.3-0.9-0.1-1.3c0.1-0.4,0.4-0.8,0.8-1
	c0.4-0.2,0.8-0.2,1.3,0.1c0.3,0.2,0.7,0.6,1.3,1.3c0.6,0.7,1,1.2,1.3,1.5L54.6,241.8z M56.9,236.8c0.3,0.2,0.6,0.5,0.9,1
	c0.4,0.7,0.5,1.3,0.4,1.7c-0.1,0.4-0.4,0.7-1,1l-0.3,0.1c-0.5-0.4-1.2-1.2-2.1-2.4c-0.7-0.9-1.3-1.5-1.8-1.9
	c-0.5-0.4-1.1-0.6-1.7-0.7c-0.6-0.1-1.2,0.1-1.8,0.4c-0.9,0.5-1.5,1.2-1.8,2.1c-0.3,0.9-0.1,1.9,0.4,3c0.3,0.6,0.7,1.1,1.2,1.6
	c0.5,0.4,1.1,0.8,1.8,1c0,0-0.1,0.1-0.3,0.3c-0.3,0.3-0.5,0.5-0.7,0.7l1.4,2.8c0.4-0.5,0.8-0.9,1.2-1.2c0.4-0.3,1.1-0.7,2-1.2
	l3.3-1.6c1.2-0.6,2-1.2,2.3-1.6c0.3-0.5,0.5-1.1,0.5-1.9s-0.3-1.8-1-3c-0.7-1.4-1.5-2.3-2.3-2.8c-0.8-0.5-1.9-0.6-3-0.3l0.8,2.8
	C56.1,236.5,56.6,236.6,56.9,236.8 M49.8,215.7c0.4-0.8,0.5-1.6,0.3-2.5c-0.3-0.9-0.8-1.5-1.6-2c-0.8-0.4-1.6-0.5-2.5-0.3
	c-0.9,0.3-1.5,0.8-2,1.6c-0.4,0.8-0.5,1.6-0.3,2.5c0.3,0.9,0.8,1.5,1.6,2c0.8,0.4,1.6,0.5,2.5,0.3C48.7,217.1,49.4,216.5,49.8,215.7
	"/>
<g>
	<path class="st3" d="M178.5,78.9c7.4,0,14.7,0.8,21.7,2.4v-4.1c-7-1.5-14.2-2.3-21.7-2.3C122,74.9,76,120.9,76,177.4
		c0,42.8,26.4,79.6,63.8,94.9l-1.8-5.1c-34.2-15.5-58-49.9-58-89.8C80,123.1,124.2,78.9,178.5,78.9z"/>
	<path class="st3" d="M231.7,89.8l-0.4,4.5c27.4,17.5,45.7,48.2,45.7,83.1c0,46-31.7,84.8-74.4,95.5l-4,5
		c47-9.3,82.5-50.9,82.5-100.5C281,140.4,261.2,107.8,231.7,89.8z"/>
</g>
</svg>
