<svg xmlns="http://www.w3.org/2000/svg" xmlns:xlink="http://www.w3.org/1999/xlink" width="363.006" height="298.815" viewBox="0 0 363.006 298.815">
  <defs>
    <clipPath id="clip-path">
      <rect id="Rectangle_974" data-name="Rectangle 974" width="363.006" height="298.815" fill="#ffd772"/>
    </clipPath>
  </defs>
  <g id="Group_685" data-name="Group 685" clip-path="url(#clip-path)">
    <path id="Path_739" data-name="Path 739" d="M.839,72.5C13.29,97.115,38.846,116.34,60.7,132.122c26.167,18.9,53.507,33.447,85.734,38.677,66.55,10.8,168.165-12.38,170.68-95.936,1.1-36.656-28.863-62.325-61.891-71.24-35.141-9.485-73.131.106-100.643,23.566-62.986,53.712-47.69,141.185-7.364,203.529,23.2,35.86,57,62.676,100.495,67.394,42.241,4.579,82.53-13.557,111.011-44.168,9.333-10.03,2.213-26.569-9.732-13.733-46.327,49.79-125.835,42.481-168.873-7.216-37.812-43.66-73.721-124.353-31.325-176.22,19.774-24.191,51.1-35.448,81.884-31.933,28.891,3.3,63.94,21.666,67.227,53.879,3.245,31.785-25.2,53.223-52.276,61.931-31.254,10.049-66.383,11.172-98.413,4.42-28.371-5.98-52.788-20.728-75.894-37.735-20.047-14.753-42.6-32.1-54.083-54.8C12.3,42.776-3.832,63.267.839,72.5" transform="translate(0 0.001)" fill="#ffd772"/>
  </g>
</svg>
