<svg width="27" height="28" viewBox="0 0 27 28" fill="none" xmlns="http://www.w3.org/2000/svg">
<path d="M27 17C27.0002 16.0794 26.7463 15.1766 26.2662 14.3911C25.7861 13.6056 25.0984 12.9679 24.279 12.5483C23.4596 12.1287 22.5402 11.9434 21.6223 12.013C20.7043 12.0825 19.8233 12.4042 19.0765 12.9425C18.3296 13.4807 17.7459 14.2148 17.3896 15.0636C17.0333 15.9125 16.9183 16.8433 17.0573 17.7533C17.1962 18.6634 17.5837 19.5174 18.1771 20.2213C18.7704 20.9252 19.5466 21.4516 20.42 21.7425C20.2505 22.5235 19.8187 23.223 19.1965 23.7247C18.5743 24.2263 17.7992 24.4999 17 24.5H14C13.0717 24.5 12.1815 24.1313 11.5251 23.4749C10.8687 22.8185 10.5 21.9283 10.5 21V16.3625C14.4662 15.64 17.5 12.1012 17.5 7.89625V3C17.5 2.6717 17.4353 2.34661 17.3097 2.04329C17.1841 1.73998 16.9999 1.46438 16.7678 1.23223C16.5356 1.00009 16.26 0.815938 15.9567 0.690301C15.6534 0.564664 15.3283 0.5 15 0.5H13C12.6022 0.5 12.2206 0.658035 11.9393 0.93934C11.658 1.22064 11.5 1.60218 11.5 2C11.5 2.39782 11.658 2.77936 11.9393 3.06066C12.2206 3.34196 12.6022 3.5 13 3.5H14.5V7.89625C14.5 10.9462 12.0662 13.4612 9.07375 13.5C8.3453 13.5098 7.62216 13.3747 6.94634 13.1027C6.27051 12.8307 5.65546 12.4271 5.1369 11.9154C4.61834 11.4037 4.20661 10.7941 3.9256 10.1219C3.6446 9.44979 3.49993 8.72852 3.5 8V3.5H5C5.39782 3.5 5.77936 3.34196 6.06066 3.06066C6.34196 2.77936 6.5 2.39782 6.5 2C6.5 1.60218 6.34196 1.22064 6.06066 0.93934C5.77936 0.658035 5.39782 0.5 5 0.5H3C2.33696 0.5 1.70107 0.763392 1.23223 1.23223C0.763392 1.70107 0.5 2.33696 0.5 3V8C0.500082 9.99413 1.20127 11.9247 2.48091 13.4541C3.76055 14.9835 5.53717 16.0143 7.5 16.3662V21C7.50198 22.7233 8.18744 24.3754 9.406 25.594C10.6246 26.8126 12.2767 27.498 14 27.5H17C18.5873 27.4981 20.1192 26.9161 21.3073 25.8636C22.4955 24.811 23.2579 23.3605 23.4513 21.785C24.477 21.4722 25.3753 20.8386 26.0141 19.9773C26.6529 19.1159 26.9985 18.0724 27 17ZM22 19C21.6044 19 21.2178 18.8827 20.8889 18.6629C20.56 18.4432 20.3036 18.1308 20.1522 17.7654C20.0009 17.3999 19.9613 16.9978 20.0384 16.6098C20.1156 16.2219 20.3061 15.8655 20.5858 15.5858C20.8655 15.3061 21.2219 15.1156 21.6098 15.0384C21.9978 14.9613 22.3999 15.0009 22.7654 15.1522C23.1308 15.3036 23.4432 15.56 23.6629 15.8889C23.8827 16.2178 24 16.6044 24 17C24 17.5304 23.7893 18.0391 23.4142 18.4142C23.0391 18.7893 22.5304 19 22 19Z" fill="#82026E"/>
</svg>
