<svg width="487" height="356" viewBox="0 0 487 356" fill="none" xmlns="http://www.w3.org/2000/svg">
<path d="M3.76413 290.832C3.76413 287.821 6.77592 284.809 9.78768 285.562L90.3524 289.326C88.8465 254.691 113.694 195.962 131.764 171.868C103.905 177.138 72.2818 179.397 44.423 175.632C41.4112 175.632 39.1524 172.621 39.1524 169.609C39.1524 166.597 42.1642 164.338 45.1759 164.338C104.658 171.115 143.811 156.056 149.835 156.056C154.352 153.797 158.117 153.044 161.882 155.303C171.67 159.821 168.658 182.409 165.647 191.444C216.847 189.938 216.094 198.973 243.952 198.221C216.094 168.856 193.505 134.221 189.741 93.5617C185.223 43.1146 217.599 5.46757 255.999 3.96169C279.341 -4.32066 303.435 0.94993 319.247 14.5029C327.529 22.0323 334.305 31.8205 340.329 44.6205C341.082 43.1146 342.588 42.3617 344.094 41.6088C363.67 26.5499 383.247 24.2911 413.364 30.3146C426.164 33.3264 449.505 46.1264 462.305 61.1852C490.164 89.0441 494.682 131.209 472.094 166.597C469.082 171.868 464.564 176.385 460.047 180.903C418.635 217.797 383.247 220.056 321.505 257.703C318.494 259.209 316.988 261.468 311.717 259.962C306.447 260.715 301.176 260.715 295.905 259.962C292.141 254.691 287.623 250.173 283.858 244.903C277.835 247.915 272.564 250.926 267.294 254.691C273.317 268.244 297.411 266.738 313.976 267.491C346.352 268.997 332.047 267.491 427.67 262.973C440.47 262.221 447.999 265.985 451.011 274.268C466.07 315.679 295.905 420.338 133.27 298.362C122.729 323.962 92.6112 331.491 73.0348 313.421C47.4348 314.173 25.5994 311.915 -0.000576261 312.668C3.76413 305.891 5.27001 302.126 7.52884 296.103C5.27001 295.35 3.01119 293.091 3.76413 290.832ZM157.364 165.091C146.07 166.597 136.282 183.915 133.27 190.691C139.294 191.444 146.823 191.444 154.352 191.444C154.352 190.691 159.623 172.621 157.364 165.091ZM315.482 248.668C362.164 217.044 411.858 209.515 453.27 172.621C457.788 168.856 460.799 165.091 463.811 160.573C484.894 127.444 478.87 88.2911 449.505 64.197C434.447 51.397 408.846 43.8676 390.023 46.1264C378.729 47.6323 367.435 53.6558 359.905 61.9382C352.376 70.9735 338.07 67.9617 334.305 56.6676C329.035 41.6088 322.258 30.3146 313.223 22.7852C273.317 -10.3442 202.541 28.8088 216.847 103.35C223.623 136.479 246.211 167.35 268.799 192.95C283.858 186.926 294.399 177.891 310.211 177.138C334.305 175.632 346.352 196.715 327.529 217.797C322.258 223.821 314.729 229.091 304.941 235.115C315.482 247.915 313.976 247.162 315.482 248.668ZM413.364 302.879C423.152 298.362 444.235 287.821 440.47 278.032C439.717 275.021 435.199 274.268 428.423 274.268C333.552 278.785 347.105 280.291 313.976 278.785C299.67 278.032 255.999 279.538 255.999 252.432C255.999 250.926 256.752 248.668 258.258 247.915C277.835 232.856 304.188 228.338 319.999 211.021C330.541 198.973 328.282 187.679 311.717 189.185C286.87 190.691 277.082 214.785 228.141 208.762C219.105 208.009 204.046 202.738 191.246 202.738C174.682 201.985 146.07 204.244 127.246 201.985C118.211 220.056 110.682 239.632 106.164 253.938C173.929 289.326 258.258 370.644 413.364 302.879ZM102.399 296.856C113.694 290.832 117.458 278.032 118.211 274.268C112.941 271.256 108.423 268.244 103.152 265.232C100.894 278.785 100.894 292.338 102.399 296.856Z" fill="#E01D2F"/>
</svg>
