<svg width="51" height="44" viewBox="0 0 51 44" fill="none" xmlns="http://www.w3.org/2000/svg">
<path d="M0.601562 11.9739L2.61156 14.6099C2.61156 14.6099 6.75756 11.3429 8.13956 12.9759C9.52156 14.6099 14.7956 34.3329 16.5566 37.9729C18.0936 41.1649 22.3336 45.3859 26.9826 42.3699C31.6286 39.3559 47.0806 26.1649 49.8456 10.5889C52.6096 -4.98508 31.2516 -1.72408 28.9916 11.8449C34.6436 8.44992 37.6626 13.2249 34.7696 18.6289C31.8806 24.0279 29.2426 27.5499 27.8616 27.5499C26.4826 27.5499 25.4206 23.9379 23.8406 17.6219C22.2056 11.0919 22.2166 -0.669083 15.4246 0.663917C9.01856 1.92092 0.601562 11.9739 0.601562 11.9739Z" fill="white"/>
</svg>
