<svg width="29" height="23" viewBox="0 0 29 23" fill="none" xmlns="http://www.w3.org/2000/svg">
<path d="M27.7913 4.19C27.6735 3.72919 27.4478 3.30298 27.1329 2.94654C26.818 2.59011 26.4228 2.31366 25.98 2.14C21.695 0.485005 14.875 0.500005 14.5 0.500005C14.125 0.500005 7.305 0.485005 3.02 2.14C2.5772 2.31366 2.18204 2.59011 1.86712 2.94654C1.55219 3.30298 1.32653 3.72919 1.20875 4.19C0.885 5.4375 0.5 7.7175 0.5 11.5C0.5 15.2825 0.885 17.5625 1.20875 18.81C1.32636 19.271 1.55194 19.6975 1.86687 20.0542C2.18181 20.4108 2.57706 20.6875 3.02 20.8613C7.125 22.445 13.55 22.5 14.4175 22.5H14.5825C15.45 22.5 21.8787 22.445 25.98 20.8613C26.4229 20.6875 26.8182 20.4108 27.1331 20.0542C27.4481 19.6975 27.6736 19.271 27.7913 18.81C28.115 17.56 28.5 15.2825 28.5 11.5C28.5 7.7175 28.115 5.4375 27.7913 4.19ZM18.7775 11.9163L12.7775 15.9163C12.7022 15.9665 12.6146 15.9954 12.5242 15.9997C12.4338 16.0041 12.3438 15.9839 12.264 15.9411C12.1842 15.8984 12.1175 15.8348 12.071 15.7571C12.0245 15.6794 11.9999 15.5905 12 15.5V7.5C11.9999 7.40946 12.0245 7.3206 12.071 7.24291C12.1175 7.16522 12.1842 7.10161 12.264 7.05888C12.3438 7.01614 12.4338 6.99588 12.5242 7.00027C12.6146 7.00465 12.7022 7.0335 12.7775 7.08375L18.7775 11.0838C18.8461 11.1294 18.9023 11.1913 18.9412 11.2639C18.9801 11.3365 19.0005 11.4176 19.0005 11.5C19.0005 11.5824 18.9801 11.6635 18.9412 11.7361C18.9023 11.8087 18.8461 11.8706 18.7775 11.9163Z" fill="white"/>
</svg>
