<svg id="Layer_1" enable-background="new 0 0 68 68" height="512" viewBox="0 0 68 68" width="512" xmlns="http://www.w3.org/2000/svg"><g id="_x31_5"><path d="m65.8 49c0-.4-.4-.8-.8-.7l-10.7.5c.2-4.6-3.1-12.4-5.5-15.6 3.7.7 7.9 1 11.6.5.4 0 .7-.4.7-.8s-.4-.7-.8-.7c-7.9.9-13.1-1.1-13.9-1.1-.6-.3-1.1-.4-1.6-.1-1.3.6-.9 3.6-.5 4.8-6.8-.2-6.7 1-10.4.9 3.7-3.9 6.7-8.5 7.2-13.9.6-6.7-3.7-11.7-8.8-11.9-3.1-1.1-6.3-.4-8.4 1.4-1.1 1-2 2.3-2.8 4-.1-.2-.3-.3-.5-.4-2.6-2-5.2-2.3-9.2-1.5-1.7.4-4.8 2.1-6.5 4.1-3.7 3.7-4.3 9.3-1.3 14 .4.7 1 1.3 1.6 1.9 5.5 4.9 10.2 5.2 18.4 10.2.4.2.6.5 1.3.3.7.1 1.4.1 2.1 0 .5-.7 1.1-1.3 1.6-2 .8.4 1.5.8 2.2 1.3-.8 1.8-4 1.6-6.2 1.7-4.3.2-2.4 0-15.1-.6-1.7-.1-2.7.4-3.1 1.5-2 5.5 20.6 19.4 42.2 3.2 1.4 3.4 5.4 4.4 8 2 3.4.1 6.3-.2 9.7-.1-.5-.9-.7-1.4-1-2.2.3-.1.6-.4.5-.7zm-20.4-16.7c1.5.2 2.8 2.5 3.2 3.4-.8.1-1.8.1-2.8.1 0-.1-.7-2.5-.4-3.5zm-21 11.1c-6.2-4.2-12.8-5.2-18.3-10.1-.6-.5-1-1-1.4-1.6-2.8-4.4-2-9.6 1.9-12.8 2-1.7 5.4-2.7 7.9-2.4 1.5.2 3 1 4 2.1 1 1.2 2.9.8 3.4-.7.7-2 1.6-3.5 2.8-4.5 5.3-4.4 14.7.8 12.8 10.7-.9 4.4-3.9 8.5-6.9 11.9-2-.8-3.4-2-5.5-2.1-3.2-.2-4.8 2.6-2.3 5.4.7.8 1.7 1.5 3 2.3-1.4 1.7-1.2 1.6-1.4 1.8zm-13 7.2c-1.3-.6-4.1-2-3.6-3.3.1-.4.7-.5 1.6-.5 12.6.6 10.8.8 15.2.6 1.9-.1 7.7.1 7.7-3.5 0-.2-.1-.5-.3-.6-2.6-2-6.1-2.6-8.2-4.9-1.4-1.6-1.1-3.1 1.1-2.9 3.3.2 4.6 3.4 11.1 2.6 1.2-.1 3.2-.8 4.9-.8 2.2-.1 6 .2 8.5-.1 1.2 2.4 2.2 5 2.8 6.9-9 4.7-20.2 15.5-40.8 6.5zm41.3-.8c-1.5-.8-2-2.5-2.1-3 .7-.4 1.3-.8 2-1.2.3 1.8.3 3.6.1 4.2z"/><path d="m55.2 43.3c-.6 1.5.6 3.4 2.1 3.3s2.5-2.2 1.7-3.6c-.9-1.5-3.2-1.3-3.8.3z"/></g></svg>