<svg width="20" height="24" viewBox="0 0 20 24" fill="none" xmlns="http://www.w3.org/2000/svg">
<path d="M9.29194 23.7077L0.291942 14.7077C0.104301 14.52 -0.00111452 14.2655 -0.0011145 14.0002C-0.00111449 13.7348 0.104301 13.4803 0.291942 13.2927C0.479583 13.105 0.734079 12.9996 0.999442 12.9996C1.26481 12.9996 1.5193 13.105 1.70694 13.2927L8.99944 20.5864L8.99944 1.00015C8.99944 0.734936 9.1048 0.480582 9.29234 0.293046C9.47987 0.105509 9.73423 0.000152139 9.99944 0.000152151C10.2647 0.000152162 10.519 0.105509 10.7066 0.293046C10.8941 0.480582 10.9994 0.734936 10.9994 1.00015L10.9994 20.5864L18.2919 13.2927C18.4796 13.105 18.7341 12.9996 18.9994 12.9996C19.2648 12.9996 19.5193 13.105 19.7069 13.2927C19.8946 13.4803 20 13.7348 20 14.0002C20 14.2655 19.8946 14.52 19.7069 14.7077L10.7069 23.7077C10.6141 23.8006 10.5038 23.8744 10.3824 23.9247C10.261 23.975 10.1309 24.0009 9.99944 24.0009C9.86803 24.0009 9.7379 23.975 9.6165 23.9247C9.4951 23.8744 9.38482 23.8006 9.29194 23.7077Z" fill="white"/>
</svg>
