<svg id="Layer_1" enable-background="new 0 0 68 68" height="512" viewBox="0 0 68 68" width="512" xmlns="http://www.w3.org/2000/svg"><g id="_x31_1"><path d="m60.9261475 37.0402184c.3566322-1.5245628-.4265633-6.0705853-.2954712-25.8984375.0136032-2.0680561.0409355-4.8290539-1.2555542-6.6606445-.4420166-1.1942139-1.8517456-2.0629883-3.5836792-2.0791016l-7.4121094-.0683594c-1.1826172.0253906-2.3457031.40625-3.0644531 1.1162109-1.1327705 1.1240063-.6620712 2.1816902-.7802734 3.4455566-.65802-.4493408-1.5219116-.7331543-2.4931641-.7453613-9.7464142-.0909085-6.8996735-.0693359-7.4453125-.0693359-.958252 0-1.84198.2651367-2.52948.7275391-.288332-1.357666-1.7967548-2.3852539-3.6775532-2.4082031l-7.421875-.0693359c-.0107422 0-.0214844 0-.0322266 0-1.8635998 0-3.7949219 1.0959458-3.7949219 2.8710938l.1210938 38.4128418c-.4146729.1931152-.833313.364502-1.2557983.5157471-.2131958-.5404053-.4283447-1.0804443-.6680298-1.6121826-.6357422-1.4140625-2.3134766-2.1904297-3.9892578-1.8466797-2.8705778.5888367-3.9657788 1.045166-5.25 1.4511719-1.3808594.4365234-3.0986326.9804688-2.5712888 2.7666016 1.5635946 5.3021317 2.025305 11.4881058 3.2812498 15.3701172.1289063.3945313.5478516.6083984.9453125.4824219.3935547-.1279297.609375-.5507813.4824219-.9453125-1.2014003-3.7031403-1.6857948-9.9620743-3.2695313-15.3310547-.0791016-.2675781-.0458984-.3964844 1.5839844-.9130859 1.2663593-.3985901 2.295805-.835556 5.0986328-1.4121094.984375-.2011719 1.9755859.2275391 2.3212891.9941406 2.359375 5.2363281 3.3837891 10.9365234 2.9609375 16.4853516-.0175781.2373047-.1962891.4414063-.4052734.4648438-2.6389647.288044-5.500392.7240295-8.0810547 1.03125-.4111328.0498047-.7050781.4228516-.65625.8339844.0458984.3808632.3701172.6611366.7441406.6611366.0292969 0 .0595703-.0019531.0898438-.0048828.1665039-.0200195.3403931-.0450439.5079956-.0657959.69909.3642044 1.4937992 1.2454681 2.8983154 1.1124268 2.2307129-.2114258 4.3299561-.5985107 6.5281982-.9610596.7295532-.1203613 1.2494507-.6741943 1.2026367-1.3109169-.1083984-1.4737549-.2401733-2.9813232-.3399658-4.4423828 8.2352295 2.3415527 16.7644062 2.3891602 24.3325214.1103516 7.6756592-2.3109131 14.3362427-6.9956055 18.9734497-13.3449707.7285767-.9976807 1.4190674-2.0598145 1.7045898-3.3132324.1835327-.8056641.2476807-2.0202637-.1883545-2.9018555.2563324-1.928677-1.3792877-3.1028714-3.3157348-2.4484867zm-14.5556031-32.5249014c.4326172-.4287109 1.2040825-.7285156 1.9941406-.6816406l7.4130859.0683594c1.3242188.0126953 2.2509766.7265625 2.2548828 1.3623047l.352478 33.2329102c-2.2615318 1.6504288-4.1636734 3.5967484-6.4188843 4.6088867-1.9165688.8603096-5.0527573 2.1479492-6.135437 2.5751953.0059586-.8191757.0679054-9.2497444.0674438-9.1486816l.144165-31.3356934c.0000002-.2939454.1787112-.5332032.3281252-.6816407zm-13.7529297 3.7539062c.4287109-.4257813 1.1855469-.6884766 1.9785156-.6884766.8772392.0081878 7.8762474.073513 7.4287109.0693359 1.2226563.0146484 2.2558594.6376953 2.2558594 1.3632813l.1179199 27.4353027c-.0007439.1003227-.0778275 10.508831-.072937 9.848877-2.3790207.9715004-2.710968 1.187355-6.609436 2.0654297-.1001472.015934-1.2548599.3229294-3.1487427.3383789 2.102726-1.6906853 3.7945328-3.7396278 5.4260864-5.925293.0273438-.0322266.0507813-.0625.0644531-.0869141.1445465-.1445465 1.3611221-1.8614082 2.5947266-3.3710938 3.2414703-3.9943314-.1983833-6.9569702-3.5439453-5.9355469-2.6805267.81847-4.2461624 3.1246719-6.8173828 4.9135742v-29.3461912c.0000001-.2939453.1777344-.5322266.3261719-.6806641zm6.5556641 28.1982412c.1443024-.4477692.8210487-1.3794136 1.2092285-1.7868652 1.0737572-.0344086 1.7818642.5288811 2.0029297 1.0861816-.4890747.6054688-1.4112549 1.4858398-1.9318848 1.7719727-.3779297.2089844-.9394531.2382813-1.1865234-.0742188-.1757812-.2246093-.2138672-.6249999-.09375-.9970703zm-20.533205-29.2675771c0-.2949219.1777344-.5332031.3271484-.6816406.4277344-.4248047 1.1806641-.6875 1.9658203-.6875.8810081.0082111 7.8875198.0735121 7.4394531.0693359 1.2167969.0146484 2.2490234.6416016 2.2558594 1.3642578l.1627197 32.0087891c-2.6362457 1.5918121-4.9635334 2.3551064-5.0679932 2.3984375-4.2284279 1.5053596-4.4368191 1.8190842-6.9642944 3.190918zm-2.1178589 40.3386221c1.7080383-.6128769 3.2673588-1.5341187 4.8727417-2.423584 4.2763557-2.3501625 8.3743477-2.2882767 14.2255878-7.6005859.7352905-.666748 1.4868774-1.3442383 2.2799683-1.8764648-1.1211395 2.3289375.9780388 4.3625526 3.1793213 3.25354-3.10783 3.9170914-4.8850822 6.9273453-8.4954224 9.4285889-.0690918.0477295-.1200562.1101074-.1675415.1738281-.2839966-.0748291-.5353413-.1640625-.6967182-.2871094-.3300781-.2519531-.8007813-.1875-1.0517578.1416016-.2509766.3300781-.1875.8007813.1416016 1.0517578 1.727541 1.3154297 6.0498066.6933594 7.1152363.453125 4.6124001-1.194458 2.3174171-.2860832 8.5107422-2.7978516 7.6357574-3.0970726 7.5814705-3.1191216 10.8583984-5.796875.9438438-.7720108 4.0951958-3.455513 5.1123047-2.8251953 1.4505234.9291649-1.7254868 4.3421097-2.75 5.5849609-12.2722779 14.4285278-26.4857483 13.3117218-41.0188008 12.0986328-.0841675-.0505371-.1755981-.0848389-.2740479-.095459-.262268-2.8677978-.8807372-5.71875-1.8416137-8.4829101z"/><path d="m12.6654644 48.6100426c1.2558756-1.1016426.071372-3.0566978-.9414063-2.7294922-.9760151-.2821121-1.911026.2555084-2.1289063 1.1621094-.4101733 1.7155952 1.875661 2.6162605 3.0703126 1.5673828z"/><path d="m48.902771 11.1168795c1.6734238-.0924215 3.6385078-.0546179 5.3212891-.1474609.4466858-.0244761.7742119-.4324732.6982422-.8759766-.1367188-.8007813-.0009766-1.7910156.1376953-2.65625.0661278-.4151583-.271286-.9371734-.765625-.9667969-.9824219-.0546875-3.4628906-.1679688-5.2900391.0087891-.3740234.0351563-.6630859.3427734-.6767578.71875-.1032982 2.6701832-.4373589 3.2676239.0087891 3.7050781.1567001.1534376.3725662.2277126.5664062.2138672zm.8867187-3.1933594c1.2675781-.0703125 2.7431641-.0322266 3.6816406.0078125-.0673828.5136719-.1152344 1.0488281-.1035156 1.5742188-1.258358.0407238-2.486866.0375338-3.7089844.0771484.0389329-.5321207.0969239-1.1453324.1308594-1.6591797z"/><path d="m35.6234741 14.0143404c1.6734238-.0924215 3.6385078-.0546179 5.3212891-.1474609.2138672-.0117188.4121094-.1142578.5449219-.28125.4143524-.5171852-.1647797-.4052553.2910156-3.2509766.0669174-.4201126-.2763786-.937479-.765625-.9667969-.9814453-.0556641-3.4628906-.1669922-5.2900391.0087891-.3740234.0351563-.6630859.3427734-.6767578.71875-.0400009 1.0399389-.1748505 2.0657663-.2148438 3.1416016-.0185012.4431009.3600312.8080587.7900391.7773437zm.8876953-3.1933594c1.2646484-.0703125 2.7421875-.0322266 3.6806641.0078125-.0673828.5136719-.1152344 1.0478516-.1035156 1.5742188-1.258358.0407238-2.486866.0375338-3.7089844.0771484.0407906-.5506983.0931435-1.0946665.1318359-1.6591797z"/><path d="m21.3910503 12.0768404c1.6746292-.0924883 3.6394196-.0545616 5.3212891-.1474609.446167-.0244474.7738762-.4334641.6982422-.875-.1308594-.7685547-.0107422-1.7314453.1386719-2.6572266.0696335-.4272127-.2858582-.9396873-.7666016-.9667969-.9824219-.055664-3.4619141-.1679687-5.2900391.0087891-.3740234.0351563-.6630859.3427734-.6767578.71875-.1076298 2.7983656-.4324341 3.2695522.0087719 3.7050781.1567326.1534491.3726025.2277117.5664234.2138672zm.8876954-3.1933594c1.2666016-.0703125 2.7431641-.03125 3.6816406.0078125-.0693359.5283203-.1142578 1.0605469-.1035156 1.5742188-1.2587013.0407343-2.4875011.0375223-3.7099609.0771484.0407924-.5506983.0931472-1.0946665.1318359-1.6591797z"/><path d="m54.0668335 15.555356h-4.6591797c-.4140625 0-.75.3359375-.75.749999 0 .4140625.3359375.75.75.75h4.6591797c.4140625 0 .75-.3359375.75-.75 0-.4140615-.3359375-.749999-.75-.749999z"/><path d="m48.4076538 21.4928551h6.8798828c.4140625 0 .75-.3359375.75-.75s-.3359375-.75-.75-.75h-6.8798828c-.4140625 0-.75.3359375-.75.75s.3359375.75.75.75z"/><path d="m21.6371441 16.9303551c-.4140625 0-.75.3359375-.75.75s.3359375.75.75.75h4.6591797c.4140625 0 .75-.3359375.75-.75s-.3359375-.75-.75-.75z"/><path d="m20.6371441 22.8678551h6.8798828c.4140625 0 .75-.3359375.75-.75s-.3359375-.75-.75-.75h-6.8798828c-.4140625 0-.75.3359375-.75.75s.3359375.75.75.75z"/><path d="m40.2963257 19.8473473h-4.6591797c-.4140625 0-.75.3359375-.75.75s.3359375.75.75.75h4.6591797c.4140625 0 .75-.3359375.75-.75s-.3359375-.75-.75-.75z"/><path d="m34.637146 25.7848473h6.8798828c.4140625 0 .75-.3359375.75-.75s-.3359375-.75-.75-.75h-6.8798828c-.4140625 0-.75.3359375-.75.75s.3359375.75.75.75z"/></g></svg>