<svg id="Layer_1" enable-background="new 0 0 73 73" height="512" viewBox="0 0 73 73" width="512" xmlns="http://www.w3.org/2000/svg"><g id="_x34_3"><path d="m10.6981144 26.3558788c-1.3910818.4497128-2.0557575 1.8030415-2.4923706 3.0900879-3.3263254 9.8053875-.2420492 21.8269634 9.7572632 30.6704731-.8605957.4750366-1.7598267.947998-2.6307983 1.4224854-.3763428.2050171-.4811401.7177124-.2590942 1.1968994 1.8974934 4.0948181 2.1287003 4.742424 3.0198975 5.1748657l.6349487.3081055c.2185669.4189224.3697891.7484741.8510742.7484741.5576935 0 .9234104-.5935516.6660156-1.09375-.9059067-1.7562027-1.8227711-3.3592453-2.7275391-5.0800781 2.9248047-2.2792969 6.4941406-3.7460938 10.3642578-4.2539063 1.4472599-.2067528 1.7385235 2.6416473 2.8964844 5.3798828.2402344.5712891.6259766 1.4833984.6816406 1.8984375-.6075344.5215378-.079895 1.5061798.6904278 1.2919922 1.9079399-.5347137-.1291542-3.7206306-.5390606-5.2001953-.2441406-.8837891-.6103516-1.90625-1.0859375-3.0410156-.5029297-1.2021484-1.6962891-1.96875-2.8388672-1.8164063-.3320923.0435791-.657959.1064453-.9857788.163208-.5636406-2.3119316-.4132423-5.3616409-1.3433228-7.2218018-.6273937-1.5628853-1.1780186-2.4093819-1.1171875-3.8505859.3802776-2.6912041 1.8541813-5.6123924-.0732422-8.3066406-1.3157196-1.7635269-3.7715816-1.837059-4.6308594 1.21875-.6915398 2.4806557-1.7255459 4.8692665-2.0176392 7.6766968-1.0793896-2.208992-2.1921816-6.1379089-2.3690796-6.6747437-1.8985176-6.328392-.7868729-11.6284504-1.2412109-13.0761738-.4114293-1.3146247-2.0767793-1.9191322-3.2100219-.625061zm1.5879517.8242798c.3305464.1580887.2616129.9612694.2402344 1.3603516-.3633976 7.0983639.9412766 10.8000088 1.1943359 11.9746113.6815348 2.0403519 2.2431574 8.2137146 4.2519531 8.9863281.6320324.244812 1.2407742-.4097557.9389038-1.0274658.1678123-.97686-.2865086-1.5611534 1.1860962-6.1824951 1.0594673-2.7243462.8402081-4.2660522 2.0761719-4.1523438.9163933.1640244 1.4710312 1.7572823 1.4589844 2.8857422.0197334 1.405014-.5753956 2.8840408-.8115234 4.4140625-.2772236 1.6885376.1397667 2.7746849.8193359 4.3447266 1.4623985 3.378643.8360157 4.5633469 1.5886841 7.7345581-1.8140869.432373-3.5523071 1.0588379-5.1708374 1.8881226-6.6335049-9.250843-12.8796282-15.3514023-9.1697998-29.8521748.3984374-1.4228516.7719545-2.6739235 1.3974609-2.3740235z"/><path d="m63.8643723 26.9150829c-.2960205-.3300781-.7689209-.7102661-1.2869263-.8912354-1.1213417-1.3418636-2.7899666-.7331715-3.2259521.5557251-.4588051 1.354454.4501686 7.2210445-1.5371094 13.0224628-.6433983 1.9301949-1.5784988 4.7988777-2.5286255 6.6341553-.1362953-1.6914291-1.7249451-8.3263626-2.5836792-9.4007568-1.4309349-1.5522041-3.8638229-.8421669-4.6728516 2.0078125-.7956924 2.9705849.7736015 5.1803894.515625 7.3886719-.2218361 1.5050392-1.2985764 2.8563843-1.7626953 4.7871094-.384201 1.6832771-.4593658 3.7709808-.9190063 5.4841309-.3266602-.0644531-.651123-.1349487-.9823608-.1862793-1.1376953-.1796875-2.3486328.5615234-2.8798828 1.75-1.1737251 2.6197205-.7808876 2.3017807-1.7382813 4.4306641-.6777344 1.5068359-1.0761719 2.4667969-.7519531 3.1806641.3524017.7789841 1.3841057.831604 1.6103516.0908203.0869141-.2880859-.0068359-.5878906-.2158203-.7763672.1026154-.6398315 1.1203918-2.6343918 1.375-3.4765625.2480469-.8212891.6152344-1.7763672 1.0898438-2.8369141.2519531-.5644531.8105469-.953125 1.28125-.8798828 3.8574219.5976563 7.3916016 2.1474609 10.2626953 4.4931641-.9400406 1.6925163-1.9240379 3.3232346-2.8447266 5.0175781-.4054298.7429504.685276 1.8664169 1.507019.3797607l.6436157-.2940674c.9412079-.4300232 1.2316856-1.2254944 3.1392212-5.1033936.2330933-.473877.1401978-.9888916-.2312622-1.2025757-.8596802-.4945679-1.7477417-.9882202-2.5970459-1.4831543 4.6777344-3.9474487 8.2073364-8.9364624 10.0554199-14.2424316 2.9069976-8.3465004.9646606-16.5685348-.7218628-18.4490986zm-14.7716675 22.2318745c.613945-1.3312416 1.0165977-2.2721825.9863281-3.6757813-.0258751-2.1217918-1.6925201-5.1732254-.0527344-7.3574219.3795242-.4839668.8506584-.7755585 1.3652344-.4443359 1.1368675.6784515 2.2773323 9.0508957 2.4606323 10.2763062-.3181458.6132584.2838249 1.2791862.9143677 1.0488892 1.9521675-.6994629 3.6930809-6.5684547 4.4726563-8.9228516 2.3112907-6.7745857.9182625-12.8858795 1.7304688-13.2607441.8010979-.3572464 1.4329987 2.8433151 1.6074219 3.5410156 1.2841339 5.5274944.6150475 11.3730755-1.3691406 15.7382832-1.8977318 4.4263-5.6293335 8.9811172-8.7178345 12.710144-.0194702.0108643-.0355835.0264893-.053894.0392456-1.5941772-.8624268-3.3114624-1.5265503-5.1091309-1.9995728.8504485-3.2389335.2008246-4.2813987 1.7656249-7.6931762z"/><path d="m40.9215622 9.9306479c-.0720215-.883667-.246521-2.7666016-1.242981-3.2366943-.5483398-.5767822-1.3190308-.9415283-2.1776733-.9415283h-1.4619141c-1.6523438 0-2.9960938 1.34375-2.9960938 2.9951172v10.0927725h-9.578123c-2.0576172 0-3.7324219 1.6748047-3.7324219 3.7324219s1.6748047 3.7324219 3.7324219 3.7324219h9.5781231v24.4326191c0 1.6513672 1.34375 2.9951172 2.9960938 2.9951172h1.4619141c1.0773315 0 2.0164185-.5719604 2.5474854-1.4222412 1.1541862-1.1930962 1.1946335-3.0060959 1.2019043-4.6678467.0296021-6.7740479.0592651-13.5480347.0889282-20.3220234.1347427.0121975 4.9243469.0828533 8.3041992-.2244263 4.607605-.6210461 4.9257965-3.8241138 3.9685669-5.6560059-.4829712-1.5021973-1.8775024-2.6000366-3.5378418-2.6000366h-8.9557495c.105049-2.5500413.0479087-5.9070131-.1968385-8.9096671zm-6.3786621 40.8071298v-25.1826191c0-.4140625-.3359375-.75-.75-.75h-10.3281231c-1.2314453 0-2.2324219-1.0009766-2.2324219-2.2324219s1.0009766-2.2324219 2.2324219-2.2324219h10.3281231c.4140625 0 .75-.3359375.75-.75v-10.8427724c0-.8242188.6708984-1.4951172 1.4960938-1.4951172h1.4619141c.8310547 0 1.5068359.6708984 1.5068359 1.4951172v10.8427725c0 .4140625.3359375.75.75.75h10.3164063c2.9621506 0 2.9156532 4.4648438 0 4.4648438h-10.3164064c-.4140625 0-.75.3359375-.75.75v25.1826191c0 .8242188-.6757813 1.4951172-1.5068359 1.4951172h-1.4619141c-.8251953-.0000001-1.4960937-.6708985-1.4960937-1.4951173z"/><path d="m48.6542282 10.5619955 2.8945313-5.4267578c.1943359-.3652344.0566406-.8193359-.3095703-1.0146484-.3662109-.1933596-.8183594-.0576172-1.0146484.3095703l-2.8945313 5.4267578c-.4660111.875822.8561668 1.5805759 1.3242187.7050781z"/><path d="m59.0975876 12.2270346c.3300781-.2509766.3935547-.7216797.1425781-1.0507813-.25-.3300781-.7216797-.3945313-1.0507813-.1425781l-4.5166016 3.4423828c-.5677414.4316874-.263504 1.3466797.4550781 1.3466797.4538728 0 .2517167-.0698834 4.9697267-3.5957031z"/><path d="m20.621027 6.2397299c-.4650135-.8739448-1.790638-.1765447-1.3261719.703125.9326172 1.7578125 2.1386719 3.3447266 3.5839844 4.7148438.7128201.6791058 1.7514114-.4051409 1.03125-1.0878906-1.3261719-1.2587892-2.4335938-2.7158204-3.2890625-4.3300782z"/><path d="m12.4149723 15.0317221c5.6115837 2.5818148 5.4344273 2.5947256 5.7460938 2.5947256.8013115 0 1.0393925-1.094553.3164063-1.4296875l-5.4296875-2.5244131c-.375-.1738281-.8212891-.0136719-.9960938.3632813-.1748047.3759765-.0126954.821289.3632812.9960937z"/></g></svg>