<?xml version="1.0" encoding="iso-8859-1"?>
<!-- Generator: Adobe Illustrator 19.0.0, SVG Export Plug-In . SVG Version: 6.00 Build 0)  -->
<svg version="1.1" id="Capa_1" xmlns="http://www.w3.org/2000/svg" xmlns:xlink="http://www.w3.org/1999/xlink" x="0px" y="0px"
	 viewBox="0 0 512 512" style="enable-background:new 0 0 512 512;" xml:space="preserve">
<g>
	<g>
		<path d="M131.57,350.952c-1.543-14.673-5.44-34.963-24.378-34.48c-19.218,0.49-27.069,19.668-28.226,36.057
			c-1.608,22.765-4.104,49.864-0.129,72.422c3.024,17.162,26.996,13.235,40.28,13.468c3.836,0.067,7.928-0.354,10.664-3.387
			c3.07-3.404,2.765-8.035,3.017-12.3C134.215,398.761,134.084,374.854,131.57,350.952z M103.659,375.242
			c-0.078,8.633-0.157,17.266-0.235,25.899c-0.076,8.337-0.642,16.867-0.236,25.221c-5.954-0.333-11.911-0.615-17.869-0.673
			c0.997-16.858,1.718-33.678,2.117-50.578c0.089-3.764-0.034-7.944-0.054-12.258c5.455,0.404,10.917,0.652,16.382,0.816
			L103.659,375.242z M103.903,348.264l-0.081,8.892c-5.475,0.237-10.946,0.559-16.408,1.035
			c0.242-11.199,1.903-22.623,10.298-29.571c1.917-1.587,4.162-2.836,6.5-3.561C103.599,332.716,103.972,340.648,103.903,348.264z
			 M109.332,347.184c-0.198-7.502,0.018-15.287-0.724-22.812c2.868,0.022,5.666,1.009,7.983,3.348
			c4.975,5.023,5.803,13.379,6.428,20.03c0.274,2.914,0.503,5.832,0.712,8.752c-4.72,0.136-9.44,0.264-14.159,0.428
			C109.492,353.681,109.417,350.433,109.332,347.184z M124.327,404.529c-0.247,5.361-0.601,10.717-1.059,16.065
			c-0.125,1.468,0.148,5.648-1.225,6.615c-1.084,0.763-4.776-0.047-5.994-0.112c-1.592-0.085-3.186-0.176-4.779-0.268
			c0.32-8.51-0.399-17.199-0.608-25.687c-0.222-8.993-0.443-17.986-0.665-26.978c-0.085-3.447-0.172-6.893-0.255-10.34
			c4.818,0.102,9.637,0.166,14.456,0.241C124.907,377.54,124.949,391.054,124.327,404.529z"/>
	</g>
</g>
<g>
	<g>
		<path d="M496.445,306.873c7.806-3.523,13.955-11.692,12.963-20.537c-0.629-5.608-5.262-7.39-9.688-10.06
			c-4.901-2.955-9.812-5.889-14.837-8.629c-40.199-21.923-82.735-42.095-126.841-54.878c-1.032-16.898-2.329-33.771-4.003-50.598
			c0.842,0.466,1.682,0.935,2.53,1.39c8.12,4.357,17.159,7.301,26.373,5.041c8.399-2.06,15.389-8.407,16.493-17.215
			c1.153-9.199-3.809-17.613-10.833-23.171c-8.526-6.746-19.345-10.687-29.093-15.3c-11.34-5.368-22.716-10.656-34.091-15.949
			c-21.7-10.097-43.404-20.186-65.18-30.118c0.717-0.87,1.169-2.041,1.17-3.527c0.004-10.235-0.139-20.472-0.221-30.708
			c3.586-0.11,7.168-0.291,10.744-0.569c7.12-0.555,7.092-11.804,0-11.119c-3.705,0.358-7.399,0.608-11.089,0.768
			c-0.012-0.24-0.02-0.48-0.033-0.72c0.213-5.395,0.518-10.79,0.928-16.186c0.496-6.53-9.239-6.237-10.015,0
			c-0.707,5.679-1.217,11.374-1.583,17.077c-4.986-0.062-9.975-0.315-14.984-0.798c-7.071-0.683-7.004,10.333,0,11.034
			c2.817,0.282,5.638,0.428,8.456,0.44c2.007,0.076,4.014,0.13,6.023,0.161c-0.287,10.205-0.082,20.424,0.58,30.62
			c0.097,1.5,0.654,2.687,1.466,3.565c-21.749,9.919-43.425,19.996-65.098,30.08c-11.375,5.293-22.751,10.581-34.091,15.949
			c-9.748,4.614-20.567,8.555-29.093,15.3c-7.024,5.558-11.986,13.972-10.833,23.171c1.104,8.808,8.094,15.156,16.493,17.215
			c9.214,2.26,18.253-0.685,26.373-5.041c0.848-0.455,1.688-0.924,2.53-1.39c-1.674,16.827-2.971,33.7-4.003,50.598
			c-44.106,12.783-86.641,32.955-126.841,54.878c-5.025,2.74-9.936,5.674-14.837,8.629c-4.426,2.669-9.059,4.451-9.688,10.06
			c-0.992,8.845,5.157,17.014,12.963,20.537c5.521,2.492,11.399,2.456,17.126,1.219c-0.819,21.453,0.682,43.073,1.434,64.502
			c0.795,22.698,1.966,45.385,2.992,68.073c0.437,9.648-0.675,21.056,2.561,30.282c0.686,1.955,1.677,3.679,2.894,5.192
			c-0.734,0.013-1.467,0.018-2.201,0.033c-7.269,0.148-15.894-0.526-22.215,3.792c-6.195,4.232-7.254,12.189-3.127,18.288
			c4.822,7.126,13.754,7.945,21.578,8.716c59.269,5.839,117.916,2.636,177.285,3.069c59.742,0.436,119.496,3.318,179.236,1.18
			c27.489-0.984,54.79-1.54,82.282-4.249c7.824-0.771,16.756-1.59,21.578-8.716c4.127-6.099,3.068-14.056-3.127-18.288
			c-6.32-4.318-14.946-3.644-22.215-3.792c-0.734-0.015-1.467-0.02-2.201-0.033c1.217-1.513,2.208-3.237,2.894-5.192
			c3.236-9.227,2.124-20.635,2.561-30.282c1.027-22.688,2.197-45.375,2.992-68.073c0.751-21.43,2.253-43.049,1.434-64.502
			C485.045,309.329,490.924,309.364,496.445,306.873z M144.928,157.827c-6.614,2.314-17.465,2.956-21.004-4.828
			c-3.824-8.409,5.479-16.379,11.727-20.06c18.076-10.649,37.74-19.15,56.442-28.666c21.333-10.855,42.662-21.719,63.908-32.744
			c21.246,11.024,42.575,21.888,63.908,32.743c18.702,9.516,38.366,18.017,56.442,28.666c6.248,3.681,15.551,11.651,11.727,20.06
			c-3.539,7.784-14.39,7.142-21.004,4.828c-9.619-3.365-18.51-9.675-27.435-14.522c-9.046-4.913-18.129-9.733-27.343-14.325
			c-10.418-5.192-21.324-9.718-31.529-15.297c-6.477-3.541-12.81-10.409-20.459-11.089c-9.324-0.829-20.225,7.134-28.421,10.815
			c-10.876,4.883-21.511,10.255-32.18,15.572c-9.214,4.592-18.297,9.413-27.343,14.325
			C163.438,148.152,154.547,154.461,144.928,157.827z M302.035,472.354c-10.535-36.175,15.378-85.013-19.669-112.93
			c-13.213-10.525-30.82-10.391-44.529-0.819c-15.459,10.794-21.962,28.445-23.553,46.633c-1.001,11.451,0.204,22.906,1.051,34.327
			c0.875,11.798,1.141,23.531,0.316,35.323c-4.826,0.109-9.643,0.288-14.436,0.58l-14.204-0.087
			c-5.502-0.034-11.219,0.27-16.539-1.389c-11.539-3.599-9.305-19.09-9.359-28.571c-0.076-13.313-0.094-26.627-0.056-39.94
			c0.155-53.612,0.699-107.21,2.084-160.806c0.746-28.869,1.807-57.714,1.981-86.591c6.9-4.038,13.724-8.211,20.817-11.931
			c22.958-12.038,46.893-22.002,70.06-33.563c23.168,11.562,47.103,21.526,70.06,33.563c7.093,3.719,13.917,7.893,20.817,11.931
			c0.174,28.877,1.235,57.721,1.981,86.591c1.385,53.596,1.929,107.194,2.084,160.806c0.039,13.313,0.02,26.627-0.056,39.94
			c-0.054,9.481,2.18,24.972-9.359,28.571c-5.32,1.659-11.037,1.355-16.539,1.389c-6.385,0.039-12.77,0.079-19.155,0.118
			c-1.258,0.008-2.517,0.01-3.775,0.015C302.347,474.589,302.377,473.529,302.035,472.354z M291.068,475.378
			c0.016,0.059,0.038,0.113,0.055,0.171c-4.387,0.018-8.774,0.052-13.158,0.144c-5.46-0.148-10.918-0.267-16.373-0.384
			c0.925-8.852-0.023-18.098-0.267-26.943c-0.286-10.377-0.572-20.753-0.858-31.13c-0.522-18.956-0.883-37.916-1.296-56.875
			c6.016-0.372,12.109,1.336,17.521,5.831c13.76,11.427,15.845,30.083,14.879,46.821
			C290.364,433.926,285.513,454.657,291.068,475.378z M252.558,475.111c-10.298-0.234-20.757-0.435-31.213-0.323
			c5.111-16.821,2.518-34.982,2.336-52.31c-0.177-16.864,0.642-35.958,12.097-49.467c4.801-5.662,11.148-9.924,17.9-11.738
			c-0.189,18.655-0.331,37.311-0.63,55.964c-0.16,10.019-0.32,20.037-0.481,30.057C252.422,456.406,251.521,465.994,252.558,475.111
			z M20.644,298.808c-4.589-1.656-8.701-5.718-8.278-10.543c23.915-12.326,47.406-25.414,71.611-37.192
			c22.933-11.158,46.415-21.108,69.6-31.714c-0.552,9.664-1.023,19.335-1.431,29.009c-24.607,10.274-49.359,20.201-73.822,30.818
			c-12.753,5.535-25.235,11.889-38.123,17.082C34.268,298.66,26.977,301.093,20.644,298.808z M38.093,306.586
			c2.218-0.746,4.388-1.613,6.473-2.528c11.169-4.903,22.121-10.317,33.272-15.271c24.419-10.849,49.093-21.107,73.926-30.965
			c-0.852,22.245-1.422,44.496-1.952,66.703c-0.686,28.782-1.112,57.562-1.054,86.353c0.029,14.033,0.102,28.067,0.277,42.099
			c0.11,8.836,0.771,17.844,6.474,24.287c-28.198-1.019-56.46-1.205-84.624-1.888c-7.515-0.182-17.847,0.655-20.182-8.338
			c-1.11-4.275-0.971-9.02-1.259-13.404c-0.355-5.402-0.71-10.805-1.065-16.208c-1.396-21.251-2.653-42.516-4.264-63.751
			C42.42,351.346,41.48,328.746,38.093,306.586z M470.571,485.149c3.673,0.232,22.958-0.247,18.608,7.674
			c-2.104,3.833-7.783,4.35-11.658,4.839c-4.231,0.534-8.477,0.976-12.719,1.417c-9.191,0.956-18.397,1.764-27.614,2.424
			c-18.067,1.295-36.19,1.761-54.301,1.732c-51.514,0-103.286-0.449-154.855-2.083c-33.117-1.05-65.795,2.03-98.917,2.083
			c-18.111,0.029-36.234-0.436-54.301-1.732c-9.217-0.661-18.423-1.469-27.614-2.424c-4.242-0.441-8.487-0.884-12.719-1.417
			c-3.876-0.489-9.554-1.007-11.658-4.839c-4.35-7.921,14.935-7.443,18.608-7.674c5.067-0.32,10.126-0.699,15.183-1.11
			c0.18,0.037,0.358,0.08,0.539,0.114c9.674,1.817,19.96,1.143,29.757,1.347c11.039,0.23,22.078,0.461,33.118,0.69
			c56.905,1.185,113.828,1.108,170.742,0.764c28.168-0.171,56.336-0.409,84.504-0.594c26.035-0.17,53.943,2.621,79.577-2.208
			c0.18-0.034,0.359-0.077,0.539-0.114C460.445,484.449,465.504,484.829,470.571,485.149z M467.888,373.675
			c-1.612,21.235-2.869,42.5-4.264,63.751c-0.355,5.402-0.71,10.805-1.065,16.208c-0.288,4.384-0.149,9.129-1.259,13.404
			c-2.336,8.993-12.667,8.155-20.182,8.338c-28.164,0.684-56.427,0.869-84.625,1.888c5.703-6.443,6.364-15.451,6.474-24.287
			c0.174-14.032,0.248-28.066,0.277-42.099c0.059-28.79-0.368-57.571-1.054-86.353c-0.53-22.207-1.099-44.459-1.952-66.703
			c24.833,9.859,49.507,20.117,73.926,30.965c11.151,4.954,22.103,10.368,33.272,15.271c2.085,0.915,4.255,1.782,6.473,2.528
			C470.522,328.746,469.582,351.346,467.888,373.675z M471.8,296.268c-12.888-5.193-25.369-11.548-38.122-17.082
			c-24.463-10.617-49.215-20.544-73.822-30.818c-0.409-9.674-0.88-19.345-1.431-29.009c23.185,10.606,46.667,20.556,69.6,31.714
			c24.205,11.778,47.696,24.866,71.611,37.192c0.422,4.825-3.689,8.887-8.278,10.543C485.025,301.093,477.734,298.66,471.8,296.268z
			"/>
	</g>
</g>
<g>
	<g>
		<path d="M432.13,414.108c0.697-20.437,2.319-41.577,0.906-61.579c-1.158-16.389-9.009-35.567-28.226-36.057
			c-18.938-0.483-22.835,19.808-24.378,34.48c-2.513,23.901-2.645,47.809-1.228,71.78c0.252,4.265-0.053,8.896,3.017,12.3
			c2.736,3.033,6.827,3.454,10.664,3.387c9.661-0.169,24.394,1.674,33.465-1.756C435.097,433.355,431.836,422.746,432.13,414.108z
			 M402.004,374.163c-0.221,8.993-0.443,17.986-0.665,26.978c-0.209,8.488-0.928,17.177-0.608,25.687
			c-1.593,0.092-3.186,0.183-4.779,0.268c-1.219,0.065-4.91,0.875-5.994,0.112c-1.373-0.966-1.1-5.147-1.225-6.615
			c-0.457-5.348-0.811-10.704-1.059-16.065c-0.622-13.475-0.58-26.989,0.128-40.465c4.819-0.075,9.638-0.14,14.456-0.241
			C402.176,367.269,402.089,370.716,402.004,374.163z M402.669,347.185c-0.086,3.249-0.16,6.497-0.24,9.746
			c-4.718-0.164-9.439-0.292-14.159-0.428c0.209-2.92,0.439-5.838,0.712-8.752c0.625-6.652,1.453-15.007,6.428-20.03
			c2.317-2.34,5.115-3.327,7.982-3.348C402.651,331.897,402.867,339.683,402.669,347.185z M408.099,348.264
			c-0.069-7.616,0.304-15.548-0.309-23.205c2.338,0.725,4.583,1.974,6.5,3.561c8.395,6.948,10.056,18.372,10.297,29.571
			c-5.462-0.477-10.933-0.798-16.408-1.035L408.099,348.264z M408.814,426.363c0.406-8.354-0.16-16.884-0.236-25.221
			c-0.078-8.633-0.157-17.266-0.235-25.899l-0.105-11.573c5.465-0.164,10.927-0.413,16.382-0.816
			c-0.02,4.314-0.143,8.494-0.054,12.259c0.4,16.9,1.12,33.72,2.117,50.578C420.725,425.747,414.768,426.03,408.814,426.363z"/>
	</g>
</g>
<g>
	<g>
		<path d="M314.49,172.96c-3.359-13.34-16.288-19.59-29.246-16.603c-12.58,2.9-20.79,13.367-27.646,23.675
			c-7.586-8.836-16.248-17.279-27.68-20.605c-10.121-2.945-22.418-1.537-30.271,5.973c-21.263,20.337,4.204,51.199,20.392,64.947
			c4.931,4.188,10.106,8.085,15.332,11.893c5.479,3.992,11.058,8.777,17.608,10.859c12.991,4.129,25.286-4.15,34.373-12.725
			c9.271-8.749,16.608-19.565,21.569-31.284C313.57,198.11,317.495,184.893,314.49,172.96z M300.329,203.631
			c-3.842,8.902-9.247,17.186-15.907,24.231c-6.35,6.717-15.167,15.42-25.009,15.854c-5.4,0.238-9.797-3.075-14.055-5.983
			c-4.26-2.91-8.511-5.837-12.665-8.899c-8.813-6.497-17.378-13.788-23.895-22.659c-5.754-7.833-10.977-19.452-6.507-29.036
			c4.277-9.171,16.256-11.388,25.21-8.947c10.965,2.99,19.605,11.394,27.363,19.299c1.307,2.826,5.936,4.164,8.15,0.667
			c5.128-8.098,10.731-17.427,19.892-21.462c8.921-3.929,19.938-1.693,22.358,8.805C307.39,184.719,303.964,195.208,300.329,203.631
			z"/>
	</g>
</g>
<g>
</g>
<g>
</g>
<g>
</g>
<g>
</g>
<g>
</g>
<g>
</g>
<g>
</g>
<g>
</g>
<g>
</g>
<g>
</g>
<g>
</g>
<g>
</g>
<g>
</g>
<g>
</g>
<g>
</g>
</svg>
