<?xml version="1.0" encoding="UTF-8"?><svg id="Layer_2" xmlns="http://www.w3.org/2000/svg" viewBox="0 0 138.26 142.15"><defs><style>.cls-1{stroke-width:0px;}</style></defs><g id="Layer_1-2"><path class="cls-1" d="m91.31,86.4c23.26,6.08,44.44-13.87,46.67-36.24,1.14-11.44-1.1-27.1-9.49-35.67C120.14,5.95,105.63,2.31,94.18.75c-24.51-3.34-49.67,4.62-67.88,21.36C8.26,38.69-5.28,65.54,2.02,90.34c3.4,11.54,11.61,22.32,23.04,26.77,6.96,2.7,14.48,2.96,21.56,5.16,3.11.97,6.2,2.49,8.59,4.75,1.61,1.52,4.94,5.27,4.22,7.8s-1.38,6.73,2.17,7.3c3.18.51,6.59-3.82,7.33-6.42,2.86-9.99-.84-19.23-10.06-24.41s-20.81-3.82-30.16-8.96c-19.08-10.48-21.62-35.19-12.31-53.11,9.25-17.8,27.32-29.97,46.73-33.99,11.02-2.28,22.49-1.91,33.43.63,10.28,2.39,23.05,6.53,27.29,17.16,3.84,9.61,6.51,24.22-1.07,32.76-6.52,7.33-17.14,9.29-26.33,6.89-5.48-1.43-11.85,11.98-5.16,13.72h0Z"/></g></svg>