<svg id="Layer_1" enable-background="new 0 0 72 72" height="512" viewBox="0 0 72 72" width="512" xmlns="http://www.w3.org/2000/svg"><g id="Email"><g><path d="m6.7862172 33.1273422c-1.0792847.9934082-1.3955688 1.7745361-2.5327148 3.3571777-.5090332 10.5217896-.0999756 20.7961426.1000366 31.0942383 19.3429165.6111908 22.9874382-.3419189 49.0908813.2999268.9910889-.8860474 1.8918457-1.2310181 2.7814331-2.3640747.3758049-.1785583.4403915-.4927521.4220581-.9039307-.4595985-9.9614677.8778648-19.6707916.2963257-29.862793-.020916-.3613892-.5190277-.7756462-.7260742-.9106445-1.211853-.7894897-2.473999-1.6986084-3.7595215-2.6983013 5.332737.1742268 11.9165878-1.7984695 14.4517822-7.2418213 2.9230118-6.2761459.1419144-15.7467117-11.0545654-18.8982544-4.9741211-1.3979492-9.878418-1.1191406-13.8100586.7895508-3.7393188 1.8154907-6.5518188 5.2673335-7.5418701 9.0406494-.9329834-.8106689-1.8842163-1.6139526-2.8580322-2.3897705-.0108643-.008667-.024353-.0103149-.0355225-.0182495-.0140381-.0144043-.0203247-.0332031-.0357666-.0466919-.3120117-.2739258-.7861328-.2407227-1.0581055.0708008-7.4300846 8.4977646-22.5944676 18.687582-23.7302856 20.682188zm24.9301143 9.8428955c6.7796097 6.7211647 15.581398 14.2789803 22.4894409 21.0490112-2.9291763-.137558-39.5298538-.9024887-44.0602417-.4407349 6.956665-7.0496825 15.0601807-14.6129149 21.5708008-20.6082763zm23.7711792-6.946228c.3760071 8.7836723-.5053749 16.6005783-.4345093 25.0789795-.5638199-1.2380753-12.8266487-10.6804276-13.8968506-11.4995728 4.6862908-4.6331558 9.551342-8.8829765 14.3313599-13.5794067zm-47.2956534 27.397644c.0678272-9.8536568.7316408-18.5982971.0947876-28.0057983 4.7943201 4.8029938 9.3286695 9.3684349 14.5142813 13.7895508-4.8934936 4.5966186-10.0319204 9.5397339-14.6090689 14.2162475zm34.5092154-56.2836289c3.8899269-1.8892107 8.509449-1.8878288 12.7485352-.6948242 8.1921043 2.3048377 13.4703369 9.0089226 9.1831665 16.555542-3.4478645 5.1831646-9.8047981 5.9880123-15.9102173 4.9654541-.3251953-.0551758-.6513672.1108398-.7973633.4091797-1.2231445 2.4916992-3.6298828 4.3530254-6.3022461 4.9907207 1.4350586-2.025877 1.9667969-4.0180645 1.6230469-6.0498028-.0541992-.3232422-.3120117-.5732422-.6367188-.6181641-3.9667969-.5473633-7.1665039-4.8125-6.987793-9.3134766.1645508-4.1518558 3.0097657-8.2690433 7.0795899-10.2446288zm-11.5500488 6.8349605c1.0357666.8366089 2.0523071 1.6950684 3.0336304 2.5661631-.6083946 5.5220566 3.1454163 10.5701084 7.6453247 11.541748.1381836 1.8720703-.6923828 3.7631836-2.527832 5.7626934-.4384575.4784126-.1020699 1.2573242.5527344 1.2573242.0063477 0 .0131836 0 .0200195-.0004883.0025635-.000061.0050049-.0006714.0075684-.0007324 1.5745239.2300415 3.5340576.0031128 5.1141357-.0153198 1.9708252-1.2016602 3.3692627-2.4064941 4.9581299-4.0340557 1.5625954 1.2937183 3.0667992 2.4412174 4.7880249 3.6028423-4.8567467 4.7979889-9.9619789 9.2436066-14.7890015 14.0290527-.8977623-.680809-5.9505424-5.5406189-7.6608887-7.2507324-.3281593-.3281593-.8595753-.2397919-1.1308594.0097656-2.2503052 2.0706787-4.7162476 4.3533936-7.2593384 6.7336426-5.4270744-4.6145325-10.2127695-9.4683037-15.3433828-14.6089478 7.2872696-6.5958881 15.9971075-12.262331 22.5917349-19.5929555z"/><path d="m42.6273422 15.2366571h16.0571289c.4140625 0 .75-.3359375.75-.75s-.3359375-.75-.75-.75h-16.0571289c-.4140625 0-.75.3359375-.75.75s.3359375.75.75.75z"/><path d="m58.5125961 18.7381229h-8.909668c-.4140625 0-.75.3359375-.75.75s.3359375.75.75.75h8.909668c.4140625 0 .75-.3359375.75-.75s-.3359375-.75-.75-.75z"/></g></g></svg>