<?xml version="1.0" encoding="UTF-8"?><svg id="Layer_2" xmlns="http://www.w3.org/2000/svg" viewBox="0 0 121.58 169.28"><defs><style>.cls-1{stroke-width:0px;}</style></defs><g id="Layer_1-2"><path class="cls-1" d="m5.39,103.72c31.38-30.78,63.55-60.75,96.47-89.88l-5.51-4.48c4.24,40.29,9.6,80.45,18.25,120.06.55,2.54,2.84,4.87,5.13,2.69,2.48-2.36,1.98-7.34,1.35-10.26-8.38-38.39-13.38-77.43-17.49-116.48-.3-2.81-2.34-7.29-5.51-4.48C65.15,30.02,32.98,59.99,1.6,90.76c-3.37,3.3-1.09,17.74,3.79,12.95h0Z"/><path class="cls-1" d="m19.42,139.09c20.21-22.04,40.43-44.07,60.64-66.11-1.84-1.49-3.67-2.99-5.51-4.48,5.7,31.77,11.4,63.55,17.1,95.32.38,2.14,1.58,6.49,4.61,5.24,2.79-1.16,3.04-6.91,2.62-9.23-5.7-31.77-11.4-63.55-17.1-95.32-.41-2.26-2.43-7.83-5.51-4.48-20.21,22.04-40.43,44.07-60.64,66.11-2.27,2.47-2.3,7.25-1.35,10.26.71,2.26,2.8,5.24,5.13,2.69h0Z"/></g></svg>