<?xml version="1.0" encoding="UTF-8"?><svg id="Layer_2" xmlns="http://www.w3.org/2000/svg" viewBox="0 0 142.23 162.55"><defs><style>.cls-1{stroke-width:0px;}</style></defs><g id="Layer_1-2"><path class="cls-1" d="m2.06,119.71c16.83-.88,33.66-4.11,50.03-7.97,17.84-4.2,35.41-10.1,51.24-19.5,17.37-10.32,32.22-25.89,37.44-45.84,4.35-16.61-.56-39.07-20.68-41.32-23.83-2.67-38.34,20.3-48.03,38.32l6.49,2.02c5.31-13,1.62-28.03-8.64-37.54C64.36,2.74,56.86-.92,49.14.21c-7.2,1.05-13.47,5.9-17.67,11.66-10.57,14.49-11.34,34.95-9.82,52.14,1.46,16.57,5.32,32.92,11.48,48.37,7.18,17.98,17.26,34.62,29.93,49.25,3.33,3.85,9.82-5.22,6.98-8.5-23.23-26.84-38.06-60.94-40.5-96.47-.94-13.71-1.41-46.18,19.02-46.36,15.83-.14,28.67,20.22,22.85,34.46-2.4,5.89,3.88,6.87,6.49,2.02,7.65-14.22,17.49-32.03,36.15-31.54s23.25,21.54,17.78,36.36c-11.39,30.84-49.37,43.39-78.53,50.2-15.49,3.62-31.44,6.8-47.36,7.63-4.37.23-8.56,10.54-3.87,10.29h0Z"/></g></svg>