<svg id="Layer_1" enable-background="new 0 0 68 68" height="512" viewBox="0 0 68 68" width="512" xmlns="http://www.w3.org/2000/svg"><g id="_x32_6"><path d="m64.3733902 12.1303635c-.6230469-.4394531-1.5244141-.3779297-2.1904297.1601563-1.3595009 1.0996351-2.1659775 5.290781-2.7900391 7.5087891-.3359375 1.2011719-.8408203 2.3466797-1.4882813 3.3886719.2303047-4.4112511.7987747-4.9005013.0097656-15.0625-.0488281-.6337895-.1044922-1.3525395-.4091797-2.0371099-.957962-2.1541932-3.5779572-2.0927997-4.5332031.2851563-.0999107-.9678674-.1786957-1.8808279-.6298828-2.7011716-.5107422-.9248047-1.4306641-1.4697266-2.3310547-1.4003906-.8710938.0703125-1.6816406.7265625-2.0634766 1.671875-.3027344.7460935-.3222656 1.5292966-.3398438 2.2207029-.3467484 13.3602448-.291069 13.1297455-.4179688 14.2460938-1.5545652-11.9562681-1.5673406-12.7654727-2.2822263-13.8115237-1.1047592-1.6251292-3.5440292-1.545053-4.0898438 1.4941411-1.0779572 6.0093994 1.9741211 10.660265.4376831 20.072998-1.0712051-2.1108818-1.0806961-4.8733959-2.5783081-7.0495605-.7636719-1.109375-1.7988281-1.6328125-2.7744141-1.4072266-.8642578.2041016-1.671875 1.2363281-1.9013672 1.8720703-.9279404 2.5846043.1199036 5.859148 1.2451172 8.3525391 2.2208977 4.9276199 2.1305084 4.4740067 5.8417969 10.3623047 1.8144531 2.8798828 3.59375 6.015625 4.3203125 9.4335938.0751953.3525391.3857422.59375.7324219.59375.4808311 0 .8328743-.4417229.734375-.90625-1.5364799-7.2367554-7.0618439-12.5735703-9.796875-19.0478516-.5214462-1.2401905-2.7186699-5.3540859-1.6650391-8.2802734.1220703-.3398438.6220703-.8623047.8320313-.9189453.3808594-.0947266.8779297.3339844 1.1953125.7958984 1.5817642 2.2969589 1.2763367 5.8483734 3.4076538 8.2634277-.0823364.3613281-.1638794.7227783-.2582397 1.0822754-.1054688.4003906.1347656.8105469.5351563.9160156.3964844.1044922.8105469-.1337891.9160156-.5351563 2.9672661-11.3060341-.8490448-17.1947517.2529297-23.3339844.2684364-1.495296.9259415-1.573544 1.3740234-.9150395.4406891.645494.6086998 1.860045 2.4853516 16.6386719.0419922.3222656.2871094.5810547.6064453.640625.3154297.0585938.640625-.0927734.7958984-.3779297 1.6308594-2.9914837 1.1211815-5.1130257 1.5517578-18.1435547.0146484-.5898438.0302734-1.2001953.2304688-1.6943359.1660156-.4121094.4921875-.7158201.7939453-.7402341.2841797-.0361328.6806641.2392576.8955078.6298826.2539063.4599609.3339844 1.0361328.4052734 1.6865234.6494141 5.914063.4541016 11.8623047.1757813 17.9433594-.0185547.4023438.2841797.7470703.6855469.78125.3974609.0351563.7578125-.2548828.8076172-.6542969.7664566-6.1489849-.2358894-18.329052 2.3046875-18.1240234.2714844.0302734.5634766.2988281.7285156.6689453.1992188.4482422.2421875 1.0039063.2832031 1.5429692 1.0323753 13.283968-.3944893 13.2805519.0224609 17.2392578.0688171.6494637.8776779.9031181 1.3066406.4189453 1.4267578-1.6035156 2.4951172-3.5732422 3.0908203-5.6962891.3568497-1.2792816 1.4283333-6.0512562 2.2880859-6.7470703.1523438-.1230469.3320313-.1376953.3798828-.1015625.0429688.0302734.1777344.1865234.1201172.9228516-.7471352 9.5493126-3.5905037 13.0235291-4.2333984 18.2431641-.5668945 4.5985985-2.6862411 11.5472183.5605469 17.6152344.4351158.8166351 1.6947632.2633629 1.347168-.6240234.2027588-.7553711.5541992-1.4707031 1.0444336-2.0800781-5.5464325-11.1481705 3.5474472-20.6252918 2.6628418-31.9448242.1173553-1.153845.4229278-2.6080028-.6345215-3.3569337z"/><path d="m31.5247555 29.9174728c-.5996094-.4248047-1.4628906-.3632813-2.1015625.1513672-1.2771664 1.0348053-2.0238552 4.9161682-2.6123047 7.0097656-.2919922 1.0439453-.7207031 2.0419922-1.2675781 2.9589844.2770138-4.2383041.6533508-5.3378944-.0039063-13.8076172-.046875-.5947266-.0986328-1.2685547-.3847656-1.9111328-.8717937-1.957468-3.2441845-2.0194511-4.234375.0830078-.085146-.8195324-.1745071-1.6129532-.5712891-2.3339844-1.0584717-1.9244957-3.3824348-1.7122498-4.1816406.2568359-.2851563.7041016-.3037109 1.4375-.3203125 2.0849609-.3172092 12.4680862-.2830162 12.0096169-.34375 12.7861328-1.3245792-10.1866741-1.3789425-11.3933201-2.0712891-12.4121094-1.0565615-1.5486584-3.3818731-1.4614258-3.9003906 1.4121094-.9672718 5.4048653 1.7633266 10.0043411.43573 18.4775391-.9771566-2.0795898-.9684124-4.4021721-2.3312373-6.3847656-.7236328-1.0498047-1.7109375-1.5439453-2.6347656-1.3300781-.8222656.1933594-1.5908203 1.171875-1.8076172 1.7763672-1.1766431 3.2771339 1.0942769 7.6079483 1.5791016 8.7548828 2.5660691 6.0790024 7.6804109 11.1077843 9.0302734 17.4560547.0751953.3525391.3857422.59375.7324219.59375.480834 0 .8328781-.4417191.734375-.90625-1.4525318-6.8308258-6.5277214-11.6016922-9.1162109-17.7275391-.4900923-1.164856-2.5177813-4.9642601-1.5478516-7.6640625.1064453-.296875.5507813-.765625.7382813-.8222656.3408203-.078125.7792969.3203125 1.0556641.7197266 1.4596934 2.1203957 1.178463 5.4064598 3.1557002 7.6696777-.0748291.3270264-.1483765.6542969-.2338257.9797363-.1054688.4003906.1347656.8105469.5351563.9160156.3984375.1054688.8105469-.1337891.9160156-.5351563 2.7992764-10.6648102-.7975788-15.9375763.2353516-21.7089844.1171875-.6513672.3681641-1.1220703.6230469-1.1699219.1650391-.0351563.4101563.1171875.5605469.3378906.4754562.6990719.5750246 2.1496925 2.3037109 15.4560547.0935602.7180214 1.0533543.8974228 1.4023438.2626953 1.5381699-2.8226204 1.0496807-4.8318253 1.4492188-16.9003906.0136719-.5439453.0273438-1.1074219.2109375-1.5576172.1484375-.3652344.4335938-.6357422.6933594-.65625.2470703-.0263672.5927734.2128906.7832031.5585938.2314453.4189453.3046875.9492188.3710938 1.5488281.6044922 5.5048828.421875 11.0322266.1630859 16.6826172-.0185547.4023438.2841797.7470703.6855469.78125.3925781.0458984.7578125-.2548828.8076172-.6542969.7087269-5.6820679-.1980972-16.9813919 2.0869141-16.8125.234375.0263672.4892578.2636719.6347656.5908203.1816406.4072266.2216797.9208984.2597656 1.4179688.9635487 12.367733-.3680344 12.3528023.0205078 16.0371094.0680771.6424713.8721352.9079361 1.3066406.4199219 1.3330078-1.4980469 2.3310547-3.3378906 2.8847656-5.3203125.4228725-1.5026093 1.3436813-5.6243343 2.1113281-6.2480469.1259766-.1015625.2695313-.1074219.2929688-.0927734.3611221.264822-.3468342 5.5739403-1.5292969 9.578125-.7851963 2.6664658-1.9688034 5.3375015-2.3203125 8.2001953-.5444336 4.4301033-2.4930782 10.7680511.5273438 16.4169922.3868999.7261353 1.4998341.3819275 1.4020386-.4416504.2974243-.392334.6758423-.7233887 1.1057739-.963623-2.0602417-3.0941162-2.6062622-7.0413818-2.0691528-10.7196045.8843403-6.056324 3.8460007-11.5690079 4.0585327-17.7755127.1743793-1.1179199.3209248-2.2401123.4090595-3.3671875.0332028-.4257812.12207-1.5585937-.7187522-2.1523437z"/><path d="m10.6370602 12.9496994c5.0368795 2.6050367 5.787859 3.7558594 6.4404297 3.7558594.7315102 0 1.0323448-.9464426.4287109-1.3662109-1.9707031-1.3671875-4.0498047-2.6201172-6.1796875-3.7216797-.3720703-.1914063-.8222656-.0458984-1.0107422.3212891-.1904297.368164-.046875.8203124.3212891 1.0107421z"/><path d="m19.8968258 12.4946213c.1425781.2275391.3867188.3515625.6367188.3515625.5815468 0 .9494724-.646306.6347656-1.1484375l-2.5986328-4.141602c-.2197266-.3505859-.6816406-.4560547-1.0341797-.2373047-.3505859.2207031-.4570313.6835942-.2373047 1.0341802z"/><path d="m24.2688961 11.3071213h.0039063c.4121094 0 .7480469-.3330078.75-.7460938l.0234375-4.8750005c.0019531-.4140625-.3320313-.7519531-.7460938-.7539063-.0019531 0-.0029297 0-.0039063 0-.4121094 0-.7480469.3330078-.75.7460938l-.0234375 4.8750005c-.0019531.4140625.3320313.7519532.7460938.7539063z"/></g></svg>