<svg id="Layer_1" enable-background="new 0 0 72 72" height="512" viewBox="0 0 72 72" width="512" xmlns="http://www.w3.org/2000/svg"><g id="_x35_0"><path d="m68.200737 21.9857483c.5690308-.5914345-.0998306-1.5381546-.8417969-1.206543-2.4392929 1.0708694-3.0186996 1.817318-5.248539 3.6577148-2.922802 2.4117928-1.7934761 1.5904694-5.4711914 5.0654297-1.1807861 1.1098194-1.8040237 1.7649918-2.6499023 2.3696289-.5676041.4043427-.9305763.8667717-1.4335938.9667969-.3349648.0672874-.8343353-.1202278-.8725586-.4140625-.0650444-.4931164.6084633-.9552517 3.3066406-3.597168.6078911-.5871086 1.0737419-.8270493 1.730957-1.5766602.572876-.6547127-.0448265-1.5935898-.9506836-1.480957-1.2768974.1639938-2.348732.9661007-3.3100586 1.4394531-1.362915.671751-2.6391907 1.4550419-3.9633789 2.1982422-1.1010742.6000977-2.2319336.8291016-2.746582.5541992-.5039749-.2673016-.6563606-1.4445953.0942383-1.9975586.0579224-.0426636.09729-.098999.1390991-.1533203 4.7013817-2.1175117 6.5759239-2.7765255 7.737854-3.1914063.3901367-.1396484.5932617-.5688477.4541016-.9589844-.1401367-.3901367-.5712891-.5917969-.9589844-.4541016-6.2620049 2.23769-8.4553413 3.8476791-9.8813477 3.8320313-.3745117-.0112305-.9174805-.4619141-1.0375977-.8613281-.4473152-1.4835491 3.5269279-2.2647285 8.1743164-4.2519531.3813477-.1625977.5581055-.6030273.3955078-.9838867-.1635742-.3813477-.6040039-.5600586-.984375-.3950195-2.4866905 1.0616302-4.9526482 1.7843742-7.118042 2.8288574-.0491333-.0411377-.0945435-.0861816-.1553955-.114502-.7144279-.3332615-.8583679-1.4077568-.1386719-2.0981445.3481445-.3339844.6875-.465332 1.2709961-.6176758 3.7502632-.9789734 8.9642982-3.4324055 12.5288086-5.5600586.8359375-.4995117 1.7036133-1.15625 1.8022461-2.2495117.1313477-1.6635742-1.706543-2.5224609-2.3095703-2.8041992-2.0747566-.9736624-3.0106316-1.5294762-4.484375-2.8623042-.2690659-.2441468-.8097992-.8422561-.6088867-1.1235352.1503906-.2080078.5664063-.3540039.8984375-.3178711.5444336.0634766 1.0795898.3139648 1.6005859.5551758 1.3911133.7797852 8.7382813 4.8505855 10.0712891 5.3710933.3862305.1489258.8208046-.0400391.9716835-.4257813.1503906-.3862305-.0400391-.8208008-.4257851-.9716797-1.0805664-.4213867-7.4213867-3.901855-9.9365234-5.3090816-.6499023-.3037109-1.3212891-.6176758-2.1157227-.7109375-1.2375565-.1282835-2.6924973.6713395-2.59375 2.0714722-5.1514854-.1821098-9.622879 2.7543769-13.1621704 6.5393672-1.2205811 1.3054199-3.5595093 4.4674683-4.1288452 6.7874146-.4006348-.413147-.8623657-.8765259-1.4194336-1.4202271-1.3210793-1.2083817-2.4228344-2.4815092-4.6948242-3.4111328-8.2889918-3.3470267-17.2121227 1.241358-20.6494134 9.2182619-2.4765627 5.7060547-1.9790041 13.359375 1.2685547 19.4985352 1.309082 2.4728394 3.1179805 4.7458496 5.5144038 6.9430542.2605591 1.5019531.4462891 2.6851807.4699707 3.1253052.0214844.3999023.3525391.7094727.7485352.7094727.0131836 0 .0273438-.0004883.0410156-.0009766.4135742-.0224609.7304688-.3759766.7084961-.7895508-.0966797-1.7866211-2.2670898-12.7749023-2.2807617-12.831543-.0839844-.6855469-.1713867-1.394043-.0415039-2.0263672.0864258-.4238281.4174805-.8540039.7373047-.9589844.6766481-.2227287 1.303545 1.4813919 1.5292969 2.0249023.6694336 1.5400391.9277344 3.2641602 1.1542969 5.0429688.0942383.7382813.3808594 2.984375 2.1630859 3.4086914 1.3300781.3154297 2.4941406-.7099609 2.9912109-1.1484375 9.7840672-8.6189575 11.3414421-14.3533173 12.9335938-13.0957031.3896484.3081055.6079102.9169922.4970703 1.3867188-.4332695 1.8330688-5.9041271 8.1051445-7.1464844 9.5214844-.2729492.3115234-.2421875.7851563.0693359 1.0585938.3120117.2734375.7856445.2416992 1.0585938-.0693359 2.3442383-2.6732178 4.2020264-4.916626 6.012207-7.4810181.0587769-.0405884.1186523-.0800171.1655273-.1386108.8598633-1.074707 2.1582031-2.3193359 2.7211914-2.4599609.4975624-.1242447 1.2446518-.0820541 1.3603516.4204102.2138672.9375-.6367188 2.2524414-1.2348633 3.1772461-1.570137 2.4282036-3.883297 5.3425102-6.3349609 7.7241211-.4814358.467205-.1482544 1.2880859.5224609 1.2880859.1884766 0 .3769531-.0703125.5224609-.2119141 4.3185806-4.1957855 6.0269203-7.8377495 7.6923828-7.9082031.3779297-.0341797.7744141.1948242.887207.4814453.4125786 1.0445442-1.9255486 3.5242958-2.6533203 4.3295898-.7764931.8592339-1.633625 1.8898621-2.4433594 2.7338867-.7405777.7696457-1.249794 1.2849541-1.8852539 2.1020508-.3501053.4571648-1.0140877.9952812-.5195313 1.6186523.4199219.5297852 1.0488281.1962891 1.2558594.0864258.6440964-.3413162 1.2582779-.5917816 1.7543945-.9018555.7680473-.4787788 3.7440453-2.3891335 4.2617188-1.6557617.1274414.1811523.0131836.5996094-.2592773.953125-.6103592.7893982-1.1809311 1.0554008-6.4956055 4.3706055-3.276289 2.0445824-5.0100136 2.5862122-10.4619141 7.5458984-.4603424.4178276-.2492371 1.2252579.4348145 1.2902832.2706299.2456055.6376343.4546509.7481079.4429321.3242798-.0344238 2.1200562-1.5703735 3.4868164-2.7810669 3.7330933 2.2866821 7.4662476 4.5790405 11.1989136 6.8725586.100029.0282593.4405098.4049683.9275513.1947021 1.2491455-.0274658 2.9469604.0484009 3.7932129-.7838135 8.15662-8.0216675 15.4920883-14.6239815 19.7942505-21.5883179 3.173954-5.1380005 5.1186562-11.0297241 5.6269569-17.0475464.170105-2.0140991.2025757-4.0983276-.6123047-5.9273682.1375733-.159729.2780152-.3196411.4332276-.480957zm-29.4599648 44.1816406c-3.512207-2.1577759-7.0245361-4.3140869-10.5371094-6.4661255 1.0105534-.9199867 1.2433434-1.2236176 3.6408691-2.5044556 1.5531006-.8297729 3.2410889-1.914856 4.8325806-2.6692505 1.3644409-.6468506 2.6407471-1.2710571 3.708374-2.375 1.2749023-1.3184204 1.8375244-3.4993896-.041687-4.541687-.0026855-.0015259-.0054321-.0012207-.0081177-.0026855-1.2438812-.8144073-2.8735657.0051117-4.1769409.7247314.606369-.6565933.9068489-1.0255852 2.2050781-2.4838867 1.3655472-1.5109444 3.5925179-3.8980942 2.847168-5.7875977-.3480911-.8818932-1.3459473-1.5590057-2.5932617-1.3928223.4727173-.9007568.8347168-1.9367676.6049805-2.9416504-.3162193-1.3886147-1.8124886-1.8840294-3.1850586-1.5415039-.3157959.0786133-.6593628.2693481-1.00354.5073853-.1586189-1.7594604-1.8184929-3.1277142-3.4827881-2.2915649-2.1891708 1.099823-3.9137974 5.8687363-12.453125 13.3916016-1.502037 1.32267-2.3542786 1.1879845-2.6748047-1.3242188-.5741882-4.5096512-1.2929544-5.3832397-1.4306641-5.840332-.2832031-.6850586-.5761719-1.3935547-1.2524414-2.0043945-1.4295464-1.2894897-3.3322067-.1521339-3.6958008 1.6240234-.349659 1.7072182.2714195 3.5934067 1.3696289 9.5773926-1.5556641-1.6322632-2.7865601-3.3168335-3.7343745-5.1071777-3.0424804-5.7519532-3.5205077-12.8955078-1.2172851-18.2011719 3.1924949-7.409935 11.3439083-11.4003315 18.7075195-8.4243164 1.5166016.6201172 2.6870117 1.5942383 3.9741211 2.8613281.0955219.1000004 2.8558216 2.7436256 3.265625 3.5341797.0121727.8196774 1.1497498 1.0256271 1.4487305.262207 1.4619141-3.7412109 3.2963867-6.6713867 5.7724609-9.2202148 2.8741837-2.9479675 6.7513809-5.1185808 10.8565674-5.1617432.0685425.0593872.3349571.2890739.4466553.385376 3.1423836 2.7754707 7.7702408 3.0296021 4.5673828 4.9428711-3.3523407 2.0011921-6.768158 3.5735245-10.3999023 4.8745117-1.8377533.658102-2.6651573.5459423-3.6694336 1.5087891-1.2277794 1.178854-1.2853928 3.1268444.038208 4.2106934-.6545067.7230682-.8218079 1.6131134-.6094971 2.3186035.2951813.9818859 1.3880043 1.9301758 2.5341797 1.9301758.1654663 0 .3248901-.0255127.4853516-.0464478-.1996803 1.0416222.1756668 2.2676048 1.1660156 2.7940063 1.4750977.7822266 3.5634766-.2324219 4.175293-.5668945 1.304306-.7302227 2.567627-1.5065289 3.8823242-2.1557617l-1.8095703 1.75c-.3720703.359375-1.2436523 1.2011719-1.0986328 2.3046875.039917.3060913.1664429.5888062.3516846.8391724.0380669.1799469.2497177.5119057.3912964.6906738.2996216.3782959.6921387.513855 1.171875.605896 1.1141357.2137451 2.3011475-.0783691 3.2734985-.635437 2.4114761-1.3815689 3.6877556-4.0941868 5.8892822-5.7445679 1.4393959-1.0790005 1.3956184-1.4255962 3.3687782-2.6697388-.2071915 1.9890461.231842 1.4379635-.5606689 5.2440796-.9501991 4.5253906-3.0288124 9.1386719-6.541996 14.519043-3.652832 5.5844727-8.5 10.3828125-13.1875 15.0229492-1.858399 1.840332-3.7758794 3.7382812-5.6113287 5.6762695z"/></g></svg>