<svg id="Layer_1" enable-background="new 0 0 68 68" height="512" viewBox="0 0 68 68" width="512" xmlns="http://www.w3.org/2000/svg"><g id="_x38_"><path d="m54.3 30c-1.2-.8-2.5-1.7-3.8-2.7-.1-5.9-.4-12.3-1.5-18.9-.1-.4-.4-.6-.7-.6l-39.5-.1c-.4 0-.8.4-.8.8.1 4.4.2 8.8.3 16.2-1.9 1.5-3.4 2.9-4.8 4.2-.3.1-.4.3-.5.5-.9 1.2-.9 1.3-1.4 2.3 0 11.2 0 21.4.2 32.1 14.8.5 14.1-.5 50.5.4.7-.7.9-.8 1.3-1.3.8 0 1.1-.3 1.1-.8-.5-10.4.9-20.4.3-31.1 0-.4-.6-1-.7-1zm-3.8-.8c.8.6 1.5 1.1 2.3 1.6-.8.7-1.5 1.5-2.3 2.2 0-1.2 0-2.5 0-3.8zm-2.8-19.9c1.4 8.9 1.4 17.5 1.3 24.9v.3c-3.9 3.7-7.8 7.2-11.6 10.9-1.3-1-6.5-6-8-7.5-.3-.3-.9-.2-1.1 0-2.3 2.1-4.9 4.5-7.5 7-3.8-3.2-7.3-6.6-10.8-10 0-.1-.4-21.9-.5-25.6zm-39.3 17.3.1 6.6c-1.3-1.3-2.2-2.2-3.6-3.6 1-.9 2.2-1.9 3.5-3zm-3.8 4.9c5 5 9.7 9.8 15.1 14.4-5.1 4.8-10.4 9.9-15.2 14.8.1-10.3.8-19.4.1-29.2zm1.4 29.8c7.3-7.5 16-15.6 22.9-21.9 7.1 7 16.2 14.8 23.4 21.9-15.7-.8-30.6-.1-46.3 0zm47.1-3c-.5-1.3-13.3-11.2-14.4-12 4.8-4.8 10-9.3 14.9-14.1.4 9.1-.6 17.3-.5 26.1z"/><path d="m15 17.1h26.4c.4 0 .8-.3.8-.8s-.3-.8-.8-.8h-26.4c-.4 0-.8.3-.8.8s.4.8.8.8z"/><path d="m29.2 24.8h-13c-.4 0-.8.3-.8.8s.3.8.8.8h13c.4 0 .8-.3.8-.8s-.4-.8-.8-.8z"/><path d="m41.4 24.6c-.5.6-1.5 1.8-2.7 3.2-.8-1.1-1.7-2.3-2.6-3.5-.2-.3-.7-.4-1-.2s-.4.7-.2 1c.8 1.1 1.6 2.2 2.4 3.3-1.2-.1-2.3-.2-3.4-.3-.4 0-.8.3-.8.7s.3.8.7.8c1.2.1 2.2.2 3.3.3-.7.9-1.3 1.8-1.9 2.7-.2.3-.1.8.2 1s.8.1 1-.2c.7-1.1 1.5-2.2 2.3-3.2.8 1.1 1.6 2.2 2.4 3.3.2.3.7.4 1 .2s.4-.7.2-1c-.7-.9-1.3-1.8-1.9-2.6h3.1c.4 0 .7-.3.7-.8s-.3-.7-.8-.7c-1.2 0-2.4 0-3.5 0 1.2-1.5 2.2-2.6 2.5-3 .3-.3.2-.8-.1-1.1-.2-.3-.6-.2-.9.1z"/><path d="m52.9 13.6c2.4-2.6 4.6-5.5 6.4-8.6.2-.4.1-.8-.2-1-.4-.2-.8-.1-1 .2-1.8 3-3.9 5.8-6.3 8.3-.3.3-.3.8.1 1.1.3.4.7.3 1 0z"/><path d="m55.2 18.6 9.6-3.8c.4-.2.6-.6.4-1s-.6-.6-1-.4l-9.6 3.8c-.4.2-.6.6-.4 1 .1.3.6.5 1 .4z"/><path d="m65.9 25.4c-2.3-.8-4.7-1.2-7.1-1.3-.4 0-.8.3-.8.7s.3.8.7.8c2.3.1 4.5.5 6.7 1.3.4.1.8-.1.9-.5.2-.5 0-.9-.4-1z"/></g></svg>