<?xml version="1.0" encoding="UTF-8"?><svg id="Layer_2" xmlns="http://www.w3.org/2000/svg" viewBox="0 0 141.06 181.99"><defs><style>.cls-1{stroke-width:0px;}</style></defs><g id="Layer_1-2"><path class="cls-1" d="m.68,59.4c-.7-5.56-1.55-14,1.34-19.31,2.89-5.31,9.15-4.26,13.26-1.21,4.44,3.28,6.4,8.6,7.79,13.78,1.35,4.84,5.34,25.73,6.94,25.21,2.06-.56-.1-14.31-.37-18.94-.57-10.81-3.39-37.24.38-45.21,1.77-3.73,5.8-5.77,9.78-4.95,6.67,1.18,9.4,7.01,10.81,13.84s6.06,42.19,6.96,45.46c2.63-10.4,4.29-21.03,4.98-31.74.82-9.3,2.89-18.44,6.14-27.17,2.49-6.84,10.91-12.64,17.76-6.69,7.14,6.2,5.7,20.15,4.84,28.48-1.3,12.32-7.47,39.7-4.24,39.11,1.89.75,5.21-12.11,7.06-17.66,3.06-9.21,9.85-34.34,24.36-29.6,4.06,1.32,4.02,6.48,3.7,10.39-1.01,12.02-4.14,23.89-6.97,35.53-2.16,8.87-4.43,17.64-6.62,26.59,3.1-2.49,6.35-4.77,9.75-6.82,4.5-2.75,9.4-5.85,14.89-4.92,3.73.46,6.78,3.21,7.7,6.91,1.28,9.79-6.77,18.53-13.12,25.22-4.22,4.16-8.08,8.67-11.56,13.48-3.36,4.96-6.21,10.28-9.51,15.29-7.11,10.81-21.58,20.3-20.91,34.79.08,1.42-.98,2.64-2.37,2.73-1.24.08-2.35-.77-2.62-2.01-1.88-13.81,8.56-23.6,16.61-33.11,4.01-5.21,7.6-10.74,10.75-16.53,3.51-5.84,7.63-11.28,12.3-16.22,4.62-4.86,9.38-9.64,12.33-15.73,3.77-7.77-.88-8.44-3.2-8.16-6.07.76-14.77,9.48-16.77,11.26-3.52,3.14-6.61,6.72-9.92,10.09-1.56,1.86-4.29,2.1-6.12.52-1.82-1.57-2.04-4.36-.48-6.22.16-.19.33-.37.52-.53l4.13-3.75c2.45-18.57,8.53-36.56,12.16-54.89.9-4.6,1.73-9.23,2.25-13.88.33-2.49.21-5.7-2.91-3.26-1.89,1.75-3.47,3.81-4.66,6.11-5.11,8.58-7.6,18.48-10.5,27.96-1.69,5.55-4.64,20.16-12.85,18.17-9.19-2.22-6.27-17.02-5.56-23.63,1.22-11.34,3.2-22.64,3.79-34.05.22-4.12.77-9.35-.81-13.33-1.58-3.97-3.92-1.47-5.56,1.17-1.76,3.2-1.94,6.23-2.64,9.83-1.42,5.99-2.26,12.08-3.14,18.17-1.71,11.92-2.81,24.28-8.66,35.94-1.11,2.55-5.24,4.03-8.38-1.27-2.75-4.63-8.4-41.95-9.3-47.8-.52-3.29-2.39-13.9-7.2-10.59-2.13,2.74-1.17,7.92-1.14,11.49.11,10.34,1.02,20.72,1.49,31.05.32,6.97.19,15.95-2.33,22.66-.9,2.45-2.53,4.14-5.33,3.21-3.49-1.17-5.1-4.94-6.22-8.17-3.2-9.07-3.83-20.75-9.48-28.6-.84-1.16-4.33-5.17-5.91-3.47-.56.6.84,8.72,1.14,11.11,1.02,7.34,1.73,14.68,2.35,22.06,1.43,16.51,1.36,33.33,6.02,49.39,2.29,7.25,5.92,13.92,8.83,21.01,2.64,7.3,3.65,15.11,2.95,22.87-.28,5.13-11.34,4.69-10.96-.46.76-7.54,1.61-13.87-1.32-20.82-3.68-5.88-6.24-14.44-8.37-21.36-4.03-14.7-4.98-30.62-6.17-45.8-.65-7.9-.82-15.16-1.87-23.02h0Z"/></g></svg>