<svg id="Layer_1" enable-background="new 0 0 68 68" height="512" viewBox="0 0 68 68" width="512" xmlns="http://www.w3.org/2000/svg"><g id="_x33_8"><path d="m4.0121126 57.8314056c.1181641.3964844.5361328.6269531.9321289.5048828.3974609-.1181641.6235352-.5351563.5053711-.9326172-1.0345435-3.4841537-.9589214-7.1345711-2.2875977-12.1972656.4838867-.2832031 2.1186523-.5048828 3.0288086-.6269531 3.3812065-.4598007 2.6385107-.6773338 6.6044922-1.2226563.9951172-.140625 2.0224609.3291016 2.3359375 1.0634766 2.2177744 5.1982422 2.9951181 10.7373047 2.2592783 16.0615234-2.7798843.1446533-5.5454884.1817398-8.3842783.3466797-.4135742.0244141-.7294921.3789063-.7050781.7929688.0241013.4184341.3879786.7320099.7919922.7050781.0427856-.0024414.0848389-.0029297.1275635-.0053711 2.6737585 1.5044556.6310759 1.704834 9.7233896.7943115.7415161-.0742188 1.2891846-.5697021 1.2681274-1.1740723-.0488281-1.3988037-.119812-2.8309326-.1604614-4.2174072 17.9363194 5.8037758 34.7493439.907856 44.2672729-10.1644287.7766724-.9035645 1.5175171-1.8702393 1.8573608-3.0394287.2190552-.7539063.333252-1.902832-.0750732-2.760498.3191681-1.7344017-1.2064514-2.9740219-2.8201942-2.5961914-.704895.1660156-1.3380737.5754395-1.9005127.9482422-1.0914001-2.4825401-3.6661224-3.5056534-6.3452759-3.9074707.6013794-2.0438232.0328369-4.2800312-1.5272217-5.6953144-1.5600586-1.4155273-3.9401855-1.7979736-5.8485718-.9399414-.2673187-1.5218697-.8225594-2.9631767-2.0606079-3.8168945.1933594-.4199219.3867188-.8398438.5800781-1.2597656 3.0311279 1.15625 6.7850342.4494629 9.4144287-1.4797363 4.2933502-3.1499767 6.024231-8.5214911 6.5951538-13.8328857.3109741-1.3270259.5510864-2.664062.6936035-3.9674067.0427246-.3908691-.2279663-.7358398-.6080933-.8083496-.3658447-.15413-.4910355-.0059104-1.2630005.0993652-2.5834961.4775391-5.2553711.9716797-7.7753906 1.9951172-3.1787109 1.2910156-5.6928711 3.2119136-7.2695313 5.554687-1.796875 2.6699219-2.1264648 7.453125-.7055664 10.234375.0202637.0396729.0601196.0578613.0860596.0922852-.5740356.9123535-1.0881958 1.8955078-1.4619141 2.6594238-.5697021-.1044922-1.1557617-.0979004-1.7158813.0556641-1.0537262.288784-2.8016129 1.4369049-3.774231 3.1519775-.5930176-.7596436-1.4141235-1.7459717-2.3161011-2.6478271.0321655-.0556641.0635986-.1124268.0809937-.1777344.9370117-3.5107422-.59375-8.8457031-3.2758789-11.4160156-2.3598614-2.2626953-5.6865215-3.8085938-9.6210918-4.4697266-3.3835047-.5686915-6.8724059-.3848364-10.3696278-.2558596-.1535645.0053711-.2861328.067627-.4022217.1508789-.3668823.1451416-.5653076.5467529-.4395752.9262695.3660278 1.1070557.8123779 2.2205811 1.2975464 3.3249512 1.9273491 6.3325253 5.203248 12.5657425 11.2767344 15.2440186 3.4829102 1.5358887 7.9550762 1.3834229 11.1443462-.7175293.6116333.814209 1.2232666 1.628418 1.8348999 2.4425049-.0352783.2406006-.0666504.5153809-.079895.7988281-2.8911629-.9118156-6.1433468.5616207-7.6254864 4.1601582-.3574829.8789177-.5573025 1.7793083-.5805664 2.1308594-.2748432-.1761818-.5971508-.4205551-.9951172-.5742188-4.529665-1.7967682-9.7593327 2.0292435-8.4331055 6.9960938.0172729.0649414.0487061.1212158.0805664.1767578-.9778442.4291992-1.942688.8063965-2.852478 1.0598145-.1937256-.5244141-.3862915-1.0493164-.6074829-1.567627-.5844736-1.3681641-2.2329111-2.1943359-3.9199228-1.9609375-4.0446978.5564498-3.3242188.7804145-6.6010742 1.2216796-2.234375.3017578-3.6289063.5429688-4.1586914 1.3378906-.1977539.2958984-.2553711.6503906-.1625977.9970703 1.3533156 5.0664025 1.2352505 8.6743546 2.3432617 12.4042969zm43.1982413-44.9404316c1.409668-2.0947266 3.6884766-3.8242188 6.5898438-5.0029292 2.3718872-.9638672 4.8439941-1.4221191 7.4603882-1.9057617-.6243896 4.4061275-2.258606 9.0684814-4.2904663 12.1069336-1.9776001 2.9558105-5.8549805 5.4924316-9.8096924 4.2785645.9138336-1.2504463 1.3841591-1.098381 3.1129761-3.6774902 1.2389488.3633442 2.4570847.3786507 3.6820679.0200195.3979492-.1162109.6254883-.5332031.5092773-.9306641-.1166992-.3984375-.5341797-.6240234-.9301758-.5087891-.7758789.2260742-1.6069336.253418-2.4004517.097168 1.5298386-2.404542 2.0744209-3.1274166 3.9404907-4.418457 1.6616974-1.1494255 3.4118462-2.4636517 3.6606445-4.6660156.0463867-.4111323-.2495117-.7832026-.6611328-.8291011-.4038086-.0507813-.7832031.2490234-.8291016.6611323-.2484627 2.2009897-2.8399162 3.2441607-4.4852295 4.7418213-.1919556-.6470947-.2759399-1.3304443-.2305908-2.0025635.027832-.4130859-.284668-.7714844-.6982422-.7988281-.4057617-.0224609-.7709961.2841797-.7988281.6972656-.0678711 1.0058594.081543 2.0371094.4321289 2.9814453.041626.1121826.1125488.2017822.1940308.2785645-.6831055.8360596-1.2793579 1.7456055-1.8532104 2.6481934-2.3343658 3.6684799-2.4563026 3.1152744-3.4581299 4.3138428-.8637086-2.3839117-.5183106-6.0310064.8634033-8.0843512zm-24.1962872-1.8769531c3.6362305.6123047 6.6899414 2.0205078 8.831543 4.0732422 2.1632061 2.0737305 3.4988995 6.3894043 2.9840679 9.392334-.3562622-.2827148-.711792-.5410156-1.057312-.729248-2.4276447-1.3226318-4.3283882-3.9000912-6.5867901-5.7862549.1084595-1.2392578-.1744995-3.22229-.4542236-4.2039795-.1132813-.3984375-.5268555-.6308594-.9267578-.5166016-.3979492.1132813-.6293945.5283203-.515625.9267578.1911621.6721191.3578491 1.7841797.4076538 2.7072754-2.3061848-1.4485445-5.8291454-1.8704252-6.7240601-4.5412598-.1308594-.3925781-.5561523-.6025391-.9492188-.4726563-.3925781.1318359-.6044922.5566406-.4726563.9492188.8017178 2.3931675 3.1016254 3.4520988 5.2670898 4.3330078 2.1339893.8703594 2.9652424 1.3602924 5.7565918 4.2023926-.9365234.4475098-1.9793091.6672363-3.0100098.604248-.3994141-.0322266-.7700195.2861328-.796875.6992188-.0268555.4140625.2866211.7705078.7001953.796875 1.3765736.0937614 2.8783741-.2231884 4.227356-.9897461 2.6675816 2.578146 3.0953732 2.179184 4.6671734 3.5810547-4.3256207 2.5915527-9.5463238.6480713-12.6079082-2.3032227-3.1176147-3.0054932-6.175477-8.0266113-7.9647837-12.9880371 3.0541526-.1125392 6.2005626-.240859 9.2245494.2653809zm3.3974609 27.2363301c1.7552605.1189995 1.9045773.8594055 2.9306641 1.1865234.1708984.1298828.4379883.2041016.6474609.1640625.3500977-.0683594.5039063-.3291016.637207-.5546875.2124176-.3798027.161211-1.0448036.1899414-1.2363281.7479649-4.3553391 4.4787159-6.2379665 7.2626934-4.4599609.7266655.4599113 1.5315666-.4706841.9731445-1.1210938-.0703125-.3437519.0224609-1.3808613.1308594-1.8906269.1420898-.7167969.4477539-1.3691406.9379883-1.9960938.9853516-1.2763672 2.0629883-1.6533203 3.3984375-1.1796875 1.2539063.4345703 2.4345703 2.4375 2.8515625 4.1230469.1131516.4567204.6144867.6993122 1.0400391.5019531.7832031-.3574219 1.793457-.40625 3.0874023-.1503906 2.3516579.4667416 3.5614052 3.0470486 2.8505859 5.1699238-.1373901.412178.1007843.8482933.5136719.9619141 1.8955727.5169716 4.9114685 1.0433121 5.8481445 3.0507813.0388794.0831299.0951538.1513672.1569824.2121582-2.2087135 1.3398209-3.9077415 2.4422798-5.6486816 3.2087402-5.8813972 2.589119-7.0882912 2.5969925-7.706543 2.8017578-3.0369759.7124977-7.0568047 1.5890121-10.3244629 1.567627 3.2196045-2.3489952 5.9762115-5.921196 8.1018066-8.1340332.7743187-.8122215 1.536869-1.7428169 1.5063477-2.8789063.0170898-.6259766-.1655273-1.2216797-.5288086-1.7255859-.9449348-1.500782-3.6902199-1.7059441-5.3305664-1.0498047-.109375.0253906-.2392578.0625-.3359375.109375-3.5444756 1.2928619-5.0757904 4.6154404-7.869627 5.9287109-1.8697109.8121567-4.6267338.6574326-7.0717773 1.4677734-1.0550442.363842-2.22929.8982925-3.3283691 1.4014893-.7849311-3.0846825 1.7928353-5.6874619 5.079834-5.4786377zm-1.2709961 5.4980468c2.4154854-.7983055 4.8970299-.5163193 7.2104473-1.5224609 2.295002-1.0832214 3.531868-2.9591942 5.4584961-4.5205078 3.3266869-2.7887383 7.0199699-1.8913116 6.4301758.3056641-.1806641.5078125-.5756836.9482422-1.0332031 1.4277344-2.8645325 2.9844017-5.4033318 6.5788193-9.3731079 8.9324951-.1917725-.0447998-.3804932-.092041-.5536499-.1512451-.3911133-.1337891-.8178711.0751953-.9521484.4677734-.1337891.3916016.0756836.8183594.4677734.9521484 3.6445961 1.2448883 10.3286552-.2608528 14.0605469-1.1367188h-.0004883c.0073242-.0019531.0141602-.0039063.0209961-.0048828 8.7081642-2.0158081 15.2270966-7.5182076 16.7587891-7.8769531.5693169-.134922.9766045.2388535 1.0136757.5839844.1409378 1.2921753-2.5729942 3.7690659-3.3320351 4.5546875-6.1011047 6.0957108-14.2520142 9.5465355-19.9326172 10.1738281l.0004883.0009766c-.0419312.0131035-.0430527.0086899-.1064453.0371094l-.0083008-.0263672c-7.0401115 1.0785065-15.3316002-.1275177-21.9264507-.9775391-.0718384-.0432129-.1491089-.0775146-.2330933-.0925293-.1461792-2.7028809-.6599121-5.4069824-1.5059204-8.0556641 2.6169071-.7482643 5.3124294-2.3045311 7.5360717-3.0715332z"/><path d="m13.627347 47.6390228c1.3429165-.9965134.2136765-2.9954796-.7998047-2.7119141-.4086914-.1347656-.8583984-.1386719-1.2382813.0039063-1.6447992.6144638-1.2730446 3.0576172.894043 3.0576172.4150391 0 .8247071-.1123047 1.144043-.3496094z"/></g></svg>