<?xml version="1.0" encoding="UTF-8"?><svg id="Layer_2" xmlns="http://www.w3.org/2000/svg" viewBox="0 0 154.5 127.18"><defs><style>.cls-1{stroke-width:0px;}</style></defs><g id="Layer_1-2"><path class="cls-1" d="m.36,30.86c5.3,10.48,16.18,18.66,25.48,25.37,11.14,8.04,22.77,14.24,36.49,16.46,28.32,4.6,71.57-5.27,72.64-40.83.47-15.6-12.28-26.53-26.34-30.32-14.96-4.04-31.13.05-42.83,10.03-26.81,22.86-20.3,60.09-3.13,86.62,9.87,15.26,24.26,26.68,42.77,28.68s35.12-5.77,47.25-18.8c3.97-4.27.94-11.31-4.14-5.84-19.72,21.19-53.56,18.08-71.87-3.07-16.09-18.58-31.38-52.93-13.33-75,8.42-10.3,21.75-15.09,34.85-13.59,12.3,1.4,27.21,9.22,28.61,22.93,1.38,13.53-10.73,22.65-22.25,26.36-13.3,4.28-28.25,4.76-41.88,1.88-12.07-2.55-22.47-8.82-32.3-16.06-8.53-6.28-18.13-13.66-23.02-23.32C5.23,18.21-1.63,26.93.36,30.86H.36Z"/></g></svg>