<svg id="Layer_1" enable-background="new 0 0 68 68" height="512" viewBox="0 0 68 68" width="512" xmlns="http://www.w3.org/2000/svg"><g id="_x35_1"><path d="m59.2207489 16.0924225c-1.7529297-1.5009766-4.4716797-2.2871094-7.0947266-2.0576172-.4915352.0418329.0609169-.2708883-18.9233398 17.5117188-4.1044922-4.9219971-5.2434082-6.8927612-5.5284424-7.6621094.5706387-1.8101444.918047-4.1879025.4752197-6.0576172-.7158203-3.0400391-3.3662109-5.7314453-6.7509766-6.8574219-2.9990234-1.0068359-5.6855469-1.5068359-9.0263672-.6708984-.3222656.0673828-.6572266.1601563-.9980469.2744141-.28125.0371094-.5283203.2373047-.6230469.5136719-.0109253.0316772-.0004272.0646973-.0065308.0970459-.0006714-.0003052-.0078125-.0087891-.0077515-.0081177 0 .0286865.0026855.0518188.0028687.0800781-.0413532.4955149.2406454 2.6848078.3062744 3.4900513.0727196.1002607-.8132715-.8519344 5.1290283 5.6438599-1.6055832 2.3308239-4.2283936 4.2301178-4.9275513 5.614502-2.2319689-1.7385616-7.7789307-6.2066879-8.1115723-6.3764038-.1337891-.1787109-.3466797-.296875-.5888672-.3007813-.0039063 0-.0078125 0-.0117188 0-.4091797 0-.7431639.328125-.7499999.7382813l-.0078125.1503906c-.1717447 2.7135658.0248109 6.2959156.8834838 9.1515503.6309545 3.4915047 1.420151 5.5328865 4.619812 7.1160278 4.4783249 2.2393188 7.047575.4207191 9.2368774 1.4714966 2.0866699.8977661 3.9326782 2.2506104 5.5899048 3.7844238l-.9755859.9140015c-3.3847656 3.1738281-6.6425781 6.2275391-9.6123047 8.984375-.1578979.1467285-.234436.3450928-.2359009.5446167-.2260742 1.2642212-2.5788574 10.5751953-3.6713257 13.5598755-.2270365.6168518.3998175 1.2067184.9990234.9472656 2.4449787-1.0470428 10.4602909-3.7342873 12.8876953-4.6132813.1694031-.0611992 10.8157387-10.1133003 10.904541-10.213562.0767632.0942535 11.1997223 10.3964996 12.3562012 11.5523071 1.2088623 1.2335815 4.2943115 3.4440918 6.40625 1.9767456.064209.0131836.1391602.02948.1962891.0175171.0253906.0019531.0732422.0039063.1152344.0039063.0263672 0 .0507813-.0009766.0664063-.0019531.8769531-.0830078 2.15625-1.1923828 3.7373047-2.6357422.3330078-.3037109.6132813-.5595703.796875-.7080078.8115234-.6611328 1.8203125-1.484375 2.1796875-2.7480469.5771484-2.1425781-.2646484-2.8378906-1.15625-3.5732422-.1855469-.1533203-.3886719-.3203125-.5947266-.5136719-1.3154297-1.2607422-3.3359375-3.1025391-5.2900391-4.8828125-3.9124413-3.5646706-3.7421303-3.41782-8.0494385-7.5053711l-.4654541-.5064697c4.1011047-3.793438 14.5848351-13.8331089 18.6779785-17.5936279.1961403-.1803932.2674408-.5112782.2880859-.7822266.670773-3.4114858-.6483684-6.4579373-2.4472652-7.8691407zm-9.7468262 2.2320556 3.3276367 2.8156128c-3.0051041 3.2746029-12.261734 12.1030006-15.5524902 15.1160278-.9676514-1.0947876-2.0126953-2.3029785-3.0791016-3.5603027.1030655-.096611 15.1918221-14.2652492 15.3039551-14.3713379zm-37.6086425 10.0579834c.3076811.2357559.8001633.1330681 1.0556641-.1152344 1.9851532-1.9309692 5.7279911-6.177351 7.4013672-7.7636719.5355568-.392519.438406-1.3045979-.2724609-1.4355469-2.2717514-1.9529648-5.4829903-5.3271599-7.2089844-7.3408203 2.9628906-.7119141 5.2939453-.2724609 8.0820313.6650391 2.9042969.9658203 5.1669922 3.2333984 5.7666016 5.78125.4778137 1.9741249-.1783142 5.1766949-1.1191406 6.9101563-.9026165 1.6630573-2.0287571 3.4388943-3.3876953 4.7441406-2.0457592 1.9624958-4.217783 3.6497498-7.21875 4.6533203-2.6425781.8808594-6.6123047-.0292969-8.8564453-2.0332031-2.5219541-2.2282162-2.9157171-7.5100803-2.871094-10.875 2.3469205 1.7964821 2.6676536 2.2006798 8.6289063 6.8095703zm11.3200683 14.4018555c.800415.7884521 2.005127 1.9761353 3.2958984 3.2493286-3.3359375 3.059021-6.5760498 5.947998-9.6560059 8.612793-.7034416-1.6115303-2.2438803-2.0143852-3.9857788-2.1889648 3.1311551-2.9079934 6.7392541-6.2922974 10.3458863-9.6731568zm-7.4297485 19.7054444c-.0696802-.2895164-.3055449-.5348701-.6276245-.9022217-.6917286-.7829437-3.7275715-3.1051331-3.8276978-3.1729736.4539795-1.7269287.861084-3.3485718 1.1357422-4.5045776.4749117.0878448 1.5581007.092659 2.3433228.56427.4863281.2919922.8964844.8964844.7421875 1.4013672-.1429939.4662819.1896811.9399643.6728516.96875.9707031.0566406 1.9033203.5 2.5605469 1.2158203.689209.7515259 1.2265625 2.0646973 1.2243042 2.9627686-1.1997243.4205664-2.7381726.9509009-4.2236329 1.4667968zm5.6403198-2.3174439c-.3595867-1.9005432-1.5310326-3.6907654-3.5047607-4.4651489 4.858387-4.2064819 8.2983437-7.3857613 9.6611328-8.618103 1.4111328 1.3884888 2.8118896 2.7599487 3.7839355 3.7103882-5.6125297 5.3037948-8.4398002 7.972702-9.9403076 9.3728637zm34.0787354-3.852356c.2373047.2236328.4648438.4111328.6728516.5830078.7978516.6591797.9882813.8154297.6640625 2.015625-.2265625.8007813-.9990234 1.4306641-1.6767578 1.9824219-.1953125.1572266-.5009766.4345703-.8642578.765625-.6464844.5908203-2.3642578 2.1582031-2.8076172 2.2460938-.0234375-.0019531-.0556641-.0039063-.0947266-.0048828-.3710938-.0605469-1.0205078-.7832031-1.2773438-1.0683594l-.3046875-.3447266c-.2285156-.2597656-.4433594-.5039063-.6445313-.7041016-4.0975075-4.0031815-.0250092-1.0498199-13.1074219-13.5615234-.5845108-.556797-9.6935425-9.2382393-9.6982422-9.2421875-2.229599-1.8662071-4.8313999-3.5806656-7.5994873-4.5762939 1.4541016-.8424072 2.8682861-1.9494019 4.4852295-3.5008545 1.4693851-1.4112644 2.7477283-3.3727283 3.7047119-5.1925049 3.3385315 5.559721 16.0944328 19.1185074 15.1729736 18.1732178.0070801.0072632.0093994.0170898.0168457.0241699l.2792969.265625c5.8506471 5.554409 10.9203492 10.0711823 13.0791017 12.1396484zm-13.7834473-15.0907592c-.9290771-1.0266724-2.1240234-2.355896-3.4473877-3.8497314 2.3870811-2.1843376 10.9909592-10.3139648 15.7034912-15.2700195l4.2285156 3.5778198c-4.130249 3.8252391-12.0548439 11.4421615-16.4846191 15.5419311zm18.4777832-17.4082642c-.2905273.2692871-.5892334.5529175-.8887939.8366089l-8.7034912-7.3643188c.1950531-.1821079-.7066689.6596031 1.9077148-1.7808838 2.678524-.1855202 5.1056023.8750153 6.3017578 2.2373047.9459572 1.0789967 1.4622841 2.5066967 1.5351563 3.8183594.0958747 1.1764907-.1216813 2.026039-.1523438 2.2529296z"/><path d="m48.6074677 11.3111725c.09375.3300781.3945313.5458984.7216797.5458984.4966812 0 .8564835-.4758348.7216797-.9541016l-2.234375-7.8994141c-.1123047-.3974609-.5244141-.6308594-.9257813-.5175781-.3984375.1123047-.6298828.5273438-.5175781.9257813z"/><path d="m56.3965302 10.2633209c.3613281 0 .6796875-.2617188.7392578-.6289063l1.2265625-7.5136719c.0664063-.4091798-.2109375-.794922-.6191406-.8613282-.4140625-.0722656-.7949219.2109375-.8613281.6191406l-1.2265625 7.5136719c-.0738107.4548094.2753715.8710939.7412109.8710939z"/><path d="m66.0537567 7.7701569c-.2949219-.2890625-.7695313-.2851563-1.0605469.0117188l-3.8173828 3.9013672c-.2900391.2958984-.2841797.7705078.0117188 1.0605469.2966881.2907162.773201.283289 1.0605469-.0117188l3.8173828-3.9013672c.290039-.2958985.2841797-.7705079-.0117188-1.0605469z"/></g></svg>