<svg id="Layer_1" enable-background="new 0 0 68 68" height="512" viewBox="0 0 68 68" width="512" xmlns="http://www.w3.org/2000/svg"><g id="_x35_8"><path d="m4.3390203 40.2676849c.0429688.0078125.0864258.0112305.1289063.0112305.3579102 0 .6748047-.2573242.737793-.6220703.5297852-3.0541992 1.5073242-6.4448242 2.9833989-10.3413086 1.2852192.7711315 4.26441 2.5651779 5.2977295 3.1837769-.9086113 4.8549156-1.9224892 10.6650162-3.4958496 15.1899414l-1.3223877-.7584839c-.3579102-.2070313-.8173833-.0820313-1.0239263.2768555-.2005615.3497925-.0839844.7894897.2529907 1.0029297.0933228.3262329.1920781.6752319.2654424.918396.8560791.6149902 1.8616333 1.1260986 2.8423462 1.5266724.213623-.1151733.3736572-.5320435.4273071-.7642822.8508911.5344849 1.7000122 1.2796021 2.5509033 1.8140869-1.2523651 1.290905.6140919 5.7014885 3.4229727 4.9876099-.3870449 2.4832687 1.9753933 4.1611595 4.175293 3.6069336-.0309238 2.2897186 2.2856522 4.0283585 4.5724487 3.2689209.3231201 1.1591797 1.2640381 2.2489014 2.4333496 2.6268311 1.1693115.3779907 2.526062.1473999 3.4952393-.5940552.1409302-.1077881.2736206-.1981812.4074707-.2902832 1.763092.4825287 3.5656281.2377777 5.1473389-.4661255 1.944294.8231659 4.0789452-.5548325 4.3618774-2.2756958.8572998.4069824 1.9157715.3829956 2.7527466-.0623779.8369141-.4453735 1.5942383-1.3108521 1.7070313-2.2340698.9164429.2473755 1.9509888.0314941 2.6833496-.5599365.7324219-.5914307 1.2820435-1.7546997 1.2035522-2.678772 2.6608276-1.4717407 5.2671509-2.8989258 7.9279785-4.3706665-.0261841.2168579.420105.503479.6386108.5510254.8284302-.1983032 1.9212036-.5930176 2.6471558-1.0297241.1978149-.4768066.3955688-.9536133.5933838-1.4303589.0281982-.0082397.0542603-.0219727.0825195-.0299683.3984375-.112793.6298828-.5273438.5170898-.9262695-.112793-.3984375-.5297852-.6274414-.9262695-.5170898-.8623657.2443237-1.6760254.6141357-2.4495239 1.0571289-3.2399902-4.1967163-5.6282959-9.5518188-6.4413452-14.4711914 1.2485962-.4111328 3.3912354-1.4550781 5.3132324-2.449707 1.4794922 3.1914063 3.2329102 7.0219727 4.5805664 10.6606445.1118164.3027344.3984375.4897461.703125.4897461.0864258 0 .1748047-.0146484.2602539-.046875.3886719-.1435547.5869141-.5751953.4428711-.9633789-1.4697266-3.9702148-3.402832-8.1362305-4.956543-11.4838867-.0864258-.1860352-.2451172-.3286133-.4394531-.3945313-.1948242-.0654297-.4067383-.0493164-.5893555.0463867-3.6162109 1.8974609-5.7109375 2.7900391-6.1826172 2.8330078-.4306335.0397491-.8055649.4584923-.6293335.9819336-.0280151.0916138-.0370483.1883545-.0274048.2888184-2.4661865 1.1068726-5.3317871 1.3643799-7.9560547.6813965-2.2059898-.5762901-4.3955154-1.7566948-6.8134766-1.3291016-.8234253.1445313-1.6340942.4030762-2.4147949.7132568-4.7304058-2.8809166-11.3262062.7674103-14.880127-1.1932373-1.1959763-.6725693-2.5151825-1.3643761-4.2791739-2.2943115.1543093-.4274254-.0851488-1.0473137-.6557007-1.1027832-6.6254454-3.9597549-6.3633528-3.9676952-6.8502812-3.7977295-.2075195.0722656-.3725586.2319336-.4521484.4360352-1.6914063 4.3413086-2.7973633 8.0893555-3.3813474 11.4580078-.0708007.4077146.2026368.7958982.6108397.8666989zm31.7909541 23.1883545c-.8262329.3534546-1.5695801.3803101-2.031189.2593994-.7160034-.1877441-1.5864868-.7654419-1.9996338-1.2977295.1920471-.5702591.4219666-.9572029.5614624-1.6333008 2.3057556 1.7262612 1.2323265.8566552 3.4693604 2.6716309zm-4.8998413-3.3275146c.0180664.3378906-.1279297.7275391-.3173828 1.1894531-.4206505 1.0305328-.401741 1.2967491-.4443359 1.7924805-.0145874.3134155-.0216675.7324829.1229248 1.1099854-1.1748981.3504868-2.5830994-.6882477-3.0603638-1.7868042.9262695-1.0465698 1.7775269-2.1604004 2.5457153-3.319397.5519409-.0134888 1.1245727.4805297 1.1534424 1.0142822zm-2.1772461-2.2246094c-.0028687.019104.0042114.036499.0028076.055481-.7937622 1.2355347-1.6989746 2.4151611-2.680481 3.5205688-.0556641.0227051-.1161499.0303345-.1660767.0665283-.9324074.6819916-2.292326.227787-2.6030273-.8505859-.118042-.4116821-.1188965-1.0826416-.0628052-1.5640869 2.5067234-3.2800751 1.1300716-1.4305496 2.9856567-3.5823975.0183716-.0203857.0244751-.0462036.0402222-.0679321.5490723-.0288696.9898071.0218506 1.3543091.1685181.7373047.296875 1.2651368 1.3500976 1.1293946 2.2539062zm-6.7301026.3826294c-.7984009.3178711-1.7903442.1763306-2.4285889-.3889771-.6534424-.5775146-.8979492-1.5652466-.6057129-2.3733521 1.6628284-1.4863243 2.8591232-3.287075 4.5539551-2.4547729.831543.4091797 1.296875 1.3374023 1.2797852 1.6367188-.0028687.0487671.0134888.0924072.0196533.1390991-.7068138.8586426-2.6161747 3.1781502-2.8190918 3.4412842zm-3.4715576-4.4207153c-.0029907.0055542-.0024414.0117798-.0053101.017395-.2610474.2587891-.5128784.4959717-.7529907.6941528-.7497559.2345581-1.6880493-.0917358-2.0634766-.7647705-.3846426-.6871948-.1285391-1.6693726.5287476-2.1247559.0061035-.0006104.0114746.0020142.0176392.0012207 1.5901928-.2003326 2.653553 1.4778023 2.2753906 2.1767579zm24.2250977-15.9038086c2.8353882.7390137 5.9227905.5040894 8.6201782-.618103.9528198 4.4858398 3.0722046 9.1977539 5.8880615 13.0925293-2.956543.9696045-5.781311 2.4310913-8.2633057 4.2736206-.5282364-1.1203499-.6523743-1.175396-6.3171997-6.7324219-2.0383301-1.9829712-4.1408081-4.0103149-6.6463013-5.4447021.3951416-.0240479.7382813-.3201904.7488403-.7271729.0102539-.4140625-.3173828-.7583008-.7314453-.7685547-1.3110352-.0195313-3.3076172.8017578-4.269043 1.7851563-1.2154331 1.2431488-1.9190369 2.8115959-3.1375122 3.8867188.6390533-1.6037941-1.2136345-3.1614685-2.6379395-2.1295166.374939-1.050293.965271-1.8930664 1.7471313-2.9364014.7587891-1.012207 2.0068359-1.9995117 3.6088867-2.8554688 6.5568545-3.4991112 6.6093256-2.0697213 11.3896487-.8256836zm-24.4589844-1.9497071c3.8866005 2.1444092 9.3449688-.8768768 13.815979.6953735-2.0310764 1.0171165-4.1558285 2.1677742-5.5557251 4.0360718-1.1274414 1.5043945-1.9541016 2.7192383-2.3193359 4.6655273-.140625.7514648-.0405273 1.8964844.4238281 2.6323242.6647625 1.0504799 2.1307602 1.2463112 3.2851563.8320313 2.4689007-.8865623 3.4392929-3.4955215 4.9111328-5.0024414.2503052-.2559814.633667-.5139771 1.0613403-.7340698 4.3476639 1.9042168 8.3458061 6.6945496 12.0055542 10.1530151.8821335.8382149 1.8236847 1.7097359 1.9775391 2.8740234.1374893 1.0438499-.496891 2.0072365-1.6113281 1.862793-.9428711-.1230469-1.7553711-.8920898-2.5415039-1.6362305-1.198555-1.1324043-3.3589668-3.0110359-5.1791992-5.1601563-.2670898-.3144531-.7402344-.3554688-1.0571289-.0874023-.315918.2675781-.3549805.7407227-.0874023 1.0571289 1.9682426 2.3236008 4.3639908 4.3988304 5.2924805 5.2797852.5375977.5089111 1.119812 1.0535278 1.7954712 1.4573364-.421875 1.3863449-1.9083061 2.0585823-3.2144165 1.6222534-.9990959-.3318291-1.3795052-.8317909-5.9003906-5.3071289-.2944336-.2915039-.769043-.2885742-1.0605469.0058594s-.2885742.769043.0058594 1.0605469c4.137619 4.0850868 4.5804024 4.6265335 5.5581055 5.2210693-.27771 1.0654297-1.1022339 1.4462891-1.7441406 1.4385986-.5678711-.0092773-1.1357422-.453125-1.7158203-.9467773-1.4850922-1.2636642-3.1826897-2.3411751-4.6220703-3.5654297-.0812378-.0691528-.1732178-.1162109-.2692871-.1450806-.364563-.3306274-.8178711-.5630493-1.3071899-.6586304.0174561-1.4436646-.8439331-2.9064941-2.0802612-3.4042969-.5717773-.2310791-1.2185059-.3146362-1.9914551-.2727661-.2786865-.8388062-.9946899-1.7731934-1.9880371-2.2619019-1.7121582-.8425293-3.1236572-.1162109-4.2687988.8440552-.5633755-1.5491982-2.1500072-2.5884285-3.854248-2.3660278-.0488281.0064087-.0890503.0308228-.1340942.0458374-.0870972.0004272-.1711426.0180664-.2556143.0495605-1.3777466-1.0496216-2.8359375-1.9927368-4.3399658-2.8200684 1.3687658-4.1901474 2.2825089-9.2040329 3.0922852-13.5443726 1.4598049.7694934 2.7072014 1.4242252 3.8732285 2.0795901z"/><path d="m56.8663635 35.7183685c-.9165649-.3470116-2.2284546 1.0960083-1.5068359 2.315918.2653732.448658.7874451.7543945 1.3950195.7543945 1.0856781 0 1.783989-.952282 1.5014648-1.9624023-.1445312-.5170899-.9266967-1.19907-1.3896484-1.1079102zm-.2094726 1.5683594c-.0048828-.0356445.0356445-.1118164.0673828-.1269531.0092773-.0014648.0185547-.003418.027832-.0053711.0068359.0029297.0141602.0053711.0209961.0078125.027832.0185547.0537109.0986328.0581055.1113281-.0400391.0253906-.1542969.0185547-.1743164.0131836z"/><path d="m8.8087473 45.0147552h.0131836c1.0356131-.007309 1.7488527-.8547058 1.6083984-1.8378906-.1465302-1.0330353-1.1456776-1.6338615-2.0488281-1.2675781-.0073242.0029297-.0146484.0063477-.0219727.0092773-.9122391-.0819359-1.6860147 1.580143-.7827153 2.5717773.303711.3339845.7519536.5244141 1.2319341.5244141zm.125-1.5976562c.0004883.0185547.0004883.0390625 0 .0629883-.0078125.0087891-.0498047.0327148-.1176758.034668.0424805-.0283204.0820313-.0610352.1176758-.0976563z"/><path d="m35.1642151 27.273056c6.6241493-3.4665127 9.3482933-10.2080803 8.1157227-16.5366211-.0688477-.3525391-.3774414-.6064453-.7363281-.6064453-.0175781-.003418-.0478516 0-.0722656.0004883-2.6601563 0-5.3125-1.1088867-7.105957-2.9736328-.3203545-.332798-.8532677-.2963128-1.1303711.0566406-1.6030273 2.0424805-4.3071289 3.2001953-6.8920898 2.940918-.3862305-.0366211-.7392578.2265625-.8110352.609375-1.1979256 6.428772 1.9314899 13.2589836 7.9277344 16.5043945.1113281.0600586.2338867.090332.3569336.090332.1191405 0 .2387694-.0283203.3476561-.0854492zm-7.2617188-15.5849609c2.5727539.0537109 5.1894531-1.0517578 6.9711914-2.9233398 1.9150391 1.7109375 4.4130859 2.7255859 7.0356445 2.8520508.8092155 5.4476032-1.5451851 11.0616837-7.0859375 14.1362305-5.0840396-2.9482328-7.6439265-8.6862393-6.9208984-14.0649415z"/><path d="m47.3755188 6.8428192c-.1334229-.118103-.305542-.1913452-.4945068-.1913452-4.5803986 0-8.7744713-1.8891497-11.5712891-4.796875-.3079109-.3209076-.8443642-.3082063-1.1303711.0571289-2.6030273 3.3164063-6.9931641 5.1962891-11.1918945 4.7763672-.3911133-.0375977-.7392578.2265625-.8110352.609375-1.849184 9.9231567 2.9970245 20.4493828 12.2231445 25.4428711.0256348.0137939.055481.0101318.0821533.020813.8063316.4542503 1.542038.7325516 2.3787842.3201294 9.2221795-4.5456257 14.1245804-14.6211243 12.6506959-24.0704956-.046814-.300354-.1816406-.5875854-.3967285-.8024292-.4661866-.4655762-1.1287232-1.0100098-1.7389527-1.3655396zm-23.8363037 1.3882446c4.1894531.1953125 8.4829102-1.6186523 11.2822266-4.7519531 3.0224609 2.8276367 7.2001953 4.5351563 11.4311523 4.6645508 1.4698982 8.8745136-2.3589325 18.1281853-11.4892578 23.0834961-8.41782-4.7570915-12.5641785-14.2440567-11.2241211-22.9960938z"/><path d="m39.0353088 14.5088959c-.2651367-.3168945-.7382813-.3603516-1.0566406-.09375l-4.3173828 3.6123047-1.3076172-1.7929688c-.2441406-.3349609-.7138672-.4077148-1.0478516-.1640625-.3344727.2441406-.4082031.7133789-.1640625 1.0478516 1.7684822 2.3009262 1.7388954 2.6746483 2.2949219 2.7431641.2193718.0247669.4208145-.0420895.5727539-.1694336l4.9321289-4.1264648c.3173829-.2656251.359375-.7387696.09375-1.0566407z"/></g></svg>