<svg width="488" height="422" viewBox="0 0 488 422" fill="none" xmlns="http://www.w3.org/2000/svg">
<path d="M80.2108 305.401C93.8792 305.401 97.3408 289.829 87.3101 283.46C85.9939 282.629 84.4645 282.394 83.0343 282.717C75.6972 279.92 68.4995 283.284 66.3468 289.615C63.4572 298.124 70.8912 305.401 80.2108 305.401Z" fill="#66A2D1"/>
<path d="M391.048 0.620611C361.849 -0.428943 332.021 12.9475 312.015 35.2079C303.028 40.179 300.515 38.1615 294.499 35.3812C288.056 32.4032 282.635 27.6477 276.789 23.6215C257.887 10.6018 233.841 5.27916 211.209 9.10545C204.653 10.2134 198.444 12.6969 192.451 15.6882C169.764 23.3274 150.061 39.6275 139.415 61.4087C111.774 117.541 144.772 181.25 237.184 250.792C232.17 254.734 233.077 254.074 232.448 254.578C231.672 255.019 230.779 255.578 230.282 255.909C217.921 263.53 203.108 262.725 189.521 264.343C168.597 264.343 139.331 281.935 114.554 287.629C113.311 283.729 112.082 279.826 110.639 275.96C106.782 265.629 94.8744 259.041 82.2935 260.107C69.6722 261.254 58.5692 262.872 49.2935 264.923C33.3111 268.436 -3.28467 265.464 0.480975 282.762C8.57906 319.822 7.81868 347.789 14.5949 375.159C15.3413 378.181 18.4038 380.07 21.4332 379.276C24.4626 378.534 26.3082 375.468 25.5582 372.438C19.0152 345.997 19.9043 319.485 11.8045 281.681C15.5324 279.791 27.5251 278.725 34.2126 278.129C59.1036 275.925 54.0157 274.018 83.3155 271.357C90.617 270.688 98.0141 274.445 100.058 279.916C114.628 318.938 118.485 359.99 111.275 398.945C89.4081 399.342 53.5471 400.873 33.2714 401.115C29.9345 401.154 26.893 404.206 27.9902 408.218L27.31 410.293C29.6515 413.497 42.3987 421.499 46.367 421.53C55.1414 421.597 69.3045 422.02 72.8045 421.86C92.0816 420.979 105.387 419.855 121.931 418.964C127.422 418.668 131.627 415.202 131.676 410.74C131.791 400.413 131.753 389.834 131.923 379.6C262.162 428.458 387.747 398.063 461.648 319.681C467.679 313.285 473.467 306.411 476.368 297.907C478.224 292.468 479.461 284.12 476.823 277.679C479.951 264.519 468.629 255.096 456.823 257.335C448.625 258.869 441.607 264.766 436.18 267.137C391.039 291.27 397.564 290.896 330.562 309.725C328.963 309.957 270.722 321.906 244.81 319.06C259.86 310.533 277.797 299.757 290.146 287.683C295.669 291.175 298.196 292.514 304.375 296.197C303.117 297.728 310.822 301.303 316.833 303.679C319.407 304.697 322.317 304.442 324.684 303.008C384.554 266.736 462.891 190.91 482.363 125.201C490.939 96.2617 490.056 63.4832 474.608 37.5517C459.16 11.6202 421.932 -1.51772 391.048 0.620611ZM445.707 19.1031C435.004 11.0135 422.242 5.43541 408.086 2.64083C421.764 3.7833 435.082 9.86464 445.707 19.1031ZM214.124 322.74C211.352 324.166 210.257 327.563 211.683 330.343C213.112 333.127 216.531 334.204 219.286 332.784C223.306 330.72 227.045 328.741 230.729 326.777C251.129 337.058 310.664 324.519 332.628 320.828C398.857 302.286 395.321 302.059 441.047 277.313C446.457 275.023 453.242 269.492 458.963 268.423C463.182 267.652 465.967 270.477 466.121 272.968C466.712 282.395 446.208 299.551 440.051 305.313C401.207 340.725 348.345 367.289 290.404 373.431C290.212 373.445 289.965 373.49 289.764 373.526C289.492 373.585 289.227 373.673 288.966 373.769L288.915 373.57C255.036 377.166 226.654 373.106 224.143 373.357V373.313C179.443 369.268 134.953 360.096 127.7 358.946C127.2 358.615 126.655 358.354 126.063 358.209C125.895 338.291 123.03 318.239 117.716 298.482C145.101 291.993 162.571 278.668 190.113 275.607C211.432 273.335 224.901 274.676 242.062 261.401C260.299 247.712 277.852 223.611 304.532 227.166C308.963 227.81 312.5 229.532 315.376 232.366C320.226 238.59 311.471 248.383 306.418 253.784C262.063 301.137 301.042 259.998 284.422 277.497C269.041 293.695 236.326 311.342 214.124 322.74ZM298.102 279.372C298.102 279.372 298.102 279.372 298.102 279.372C316.935 259.106 328.003 253.162 328.668 239.99C329.079 234.737 327.012 228.117 323.988 224.96C313.894 214.368 297.66 213.7 283.698 218.071C268.43 222.886 258.174 232.607 245.963 243.36C156.876 176.911 124.435 117.389 149.555 66.3793C162.657 39.5632 192.613 21.5043 222.529 22.1735C243.676 22.6882 264.396 32.2985 279.36 48.519C289.789 59.9448 307.158 59.0397 316.349 47.3352C333.867 24.8867 361.746 11.4161 388.944 11.7764C439.999 12.7411 470.197 50.369 466.021 89.6146C466.018 89.622 466.018 89.622 466.018 89.6293C462.926 119.659 451.165 146.159 427.878 175.571C395.193 216.952 352.398 254.604 309.183 285.887C305.38 283.635 302.118 281.852 298.102 279.372Z" fill="#66A2D1"/>
<path d="M206.538 38.5337C183.63 46.3499 166.953 70.4969 165.986 97.2616C165.17 119.887 174.575 143.512 192.468 163.798C193.586 165.063 195.141 165.71 196.707 165.71C201.521 165.71 204.161 159.981 200.939 156.328C184.964 138.218 176.56 117.387 177.273 97.6734C178.075 75.4822 191.608 55.5558 210.185 49.2249C213.137 48.2175 214.714 45.0116 213.707 42.0558C212.7 39.1072 209.483 37.5264 206.538 38.5337Z" fill="#66A2D1"/>
</svg>
