<?xml version="1.0" encoding="UTF-8"?>
<svg xmlns="http://www.w3.org/2000/svg" width="77" height="67" viewBox="0 0 77 67" fill="none">
  <path d="M12.6324 48.1665C13.0542 48.2047 13.4765 48.0983 13.8298 47.8648C14.1832 47.6314 14.4467 47.2847 14.577 46.8818C14.7074 46.4788 14.6969 46.0435 14.5472 45.6473C14.3976 45.2511 14.1176 44.9176 13.7534 44.7015C13.6542 44.6384 13.5435 44.5956 13.4276 44.5755C13.3118 44.5554 13.1931 44.5585 13.0784 44.5845C12.8351 44.474 12.5716 44.4146 12.3044 44.41C12.0372 44.4054 11.7718 44.4556 11.5248 44.5577C11.2778 44.6598 11.0544 44.8115 10.8684 45.0034C10.6824 45.1954 10.5377 45.4234 10.4434 45.6735C9.98743 47.0175 11.1614 48.1665 12.6324 48.1665Z" fill="#031927"></path>
  <path d="M61.7193 0.0362431C59.3687 -0.00161948 57.0375 0.466745 54.884 1.40954C52.7304 2.35233 50.805 3.74747 49.2383 5.50024C48.8431 5.8054 48.3591 5.97317 47.8598 5.97805C47.3606 5.98292 46.8734 5.82463 46.4723 5.52724C45.488 4.98869 44.5513 4.36746 43.6723 3.67024C40.6439 1.60462 36.9368 0.783219 33.3193 1.37624C32.286 1.57476 31.2879 1.92523 30.3573 2.41624C28.5556 3.01078 26.8886 3.9544 25.4517 5.19321C24.0147 6.43203 22.8358 7.94178 21.9823 9.63624C17.6173 18.5002 22.8283 28.5612 37.4213 39.5432C36.6293 40.1662 36.7733 40.0612 36.6733 40.1432C36.5503 40.2132 36.4093 40.3012 36.3313 40.3532C34.3793 41.5532 32.0403 41.4292 29.8943 41.6852C26.5943 41.6852 21.9683 44.4632 18.0553 45.3622C17.8553 44.7462 17.6653 44.1302 17.4373 43.5192C17.0557 42.6794 16.4154 41.9837 15.61 41.5339C14.8047 41.0841 13.8765 40.9037 12.9613 41.0192C11.2102 41.1645 9.46982 41.4186 7.7503 41.7802C5.2263 42.3352 -0.549703 41.8652 0.0422973 44.5972C1.3203 50.4432 1.1993 54.8602 2.2703 59.1822C2.33676 59.4011 2.48472 59.586 2.68362 59.6988C2.88251 59.8117 3.11716 59.8438 3.33908 59.7886C3.561 59.7334 3.75324 59.5951 3.87611 59.4023C3.99897 59.2094 4.04307 58.9767 3.9993 58.7522C2.9683 54.5772 3.1093 50.3902 1.8303 44.4202C2.98428 44.0969 4.1719 43.9087 5.3693 43.8592C9.2993 43.5112 8.4993 43.2102 13.1223 42.7902C13.6485 42.7173 14.1843 42.8078 14.6573 43.0497C15.1303 43.2915 15.5174 43.6729 15.7663 44.1422C18.0506 50.1324 18.6628 56.6309 17.5373 62.9422C14.0843 63.0052 8.4213 63.2422 5.2193 63.2852C5.08426 63.2855 4.95115 63.3172 4.83048 63.3779C4.70982 63.4385 4.60493 63.5264 4.52411 63.6345C4.44329 63.7427 4.38877 63.8682 4.36485 64.0011C4.34093 64.134 4.34827 64.2707 4.3863 64.4002L4.2793 64.7282C5.12519 65.5523 6.15738 66.1602 7.2883 66.5002C8.6743 66.5112 10.9103 66.5772 11.4633 66.5522C14.5073 66.4132 16.6083 66.2352 19.2213 66.0952C19.5951 66.1153 19.9625 65.9919 20.2485 65.7503C20.5345 65.5088 20.7175 65.1672 20.7603 64.7952C20.7783 63.1642 20.7723 61.4952 20.7993 59.8772C41.3653 67.6002 61.1993 62.8002 72.8683 50.4212C73.8811 49.4554 74.674 48.2828 75.1933 46.9832C75.5735 45.9565 75.5988 44.8321 75.2653 43.7892C75.3773 43.3503 75.3741 42.89 75.2561 42.4526C75.1382 42.0153 74.9093 41.6158 74.5918 41.2927C74.2743 40.9697 73.8788 40.734 73.4436 40.6085C73.0083 40.483 72.5481 40.4719 72.1073 40.5762C70.9589 40.9507 69.8633 41.4709 68.8473 42.1242C61.7193 45.9352 62.7473 45.8762 52.1683 48.8492C51.9153 48.8862 42.7183 50.7732 38.6263 50.3232C41.204 48.9667 43.6078 47.303 45.7853 45.3682C46.6573 45.9192 47.0563 46.1312 48.0323 46.7132C47.8323 46.9552 49.0503 47.5192 49.9993 47.8952C50.2002 47.9744 50.4166 48.006 50.6317 47.9876C50.8468 47.9692 51.0548 47.9013 51.2393 47.7892C60.6943 42.0612 73.0643 30.0892 76.1393 19.7102C77.4933 15.1402 77.3543 9.96424 74.9143 5.86924C72.4743 1.77424 66.5993 -0.299757 61.7193 0.0362431ZM70.3513 2.95524C68.5938 1.64851 66.5617 0.759345 64.4093 0.355243C66.6139 0.575206 68.6939 1.48505 70.3513 2.95524ZM33.7793 50.9002C33.5684 51.009 33.4094 51.197 33.3372 51.423C33.265 51.649 33.2856 51.8944 33.3943 52.1052C33.503 52.3161 33.6911 52.4751 33.9171 52.5473C34.143 52.6195 34.3884 52.599 34.5993 52.4902C35.2343 52.1642 35.8243 51.8522 36.4063 51.5412C39.6283 53.1652 49.0293 51.1842 52.4983 50.6022C62.9573 47.6742 62.3983 47.6382 69.6193 43.7302C70.5172 43.1775 71.4642 42.7089 72.4483 42.3302C72.5699 42.2962 72.6973 42.2882 72.8222 42.3067C72.9471 42.3251 73.0668 42.3696 73.1733 42.4374C73.2799 42.5051 73.3711 42.5945 73.4408 42.6997C73.5106 42.805 73.5574 42.9237 73.5783 43.0482C73.6713 44.5372 70.4343 47.2482 69.4613 48.1562C62.9091 54.1364 54.6385 57.899 45.8253 58.9092C45.7953 58.9092 45.7563 58.9182 45.7253 58.9242C45.6825 58.9336 45.6404 58.946 45.5993 58.9612L45.5913 58.9302C42.1876 59.2338 38.7632 59.2238 35.3613 58.9002V58.8932C28.3023 58.2542 21.2773 56.8062 20.1313 56.6242C20.0526 56.571 19.9654 56.5317 19.8733 56.5082C19.8359 53.3211 19.393 50.1516 18.5553 47.0762C22.8803 46.0512 25.6383 43.9472 29.9883 43.4642C33.3553 43.1052 35.4823 43.3172 38.1883 41.2212C41.0683 39.0592 43.8403 35.2532 48.0533 35.8152C48.6988 35.893 49.3006 36.1816 49.7653 36.6362C50.5313 37.6192 49.1483 39.1652 48.3503 40.0182C41.3503 47.4962 47.5013 40.9992 44.8763 43.7632C42.4473 46.3212 37.2763 49.1082 33.7763 50.9082M47.0383 44.0592C50.0123 40.8592 51.7603 39.9202 51.8653 37.8402C51.9222 36.9849 51.6588 36.139 51.1263 35.4672C49.5323 33.7942 46.9683 33.6892 44.7643 34.3792C42.3533 35.1392 40.7333 36.6792 38.8053 38.3732C24.7393 27.8752 19.6163 18.4762 23.5833 10.4202C24.6696 8.30393 26.3222 6.53078 28.3569 5.29837C30.3916 4.06597 32.7285 3.4227 35.1073 3.44024C36.8048 3.5012 38.4729 3.90057 40.014 4.61493C41.555 5.32929 42.9378 6.34425 44.0813 7.60024C44.4514 8.01752 44.9089 8.3482 45.4212 8.5688C45.9336 8.78939 46.4881 8.8945 47.0457 8.87665C47.6032 8.8588 48.1499 8.71844 48.6471 8.46552C49.1442 8.21261 49.5796 7.85335 49.9223 7.41324C51.2852 5.67235 53.0248 4.2629 55.0105 3.29074C56.9962 2.31858 59.1764 1.80899 61.3873 1.80024C69.4493 1.95024 74.2183 7.89224 73.5583 14.0902C73.0703 18.8322 71.2123 23.0172 67.5353 27.6622C62.0988 34.2859 55.794 40.1464 48.7913 45.0852C48.1913 44.7292 47.6753 44.4482 47.0413 44.0562" fill="#031927"></path>
  <path d="M32.5797 6.0221C28.9617 7.2561 26.3287 11.0701 26.1797 15.2961C26.1807 19.204 27.677 22.9634 30.3617 25.8031C30.5183 25.98 30.7387 26.0875 30.9745 26.1021C31.2104 26.1167 31.4423 26.0371 31.6196 25.8808C31.7968 25.7245 31.9047 25.5043 31.9197 25.2685C31.9348 25.0327 31.8556 24.8006 31.6997 24.6231C29.3189 22.125 27.9822 18.8119 27.9627 15.3611C27.9771 13.7148 28.4786 12.1097 29.404 10.7481C30.3294 9.38648 31.6373 8.32938 33.1627 7.7101C33.2759 7.67422 33.3809 7.61608 33.4713 7.53909C33.5618 7.46211 33.636 7.36783 33.6895 7.26179C33.7431 7.15575 33.7749 7.04009 33.7831 6.92158C33.7913 6.80308 33.7758 6.68413 33.7374 6.5717C33.6991 6.45928 33.6386 6.35565 33.5597 6.2669C33.4807 6.17814 33.3849 6.10606 33.2777 6.05486C33.1705 6.00367 33.0541 5.9744 32.9355 5.96877C32.8168 5.96315 32.6983 5.98128 32.5867 6.0221" fill="#031927"></path>
</svg>
