<?xml version="1.0" encoding="UTF-8"?>
<svg xmlns="http://www.w3.org/2000/svg" width="67" height="76" viewBox="0 0 67 76" fill="none">
  <g clip-path="url(#clip0_727_8350)">
    <path d="M13.1091 12.217C10.8806 15.1185 9.49637 18.579 9.10914 22.217C8.73114 26.139 8.64714 29.139 8.10914 32.217C7.97914 32.955 7.74714 35.201 9.10914 36.217C10.3801 37.164 12.1181 36.375 13.1091 36.217C14.1881 36.043 14.7981 36.917 16.1091 37.217C16.7738 37.2903 17.4445 37.2903 18.1091 37.217C19.1779 37.1441 20.2104 36.8 21.1091 36.217C22.8981 36.694 24.2791 36.982 26.1091 36.217C27.4294 36.481 28.7889 36.481 30.1091 36.217C30.7743 36.1542 31.444 36.1542 32.1091 36.217C32.7739 36.146 33.4444 36.146 34.1091 36.217C35.1261 36.329 37.3571 36.265 38.1091 35.217C39.1811 33.723 38.1931 31.055 38.1091 29.217C37.9448 26.5319 37.6108 23.8599 37.1091 21.217C36.2831 16.281 36.0431 9.255 30.1091 7.217C28.8911 6.799 27.3791 7.126 26.1091 7.217C26.6031 5.428 25.4921 3.576 24.1091 2.217C22.5761 0.711004 20.2261 -0.512996 18.1091 0.217004C14.4281 1.507 12.6001 6.476 14.1091 9.217C14.3281 9.617 14.7161 9.832 15.1091 10.217C14.0511 10.764 13.8091 11.378 13.1091 12.217ZM12.1091 34.217C11.2521 34.355 10.4581 35.475 10.1091 35.217C9.22414 34.556 9.98514 31.79 11.1091 21.217C11.2611 21.43 12.0091 22.035 12.1091 22.217C12.0851 22.184 12.1291 22.254 12.1091 22.217C12.3911 25.177 13.2511 29.564 15.1091 32.217C15.8443 33.4508 16.8754 34.4818 18.1091 35.217C15.4081 35.45 14.3031 33.865 12.1091 34.217ZM16.1091 31.217C14.4094 28.4974 13.3811 25.4125 13.1091 22.217L14.1091 20.217C14.9171 21.3922 15.934 22.409 17.1091 23.217C17.4841 23.486 17.8201 23.592 18.1091 23.217C19.2821 21.695 20.7791 20.649 22.1091 19.217C22.5877 20.3304 23.2655 21.347 24.1091 22.217C24.4761 22.655 24.7791 22.627 25.1091 22.217C26.3433 20.788 27.6802 19.4511 29.1091 18.217C29.7021 19.317 31.1991 20.281 32.1091 21.217C31.8645 23.9718 31.1896 26.6712 30.1091 29.217C29.2231 31.29 28.1581 33.155 26.1091 34.217C22.5411 35.926 18.2461 34.288 16.1091 31.217ZM37.1091 30.217C37.1676 31.6188 36.8204 33.0077 36.1091 34.217C35.8321 34.604 35.7091 34.283 35.1091 34.217C34.2661 34.125 33.2201 34.23 32.1091 34.217C30.9911 34.235 30.4391 34.11 29.1091 34.217C30.4241 33.1518 31.4548 31.7776 32.1091 30.217C33.2561 27.531 32.9161 23.117 33.1091 20.217L35.1091 18.217C36.4681 24.946 37.0731 29.845 37.1091 30.217ZM16.1091 8.217C15.1571 6.493 16.3641 3.179 19.1091 2.217C19.8012 1.97918 20.5473 1.94706 21.2573 2.12455C21.9672 2.30203 22.6104 2.68149 23.1091 3.217C23.673 3.69558 24.0727 4.33881 24.252 5.05628C24.4314 5.77375 24.3814 6.5294 24.1091 7.217C24.0751 7.282 24.1261 7.149 24.1091 7.217C22.6356 7.55568 21.2642 8.24137 20.1091 9.217C19.1185 9.02319 18.0998 9.02319 17.1091 9.217C16.6874 8.98564 16.3405 8.63872 16.1091 8.217ZM20.1091 11.217C20.4231 11.323 20.8771 11.456 21.1091 11.217C22.1174 10.1618 23.404 9.41388 24.8199 9.05991C26.2358 8.70594 27.7229 8.76041 29.1091 9.217C32.4561 10.367 34.2171 13.876 35.1091 17.217L32.1091 19.217C30.1681 16.969 30.9811 15.417 30.1091 15.217C29.8351 15.155 29.3181 16.032 29.1091 16.217C27.6743 17.4448 26.337 18.7822 25.1091 20.217C23.4971 17.773 24.0991 16.517 23.1091 16.217C22.7921 16.117 22.3361 15.983 22.1091 16.217C20.6878 17.8113 19.3526 19.4804 18.1091 21.217C15.2691 18.861 15.2191 18.242 14.1091 18.217C13.8411 18.217 13.2651 17.934 13.1091 18.217L12.1091 20.217C11.6961 19.661 11.3511 19.604 11.1091 19.217C11.6441 17.0164 12.6697 14.9653 14.1091 13.217C14.8168 12.3492 15.7566 11.7005 16.8189 11.3464C17.8812 10.9923 19.0223 10.9474 20.1091 11.217Z" fill="#E01D2F"></path>
    <path d="M23.1094 49.2158C23.3072 49.2158 23.5005 49.1572 23.6649 49.0473C23.8294 48.9374 23.9576 48.7812 24.0333 48.5985C24.1089 48.4158 24.1287 48.2147 24.0902 48.0207C24.0516 47.8267 23.9563 47.6486 23.8165 47.5087C23.6766 47.3689 23.4984 47.2736 23.3045 47.235C23.1105 47.1965 22.9094 47.2163 22.7267 47.2919C22.544 47.3676 22.3878 47.4958 22.2779 47.6602C22.168 47.8247 22.1094 48.018 22.1094 48.2158C22.1338 48.4728 22.247 48.7132 22.4295 48.8957C22.612 49.0782 22.8524 49.1914 23.1094 49.2158Z" fill="#E01D2F"></path>
    <path d="M23.1094 53.2172C23.3663 53.1928 23.6067 53.0796 23.7892 52.8971C23.9718 52.7146 24.085 52.4742 24.1094 52.2172C24.1094 51.7372 23.5894 52.2172 23.1094 52.2172C22.6294 52.2172 22.1094 51.7372 22.1094 52.2172C22.1338 52.4742 22.247 52.7146 22.4295 52.8971C22.612 53.0796 22.8524 53.1928 23.1094 53.2172Z" fill="#E01D2F"></path>
    <path d="M51.1056 75.2161C52.1951 75.2674 53.2647 74.9109 54.1056 74.2161C55.2499 73.3716 56.2611 72.3604 57.1056 71.2161C59.2787 68.3352 61.2821 65.3301 63.1056 62.2161C69.9766 50.0431 63.9426 40.2891 53.1056 39.2161C50.3328 38.7685 47.4894 39.2034 44.9773 40.4595C42.4651 41.7156 40.4111 43.7293 39.1056 46.2161C35.8796 41.6781 28.3516 38.0161 21.1056 39.2161C12.3056 40.7541 4.02156 45.9761 0.105556 55.2161C0.0240772 55.412 -0.0142844 55.6231 -0.00692203 55.8351C0.00044036 56.0471 0.0533537 56.255 0.148224 56.4448C0.243093 56.6345 0.377697 56.8016 0.542886 56.9347C0.708074 57.0678 0.899978 57.1638 1.10556 57.2161L2.10556 59.2161C10.7426 59.9161 28.8566 60.2441 40.1056 60.2161C42.595 65.1919 45.6124 69.8855 49.1056 74.2161C49.6189 74.7941 50.3351 75.1522 51.1056 75.2161ZM29.1056 41.2161C27.5816 42.7831 25.3356 44.2301 23.1056 44.2161C22.1777 44.2589 21.2514 44.1026 20.389 43.7576C19.5265 43.4126 18.7479 42.887 18.1056 42.2161C22.2196 40.9231 25.0496 39.9001 29.1056 41.2161ZM16.1056 42.2161C17.9376 44.3411 20.3006 46.1951 23.1056 46.2161C24.6405 46.1263 26.1412 45.7254 27.5164 45.0378C28.8917 44.3502 30.1128 43.3902 31.1056 42.2161C34.0616 43.3479 36.5349 45.4679 38.1056 48.2161C37.0737 50.7829 37.0737 53.6493 38.1056 56.2161C35.0776 56.2891 28.2266 57.2721 23.1056 57.2161C23.6386 56.6621 22.8676 55.2161 22.1056 55.2161C21.3846 55.2161 21.5596 56.6661 22.1056 57.2161C16.0766 57.1301 8.05956 56.9381 2.10556 56.2161C4.83256 50.1821 9.89456 44.5841 16.1056 42.2161ZM39.1056 52.2161C38.7556 46.0551 44.4856 40.2161 51.1056 40.2161C57.5366 40.2161 63.7386 45.8801 63.1056 52.2161C62.6576 56.7261 58.0926 64.2781 51.1056 73.2161C51.0226 73.3221 51.2056 73.3391 51.1056 73.2161C47.3306 68.4351 39.4366 58.3121 39.1056 52.2161Z" fill="#E01D2F"></path>
    <path d="M58.1094 51.2172C58.1649 50.2835 58.0218 49.3486 57.6897 48.4742C57.3575 47.5997 56.8438 46.8056 56.1824 46.1442C55.521 45.4828 54.7269 44.9691 53.8524 44.6369C52.978 44.3048 52.0431 44.1617 51.1094 44.2172C46.9204 44.2172 43.1094 47.0222 43.1094 51.2172C43.187 53.3142 44.0547 55.3043 45.5385 56.7881C47.0223 58.2719 49.0124 59.1396 51.1094 59.2172C55.3044 59.2172 58.1094 55.4062 58.1094 51.2172ZM54.1094 56.2172C52.2674 57.1662 49.7574 57.4952 48.1094 56.2172C45.0474 53.8422 45.9444 47.9292 50.1094 46.2172C51.0094 45.8452 51.1754 46.2942 52.1094 46.2172C56.6304 47.6222 57.9664 53.2872 54.1094 56.2172Z" fill="#E01D2F"></path>
    <path d="M40.1099 4.21688C38.6659 5.72588 37.1799 6.42788 36.1099 8.21688C35.7609 8.79988 36.4449 10.2169 37.1099 10.2169C38.1719 10.2169 37.5479 8.94388 41.1099 5.21688C41.2762 4.9098 41.3633 4.5661 41.3633 4.21688C41.3633 3.86767 41.2762 3.52396 41.1099 3.21688C40.7609 2.88488 40.4409 3.86788 40.1099 4.21688Z" fill="#E01D2F"></path>
    <path d="M45.1052 8.21594L40.1052 11.2159C39.6892 11.4549 38.8662 11.7999 39.1052 12.2159C39.3442 12.6319 40.6972 13.4529 41.1052 13.2159L46.1052 10.2159C46.5212 9.97694 46.3442 9.63194 46.1052 9.21594C45.8662 8.79994 45.5212 7.97394 45.1052 8.21594Z" fill="#E01D2F"></path>
    <path d="M41.1066 16.2169C41.0406 16.6919 41.6306 17.1509 42.1066 17.2169C46.6706 17.8479 49.0146 18.2169 49.1066 18.2169C49.5326 18.2169 49.0456 17.6519 49.1066 17.2169C49.1726 16.7419 49.5826 16.2829 49.1066 16.2169L42.1066 15.2169C41.6406 15.1479 41.1736 15.7409 41.1066 16.2169Z" fill="#E01D2F"></path>
  </g>
  <defs>
    <clipPath id="clip0_727_8350">
      <rect width="66.029" height="75.245" fill="white"></rect>
    </clipPath>
  </defs>
</svg>
