<?xml version="1.0" encoding="UTF-8"?>
<svg xmlns="http://www.w3.org/2000/svg" xmlns:xlink="http://www.w3.org/1999/xlink" version="1.1" width="512" height="512" x="0" y="0" viewBox="0 0 512 512" style="enable-background:new 0 0 512 512" xml:space="preserve" class="">
  <g>
    <path d="M149.2 231.5c-1.5-5.6-5.6-11.2-17.8-26.3-13.2-16.4-34.4-15.5-49.6-7.4-7.4 4-11.6 8.7-12.4 14-.5 3-.1 7.5 4.5 12.3 1.5 1.7 30.3 34.4 34.5 39.4 1.4 1.6 3.1 2.6 5.1 2.8h.7c4 0 7.5-3 12-6.7 3.5-2.9 7.5-6.3 11.7-8.1 13.6-5.5 13-14.1 11.3-20zm-14.6 11.8c-5.5 2.3-10.2 6.3-14 9.4-1.9 1.6-4.3 3.6-5.7 4.3-5.9-7-33-37.6-34.2-39l-.1-.1c-1.1-1.2-2.4-3-2.2-4.7.4-2.3 3.2-5 7.8-7.4 4.3-2.3 10.9-4.6 17.8-4.6 7.2 0 14.7 2.4 20.5 9.6 11.6 14.5 15.1 19.4 16.1 23.1.8 3.3 1.6 6.2-6 9.4zm21.7 63.9c-.8.7-1.9 1.1-2.9 1.1-1.3 0-2.6-.5-3.5-1.6-1.6-1.9-1.4-4.7.6-6.4 44.6-37.4 92.4-26.1 110.9-19.5 2.3.8 3.6 3.4 2.7 5.8-.8 2.3-3.4 3.6-5.8 2.7-16.9-6.1-60.9-16.6-102 17.9zm137.3 8.2c-1 2.3-3.6 3.4-5.9 2.4-32.6-13.5-86-1.5-109.9 24.6-.9 1-2.1 1.5-3.3 1.5-1.1 0-2.2-.4-3-1.2-1.8-1.7-2-4.5-.3-6.4 12.6-13.7 33.2-24.6 56.5-29.8s46.4-4.1 63.5 2.9c2.2 1 3.3 3.7 2.4 6zm18.5-42.9c-.1 2.4-2.1 4.4-4.5 4.4h-.2c-2.5-.1-4.4-2.2-4.4-4.7.5-14.3 7.2-27.3 20.1-38.6 21.7-19.1 56.5-28.8 71.9-27.4 2.5.2 4.3 2.4 4.1 4.9s-2.4 4.3-4.9 4.1c-11.5-1.1-44 6.6-65.1 25.2-10.9 9.5-16.6 20.4-17 32.1zM333 302c-.5 2-2.4 3.3-4.3 3.3-.4 0-.8-.1-1.2-.2-2.4-.7-3.8-3.1-3.2-5.5 9.2-33.6 56.5-70.8 98.7-66.4 2.5.3 4.3 2.5 4 5s-2.5 4.3-5 4c-37.4-3.9-80.9 30.2-89 59.8zm-56.3-142.3c-4-2.1-9.3-2-15.6.3-8.1 3-10.5 10-9.2 15.5 1.4 5.9 6.3 10 11.9 10 .4 0 .8 0 1.1-.1 6.9-.7 12-3.2 15-7.5 2.8-4 3-8.6 2.4-11.3-.7-2.9-2.8-5.5-5.6-6.9zm-4.1 13.1c-1.4 2-4.4 3.2-8.5 3.6-1.7.2-3-1.4-3.4-3-.3-1.3-.2-3.7 3.6-5.1 2.6-1 4.5-1.3 5.9-1.3 1.3 0 2 .3 2.4.5.9.5 1.1 1.2 1.1 1.2 0 .5.1 2.4-1.1 4.1zm88.5-11.8c-.9 2.3-3.6 3.4-5.9 2.5l-21.1-8.5-2.2 11.6c-.3 1.4-1.2 2.7-2.6 3.3-1.3.6-2.9.5-4.1-.2L305 157.8l-5.9 35.9c-.4 2.2-2.3 3.8-4.4 3.8-.2 0-.5 0-.7-.1-2.5-.4-4.1-2.7-3.7-5.2l6.9-42.4c.2-1.5 1.2-2.7 2.5-3.4 1.3-.6 2.9-.6 4.2.2l20.4 12 2-10.8c.3-1.3 1.1-2.5 2.3-3.1s2.6-.7 3.9-.2l26.2 10.6c2.2 1 3.3 3.6 2.4 5.9zm4.1 23.5h.8c11.7-.6 18.1-1 21.6-5.3 1.7-2.2 2.3-5 1.7-8.4-1.1-6.1-6.9-14-13.7-23.2-2.9-4-5.9-8-8.3-11.8-9.2-14.2-29.9-26.1-55.4-20.6-25.7 5.5-55.9 31.5-68.3 44.5-11 11.5-11.3 23.1-1.1 34.5l19.8 22c5.7 6.4 12 12.2 19.5 12.2h.9c6.1-.4 11.8-4.5 17.4-12.6 10.6-15.6 50.2-30.5 65.1-31.3zm-72.6 26c-3.9 5.6-7.4 8.6-10.5 8.8-4.1.3-9-4.5-13.2-9.2l-19.8-22c-5.9-6.6-8.1-12.9.9-22.3 13.6-14.3 41.8-37.2 63.7-41.9 21.2-4.5 38.7 5.5 46 16.7 2.6 3.9 5.6 8.1 8.6 12.2 5.3 7.2 11.4 15.5 12.1 19.5.1.7.1 1.1.1 1.3-1.4 1.1-8.6 1.5-14.9 1.9h-.8c-14.4.7-58.8 15.5-72.2 35zm218.2 63.8c-.1-5.7-2.9-13.7-11.6-24.6-8.6-10.7-29.8-38.5-52.2-68-26.9-35.2-54.7-71.7-60.2-78-10.6-12.2-26.8-25.4-57.5-18.4-27.2 6.1-86.8 32.2-118 87.1-2.8 4.8-8.9 6.8-13.9 4.4-2.9-1.4-10.6-6.3-13.9-8.5-22.4-22.1-45-33.3-67.5-33.5-1.6-.1-3.2.1-4.7.5-7.1 1.7-11.8 7.9-12.8 16.6-27.1 1.8-59.5 8.4-81.4 25.3C5.7 186 0 195.2.1 204.5c.2 14.9 15.3 26 25.4 33.3 1.6 1.1 3.1 2.2 4.3 3.2 74.9 57.9 111.5 129.4 115.4 137.4 2.7 5.4 5.1 9.8 7.7 13 8.6 12.4 19.4 22 27.4 29 1.6 1.4 3 2.6 4.3 3.8 3.1 2.8 7 4.3 11 4.3 4.2 0 8.4-1.6 11.6-4.9 8.3-8.4 24.4-23.9 39.3-33.3 18.2-11.6 55.2-30 100.3-25.4 5.1 1 10.4-.4 14.3-3.8 25.2-19.5 86.3-23.5 115.2-22.9 4.3.1 8.4.6 12.1 1 7.6.9 14.2 1.7 18.7-2 2.7-2.2 4.2-5.5 4.5-10.2.8-15.7.6-35-.8-52.7zm-7.9 24.5c-43.8-10-87.1 1-115.4 17.9 8.6-11.4 18.8-20.8 31.8-25.2 31-10.5 52.1-6.4 69.1-3.1 5.5 1.1 10.4.7 14.2-1 .2 3.8.3 7.6.3 11.4zm-285-70-12.9-6c-1.2-.6-2.6-.6-3.8 0s-2.1 1.7-2.4 3c0 .1-1.8 7.2-4.3 15.9-7.9-16.6-24.5-42.3-42.4-69.6-6.1-9.3-11.4-17.4-14.1-21.9-.5-.9-1.1-1.8-1.7-2.6 38.1 13.2 68.7 59.2 81.6 81.2zm-104.6-84.7c3.9-1 9.9 1.1 14.8 7.6-6-.4-12.9-.5-20.6-.3.8-4 2.8-6.6 5.8-7.3zm65.5 263.1c-3.4-3.2-7-6.7-10.5-10.6 3.2-1.3 6.5-3.8 10.4-6.7 2.7-2 5.8-4.3 9.5-6.7 11.6-7.6 50.3-26.7 92.7-29.6-16.9 2.9-33.5 8.2-49.2 15.6-30 14.1-46.8 31-52.9 38zm62.6-24.4c-14.8 9.4-30.4 24-40.9 34.6-2.7 2.8-7.2 2.9-10.1.3-1.3-1.2-2.8-2.5-4.4-3.9-.2-.2-.4-.4-.6-.5 17-19.7 55-45 103.5-51.8-20.5 5.8-36.9 14.6-47.5 21.3zM356.8 352c-1.9 3.8-6.5 5.4-10.4 3.6-26.5-12.4-59.7-14.7-96.2-6.5-27.7 6.2-53.6 17.8-66.9 26.5-3.9 2.6-7.1 4.9-9.9 7.1-4.6 3.4-8.6 6.4-10.4 5.9-2.1-.5-5.4-5.3-9.8-14.1-4-8.2-41.5-81.3-118-140.5-1.4-1.1-2.9-2.2-4.5-3.4C21.6 224 9.2 214.9 9 204.5c-.1-6.3 4.5-13.1 13.5-20.1 38.9-30.1 110.4-23.3 111.1-23.2l.1-.8c2.8 4.4 6.5 10 10.8 16.6 16.6 25.4 44.5 67.8 45.8 79.3.2 2.1 1.9 3.8 4 4h.5c1.9 0 3.7-1.2 4.3-3.1 2.9-8.7 5.5-18.3 7-24.1l20.5 9.6c1.7.8 3.8.4 5.1-.9 1.3-1.4 1.7-3.4.8-5.1-.5-1-12.5-25.2-32.5-50 7.5.7 15.1-2.9 19.1-9.8 29.7-52.2 86.4-77 112.2-82.8 25.9-5.8 38.7 4 48.7 15.6 5.3 6.1 33 42.4 59.8 77.5 22.5 29.5 43.7 57.3 52.3 68.1 9.3 11.7 10.7 19.1 8.9 22.1-1.4 2.4-5.6 3.2-11 2.1-18-3.5-40.4-7.8-73.7 3.4-29.9 10.3-45.6 41.5-59.5 69.1zm145.5-25.5c-.2 2-.6 3.4-1.2 3.9-1.6 1.3-6.8.7-11.9 0-3.8-.5-8.2-1-13-1.1-3-.1-61.5-1-100.6 13.9 16.6-10.9 62-29.7 126.9-19.6-.1 1-.2 1.9-.2 2.9zm.5-12c-49.8-7.5-89 1.5-113.1 11.5 26.9-17 69.8-28.5 113.3-17.9-.1 2.2-.1 4.3-.2 6.4z" fill="#e31e26" opacity="1" data-original="#000000"></path>
  </g>
</svg>
