<svg width="359" height="359" viewBox="0 0 359 359" fill="none" xmlns="http://www.w3.org/2000/svg">
<circle cx="178.5" cy="177.5" r="170.5" fill="white"/>
<path d="M154.199 257.7C154.199 257.7 174.399 268.3 188.599 252C192.499 264 182.599 279.3 178.999 281.1C175.499 282.9 163.399 283.2 158.399 276.5C153.499 269.7 154.199 257.7 154.199 257.7Z" fill="#0066B3"/>
<path d="M197.699 130.8C185.699 153.8 174.699 173 174.699 173C174.699 173 191.699 182.6 193.799 190C195.899 197.4 226.799 143.9 225.999 103.9C227.099 80.0001 210.899 65.5 206.499 61.8C210.499 68.2 209.199 109 197.699 130.8ZM206.599 61.8C206.399 61.4 206.099 61.2 205.899 61C205.699 60.9 205.499 60.8 205.499 60.8C205.399 60.8 205.799 61.1 206.599 61.8Z" fill="#009FDF"/>
<path d="M140.301 254.1C143.101 271.8 159.401 280 163.301 281C167.201 282.1 152.701 259 164.401 239.2C176.101 219.4 183.201 211.9 183.201 211.9L161.601 195.2C161.601 195.3 137.501 236.4 140.301 254.1Z" fill="#009FDF"/>
<path d="M96.8016 160.6C96.8016 160.6 92.5016 160.6 82.6016 173.7C82.6016 173.7 112.702 167 140.702 186.1C168.702 205.2 211.602 232.5 188.902 275.4C197.002 271.1 223.302 253.1 193.502 203.8C164.602 165.4 133.102 157.6 114.102 157.6C104.702 157.6 98.3016 159.5 96.8016 160.6Z" fill="#8DC640"/>
<path d="M178.5 347.9C84.5 347.9 8 271.4 8 177.4C8 83.3999 84.5 6.8999 178.5 6.8999C272.5 6.8999 349 83.3999 349 177.4C349 271.4 272.5 347.9 178.5 347.9ZM178.5 10.8999C86.7 10.8999 12 85.5999 12 177.4C12 269.2 86.7 343.9 178.5 343.9C270.3 343.9 345 269.2 345 177.4C345 85.5999 270.3 10.8999 178.5 10.8999Z" fill="#009B95"/>
<path d="M297.999 170.2L308.199 169.4L322.999 177.2L322.499 171.6L312.399 166.8L321.499 160.3L320.999 154.6L307.699 164.6L297.499 165.4L297.999 170.2ZM294.799 148.8L314.399 143.6L316.199 150.6L320.199 149.5L315.299 130.8L311.299 131.9L313.099 138.9L293.499 144.1L294.799 148.8ZM290.299 134.4L312.799 125.1L310.899 120.6L288.399 129.9L290.299 134.4ZM296.799 102.5L298.699 105.8C299.699 107.5 300.299 108.6 300.399 108.9C300.699 109.7 300.699 110.3 300.499 111C300.299 111.6 299.799 112.2 299.099 112.6C298.499 113 297.899 113.1 297.299 113.1C296.699 113.1 296.199 112.8 295.699 112.4C295.199 112 294.399 110.8 293.199 108.7L291.399 105.6L296.799 102.5ZM279.299 112.6L288.099 107.5L288.599 108.4C289.199 109.4 289.499 110.1 289.599 110.7C289.699 111.2 289.699 111.8 289.499 112.5C289.299 113.1 288.699 114.5 287.699 116.5L284.899 122.2L287.899 127.3L290.499 122.3C291.499 120.3 292.199 118.9 292.499 117.9C292.799 116.9 292.899 115.8 292.899 114.6C294.199 116.3 295.699 117.3 297.299 117.6C298.899 117.9 300.399 117.6 301.999 116.7C303.199 116 304.199 115 304.799 113.8C305.399 112.6 305.599 111.4 305.399 110.2C305.199 109 304.399 107.2 303.099 105L297.899 96.1001L276.899 108.4L279.299 112.6ZM272.099 88.0001L280.999 84.4001L276.499 92.9001L272.099 88.0001ZM286.999 82.6001L283.499 78.7001L259.099 88.0001L262.599 91.9001L268.099 89.7001L274.599 96.9001L271.899 102.2L275.499 106.2L286.999 82.6001ZM245.099 77.8001L251.399 69.2001L259.099 74.9001L252.799 83.5001L256.799 86.4001L271.299 66.8001L267.299 63.9001L261.599 71.6001L253.899 65.9001L259.599 58.2001L255.599 55.3001L241.099 74.9001L245.099 77.8001ZM233.399 65.3001C232.199 65.7001 230.999 65.6001 229.799 65.0001C228.199 64.3001 227.199 63.1001 226.699 61.4001C226.199 59.8001 226.699 57.5001 227.899 54.7001C229.099 52.1001 230.499 50.4001 232.099 49.7001C233.699 49.0001 235.299 49.0001 236.899 49.8001C238.099 50.3001 238.899 51.1001 239.499 52.2001C239.999 53.2001 240.199 54.4001 239.899 55.7001L244.799 56.7001C245.099 54.7001 244.999 53.0001 244.399 51.6001C243.399 49.2001 241.599 47.4001 238.899 46.2001C235.799 44.8001 232.799 44.6001 229.999 45.8001C227.199 47.0001 224.899 49.4001 223.199 53.1001C221.599 56.6001 221.299 59.8001 222.299 62.6001C223.299 65.4001 225.199 67.6001 228.199 68.9001C230.599 70.0001 232.799 70.3001 234.899 69.8001C236.999 69.3001 238.899 68.1001 240.699 65.9001L236.999 62.5001C235.799 64.1001 234.599 65.0001 233.399 65.3001ZM195.599 38.5001C197.599 38.8001 198.899 39.1001 199.599 39.3001C200.499 39.6001 201.199 40.1001 201.699 40.8001C202.199 41.4001 202.599 42.3001 202.699 43.3001C202.899 44.3001 202.799 45.8001 202.599 47.7001C202.299 49.6001 201.899 51.0001 201.499 52.0001C200.999 53.0001 200.499 53.7001 199.899 54.1001C199.299 54.5001 198.599 54.7001 197.799 54.8001C197.199 54.9001 196.199 54.8001 194.799 54.6001L191.199 54.1001L193.499 38.1001L195.599 38.5001ZM185.599 57.4001L194.799 58.7001C196.599 59.0001 198.099 59.0001 199.199 58.8001C200.699 58.6001 201.899 58.1001 202.899 57.4001C204.199 56.5001 205.199 55.2001 206.099 53.5001C206.799 52.1001 207.299 50.5001 207.599 48.5001C207.899 46.2001 207.899 44.3001 207.599 42.7001C207.299 41.1001 206.699 39.7001 205.899 38.5001C204.999 37.3001 203.899 36.4001 202.599 35.8001C201.599 35.3001 200.099 35.0001 198.099 34.7001L189.199 33.4001L185.599 57.4001ZM181.399 57.3001L181.199 53.2001L167.599 54.0001L167.199 47.4001L179.399 46.7001L179.199 42.6001L166.999 43.3001L166.699 37.9001L179.799 37.2001L179.599 33.1001L161.599 34.1001L162.999 58.4001L181.399 57.3001ZM138.599 43.2001L142.299 42.2001C144.199 41.7001 145.399 41.4001 145.799 41.4001C146.599 41.3001 147.299 41.5001 147.799 41.9001C148.399 42.3001 148.699 42.9001 148.899 43.7001C149.099 44.4001 149.099 45.0001 148.899 45.6001C148.699 46.2001 148.299 46.6001 147.799 46.9001C147.299 47.2001 145.899 47.7001 143.599 48.3001L140.099 49.2001L138.599 43.2001ZM143.799 62.7001L141.199 52.9001L142.199 52.6001C143.299 52.3001 144.099 52.2001 144.699 52.2001C145.299 52.2001 145.799 52.4001 146.399 52.8001C146.999 53.2001 148.099 54.1001 149.799 55.6001L154.599 59.8001L160.299 58.3001L156.199 54.5001C154.599 53.0001 153.299 51.9001 152.499 51.4001C151.599 50.9001 150.599 50.4001 149.399 50.1001C151.399 49.3001 152.699 48.1001 153.499 46.7001C154.199 45.3001 154.399 43.7001 153.899 41.9001C153.499 40.5001 152.899 39.4001 151.899 38.5001C150.899 37.6001 149.799 37.1001 148.599 37.0001C147.299 36.9001 145.499 37.1001 142.899 37.8001L132.899 40.4001L138.999 64.0001L143.799 62.7001ZM134.999 65.4001L133.199 61.7001L120.999 67.7001L118.099 61.8001L129.099 56.4001L127.299 52.7001L116.299 58.1001L113.899 53.3001L125.699 47.5001L123.899 43.8001L107.699 51.7001L118.399 73.6001L134.999 65.4001ZM109.799 79.3001L97.7992 63.0001L103.599 58.7001L101.199 55.4001L85.5992 66.9001L87.9992 70.2001L93.7992 65.9001L105.799 82.2001L109.799 79.3001ZM85.3992 99.2001C87.5992 99.0001 89.6992 97.7001 91.7992 95.5001C93.2992 94.0001 94.1992 92.5001 94.7992 91.0001C95.2992 89.6001 95.3992 88.1001 95.0992 86.7001C94.6992 85.3001 94.0992 84.1001 92.9992 83.2001C91.8992 82.1001 90.6992 81.5001 89.4992 81.2001C88.2992 81.0001 87.0992 81.0001 85.8992 81.5001C84.6992 81.9001 82.9992 82.8001 80.9992 84.2001C78.9992 85.6001 77.4992 86.3001 76.6992 86.4001C76.0992 86.5001 75.4992 86.3001 75.0992 85.9001C74.5992 85.5001 74.4992 84.9001 74.4992 84.3001C74.5992 83.3001 75.1992 82.3001 76.1992 81.3001C77.0992 80.3001 78.0992 79.7001 78.8992 79.6001C79.7992 79.5001 80.6992 79.8001 81.7992 80.5001L84.9992 76.8001C83.2992 75.3001 81.4992 74.7001 79.3992 74.9001C77.3992 75.1001 75.2992 76.3001 73.1992 78.5001C71.8992 79.9001 70.9992 81.2001 70.4992 82.6001C69.9992 84.0001 69.8992 85.2001 70.1992 86.5001C70.4992 87.8001 71.0992 88.8001 71.9992 89.7001C73.3992 91.0001 75.0992 91.6001 77.0992 91.4001C78.4992 91.3001 80.3992 90.5001 82.6992 89.0001C84.4992 87.9001 85.5992 87.1001 86.1992 86.9001C86.9992 86.5001 87.6992 86.3001 88.1992 86.3001C88.6992 86.3001 89.1992 86.5001 89.5992 86.9001C90.2992 87.5001 90.4992 88.3001 90.4992 89.4001C90.3992 90.4001 89.8992 91.5001 88.7992 92.7001C87.7992 93.8001 86.6992 94.4001 85.4992 94.5001C84.2992 94.6001 83.0992 94.2001 81.6992 93.4001L78.7992 97.2001C80.9992 98.7001 83.1992 99.4001 85.3992 99.2001ZM82.6992 105.5L62.9992 91.2001L60.0992 95.2001L79.7992 109.4L82.6992 105.5ZM66.7992 113.2L69.4992 114.6C69.6992 115.5 69.6992 116.5 69.5992 117.6C69.4992 118.7 69.1992 119.7 68.6992 120.6C67.6992 122.4 66.2992 123.6 64.3992 124.1C62.4992 124.6 60.2992 124.1 57.6992 122.8C55.2992 121.6 53.7992 120.1 53.1992 118.3C52.5992 116.5 52.7992 114.7 53.6992 112.8C54.3992 111.5 55.1992 110.7 56.2992 110.1C57.2992 109.6 58.4992 109.4 59.6992 109.7L61.0992 104.9C58.8992 104.3 56.7992 104.5 54.8992 105.4C52.9992 106.3 51.2992 108.1 49.8992 110.8C48.7992 112.9 48.2992 114.8 48.2992 116.5C48.2992 118.8 48.8992 120.9 50.1992 122.7C51.4992 124.6 53.1992 126.1 55.4992 127.2C57.5992 128.3 59.6992 128.9 61.8992 128.9C64.0992 129 66.0992 128.4 67.8992 127.2C69.6992 126 71.1992 124.3 72.3992 122C73.2992 120.2 73.8992 118.3 74.0992 116.2C74.2992 114.1 74.1992 112.4 73.7992 111L65.1992 106.5L60.2992 115.9L63.8992 117.8L66.7992 113.2ZM65.5992 136.3L61.5992 135.2L57.9992 148.3L51.5992 146.5L54.8992 134.7L50.8992 133.6L47.5992 145.4L42.3992 144L45.8992 131.3L41.8992 130.2L37.0992 147.6L60.5992 154.1L65.5992 136.3ZM38.4992 172.3L38.7992 168.5C38.8992 166.5 38.9992 165.3 39.0992 164.9C39.2992 164.1 39.5992 163.5 40.1992 163.1C40.6992 162.7 41.3992 162.5 42.1992 162.6C42.8992 162.7 43.4992 162.9 43.9992 163.2C44.4992 163.6 44.7992 164 44.8992 164.6C44.9992 165.2 45.0992 166.7 44.8992 169L44.5992 172.6L38.4992 172.3ZM58.6992 173.7L48.5992 173L48.6992 172C48.7992 170.9 48.8992 170.1 49.0992 169.6C49.2992 169.1 49.6992 168.6 50.1992 168.2C50.6992 167.8 51.9992 167 53.8992 165.9L59.3992 162.7L59.7992 156.8L54.8992 159.4C52.8992 160.4 51.5992 161.3 50.7992 161.9C49.9992 162.5 49.2992 163.4 48.5992 164.4C48.3992 162.2 47.7992 160.6 46.6992 159.4C45.5992 158.2 44.0992 157.6 42.2992 157.5C40.8992 157.4 39.5992 157.7 38.3992 158.3C37.1992 158.9 36.3992 159.8 35.8992 161C35.3992 162.1 34.9992 164 34.8992 166.6L34.1992 176.9L58.4992 178.6L58.6992 173.7Z" fill="#009B95"/>
<path d="M308.102 212.2C307.302 212.6 306.802 213.3 306.502 214.2C306.202 215.1 306.302 215.9 306.802 216.7C307.202 217.5 307.902 218 308.802 218.3C309.702 218.6 310.502 218.5 311.302 218C312.102 217.6 312.602 216.9 312.902 216C313.202 215.1 313.102 214.3 312.602 213.5C312.202 212.7 311.502 212.2 310.602 211.9C309.802 211.7 308.902 211.8 308.102 212.2ZM308.102 232.8C306.202 232 305.002 231.4 304.502 231C304.002 230.6 303.702 230.2 303.602 229.8C303.502 229.4 303.502 229 303.702 228.6C303.902 228.2 304.202 227.8 304.802 227.4L302.702 225.4C302.102 225.9 301.602 226.4 301.302 227.1C301.102 227.6 301.002 228 301.102 228.5C301.202 229 301.502 229.6 302.002 230.4L300.402 229.7L299.202 232.4L310.202 237.1L311.402 234.2L308.102 232.8ZM298.802 244.5C298.002 244.1 297.502 243.6 297.302 243C297.102 242.4 297.102 241.7 297.402 241.1C297.702 240.5 298.202 240.2 298.802 240C299.402 239.8 300.202 239.9 301.002 240.4L298.802 244.5ZM304.502 243.3C304.602 243.7 304.502 244.2 304.302 244.6C304.002 245.2 303.402 245.7 302.802 245.8C302.102 246 301.302 245.9 300.502 245.4L304.202 238.4C302.102 237.2 300.302 236.8 298.802 237.2C297.302 237.6 296.102 238.5 295.302 240.1C294.602 241.5 294.402 242.9 294.902 244.3C295.402 245.7 296.502 246.9 298.302 247.9C299.802 248.7 301.202 249 302.502 248.8C304.202 248.6 305.502 247.5 306.502 245.7C307.102 244.5 307.402 243.4 307.202 242.4C307.102 241.3 306.602 240.4 305.802 239.5L303.902 242C304.202 242.5 304.402 242.9 304.502 243.3ZM290.502 248.6L286.902 246.3L286.802 250L288.802 251.3L288.002 252.5L290.102 253.8L290.902 252.6L295.302 255.4C296.202 256 296.902 256.4 297.202 256.5C297.702 256.7 298.102 256.8 298.502 256.8C298.902 256.8 299.302 256.6 299.702 256.3C300.102 256 300.502 255.6 300.802 255.2C301.302 254.4 301.602 253.6 301.702 252.8L299.502 251.7C299.402 252.3 299.202 252.7 299.102 252.9C299.002 253.1 298.802 253.2 298.702 253.3C298.502 253.4 298.402 253.4 298.202 253.3C298.002 253.2 297.602 253 296.702 252.4L292.602 249.8L293.802 248L291.702 246.7L290.502 248.6ZM290.202 268.3C291.302 267.9 292.302 267.1 293.302 265.8C294.402 264.4 294.902 263.1 294.802 261.9C294.702 260.7 294.302 259.8 293.402 259.1C292.602 258.5 291.802 258.3 290.902 258.5C290.102 258.7 289.002 259.3 287.702 260.5C286.402 261.6 285.602 262.2 285.202 262.3C284.902 262.4 284.702 262.3 284.602 262.2C284.402 262 284.302 261.8 284.302 261.5C284.302 261.1 284.602 260.5 285.102 259.9C285.502 259.4 285.902 259 286.302 258.9C286.702 258.8 287.102 258.8 287.602 259L289.002 256.3C288.002 255.9 287.002 255.9 286.102 256.2C285.202 256.5 284.302 257.3 283.302 258.6C282.302 260 281.802 261.2 281.902 262.3C282.002 263.4 282.402 264.2 283.202 264.8C284.102 265.5 285.102 265.7 286.202 265.3C287.002 265 288.402 264.1 290.302 262.4C290.702 262 291.102 261.8 291.302 261.8C291.502 261.8 291.702 261.8 291.902 262C292.202 262.2 292.302 262.5 292.302 262.8C292.302 263.3 292.002 263.9 291.502 264.5C291.102 265.1 290.602 265.5 290.102 265.6C289.602 265.7 289.102 265.7 288.502 265.4L287.002 268.2C288.002 268.6 289.102 268.7 290.202 268.3ZM287.102 273L278.202 265L276.102 267.3L285.002 275.3L287.102 273ZM277.002 263.9L274.802 261.9L272.702 264.2L274.902 266.2L277.002 263.9ZM270.102 277.7C270.002 276.9 270.302 276.3 270.802 275.8C271.402 275.3 272.002 275 272.802 275.1C273.602 275.2 274.402 275.7 275.302 276.6C276.102 277.5 276.502 278.3 276.602 279.1C276.602 279.9 276.402 280.6 275.802 281.1C275.302 281.6 274.602 281.8 273.902 281.7C273.102 281.6 272.302 281.1 271.402 280.2C270.602 279.3 270.102 278.5 270.102 277.7ZM274.502 287.4C275.202 288.2 276.202 288.5 277.202 288.4C278.302 288.3 279.602 287.6 281.002 286.2C281.802 285.5 282.302 284.8 282.702 284.1C283.002 283.5 283.202 282.8 283.302 282.3C283.302 281.7 283.202 281.1 282.902 280.4C282.602 279.7 281.902 278.9 281.002 277.9L273.602 270.2L271.502 272.3L272.702 273.5C271.102 273.2 269.802 273.6 268.702 274.6C267.702 275.6 267.202 276.8 267.202 278.2C267.202 279.6 268.002 281.1 269.302 282.5C270.402 283.6 271.602 284.4 272.902 284.6C274.502 284.9 275.902 284.5 277.102 283.4C278.102 282.4 278.502 281.1 278.302 279.5L279.502 280.8C280.002 281.3 280.302 281.7 280.402 281.9C280.602 282.3 280.602 282.6 280.502 282.9C280.402 283.4 280.002 283.9 279.402 284.5C278.902 284.9 278.502 285.2 278.102 285.2C277.802 285.2 277.502 285.1 277.202 284.9L274.302 287.1C274.302 287.3 274.402 287.3 274.502 287.4ZM260.202 288.3C259.702 287.6 259.402 287 259.502 286.3C259.502 285.6 259.802 285.1 260.402 284.7C260.902 284.3 261.502 284.2 262.102 284.3C262.702 284.4 263.402 284.8 263.902 285.5L260.202 288.3ZM265.902 289.5C265.802 289.9 265.602 290.3 265.202 290.6C264.602 291 264.002 291.2 263.302 291.1C262.602 291 261.902 290.6 261.402 289.8L267.602 285C266.202 283.1 264.702 281.9 263.102 281.6C261.602 281.3 260.102 281.7 258.702 282.8C257.502 283.8 256.802 285 256.602 286.5C256.502 288 257.002 289.6 258.202 291.1C259.202 292.4 260.402 293.2 261.702 293.6C263.302 294.1 264.902 293.7 266.602 292.4C267.602 291.6 268.302 290.7 268.602 289.7C268.902 288.7 268.902 287.6 268.502 286.4L265.702 287.9C265.902 288.6 266.002 289.1 265.902 289.5ZM254.202 296.3C253.102 294.6 252.402 293.4 252.202 292.8C252.002 292.2 252.002 291.7 252.102 291.3C252.202 290.9 252.502 290.6 252.802 290.4C253.202 290.2 253.702 290 254.302 290L253.602 287.2C252.802 287.2 252.102 287.4 251.502 287.8C251.102 288.1 250.802 288.4 250.602 288.9C250.402 289.3 250.302 290 250.302 291L249.402 289.6L246.902 291.2L253.402 301.2L256.002 299.5L254.202 296.3ZM243.802 306.6C243.902 307.3 244.002 307.9 243.902 308.4C243.802 308.9 243.402 309.4 242.802 309.7C242.502 309.9 242.002 310.1 241.602 310.2L243.002 312.2C243.602 312 244.102 311.8 244.702 311.5C245.202 311.2 245.702 310.9 246.002 310.6C246.402 310.3 246.602 309.9 246.802 309.6C247.002 309.2 247.102 308.8 247.102 308.4C247.102 308 247.102 307.4 247.002 306.6L246.702 304.4L245.002 292.3L242.102 293.8L243.602 302.6L237.102 296.5L234.102 298.1L243.802 306.6ZM230.902 299.4L229.202 295.5L227.002 298.4L227.902 300.6L226.602 301.2L227.602 303.5L228.902 302.9L231.002 307.7C231.402 308.7 231.802 309.4 232.002 309.7C232.302 310.1 232.602 310.5 232.902 310.7C233.202 310.9 233.602 311 234.102 311C234.602 311 235.102 310.9 235.602 310.7C236.502 310.3 237.202 309.9 237.702 309.3L236.502 307.2C236.102 307.6 235.702 307.9 235.502 308C235.302 308.1 235.102 308.1 234.902 308.1C234.702 308.1 234.602 308 234.502 307.8C234.402 307.7 234.202 307.2 233.802 306.3L231.902 301.9L233.902 301L232.902 298.7L230.902 299.4ZM228.002 313.4L224.002 302.2L221.002 303.3L225.002 314.5L228.002 313.4ZM223.502 300.6L222.502 297.9L219.502 299L220.502 301.7L223.502 300.6ZM216.802 313.1C216.202 311.2 215.902 309.8 215.902 309.2C215.902 308.6 216.002 308.1 216.202 307.7C216.402 307.4 216.802 307.2 217.202 307C217.602 306.9 218.202 306.9 218.802 307.1L219.002 304.2C218.202 304 217.502 304 216.802 304.2C216.302 304.3 215.902 304.6 215.602 304.9C215.302 305.3 215.002 305.9 214.702 306.8L214.202 305.2L211.402 306L214.702 317.5L217.702 316.6L216.802 313.1ZM206.302 314.2C206.402 314.9 206.502 315.5 206.502 315.7C206.502 316.1 206.302 316.5 206.002 316.9C205.602 317.4 205.102 317.7 204.502 317.8C204.002 317.9 203.602 317.8 203.202 317.6C202.802 317.3 202.602 317 202.502 316.6C202.402 316.2 202.502 315.8 202.902 315.4C203.102 315.2 203.702 314.9 204.502 314.5C205.302 314.1 205.902 313.9 206.302 313.7V314.2ZM202.102 310.6C202.402 310.3 202.802 310.1 203.302 310C204.102 309.8 204.702 309.9 205.002 310C205.302 310.2 205.602 310.6 205.702 311.2L205.802 311.5C205.302 311.8 204.302 312.3 202.902 312.9C201.902 313.3 201.102 313.7 200.602 314.1C200.102 314.5 199.702 315 199.502 315.6C199.302 316.2 199.202 316.8 199.402 317.5C199.602 318.5 200.102 319.3 200.902 319.8C201.702 320.3 202.702 320.5 203.902 320.2C204.602 320.1 205.202 319.8 205.802 319.4C206.402 319 206.802 318.5 207.302 317.9C207.302 318 207.402 318.1 207.502 318.2C207.702 318.6 207.902 318.9 208.002 319.1L211.102 318.5C210.702 318 210.402 317.5 210.202 317C210.002 316.5 209.802 315.8 209.602 314.8L208.902 311.2C208.602 309.9 208.302 309 207.902 308.5C207.502 308.1 207.002 307.7 206.202 307.5C205.502 307.3 204.402 307.3 203.002 307.6C201.502 307.9 200.402 308.4 199.702 309.1C199.002 309.8 198.702 310.7 198.602 311.9H201.502C201.702 311.3 201.802 310.9 202.102 310.6ZM183.902 305.6L185.302 322L188.402 321.7L187.902 315.7C187.802 314.7 187.802 313.9 188.002 313.4C188.102 312.9 188.402 312.5 188.802 312.2C189.202 311.9 189.602 311.7 190.202 311.7C190.702 311.7 191.002 311.7 191.402 311.9C191.702 312.1 192.002 312.3 192.102 312.6C192.202 312.9 192.402 313.7 192.502 315L193.002 321.3L196.102 321L195.502 314C195.402 312.9 195.302 312.2 195.102 311.7C195.002 311.2 194.702 310.8 194.402 310.4C194.102 310 193.602 309.7 193.002 309.5C192.402 309.3 191.702 309.2 191.002 309.3C189.602 309.4 188.402 310.1 187.502 311.4L187.002 305.4L183.902 305.6ZM179.602 310.9C178.802 310.3 177.602 309.9 176.202 309.9C174.402 309.9 173.002 310.4 171.902 311.5C170.802 312.6 170.302 314.1 170.302 316.1C170.302 318 170.802 319.6 171.802 320.7C172.802 321.8 174.202 322.4 175.902 322.4C177.402 322.4 178.702 322.1 179.602 321.4C180.502 320.7 181.202 319.6 181.502 318.2L178.402 317.6C178.202 318.4 177.902 319 177.602 319.3C177.202 319.6 176.702 319.8 176.102 319.8C175.302 319.8 174.702 319.5 174.202 318.9C173.702 318.3 173.502 317.3 173.502 315.9C173.502 314.6 173.802 313.7 174.302 313.2C174.802 312.7 175.402 312.4 176.202 312.4C176.802 312.4 177.302 312.6 177.602 312.9C178.002 313.2 178.202 313.7 178.302 314.3L181.402 313.8C181.102 312.5 180.502 311.5 179.602 310.9ZM163.502 321.6L169.202 305L166.802 304.8L161.102 321.4L163.502 321.6ZM158.102 320.7L160.102 308.9L157.002 308.4L156.102 313.4C155.802 315.1 155.602 316.1 155.302 316.5C155.102 316.9 154.702 317.2 154.202 317.4C153.702 317.6 153.202 317.7 152.702 317.6C152.202 317.5 151.902 317.3 151.602 317.1C151.302 316.9 151.202 316.5 151.102 316.1C151.002 315.7 151.202 314.7 151.502 313L152.402 307.6L149.302 307.1L148.002 314.5C147.802 315.6 147.802 316.5 148.002 317.2C148.202 317.9 148.502 318.4 149.102 318.9C149.702 319.4 150.302 319.7 151.102 319.8C151.902 319.9 152.602 319.9 153.402 319.6C154.202 319.4 154.802 319 155.302 318.4L155.002 320.2L158.102 320.7ZM141.302 312C141.102 312.7 140.902 313.2 140.802 313.4C140.602 313.8 140.202 314 139.802 314.2C139.202 314.4 138.602 314.4 138.102 314.3C137.602 314.2 137.302 313.9 137.002 313.5C136.802 313.1 136.702 312.7 136.802 312.3C136.902 311.9 137.202 311.6 137.702 311.4C138.002 311.3 138.602 311.3 139.502 311.4C140.402 311.5 141.102 311.5 141.502 311.5L141.302 312ZM139.202 306.8C139.602 306.7 140.002 306.7 140.602 306.8C141.402 307 141.902 307.3 142.102 307.6C142.302 307.9 142.302 308.4 142.202 309L142.102 309.3C141.502 309.4 140.402 309.3 138.902 309.2C137.802 309.1 136.902 309.1 136.302 309.2C135.702 309.3 135.102 309.6 134.702 310C134.202 310.4 133.902 310.9 133.702 311.6C133.402 312.6 133.502 313.5 134.002 314.3C134.502 315.1 135.302 315.7 136.502 316.1C137.202 316.3 137.802 316.4 138.502 316.3C139.202 316.2 139.802 316 140.502 315.7C140.502 315.8 140.502 315.9 140.502 316.1C140.502 316.5 140.502 316.9 140.502 317.1L143.502 318C143.402 317.4 143.402 316.8 143.402 316.3C143.402 315.8 143.602 315 143.902 314L145.002 310.5C145.402 309.2 145.502 308.2 145.402 307.7C145.302 307.1 144.902 306.6 144.402 306.1C143.802 305.6 142.902 305.1 141.502 304.7C140.002 304.3 138.802 304.2 137.902 304.5C137.002 304.8 136.202 305.5 135.602 306.5L138.202 307.8C138.502 307.3 138.802 307 139.202 306.8ZM129.002 313.4L130.102 310.4L127.102 309.3L126.002 312.3L129.002 313.4ZM120.002 309.8L129.302 300.9L126.402 299.5L121.802 304.1C121.602 304.4 121.302 304.6 121.102 304.9C121.002 305 120.802 305.3 120.402 305.7L120.702 303.6L121.202 297.1L118.202 295.7L117.602 308.5L120.002 309.8ZM108.002 293.8C108.802 293.5 109.602 293.6 110.302 294C111.002 294.4 111.502 295 111.602 295.9C111.802 296.7 111.602 297.6 111.002 298.6C110.402 299.6 109.702 300.3 108.902 300.5C108.102 300.8 107.302 300.7 106.602 300.3C105.902 299.9 105.402 299.3 105.302 298.4C105.102 297.6 105.302 296.6 105.902 295.6C106.502 294.7 107.202 294 108.002 293.8ZM102.102 297.3C102.102 298.4 102.402 299.4 103.002 300.3C103.602 301.2 104.402 302 105.302 302.5C106.802 303.4 108.402 303.6 110.002 303.2C111.602 302.8 112.902 301.8 113.802 300.2C114.702 298.7 114.902 297.1 114.502 295.5C114.102 293.9 113.102 292.7 111.602 291.7C110.602 291.1 109.502 290.8 108.502 290.8C107.402 290.8 106.402 291 105.502 291.6C104.602 292.2 103.802 292.9 103.302 293.8C102.502 295.1 102.102 296.2 102.102 297.3ZM95.9016 285.2C96.6016 285 97.3016 285.2 97.9016 285.6C98.5016 286.1 98.9016 286.7 98.9016 287.5C99.0016 288.3 98.6016 289.2 97.9016 290.2C97.2016 291.2 96.5016 291.7 95.7016 291.9C94.9016 292.1 94.2016 291.9 93.6016 291.5C93.0016 291.1 92.7016 290.5 92.7016 289.7C92.7016 288.9 93.0016 288 93.8016 287C94.4016 286 95.2016 285.4 95.9016 285.2ZM87.1016 291.2C86.5016 292.1 86.3016 293 86.6016 294.1C86.9016 295.2 87.8016 296.3 89.4016 297.5C90.3016 298.1 91.0016 298.6 91.7016 298.8C92.4016 299 93.0016 299.1 93.6016 299C94.2016 298.9 94.8016 298.7 95.4016 298.3C96.0016 297.9 96.7016 297.1 97.6016 296L104.002 287.4L101.602 285.6L100.602 286.9C100.602 285.3 100.002 284 98.8016 283.2C97.6016 282.4 96.4016 282.1 95.0016 282.3C93.6016 282.6 92.3016 283.5 91.1016 285.1C90.2016 286.4 89.7016 287.7 89.6016 289C89.5016 290.6 90.2016 291.9 91.5016 292.9C92.7016 293.8 94.0016 293.9 95.5016 293.5L94.5016 294.9C94.1016 295.5 93.8016 295.8 93.5016 296C93.2016 296.2 92.8016 296.3 92.5016 296.3C92.0016 296.3 91.5016 296 90.8016 295.5C90.3016 295.1 90.0016 294.7 89.9016 294.4C89.8016 294.1 89.9016 293.8 90.1016 293.5L87.5016 291C87.2016 291 87.1016 291.1 87.1016 291.2ZM84.3016 287.3L86.4016 284.9L84.0016 282.8L81.9016 285.2L84.3016 287.3ZM85.7016 273.3C85.5016 272.3 85.0016 271.2 83.9016 270.2C82.7016 268.9 81.3016 268.3 79.8016 268.4C78.3016 268.4 76.8016 269.1 75.4016 270.5C74.0016 271.9 73.3016 273.3 73.2016 274.8C73.1016 276.3 73.7016 277.7 75.0016 278.9C76.1016 280 77.2016 280.6 78.4016 280.7C79.6016 280.8 80.8016 280.5 82.0016 279.8L80.2016 277.2C79.5016 277.7 78.9016 277.9 78.4016 277.9C77.9016 277.9 77.4016 277.6 77.0016 277.2C76.4016 276.6 76.2016 276 76.3016 275.2C76.4016 274.5 76.9016 273.6 77.9016 272.6C78.8016 271.7 79.6016 271.2 80.3016 271.2C81.0016 271.2 81.6016 271.4 82.2016 272C82.6016 272.4 82.8016 272.9 82.9016 273.4C82.9016 273.9 82.8016 274.4 82.4016 274.9L85.0016 276.7C85.6016 275.5 85.8016 274.3 85.7016 273.3ZM74.3016 266.9C75.0016 266.3 75.5016 265.8 75.9016 265.4C76.2016 265 76.4016 264.6 76.6016 264.1C76.7016 263.6 76.7016 263.1 76.5016 262.5C76.3016 261.9 76.0016 261.3 75.6016 260.8C74.6016 259.6 73.3016 259 71.6016 259L73.0016 257.9L71.2016 255.6L61.9016 263L63.9016 265.5L68.1016 262.1C69.1016 261.3 69.9016 260.8 70.4016 260.6C70.9016 260.4 71.4016 260.4 71.9016 260.6C72.4016 260.8 72.8016 261 73.2016 261.5C73.5016 261.8 73.6016 262.2 73.6016 262.6C73.6016 263 73.5016 263.3 73.3016 263.7C73.1016 264.1 72.5016 264.6 71.5016 265.4L66.7016 269.2L68.7016 271.7L74.3016 266.9ZM67.9016 252C68.0016 250.9 67.6016 249.8 66.8016 248.6C65.8016 247.1 64.6016 246.2 63.1016 246C61.6016 245.7 60.0016 246.1 58.4016 247.2C56.8016 248.3 55.8016 249.5 55.4016 251C55.0016 252.5 55.3016 253.9 56.3016 255.4C57.1016 256.7 58.1016 257.5 59.2016 257.9C60.3016 258.3 61.5016 258.2 62.9016 257.7L61.7016 254.8C60.9016 255.1 60.3016 255.2 59.8016 255.1C59.3016 255 58.9016 254.6 58.6016 254.1C58.2016 253.4 58.1016 252.7 58.3016 252C58.5016 251.3 59.2016 250.5 60.4016 249.8C61.5016 249.1 62.4016 248.8 63.1016 248.9C63.8016 249 64.4016 249.4 64.8016 250C65.1016 250.5 65.3016 251 65.2016 251.5C65.1016 252 64.9016 252.4 64.4016 252.9L66.6016 255.2C67.3016 254.1 67.8016 253.1 67.9016 252ZM54.6016 241.8C53.9016 242.1 53.4016 242.3 53.2016 242.4C52.8016 242.5 52.4016 242.4 51.9016 242.2C51.3016 241.9 50.9016 241.5 50.7016 241C50.5016 240.5 50.4016 240.1 50.6016 239.7C50.7016 239.3 51.0016 238.9 51.4016 238.7C51.8016 238.5 52.2016 238.5 52.7016 238.8C53.0016 239 53.4016 239.4 54.0016 240.1C54.6016 240.8 55.0016 241.3 55.3016 241.6L54.6016 241.8ZM56.9016 236.8C57.2016 237 57.5016 237.3 57.8016 237.8C58.2016 238.5 58.3016 239.1 58.2016 239.5C58.1016 239.9 57.8016 240.2 57.2016 240.5L56.9016 240.6C56.4016 240.2 55.7016 239.4 54.8016 238.2C54.1016 237.3 53.5016 236.7 53.0016 236.3C52.5016 235.9 51.9016 235.7 51.3016 235.6C50.7016 235.5 50.1016 235.7 49.5016 236C48.6016 236.5 48.0016 237.2 47.7016 238.1C47.4016 239 47.6016 240 48.1016 241.1C48.4016 241.7 48.8016 242.2 49.3016 242.7C49.8016 243.1 50.4016 243.5 51.1016 243.7C51.1016 243.7 51.0016 243.8 50.8016 244C50.5016 244.3 50.3016 244.5 50.1016 244.7L51.5016 247.5C51.9016 247 52.3016 246.6 52.7016 246.3C53.1016 246 53.8016 245.6 54.7016 245.1L58.0016 243.5C59.2016 242.9 60.0016 242.3 60.3016 241.9C60.6016 241.4 60.8016 240.8 60.8016 240C60.8016 239.2 60.5016 238.2 59.8016 237C59.1016 235.6 58.3016 234.7 57.5016 234.2C56.7016 233.7 55.6016 233.6 54.5016 233.9L55.3016 236.7C56.1016 236.5 56.6016 236.6 56.9016 236.8ZM49.8016 215.7C50.2016 214.9 50.3016 214.1 50.1016 213.2C49.8016 212.3 49.3016 211.7 48.5016 211.2C47.7016 210.8 46.9016 210.7 46.0016 210.9C45.1016 211.2 44.5016 211.7 44.0016 212.5C43.6016 213.3 43.5016 214.1 43.7016 215C44.0016 215.9 44.5016 216.5 45.3016 217C46.1016 217.4 46.9016 217.5 47.8016 217.3C48.7016 217.1 49.4016 216.5 49.8016 215.7Z" fill="#009B95"/>
<path d="M178.5 78.8999C185.9 78.8999 193.2 79.6999 200.2 81.2999V77.1999C193.2 75.6999 186 74.8999 178.5 74.8999C122 74.8999 76 120.9 76 177.4C76 220.2 102.4 257 139.8 272.3L138 267.2C103.8 251.7 80 217.3 80 177.4C80 123.1 124.2 78.8999 178.5 78.8999Z" fill="#009B95"/>
<path d="M231.702 89.7998L231.302 94.2998C258.702 111.8 277.002 142.5 277.002 177.4C277.002 223.4 245.302 262.2 202.602 272.9L198.602 277.9C245.602 268.6 281.102 227 281.102 177.4C281.002 140.4 261.202 107.8 231.702 89.7998Z" fill="#009B95"/>
</svg>
