<?xml version="1.0" encoding="UTF-8"?>
<svg xmlns="http://www.w3.org/2000/svg" xmlns:xlink="http://www.w3.org/1999/xlink" version="1.1" width="512" height="512" x="0" y="0" viewBox="0 0 73 73" style="enable-background:new 0 0 512 512" xml:space="preserve" class="">
  <g>
    <path d="M9.877 11.013c-2.004.225-3.981 1.824-4.676 5.08-.483 2.261-.26 4.606-.255 6.898.042 18.798.048 16.917.048 21.777.007 2.757.133 5.821 2.074 7.779 1.764 1.778 4.49 2.085 6.989 2.246 9.918.638 19.872.57 29.799.08-.097 1.62.105 3.258.652 4.787 2.936 8.2 13.417 11.013 19.649 5.683 2.062-1.764 3.373-4.384 3.609-7.07 1.754-7.157-3.433-13.9-10.498-14.397.54-9.316.437-19.014-.319-28.792a4.255 4.255 0 0 0-4.25-4.25c-1.837-.073-1.942-.084-2.11-.094.009-.054.026-.106.022-.163-.07-1.055-.158-2.368-.698-3.454-1.314-2.635-4.974-2.63-4.913 3.334a354.838 354.838 0 0 0-5.566-.182c-.072-1.077-.168-2.275-.688-3.318-.64-1.286-2.056-2.118-3.269-1.424-1.372.78-1.646 3.067-1.645 4.647-1.461-.01-2.876-.013-4.234-.007.048-.712-.17-2.513-.685-3.55-.387-.776-1.04-1.368-1.744-1.582-2.417-.736-3.263 2.485-3.166 5.212-1.385.03-2.801.07-4.253.126-.139-1.935-.558-4.105-2.413-4.67-1.63-.504-2.675.96-3.006 2.818a11.3 11.3 0 0 0-.165 2.117c-3.652.188-3.788.227-4.289.369zm45.956 10.27c.382 7.687.362 15.258-.067 22.586-.369.021-.732.06-1.09.114-3.81-.006-8.337 2.562-10.103 7.417-11.08.781-20.091 1.22-31.874.264-1.64 0-4.42-1.824-4.421-3.26-.693-10.487-.842-19.41-.452-27.112 51.966-.01 47.665.014 48.007-.01zM66.613 55.5c0 5.606-4.561 10.166-10.167 10.166s-10.167-4.56-10.167-10.166c0-5.606 4.56-10.167 10.167-10.167s10.167 4.56 10.167 10.167zM47.733 6.976c1.167.355 1.304 2.539 1.38 3.685-.866-.045-1.735-.098-2.599-.138-.02-1.162.203-3.853 1.219-3.547zm-11.167-.167c1.111.338 1.287 2.355 1.362 3.438-.864-.018-1.73-.038-2.588-.05-.002-1.126.246-3.68 1.226-3.388zm-9.833-.333c1.172.357 1.306 2.561 1.384 3.71-.88.009-1.745.02-2.594.036-.045-1.21.167-4.06 1.21-3.746zm-10.181.693c.401-.23.964.347 1.185.79.352.707.451 1.62.514 2.483-.85.037-1.709.078-2.576.124-.005-.911.123-2.969.877-3.397zm-1.811 6.945c-1.122.96-.324 2.616 1.257 2.616.984 0 1.781-.685 1.781-1.531 0-.786-.691-1.426-1.578-1.514a9.51 9.51 0 0 1-.405-1.623c2.891-.152 5.695-.257 8.36-.312.111.67.275 1.327.501 1.95-1.009 1-.17 2.53 1.34 2.53.985 0 1.782-.685 1.782-1.531 0-.818-.749-1.48-1.688-1.523a9.333 9.333 0 0 1-.4-1.456 319.29 319.29 0 0 1 8.235-.04c.107.822.299 1.626.576 2.382-1.227.945-.434 2.668 1.183 2.668.984 0 1.782-.685 1.782-1.531 0-.756-.64-1.38-1.477-1.505a9.398 9.398 0 0 1-.533-1.994c3.191.043 6.428.13 9.654.262.117.836.324 1.65.618 2.414-1.105.966-.304 2.604 1.269 2.604.984 0 1.781-.685 1.781-1.531 0-.791-.7-1.435-1.596-1.515a9.318 9.318 0 0 1-.528-1.906c.21.01 1.19.053 6.044.306 1.516 0 2.75 1.234 2.752 2.808.12 1.554.218 3.104.305 4.65H7.909c.099-1.622.22-3.194.37-4.708 0-1.516 1.234-2.75 2.802-2.752 1.059-.072 2.128-.132 3.199-.187.095.675.25 1.337.46 1.97z" fill="#e31e26" opacity="1" data-original="#000000" class=""></path>
    <path d="M12.909 32.558h6.75a.75.75 0 0 0 .75-.75v-5.64a.75.75 0 0 0-.75-.75h-6.75a.75.75 0 0 0-.75.75v5.64c0 .414.336.75.75.75zm.75-5.64h5.25v4.14h-5.25zM28.034 32.558h6.75a.75.75 0 0 0 .75-.75v-5.64a.75.75 0 0 0-.75-.75h-6.75a.75.75 0 0 0-.75.75v5.64c0 .414.336.75.75.75zm.75-5.64h5.25v4.14h-5.25zM42.534 32.683h6.75a.75.75 0 0 0 .75-.75v-5.64a.75.75 0 0 0-.75-.75h-6.75a.75.75 0 0 0-.75.75v5.64c0 .414.336.75.75.75zm.75-5.64h5.25v4.14h-5.25zM13.154 37.528a.75.75 0 0 0-.75.75v5.64c0 .413.336.75.75.75h6.75a.75.75 0 0 0 .75-.75v-5.64a.75.75 0 0 0-.75-.75zm6 5.64h-5.25v-4.14h5.25zM28.28 37.528a.75.75 0 0 0-.75.75v5.64c0 .413.335.75.75.75h6.75a.75.75 0 0 0 .75-.75v-5.64a.75.75 0 0 0-.75-.75zm6 5.64h-5.25v-4.14h5.25zM42.78 37.653a.75.75 0 0 0-.75.75v5.64c0 .413.335.75.75.75h6.75a.75.75 0 0 0 .75-.75v-5.64a.75.75 0 0 0-.75-.75zm6 5.64h-5.25v-4.14h5.25zM51.393 54.054a.75.75 0 1 0-1.06 1.06l4.601 4.603a.75.75 0 0 0 1.06 0l7.857-7.856c.702-.702-.359-1.762-1.06-1.06l-7.326 7.325z" fill="#e31e26" opacity="1" data-original="#000000" class=""></path>
  </g>
</svg>
