<?xml version="1.0" encoding="UTF-8"?>
<svg xmlns="http://www.w3.org/2000/svg" xmlns:xlink="http://www.w3.org/1999/xlink" version="1.1" width="512" height="512" x="0" y="0" viewBox="0 0 64 64" style="enable-background:new 0 0 512 512" xml:space="preserve">
  <g>
    <path d="M53.105 12.91c-3.12-1.791-6.612-2.433-10.103-3.075a16.015 16.015 0 0 1 1.639-3.378 1.164 1.164 0 0 1 .923-.601c.828-.024 1.649.302 2.48.264 1.902 2.45 6.129.397 5.195-2.639-.385-1.47-2.73-2.423-3.64-.925-.924-.253-1.874.695-2.037 1.57-2.705-.472-4.199-.239-4.854 2.728a9.067 9.067 0 0 1-.764 2.793 20.136 20.136 0 0 0-8.046-.149 1.055 1.055 0 0 0-.21 1.922c-1.479 7.374.391 14.99-.059 22.462-1.7 1.043-2.92 2.942-4.252 4.406-3.75 4.36-7.264 8.919-10.57 13.622a.998.998 0 0 0 .375 1.51 3.974 3.974 0 0 1-.325.362 23.891 23.891 0 0 0 5.026 3.435c-.702 1.263-2.323 1.317-3.604 1.386-2.094.13-4.16.364-6.259.472.461-1.502-1.245-2.81-2.639-2.739-.759-.014-1.745.358-1.655 1.275a2.304 2.304 0 0 0-1.307 3.765 3.814 3.814 0 0 0 4.992-.198c1.653-.062 3.277-.29 4.924-.376a14.967 14.967 0 0 0 4.913-.727 7.058 7.058 0 0 0 2.373-2.037 29.392 29.392 0 0 0 22.95-.551c14.848-7.462 19.906-35.206 4.534-44.576zm-3.02-9.956a1.558 1.558 0 0 1 0 3.113 1.558 1.558 0 0 1 0-3.113zM11.457 61.4a1.923 1.923 0 0 1 0-3.843 1.778 1.778 0 0 1 1.83 1.594h.001a1.856 1.856 0 0 1-1.83 2.25zm47.014-20.57c-1.362 4.938-4.109 9.942-8.31 13.004-6.563 4.547-15.92 5.018-23.272 2.356a12.181 12.181 0 0 0 .977-2.032.84.84 0 0 0-1.222-.94 5.373 5.373 0 0 0-1.726 2.092 20.887 20.887 0 0 1-3.897-2.524 169.566 169.566 0 0 1 13.194-16.663c8.39-.566 16.863-.573 25.28-.324a40.032 40.032 0 0 1-1.024 5.032zm-23.145-6.425c.977-7.599-1.083-15.267.138-22.861a36.297 36.297 0 0 1 5.333.415 18.181 18.181 0 0 0-1.397 4c-.186.923 1.18 1.66 1.628.685a25.32 25.32 0 0 0 1.416-4.408 41.97 41.97 0 0 1 7.451 1.887c7.74 2.933 10.609 11.766 9.846 19.436a233.427 233.427 0 0 0-24.416.846z" fill="#fca311" opacity="1" data-original="#000000"></path>
    <path d="M17.991 46.016c3.754-4.415 6.86-9.333 10.671-13.675a.464.464 0 0 0 .08-.44c.739-.485.514-1.993.525-2.8.022-5.723.147-11.448.267-17.17-.038-1.271.777-6.726-.798-6.908a.916.916 0 0 0-.988-.695C6.446 5.543-6.477 30.503 8.751 47.043c3.977 4.514 6.076 3.562 9.24-1.027zm-1.252-1.251a19.426 19.426 0 0 1-2.514 2.993c-1.241.962-2.547-.868-3.357-1.701a22.376 22.376 0 0 1-1.704-1.999 92.147 92.147 0 0 0 10.286-2.464c-.903 1.058-1.817 2.106-2.71 3.17zM9.627 15.29a5.773 5.773 0 0 0 2.278-.306c2.08-.464 4.165-.91 6.271-1.234q2.126-.336 4.269-.55c1.2-.12 2.826.074 3.761-.8a.607.607 0 0 0-.12-.94c-1.017-.748-2.778-.285-3.944-.17a95.89 95.89 0 0 0-10.23 1.623c4.499-4.065 10.156-5.84 16.062-6.497-.619 3.481-.305 6.997-.45 10.5a124.451 124.451 0 0 0-21.33 4.203 22.295 22.295 0 0 1 3.433-5.829zm-4.105 7.726a.915.915 0 0 0 .624.072c3.644-.838 7.267-1.744 10.941-2.444 3.447-.704 6.941-1.101 10.417-1.611.002 1.615.047 3.228.112 4.84-3.975.566-7.879 1.67-11.834 2.391-3.768.78-7.6 1.447-11.288 2.566a24.12 24.12 0 0 1 1.028-5.814zm-1.057 7.408c3.837-.412 7.625-1.29 11.4-2.067 3.424-.798 8.493-1.559 11.837-2.459.097 1.47.135 2.948.192 4.417a7.233 7.233 0 0 0-2.724.247q-4.54.85-9.024 1.967c-3.668 1.032-7.49 1.728-10.987 3.264a23.45 23.45 0 0 1-.694-5.37zm1.09 6.787c3.7-.556 7.271-1.822 10.938-2.575 3.752-1.005 7.681-1.547 11.355-2.73-1.849 2.78-4.385 4.94-6.522 7.491a.945.945 0 0 0-.966-.265c-4.104 1.183-8.293 2.069-12.41 3.189a21.328 21.328 0 0 1-2.394-5.11zM56.672 5.512c1.09-.065 2.182-.047 3.272-.017a2.706 2.706 0 0 0 1.448-.148 1.013 1.013 0 0 0 0-1.733c-1.355-.525-3.263-.172-4.72-.118a1.008 1.008 0 0 0 0 2.016zM54.966 8.535a11.88 11.88 0 0 0 3.595.279.951.951 0 0 0 0-1.824 11.88 11.88 0 0 0-3.595.28.661.661 0 0 0 0 1.265zM5.49 58.465a5.955 5.955 0 0 0-3.07.161c-.985.242-.719 1.113-.112 1.263a5.787 5.787 0 0 0 3.182.339.902.902 0 0 0 0-1.763zM3.046 57.101c2.148-.136 4.282-.466 6.434-.585a.852.852 0 0 0 0-1.704c-2.506.145-5.236-.117-7.562.931a.674.674 0 0 0 .16 1.221 7.824 7.824 0 0 0 .968.137zM44.158 40.052a.903.903 0 0 0 0 1.805c2.901-.088 6.99.305 9.576.09a.786.786 0 0 0 .185-1.414 3.063 3.063 0 0 0-1.326-.286 61.604 61.604 0 0 0-8.435-.195zM52.682 43.965a7.274 7.274 0 0 0-2.454-.086c-.698.078-2.35-.018-2.027 1.088.22.436.768.44 1.188.484.66.065 1.322.024 1.984.028a2.748 2.748 0 0 0 1.31-.167.785.785 0 0 0 0-1.347zM46.522 28.747c-1.265-.127-1.042 2.165.235 1.735 2.986-.672 6.346.31 9.233-.588a.85.85 0 0 0 0-1.457c-3.054-.999-6.36.337-9.468.31zM54.041 24.275a16.378 16.378 0 0 0-4.357.363.787.787 0 0 0 .21 1.545c1.375-.17 2.763-.186 4.147-.22a.844.844 0 0 0 0-1.688z" fill="#fca311" opacity="1" data-original="#000000"></path>
  </g>
</svg>
